<?xml version="1.0" encoding="utf-8"?>
<svg viewBox="0 0 3000 3000" xmlns="http://www.w3.org/2000/svg">
  <g id="tailFur">
    <clipPath id="tailFurClipPath">
      <path d="M2843.8 1635s-3.6 27-26.7 75.5c-31.4-98.7-91-197.3-168.6-256-1.8-1.3-4.6-3.2-8.3-5.6-161.3-100.9-374.7-31.8-447.1 144.2l-6.7 16c40.7-31.8 96.3-51.8 96.3-51.8s-19.9 27.2-35.1 47.6c-47.1 63-78 149.5-54.1 228.9 7.5 24.9 26.4 49 50.3 71-121.3 19.7-207.2 143.9-207.2 143.9l-116 136.8 169.4 35.3 96.5 3.5c51.6 15.5 117.1 26.6 199.1 26.6 242.5 0 413.1-159 449.1-329.9 2.8-13.4 5.7-26.8 8.8-40.1 11.3-49.6 34.4-173.2.3-245.9z" fill="none"/>
    </clipPath>
    <clipPath id="tailFurClipPath2">
      <path d="M2282.7 1557.4s-19.9 27.2-35.1 47.6c-47.1 63-78 149.5-54.1 228.9 19.3 64.1 114.8 123.2 174.2 153q9.4 1.1 19.1 1.5a5 5 0 0 0-.4-1.4c-9.7-21.4 6.3-60.3 19-78 15.9-22.3 42.2-34.2 66.2-47.4s48.6-30.9 55.7-57.3l-5 57.7c37.9-18.6 69.3-49.7 89.3-86.9a198.4 198.4 0 0 0 18.5-49.1c-17.9-126-127-217.2-252.6-205.4-44.4 4.2-83.5 20.3-115.2 45.1 12.3-5.4 20.4-8.3 20.4-8.3z" fill="#f7bc56"/>
    </clipPath>
    <g clip-path="url(#tailFurClipPath)">
      <path fill="#f7bc56" d="M1904 1390.5h972.7v855.44H1904z"/>
      <path d="M2582.5 1806.5l49.3-49.8a25.3 25.3 0 0 1 31.2-3.9l21.8 13.2a25.3 25.3 0 0 1 12.1 19l6.4 59.4a25.3 25.3 0 0 1-3 15L2680 1896a25.3 25.3 0 0 1-29.6 12l-60.5-18.6a25.3 25.3 0 0 1-17.8-26.3l3.3-40.8a25.3 25.3 0 0 1 7.1-15.8zm189.4-37l-34.2 4.1a16.4 16.4 0 0 0-14.4 15.8l-1 42.1a16.4 16.4 0 0 0 7.6 14.2l31.4 19.9a16.4 16.4 0 0 0 25.1-12.9l3.8-66.1a16.4 16.4 0 0 0-18.3-17.1zm-79.1 192.3l-45.5-16.6a33.4 33.4 0 0 0-25.7 1.1l-57.4 26.8a33.4 33.4 0 0 0-13.6 11.6l-18.5 27.4c-16.8 24.8 5.1 57.5 34.5 51.4l117.6-24.5a33.4 33.4 0 0 0 25.1-22.8l4-13a33.4 33.4 0 0 0-20.5-41.4zm-175.6-40.4l9.2 23.2a28.7 28.7 0 0 1-2.4 25.9l-30.7 48.7a28.7 28.7 0 0 1-26 13.3l-47.7-2.9a28.7 28.7 0 0 1-19.5-9.3l-39.3-43.2a28.7 28.7 0 0 1-7.5-18.6l-.6-25.9a28.7 28.7 0 0 1 28.7-29.4h109.1a28.7 28.7 0 0 1 26.7 18.2zm381 9.2l9.2 23.2a28.7 28.7 0 0 1-2.4 25.9l-30.7 48.7a28.7 28.7 0 0 1-26 13.3l-47.7-2.9a28.7 28.7 0 0 1-19.5-9.3l-39.3-43.2a28.7 28.7 0 0 1-7.5-18.6l-.6-25.9a28.7 28.7 0 0 1 28.7-29.4h109.1a28.7 28.7 0 0 1 26.7 18.2zm-534 99.7l-26.2-44.7a21.1 21.1 0 0 0-19.3-10.4l-41.7 2.4a21.1 21.1 0 0 0-19.5 17.3l-4.8 27a21.1 21.1 0 0 0 16.4 24.3l72.7 15.3c17.7 3.8 31.6-15.4 22.4-31.2zm-29.7-132.1l-2.2 47.4a10.4 10.4 0 0 1-11.1 9.9h-2a10.4 10.4 0 0 1-9.2-7.2l-9.6-29.6a10.4 10.4 0 0 1-.1-6l6.4-22.8a10.4 10.4 0 0 1 16-5.7l7.3 5.1a10.4 10.4 0 0 1 4.5 8.9zm208.5 16.2l6.6 23.5a11.3 11.3 0 0 0 14 7.8l39.6-11.5a11.3 11.3 0 0 0 7.5-14.5 11.3 11.3 0 0 0-6.3-6.7l-38.7-16.3a11.3 11.3 0 0 0-10 .6l-7.5 4.3a11.3 11.3 0 0 0-5.2 12.8zM2404.2 2042a10.6 10.6 0 0 0-10.4 4.7c-2.5 3.9-5 9.1-4.5 13.4.8 5.9 40.8 13.5 61.7 17a10.6 10.6 0 0 0 12.4-10.5v-6.9a10.6 10.6 0 0 0-9.1-10.5zm296.9-151l-17 26.9a12.4 12.4 0 0 0-1.9 6.6v6.5a12.4 12.4 0 0 0 6.4 10.9l9.7 5.3a12.4 12.4 0 0 0 15-2.3l2.4-2.5a12.4 12.4 0 0 0 3.2-6.1l7.2-35.4a12.4 12.4 0 0 0-7.5-14l-2.3-.9a12.4 12.4 0 0 0-15.2 5zm-215.3-84.3l46.8 20.7a20.7 20.7 0 0 1 12.2 20.8l-1.3 14.7a20.7 20.7 0 0 1-10.7 16.3l-17 9.3a20.7 20.7 0 0 1-11.1 2.5l-51.1-2.9a20.7 20.7 0 0 1-17.1-30.5l22.6-41.9a20.7 20.7 0 0 1 26.7-9zM2213.1 1969l17.4 6.9a14.2 14.2 0 0 1 6 21.9l-24.6 31.9a14.2 14.2 0 0 1-10.3 5.5l-74.7 5.3a14.2 14.2 0 0 1-14.3-19.2l11.9-31.7a14.2 14.2 0 0 1 10.8-9l70-12.4a14.2 14.2 0 0 1 7.8.8z" fill="#765be8"/>
      <path d="M2298 1910.4l17.6 26.6a9.3 9.3 0 0 1-5.5 14.1l-45.3 11.2a9.3 9.3 0 0 1-5.2-.2l-34.9-11.6a9.3 9.3 0 0 0-3.2-.5l-61.2 1.7a9.3 9.3 0 0 1-6.3-16.3l14.8-12.6 44.6-38.3a9.3 9.3 0 0 1 9-1.7l70.8 23.9a9.3 9.3 0 0 1 4.8 3.7zm-65.1 161.9l-8.3 33.5a16.4 16.4 0 0 1-17.5 12.4l-41.9-4.2a16.4 16.4 0 0 1-13.2-9.3l-15.9-33.7a16.4 16.4 0 0 1 15.9-23.3l66 4.4a16.4 16.4 0 0 1 14.9 20.2zm-200.5 54.8c3.6 16.1 8 34.8 10.9 47.2a33.4 33.4 0 0 1-4.2 25.4l-33.7 53.7a33.4 33.4 0 0 1-13.2 12l-29.5 15c-26.7 13.6-56.4-12.2-46.7-40.5l38.8-113.7a33.4 33.4 0 0 1 25.8-22.1l13.4-2.4a33.4 33.4 0 0 1 38.4 25.4zm56.2-200l-21.9-12a28.7 28.7 0 0 0-26-.8l-52.1 24.5a28.7 28.7 0 0 0-16.4 24.1l-3 47.7a28.7 28.7 0 0 0 6.8 20.5l38 44.3a28.7 28.7 0 0 0 17.6 9.7l25.6 3.8a28.7 28.7 0 0 0 32.7-24.8l13.5-108.2a28.7 28.7 0 0 0-14.8-28.8zm-27.7 354.5l-22.5-9.4a11.3 11.3 0 0 1-6-14.9l16.3-37.9a11.3 11.3 0 0 1 15.4-5.7 11.3 11.3 0 0 1 5.9 7.1l11.5 40.4a11.3 11.3 0 0 1-1.8 9.9l-5.2 6.9a11.3 11.3 0 0 1-13.6 3.6zm42.7-154l-28.8 13.6a12.4 12.4 0 0 1-6.8 1.1l-6.5-.8a12.4 12.4 0 0 1-10-7.7l-4.1-10.3a12.4 12.4 0 0 1 4.1-14.6l2.8-2.1a12.4 12.4 0 0 1 6.5-2.4l36-2.8a12.4 12.4 0 0 1 13 9.2l.6 2.4a12.4 12.4 0 0 1-6.8 14.4zm268.8-43.1l-1.9 2.3a16.9 16.9 0 0 0 2.5 24l49.8 39.3a16.9 16.9 0 0 0 7.5 3.4l33.1 5.9a16.9 16.9 0 0 0 18.7-22.6l-13.3-34.6a16.9 16.9 0 0 0-12.6-10.5l-67.6-13a16.9 16.9 0 0 0-16.2 5.8zm-120.2-5.9l-7.6 25.3a15.7 15.7 0 0 0 8.3 18.7l51.8 24.6a15.7 15.7 0 0 0 20.5-6.5l14.5-25.9a15.7 15.7 0 0 0 1.6-11.2l-3.6-15.6a15.7 15.7 0 0 0-13-12.1l-55.2-8.4a15.7 15.7 0 0 0-17.3 11.1z" fill="#765be8"/>
      <path d="M2282.7 1557.4s-19.9 27.2-35.1 47.6c-47.1 63-78 149.5-54.1 228.9 19.3 64.1 114.8 123.2 174.2 153q9.4 1.1 19.1 1.5a5 5 0 0 0-.4-1.4c-9.7-21.4 6.3-60.3 19-78 15.9-22.3 42.2-34.2 66.2-47.4s48.6-30.9 55.7-57.3l-5 57.7c37.9-18.6 69.3-49.7 89.3-86.9a198.4 198.4 0 0 0 18.5-49.1c-17.9-126-127-217.2-252.6-205.4-44.4 4.2-83.5 20.3-115.2 45.1 12.3-5.4 20.4-8.3 20.4-8.3z" fill="#f7bc56"/>
      <g clip-path="url(#tailFurClipPath2)" fill="#765be8">
        <path d="M2299.5 2145l-25.6 21.4a27.6 27.6 0 0 1-34.2 1l-132-98.3a27.6 27.6 0 0 1-10.2-29.1l103.2-42.1a39.4 39.4 0 0 1 45.5 11.7l53.3 65.8a27.6 27.6 0 0 1 6 14.1l3.7 31.2a27.6 27.6 0 0 1-9.7 24.3zm-149.8-160.5c6.9-2.1 23.7-5.2 37.6-7.5a20.8 20.8 0 0 0 17-24.3l-6.9-37.5s-40.6-50.5-44.8-48.8-33.9 31.3-36.1 35.7 33.2 82.4 33.2 82.4zm65.9-353l15-11.1a14.2 14.2 0 0 1 21.7 6.4l14.1 37.7a14.2 14.2 0 0 1-.7 11.6l-35 66.2a14.2 14.2 0 0 1-23.8 2l-20.6-26.9a14.2 14.2 0 0 1-1.9-13.9l26.4-65.9a14.2 14.2 0 0 1 4.8-6.1z"/>
      </g>
      <path d="M2487.7 2053.3l-9.8 21.6a10.6 10.6 0 0 0 1.5 11.2l7.4 8.9a10.6 10.6 0 0 0 16.5-.2l11.9-15a10.6 10.6 0 0 0 .4-12.7 115 115 0 0 1-8.7-14.2 10.6 10.6 0 0 0-12.6-5.4 10.6 10.6 0 0 0-6.6 5.8zm-3.4-474.9c12.4 14.6 29 33.4 39.6 45.4a23.6 23.6 0 0 0 25.6 6.5l53.4-19.1a23.6 23.6 0 0 0 10-6.9l29.8-34.9a23.6 23.6 0 0 0-7.1-36.2l-59.1-30.6a23.6 23.6 0 0 0-23.3.9l-63.4 39.6a23.6 23.6 0 0 0-5.5 35.3zm-110.8-176.2l4.8 50.5a31.8 31.8 0 0 0 11 21.2l49.6 42.4a27.5 27.5 0 0 0 31.5 3l26.6-15.3a49.6 49.6 0 0 0 24.9-39.9l5.6-87.4-155.3 20zm183.4 17.5c.2 14.4.4 31.7.5 42.4a15.4 15.4 0 0 0 9.4 14l38.1 16.2a15.4 15.4 0 0 0 14.1-1l37.4-22.9a15.4 15.4 0 0 0-1.5-27.1l-76-35.8a15.4 15.4 0 0 0-22 14.2zm131.6 53.9l-35.6 18.9a13.4 13.4 0 0 0-4.3 20l7.2 9.4a13.4 13.4 0 0 0 14.7 4.6l39.5-12.8a13.4 13.4 0 0 0 6.8-20.6l-11.1-15.6a13.4 13.4 0 0 0-17.2-3.9zm-296.4 31.2l41.2 45.9a33.4 33.4 0 0 1-.3 44.9l-49.8 54.1a33.4 33.4 0 0 1-24 10.8l-36.1.6a33.4 33.4 0 0 1-31.1-46.9l44.7-100.7a33.4 33.4 0 0 1 55.4-8.7zm-165.2 41.2l51.8-9.9a21 21 0 0 0 10.7-5.6l52-50.9a21 21 0 0 0 6.3-16.2l-1.7-29.6a21 21 0 0 0-30.1-17.7l-96.7 47.1a21 21 0 0 0-11.6 16.3l-5.2 43.3a21 21 0 0 0 24.5 23.2zm486 169.4l-8.6 11.7a9.1 9.1 0 0 0 .3 11.1l5.8 7.2a9.1 9.1 0 0 0 9.5 3.1l15.1-4.2a9.1 9.1 0 0 0 5.8-12.7l-7.5-16a9.1 9.1 0 0 0-10.6-5l-4.8 1.3a9.1 9.1 0 0 0-5 3.5zM2449 1608.2l-16.5 21.4a13 13 0 0 0 5.2 19.9l16.7 7a13 13 0 0 0 11.2-.5l19.4-10.4a13 13 0 0 0 2.7-21l-19.6-18a13 13 0 0 0-19.1 1.6zm290.8-65.9l1 54a16.6 16.6 0 0 0 2.4 8.3l28.7 47.4a16.6 16.6 0 0 0 30.2-4.4l1.3-5.1a16.6 16.6 0 0 0 .4-6.1l-11.3-96.3a16.6 16.6 0 0 0-16.5-14.6h-19.7a16.6 16.6 0 0 0-16.5 16.8z" fill="#765be8"/>
      <path d="M2085.8 2241.9c1.8-21 17.2-39 35.9-48.6s40.3-12 61.3-12.3c62.5-.7 123.9 16.4 186.3 20 98.5 5.7 198.6-23.4 278.7-80.9 25.1-18 49.7-39.4 80.1-44.7 27.5-4.8 55.9 4.6 79.6 19.4 22.2 13.8 42 33.3 50.6 58 12 34.3.6 72.9-19.3 103.2-24.5 37.2-61.2 65.4-101.3 84.8s-83.9 30.3-127.8 38a946.4 946.4 0 0 1-339.5-2.4c-17.2-3.3-34.8-7.2-49.6-16.6s-26.5-25.5-26.1-43" fill="#8be179"/>
      <path d="M2650.9 1607.8a14.9 14.9 0 0 0 5.1 19l53.4 35.6a14.9 14.9 0 0 0 10.5 2.3l11.4-1.7a14.9 14.9 0 0 0 10.3-22.9l-25.7-39.9a14.9 14.9 0 0 0-8.8-6.4l-16.7-4.3a34.4 34.4 0 0 0-39.5 18.3zm66.8-86.2c-11.4 5.2-31.6 14.6-41.8 19.4a12.9 12.9 0 0 0-7.3 9.9l-1.3 9.4a12.9 12.9 0 0 0 10.4 14.4l28.7 5.3a12.9 12.9 0 0 0 14.2-7.7l14.2-34.1a12.9 12.9 0 0 0-2.6-13.9 12.9 12.9 0 0 0-14.5-2.7zm-314.6 138.1l-14.1 15.5a9.3 9.3 0 0 0-.9 11.3l6.2 9.5a9.3 9.3 0 0 0 12.5 2.9l27.2-16.3a9.3 9.3 0 0 0-1-16.4l-19.2-8.7a9.3 9.3 0 0 0-10.7 2.2zm-118.8 35.3l-6.9 18.3a15.5 15.5 0 0 0 10 20.4l16 4.9a15.5 15.5 0 0 0 16.1-4.5l14.7-16.5a15.5 15.5 0 0 0 3.1-15.4l-2.2-6.4a15.5 15.5 0 0 0-14.5-10.5l-21.5-.3a15.5 15.5 0 0 0-14.8 10z" fill="#765be8"/>
    </g>
    <g id="tailShadow">
      <defs>
        <clipPath id="tailShadowClipPath">
          <path d="M2843.8 1635s-3.6 27-26.7 75.5c-31.4-98.7-91-197.3-168.6-256-1.8-1.3-4.6-3.2-8.3-5.6-161.3-100.9-374.7-31.8-447.1 144.2l-6.7 16c40.7-31.8 96.3-51.8 96.3-51.8s-19.9 27.2-35.1 47.6c-47.1 63-78 149.5-54.1 228.9 7.5 24.9 26.4 49 50.3 71-121.3 19.7-207.2 143.9-207.2 143.9l-116 136.8 169.4 35.3 96.5 3.5c51.6 15.5 117.1 26.6 199.1 26.6 242.5 0 413.1-159 449.1-329.9 2.8-13.4 5.7-26.8 8.8-40.1 11.3-49.6 34.4-173.2.3-245.9z" fill="none"/>
        </clipPath>
        <linearGradient id="tailShadowGradient" x1="2539.72" y1="1775.39" x2="2539.72" y2="1283.42" gradientUnits="userSpaceOnUse">
          <stop offset="0" stop-color="#fff" stop-opacity="0"/>
          <stop offset="0.72" stop-color="#fff"/>
        </linearGradient>
      </defs>
      <g style="isolation:isolate">
        <g clip-path="url(#tailShadowClipPath)">
          <path fill="none" d="M2841.2 2267.2l-937.3-21.3 265.6-916 742.4 60-70.7 877.3z"/>
          <path d="M2010.4 2076.9s112.9-156 137.5-146.1c-100.8 117.4-26.2 185.8 23 200.3 199.6 59 530.9 111 665.9-164.6l-219 299.4-649.5-3z" fill="#7f7f7f" opacity=".25" style="mix-blend-mode:multiply"/>
          <path d="M2238 1890.9c-25.5 5.8-25 6.1-25 6.1 3.6 3.7 35.6 103.9 139.1 118.9a6.9 6.9 0 0 0 7.3-9.5c-2.3-5.3-4.4-13-5.7-24.1m275.1-251.2s-19.6 101.4-52.6 138.4a114.9 114.9 0 0 1-69.7 37.5 3.6 3.6 0 0 1-4-4.3c2.3-13-2.2-28.3-2.2-28.3s-121.7 64.6-113.7 115.6c0 0-16-71.9 67.7-119.2s69.7-65.3 69.7-65.3l-1.7 54.7c56.8-11.1 106.5-129.1 106.5-129.1z" fill="#7f7f7f" opacity=".3" style="mix-blend-mode:multiply"/>
          <path d="M2262.3 1500s151.6-146.4 378 7.5c93 66.9 144 267.9 144 267.9l32.7-64.9-59.7-377.6-233.3-49.5-150.6 20.2z" opacity=".5" fill="url(#tailShadowGradient)" style="mix-blend-mode:overlay"/>
        </g>
      </g>
    </g>
  </g>
  <g id="tail">
    <g fill="none" stroke="#31323d" stroke-linecap="round" stroke-width="12.5">
      <path d="M2817.2 1710.6c-31.3-98.7-91-197.4-168.7-256.1-1.8-1.3-4.6-3.2-8.3-5.6-161.3-100.9-374.7-31.8-447.1 144.2l-6.7 16c40.7-31.8 96.3-51.8 96.3-51.8s-19.9 27.2-35.1 47.6c-47.1 63-78 149.5-54.1 228.9 20.6 68.7 128.7 131.6 186.3 158.8 4.1 2 8.5-1.6 6.6-5.7-9.7-21.4 6.3-60.3 19-78 15.9-22.3 42.2-34.2 66.2-47.4s48.6-30.9 55.7-57.3l-5 57.7c37.9-18.6 69.3-49.7 89.3-86.9a198.2 198.2 0 0 0 18.9-50.6" stroke-linejoin="round"/>
      <path d="M2036.6 2048.8s85.9-124.2 207.2-143.9" stroke-miterlimit="10"/>
      <path d="M2186.4 2224.4c51.6 15.5 117.1 26.6 199.1 26.6 242.5 0 413.1-159 449.1-329.9 2.8-13.4 5.7-26.8 8.8-40.1 11.5-49.7 34.6-173.3.4-246 0 0-4.8 35.4-37.9 97.8" stroke-linejoin="round"/>
    </g>
  </g>
  <g id="bodyFur">
    <clipPath id="furClipPath">
      <path fill="none" d="M1211.5 866.4a240.2 240.2 0 0 1 129.5-37.8h158.2A240.5 240.5 0 0 1 1607 854c24.5-19.2 89.4-68.2 129.3-66.3a15 15 0 0 1 12.1 22.9L1684 914.8a240.5 240.5 0 0 1 47.2 89.2l295.1 960.1a248.1 248.1 0 0 1-6.4 155.9l.8.3c47.5 13.8 136.8 46.1 179.8 75.5 26.1 17.8 10.1 55.9-23.2 55.3l-261.6-5a246.8 246.8 0 0 1-65.3 28c2.8 13.3 12.3 21 28.1 21.9 18.2 1 23.7 18.6 24.5 25.5 2.3 21.2-5.8 34.7-27.9 36.9l-91.8 3a53.5 53.5 0 0 1-22.3-4 71.6 71.6 0 0 1-43.1-54.3l-3.5-20.7h-533.5l-5 26.6a71.4 71.4 0 0 1-8.8 23.9c-13.4 22.8-38.9 35.7-65.3 34.1l-84.3-5c-21.4-1.6-31.9-18.9-27.2-40.4 2.5-11.1 15.1-20.3 30.6-21.1 23.3-1.2 30.3-20.2 29.9-43.6v-3.3q-7.1-3.7-13.9-7.9L770 2251c-33.3.6-49.7-38.2-23.2-55.3 54-34.9 146.4-69.2 184.5-78.3l.6-.2a248.9 248.9 0 0 1-12.6-117.6l182.9-961.4a240.3 240.3 0 0 1 33-93.8l-60.5-108.1a15 15 0 0 1 .9-16c24.9-34.9 89.3 8.5 130.8 42.6z"/>
    </clipPath>
    <g clip-path="url(#furClipPath)">
      <defs>
        <linearGradient id="furLinearGradient" x1="1713.27" x2="1713.27" y1="794.55" y2="927.94" gradientUnits="userSpaceOnUse">
          <stop offset="0" stop-color="gray"/>
          <stop offset="0.14" stop-color="#797979"/>
          <stop offset="0.35" stop-color="#646464"/>
          <stop offset="0.6" stop-color="#434343"/>
          <stop offset="0.89" stop-color="#141414"/>
          <stop offset="1"/>
        </linearGradient>
        <linearGradient id="furLinearGradient2" x1="1041.15" x2="1175.15" y1="888.73" y2="888.73" gradientUnits="userSpaceOnUse">
          <stop offset="0" stop-color="gray"/>
          <stop offset="0.14" stop-color="#797979"/>
          <stop offset="0.35" stop-color="#646464"/>
          <stop offset="0.6" stop-color="#434343"/>
          <stop offset="0.89" stop-color="#141414"/>
          <stop offset="1"/>
        </linearGradient>
      </defs>
      <path fill="#f7bc56" d="M724.1 562.8h1509.4v1824.09H724.1z"/>
      <path fill="url(#furLinearGradient)" d="M1781.2 799.5s-38-26-102 41.5l-33.7 40.5 56.1 46.5z" opacity=".4" style="mix-blend-mode:multiply"/>
      <path fill="url(#furLinearGradient2)" d="M1041.2 839.5s27.5-18.9 71.6-.8a122.7 122.7 0 0 1 47.5 35.2l14.9 17.9-37.7 54.9z" opacity=".4" style="mix-blend-mode:multiply"/>
      <path fill="#8be179" d="M1181.5 2294.7c-5.6-14.6 3.2-56.8 20.7-141.2 10.5-50.5 18.8-83.4 24-105 38.8-161.9 50.8-387.1 250.3-384.1 172.9 2.6 161 180.7 194.1 366.3 6.9 38.6 13.7 77.2 20.6 115.8 4.1 22.7 8 45.3 12 68 9.4 53.2 9.6 54.1 9.4 56.2-9.8 78.5-486.7 140.6-531.1 24z"/>
      <path fill="#765be8" d="M982.9 1602.7l88.7-38.4a33.4 33.4 0 0 1 38.2 8.4c15.5 17.3 37.1 47.1 47.4 87.5a33.3 33.3 0 0 1 0 16.3 285.7 285.7 0 0 1-23 60.6 33.3 33.3 0 0 1-36.7 17.1l-74.4-16.3a33.4 33.4 0 0 1-23-18.3l-34.1-71.9a33.4 33.4 0 0 1 16.9-45zm66.2 175.4c16.3-1.9 41.7-1.8 67.8 9.8a21.8 21.8 0 0 1 12.2 14.4c3.9 14.6 9.9 43.7 6.1 72.4a21.6 21.6 0 0 1-11 16c-12.1 6.8-33.1 17.8-40.4 17.8s-37.4-26.4-51.7-39.6a21.8 21.8 0 0 1-6.9-17.9l4.6-53.1a21.9 21.9 0 0 1 19.3-19.8zm-90.8 95.9l32-26.8a18.8 18.8 0 0 0 6.4-10.9l8-42.3a18.8 18.8 0 0 0-2.7-13.8l-19.8-30.3c-9.2-14.1-30.8-9.9-34.2 6.5l-20.2 99.4c-3.6 17.4 16.9 29.6 30.5 18.2zm240.6-201.1l47-21.9a23.1 23.1 0 0 1 31.9 14.1c3.2 10.5 5.2 25.5 3.3 46.4-3.2 35-48.9 46.5-81.8 50.3a23.2 23.2 0 0 1-25-29l12-44.9a23.1 23.1 0 0 1 12.6-15zm-40 120.9l2.9 30.8a9.7 9.7 0 0 0 2.7 5.8c3.9 4.1 12.8 11.1 27.3 10.6a9.7 9.7 0 0 0 8.9-6.7l10.9-34.1a9.7 9.7 0 0 0-7.1-12.4c-10.1-2.2-25.4-5-36.3-4.5a9.7 9.7 0 0 0-9.3 10.5zm8.4 57.7h15.8a9.1 9.1 0 0 1 8.6 5.9l2.8 7.4c.6 1.4.6 4.8.6 8.3a9.1 9.1 0 0 1-10 8.9l-18.6-1.7a9.1 9.1 0 0 1-8.3-9.1v-10.5a9.1 9.1 0 0 1 9.1-9.2zm-280.4 155.3s35.9-34.3 67.5-53.5a22.9 22.9 0 0 1 34.7 18.8c.7 21 3.3 46.6 11 56.5l24 34.9-29.7 33a27.5 27.5 0 0 1-29.6 7.6l-66-23.2zm150.2 94l-19.3 17.4a36.5 36.5 0 0 0-12 26.3l-1.6 77.4 42.5 29.6-2.9-107.4zm-101.6 16.6l24.9 8.9a36.5 36.5 0 0 1 24 30.9l4.8 50.6-46.8-65.8zm982.9-520.2c-17.7-5.7-43.3-13.2-64.8-17.2a39.8 39.8 0 0 0-41.4 18.7c-10.9 18.1-25 45-29.6 69.8a39.6 39.6 0 0 0 5.5 28.3c9.5 15.2 27.2 42.4 42.9 61.7a39.8 39.8 0 0 0 49.1 10.2c20.2-10.4 48.6-26.3 66.5-41.9a39.6 39.6 0 0 0 12.6-38.8l-14.1-61.8a39.8 39.8 0 0 0-26.7-29zm37.3 163.8c-23.3 12.3-54.1 30.2-72.2 47.7a29.7 29.7 0 0 0-8.5 27.6l11.2 52.4a29.7 29.7 0 0 0 8.2 15l35.1 34.5a29.7 29.7 0 0 0 33.7 5.6c17-8.2 41.7-21 57.9-34.1a29.6 29.6 0 0 0 9.4-32.3l-32.7-99.4a29.7 29.7 0 0 0-42.1-17zm-198.4-37.7l59.4 83.6a13.7 13.7 0 0 1 2.5 7.9 13.7 13.7 0 0 1-5.2 10.7l-23.9 19a13.7 13.7 0 0 1-11.3 2.7c-13.4-2.7-43.5-10.6-49.6-26.8l-20.3-56.5a13.7 13.7 0 0 1 2.5-13.6l24.3-28.2a13.7 13.7 0 0 1 21.6 1.2zm90.8 121.5l12.9 35.3a9.9 9.9 0 0 1-.7 8.3l-13.2 23.6a9.9 9.9 0 0 1-15.8 2l-29.8-30.7a9.9 9.9 0 0 1-.5-13.2l20.5-24.9a9.9 9.9 0 0 1 4.5-3.1l9.5-3.2a9.9 9.9 0 0 1 12.6 5.9zm5.3 340.8l15.2-1.6a56.8 56.8 0 0 1 32 5.9l53.4 27.3-63.4 42.3-40.1 14.5zm182.4-195.5l-43.6 12.5a16.7 16.7 0 0 0-12.1 16v4.2a16.7 16.7 0 0 0 8.3 14.4l41.7 24.2zm-8.5 106.7l-42.6-25.8a29.3 29.3 0 0 0-31.4.7l-29 19.3a29.3 29.3 0 0 0-11.7 15.7l-6.9 22.3a29.3 29.3 0 0 0 11.1 32.6l51.5 36.2 42.4-48.4zM1255.1 972.3l-140.7 131.3a43.3 43.3 0 0 1-68-11.7l-115.1-222a43.3 43.3 0 0 1 7-49.7l73.5-77.9a43.3 43.3 0 0 1 49.9-9.5L1218 806a43.3 43.3 0 0 1 23.4 27.9l25.9 95.4a43.3 43.3 0 0 1-12.2 43zm336.1-104l-9.7 25.4a15.3 15.3 0 0 0 2.6 15.4l17.3 20.4a15.3 15.3 0 0 0 21.9 1.5l25.1-22.5a15.3 15.3 0 0 0-1.3-23.9l-32.6-23.2a15.3 15.3 0 0 0-23.3 6.9zm-305.8-178l-36.8 53.1a21.9 21.9 0 0 0-2 21.3l37.4 84.9a21.9 21.9 0 0 0 14 12.2l45.2 12.8a21.9 21.9 0 0 0 19.1-3.5l15.9-11.9a21.9 21.9 0 0 0 8.2-12.8l14.2-64.4a21.9 21.9 0 0 0-6-20.3l-75.8-74.5a21.9 21.9 0 0 0-33.4 3.1zm222.1-2.3l-68.6 127a21.9 21.9 0 0 0-2.5 8.1l-4.5 42.4a21.9 21.9 0 0 0 6.2 17.7l25.2 25.3a21.9 21.9 0 0 0 23.6 4.9l56.5-22.4a21.9 21.9 0 0 0 13.2-15.4l33.8-147.7a21.9 21.9 0 0 0-10.4-23.8l-42.6-24.6a21.9 21.9 0 0 0-29.9 8.5zm56.5 233.6l9.2 17.1a15.3 15.3 0 0 1-6.8 21.1l-18.2 8.8a15.3 15.3 0 0 1-16.3-1.9l-18.3-14.9a15.3 15.3 0 0 1 3.9-26.1l27.3-11.1a15.3 15.3 0 0 1 19.2 7z"/>
      <path fill="#765be8" d="M1591.2 851.2l30.7 5.3 65.2 62.1 63.5 90.5 66.1-261.8-69.9-37.2-124.9 77.6-30.7 63.5"/>
      <path fill="#765be8" d="M1687.1 918.6l-46 31.2a38.2 38.2 0 0 0-23.9 35.4v40.3a38.2 38.2 0 0 0 21.5 34.3l74.6 36.1a57 57 0 0 0 68.8-15l-1-25.5-30.6-46.4zm-378.9-24.8l25 6.5a13.4 13.4 0 0 1 9.8 15.6l-5.6 27.7a13.4 13.4 0 0 1-15.2 10.6l-19.4-3a13.4 13.4 0 0 1-11.4-13.2v-31.2a13.4 13.4 0 0 1 16.8-13zm468.8 714.4l-22.3 61.6a34 34 0 0 1-8.8 13.3l-17.7 16.4a34 34 0 0 1-44.4 1.6l-39.7-31.8a34 34 0 0 1-11.9-34l11.6-51.3a34 34 0 0 1 30.1-26.3l51.7-4.6a34 34 0 0 1 20.3 4.6l16.4 9.7a34 34 0 0 1 14.7 40.8zm-4.7-51.1l25.8 15.2a11 11 0 0 0 13.3-1.7l10.1-10a11 11 0 0 0-3-17.7l-27.2-13.1a11 11 0 0 0-12.2 1.8l-8.6 7.9a11 11 0 0 0 1.8 17.6zm-109.4 156.3l21.6 17a8.8 8.8 0 0 1 3.1 4.6l17.1 64.4a8.8 8.8 0 0 1-11.1 10.6l-22-7a8.8 8.8 0 0 1-5.9-6.4l-16.8-74.4a8.8 8.8 0 0 1 14-8.8zM1164 1545.5a24.5 24.5 0 0 0-15.8 34c12.7 27.3 32.3 66.3 42 69.3s48.1-9.7 69.2-17.6a24.5 24.5 0 0 0 15.8-21.3l4.3-62.1a24.5 24.5 0 0 0-30.9-25.4zm57.5-774.7l-24.7 48.7 90.7 18.5-11.8-59.8-54.2-7.4m381.3-16.2s-50.5 24.6-48.6 27 36.9 43.1 36.9 43.1l5.3-7.3z"/>
    </g>
  </g>
  <g id="shadow">
    <defs>
      <clipPath id="shadowClipPath">
        <path fill="none" d="M1211.5 866.4a240.2 240.2 0 0 1 129.5-37.8h158.2A240.5 240.5 0 0 1 1607 854c24.5-19.2 89.4-68.2 129.3-66.3a15 15 0 0 1 12.1 22.9L1684 914.8a240.5 240.5 0 0 1 47.2 89.2l295.1 960.1a248.1 248.1 0 0 1-6.4 155.9l.8.3c47.5 13.8 136.8 46.1 179.8 75.5 26.1 17.8 10.1 55.9-23.2 55.3l-261.6-5a246.8 246.8 0 0 1-65.3 28c2.8 13.3 12.3 21 28.1 21.9 18.2 1 23.7 18.6 24.5 25.5 2.3 21.2-5.8 34.7-27.9 36.9l-91.8 3a53.5 53.5 0 0 1-22.3-4 71.6 71.6 0 0 1-43.1-54.3l-3.5-20.7h-533.5l-5 26.6a71.4 71.4 0 0 1-8.8 23.9c-13.4 22.8-38.9 35.7-65.3 34.1l-84.3-5c-21.4-1.6-31.9-18.9-27.2-40.4 2.5-11.1 15.1-20.3 30.6-21.1 23.3-1.2 30.3-20.2 29.9-43.6v-3.3q-7.1-3.7-13.9-7.9L770 2251c-33.3.6-49.7-38.2-23.2-55.3 54-34.9 146.4-69.2 184.5-78.3l.6-.2a248.9 248.9 0 0 1-12.6-117.6l182.9-961.4a240.3 240.3 0 0 1 33-93.8l-60.5-108.1a15 15 0 0 1 .9-16c24.9-34.9 89.3 8.5 130.8 42.6z"/>
      </clipPath>
      <linearGradient id="shadowLinearGradient" x1="1180.91" x2="1714.46" y1="2153.98" y2="2153.98" gradientUnits="userSpaceOnUse">
        <stop offset="0" stop-color="gray"/>
        <stop offset="0.27" stop-color="#7d7d7d"/>
        <stop offset="0.46" stop-color="#747474"/>
        <stop offset="0.64" stop-color="#646464"/>
        <stop offset="0.8" stop-color="#4d4d4d"/>
        <stop offset="0.95" stop-color="#303030"/>
        <stop offset="1" stop-color="#242424"/>
      </linearGradient>
      <linearGradient id="shadowLinearGradient2" x1="1713.27" x2="1713.27" y1="794.55" y2="927.94" gradientUnits="userSpaceOnUse">
        <stop offset="0" stop-color="gray"/>
        <stop offset="0.14" stop-color="#797979"/>
        <stop offset="0.35" stop-color="#646464"/>
        <stop offset="0.6" stop-color="#434343"/>
        <stop offset="0.89" stop-color="#141414"/>
        <stop offset="1"/>
      </linearGradient>
      <linearGradient id="shadowLinearGradient3" x1="1028.58" x2="1028.58" y1="855.47" y2="2254.41" gradientUnits="userSpaceOnUse">
        <stop offset="0" stop-color="gray"/>
        <stop offset="0.27" stop-color="#7d7d7d"/>
        <stop offset="0.46" stop-color="#747474"/>
        <stop offset="0.64" stop-color="#646464"/>
        <stop offset="0.8" stop-color="#4d4d4d"/>
        <stop offset="0.95" stop-color="#303030"/>
        <stop offset="1" stop-color="#242424"/>
      </linearGradient>
      <linearGradient id="shadowLinearGradient4" x1="1971.82" x2="1971.82" y1="1970.17" y2="2305.13" gradientUnits="userSpaceOnUse">
        <stop offset="0" stop-color="gray"/>
        <stop offset="0.27" stop-color="#7d7d7d"/>
        <stop offset="0.46" stop-color="#747474"/>
        <stop offset="0.64" stop-color="#646464"/>
        <stop offset="0.8" stop-color="#4d4d4d"/>
        <stop offset="0.95" stop-color="#303030"/>
        <stop offset="1" stop-color="#242424"/>
      </linearGradient>
      <linearGradient id="shadowLinearGradient5" x1="1041.15" x2="1175.15" y1="888.73" y2="888.73" gradientUnits="userSpaceOnUse">
        <stop offset="0" stop-color="gray"/>
        <stop offset="0.14" stop-color="#797979"/>
        <stop offset="0.35" stop-color="#646464"/>
        <stop offset="0.6" stop-color="#434343"/>
        <stop offset="0.89" stop-color="#141414"/>
        <stop offset="1"/>
      </linearGradient>
    </defs>
    <g clip-path="url(#shadowClipPath)" style="mix-blend-mode:multiply">
      <path fill="url(#shadowLinearGradient)" d="M1213.2 2110.7c-22.2 91.8 60.8 117.5 83.2 119.2 41.2 3.1 203.6 5.6 287.7-7.9 43.8-7 109.2-65.4 87.3-196.3l43 256.8h-533.5z" opacity=".2"/>
      <path fill="url(#shadowLinearGradient3)" d="M1233.2 855.5c-66 66-73.4 124.2-101.7 248-48.7 214.1-107.5 671.9-126.3 823.4a910.2 910.2 0 0 0-6.8 98.4v3.4c23.5 26 47.6 88.8 52.6 176.8l1.3 49s-31.3-.8-81-.8c-62 0-110.8-111.7-79.2-278.2 28.4-149.5-68-915.5-68-915.5l282.1-44.3s16-102.2 127-160.2z" opacity=".2"/>
      <path fill="url(#shadowLinearGradient4)" d="M1854.3 2157.4s29.9-91.4 66.3-124.9c-39.4 75 14.1 92.7 28.1 87.7 53.7-19.2 75-66.7 79.2-150l65.3 116.3s-55 256-204 214l-38.7-18.1z" opacity=".2"/>
      <path fill="url(#shadowLinearGradient2)" d="M1781.2 799.5s-38-26-102 41.5l-33.7 40.5 56.1 46.5z" opacity=".4" style="mix-blend-mode:multiply"/>
      <path fill="url(#shadowLinearGradient5)" d="M1041.2 839.5s27.5-18.9 71.6-.8a122.7 122.7 0 0 1 47.5 35.2l14.9 17.9-37.7 54.9z" opacity=".4" style="mix-blend-mode:multiply"/>
    </g>
  </g>
  <g id="highlight">
    <defs>
      <clipPath id="highlightClipPath">
        <path fill="none" d="M1211.5 866.4a240.2 240.2 0 0 1 129.5-37.8h158.2A240.5 240.5 0 0 1 1607 854c24.5-19.2 89.4-68.2 129.3-66.3a15 15 0 0 1 12.1 22.9L1684 914.8a240.5 240.5 0 0 1 47.2 89.2l295.1 960.1a248.1 248.1 0 0 1-6.4 155.9l.8.3c47.5 13.8 136.8 46.1 179.8 75.5 26.1 17.8 10.1 55.9-23.2 55.3l-261.6-5a246.8 246.8 0 0 1-65.3 28c2.8 13.3 12.3 21 28.1 21.9 18.2 1 23.7 18.6 24.5 25.5 2.3 21.2-5.8 34.7-27.9 36.9l-91.8 3a53.5 53.5 0 0 1-22.3-4 71.6 71.6 0 0 1-43.1-54.3l-3.5-20.7h-533.5l-5 26.6a71.4 71.4 0 0 1-8.8 23.9c-13.4 22.8-38.9 35.7-65.3 34.1l-84.3-5c-21.4-1.6-31.9-18.9-27.2-40.4 2.5-11.1 15.1-20.3 30.6-21.1 23.3-1.2 30.3-20.2 29.9-43.6v-3.3q-7.1-3.7-13.9-7.9L770 2251c-33.3.6-49.7-38.2-23.2-55.3 54-34.9 146.4-69.2 184.5-78.3l.6-.2a248.9 248.9 0 0 1-12.6-117.6l182.9-961.4a240.3 240.3 0 0 1 33-93.8l-60.5-108.1a15 15 0 0 1 .9-16c24.9-34.9 89.3 8.5 130.8 42.6z"/>
      </clipPath>
      <linearGradient id="highlightLinearGradient" x1="1844.99" x2="1844.99" y1="2256.39" y2="835.98" gradientUnits="userSpaceOnUse">
        <stop offset="0" stop-color="#fff" stop-opacity="0"/>
        <stop offset="0.72" stop-color="#fff"/>
      </linearGradient>
    </defs>
    <g clip-path="url(#highlightClipPath)" opacity=".2" style="mix-blend-mode:overlay">
      <path fill="url(#highlightLinearGradient)" d="M1547.8 836.6s29 33.5 51 64.8 44.1 86.3 65.6 181c58.9 258.7 229.4 683.2 275.5 888s-51.2 286-51.2 286l61.1-35.5s63-74.8 72.5-107.6c20.8-71.9 139-33 117.2-147.7-31.7-166.5-305.7-970.5-305.7-970.5s-123.4-29.9-151.2-79.3c-20.7-36.8-73.2-64.7-124.1-79.9z"/>
    </g>
  </g>
  <g id="body">
    <path fill="none" stroke="#31323D" stroke-width="12.5" stroke-miterlimit="10" d="M1714.5 2282.4h-533.6m-130.2-28.7c-89.2-47.1-145.7-146.2-131.5-254.1l182.9-961.4c15.8-119.9 118-209.6 238.9-209.6h158.2c107.8 0 202.5 71.6 231.9 175.4l295.1 960.1c39 137.9-45.2 275-175.8 309.9" stroke-linecap="round"/>
    <path fill="#31323D" d="M1228.6 2040.8c-1.7 15.3-3.8 30.4-6 45.6l-3.5 22.7-3.8 22.6c-2.6 15.1-5.4 30.1-8.1 45.2l-8.3 45.1-16.6 90.3c-.8 4.1-2 8.2-3.5 12.1-1.5 3.9-3.3 7.8-5.4 11.4-4.2 7.3-9.6 13.9-16 19.4-12.9 11.1-29 17.6-45.9 18.8l-6.3.2h-6.1l-11.5-.7-22.9-1.3-45.8-2.8h-4.7l-1.8-.3c-2.3-.4-4.5-1-6.7-1.7-4.6-1.6-8.7-4.1-12.3-7.3-3.6-3.3-6.4-7.3-8.3-11.7-1.8-4.3-2.9-8.9-3.1-13.5-.2-4.4.1-8.9 1-13.2l.2-.8v-1.7l.3-1.1c.4-1.2.9-2.4 1.5-3.6 1.1-2.2 2.5-4.3 4.1-6.2 3.1-3.6 6.8-6.6 11-8.8 4-2.1 8.3-3.6 12.7-4.5 2.2-.4 4.4-.8 6.6-.9l2.7-.2 2.1-.3c1.5-.3 2.9-.7 4.3-1.2 1.3-.5 2.6-1.1 3.8-1.9 4.6-3 7.7-8.4 9.4-14.8 1.6-6.8 2.2-13.8 1.8-20.8l-.9-22.9-1.9-45.9c-.6-15.3-1.3-30.6-1.8-45.9v.5c-.6-5-1.3-9.9-2-14.9-.4-2.5-.8-4.9-1.2-7.4s-.9-4.9-1.4-7.3-1-4.9-1.6-7.3l-1.8-7.2c-1.3-4.8-2.7-9.5-4.4-14.2-.8-2.3-1.7-4.6-2.6-6.9s-1.8-4.6-2.9-6.8l-1.5-3.4-1.6-3.3-1.7-3.3-1.8-3.3-1.8-3.2-1.9-3.2-4-6.3c-1.4-2.1-2.8-4.1-4.3-6.2l-2.2-3-2.3-3c-.8-.9-.7-2.3.2-3.2s2.3-.7 3.2.2l5.4 5.6c1.7 1.9 3.4 3.9 5.1 5.9 1.7 2 3.3 4 4.8 6.1l2.3 3.2 2.2 3.2c1.5 2.2 2.9 4.3 4.2 6.6l2 3.4 1.9 3.4c1.3 2.3 2.4 4.6 3.5 7 1.1 2.4 2.2 4.7 3.2 7.2 2 4.8 3.8 9.7 5.4 14.7 1.6 5 3 10 4.2 15 .6 2.5 1.2 5.1 1.7 7.6s1.1 5.1 1.5 7.6c.9 5.1 1.7 10.2 2.4 15.3v.5c.9 15.3 1.6 30.6 2.4 45.8l2.3 45.8 1.1 22.9c.2 4.1.2 8.2-.1 12.3-.3 4.2-.9 8.4-1.9 12.5-.5 2.1-1.2 4.2-2 6.3-.9 2.1-1.9 4.2-3.1 6.2-2.5 4.1-5.8 7.7-9.8 10.4-4 2.6-8.5 4.5-13.2 5.3l-3.5.5-3 .2c-1.6.1-3.1.3-4.7.6-3.1.6-6 1.7-8.8 3.2-2.6 1.4-5 3.3-6.9 5.5-.9 1-1.6 2.1-2.2 3.3-.6 1.2-1 2.4-1.2 3.7-.7 3.2-.9 6.4-.7 9.6.2 3 .8 5.9 2 8.7 1.1 2.6 2.8 5 4.9 6.9 2.1 1.9 4.6 3.4 7.3 4.3 1.4.5 2.9.8 4.4 1.1l1 .2h3.9l45.8 2.7 22.9 1.4 11.5.7h10.5c13.8-.9 27-6.2 37.6-15.2 5.2-4.5 9.6-9.8 13.1-15.7 3.5-6 6-12.4 7.4-19.2l17.4-90.1 8.7-45.1c2.9-15 5.8-30 8.8-45l4.7-22.5 5-22.4c3.4-14.9 7-29.8 11-44.6.2-1.4 1.4-2.3 2.7-2.2s2.4 1.5 2.2 2.9z"/>
    <path fill="#31323D" d="M1095.2 2319.6h-.5l-1.7.2c-2 .3-4 1-5.8 2-2.6 1.4-4.8 3.2-6.7 5.5-1.1 1.3-2 2.6-2.9 4-.9 1.5-1.7 3-2.4 4.6l-.5 1.2-.5 1.2-.5 1.2-.4 1.3c-.5 1.7-.9 3.4-1.3 5l-.5 2.4c-.2.8-.3 1.6-.4 2.4s-.4 3-.6 4.4-.2 2.6-.3 3.7-.1 2.1-.2 2.9v2.7c.2 3.5-2.4 6.5-5.9 6.7-3.5.2-6.5-2.4-6.7-5.9 0-.5 0-1 .1-1.5 0-.3.1-.5.1-.8l.5-2.7c.2-.9.3-1.9.6-3.1s.5-2.6.9-4.1.8-3.1 1.3-4.8l.8-2.6.9-2.7c.7-1.8 1.4-3.7 2.3-5.5l.6-1.4.7-1.4.7-1.4.8-1.4c1.1-1.8 2.3-3.5 3.6-5.2 1.3-1.6 2.7-3.1 4.2-4.5 2.7-2.5 5.9-4.5 9.4-5.8 2.5-.9 5.1-1.4 7.7-1.5h3.1c1.3.1 2.3 1.3 2.2 2.7-.2 1.4-1.4 2.3-2.7 2.2zm-42.5-4.7h-.6l-1.6.4-2.5.9-.7.3-.8.4-1.6.9-1.7 1.1-1.7 1.3-.9.7-.8.8-1.6 1.7-1.5 2-.7 1-.6 1.1-1.3 2.2-1.1 2.4c-.3.8-.7 1.6-1 2.4l-.8 2.5-.8 2.4-.6 2.5c-.4 1.5-.8 3.1-1 4.7l-.6 4.3c-.2 1.2-.3 2.5-.3 3.7l-.2 2.8-.2 2.5v.4c.2 3.5-2.5 6.4-6 6.6-3.5.2-6.4-2.5-6.6-6 0-.5 0-.9.1-1.4 0-.3.1-.5.1-.8l.5-2.7.6-3.1c.3-1.2.4-2.5.9-4l1.3-4.7c.5-1.8 1.1-3.5 1.8-5.2l1-2.7 1.3-2.7 1.3-2.7c.5-.9 1.1-1.8 1.6-2.7l1.7-2.6 1.9-2.4.9-1.2 1.1-1.1 2.1-2.1 2.2-1.8 1.1-.9 1.2-.7 2.2-1.4 2.2-1.1 2.1-.8 1-.4 1-.3c1.1-.3 2.1-.5 3.2-.7l2.2-.2h.8c1.2-.1 2.3.8 2.4 2 .1 1.2-.8 2.3-2 2.4zm621-289.7l2.2 9.4c1.4 6.1 3.4 15.1 5.8 26.6 1.2 5.7 2.5 12.1 3.9 19l4.4 22.5 4.8 25.6 5 28.4 23.3 135.3c1.1 6.1 2 12.8 3.6 17.8 1.7 5.5 4.1 10.8 7.2 15.7 6.3 10 15.3 18.1 25.9 23.4l4.1 1.9 1.1.4 1 .4 2 .7c2.7.8 5.6 1.4 8.4 1.7l4.3.3h4.6l10-.3 40.1-1.4 39.4-1.2 2.5-.3 1.2-.2.9-.2 1.9-.4 1.9-.6c2.4-.8 4.5-2 6.5-3.5 1.8-1.5 3.3-3.3 4.3-5.4.2-.6.6-1.1.7-1.7l.6-1.8c.4-1.3.6-2.6.8-3.9.2-1.4.3-2.7.4-4.1v-2.1s0-1.4-.1-2.2l-.2-2.2v-.3c0 .2-.2.3-.3.2-.2 0-.3-.2-.2-.3 0-.2.2-.3.3-.2.1 0 .2.1.2.2v-1.6l-.2-.8-.2-.9c-.1-.6-.4-1.3-.6-1.9-1.7-5-4.7-9.3-8.4-11.7-2-1.2-4.1-2-6.4-2.3l-1.8-.2-2.6-.2h-1.2l-1.5-.2-2.9-.5c-3.8-.9-7.5-2.3-10.9-4.2-3.5-2-6.6-4.7-9.1-8-2.4-3.1-4.1-6.7-5.3-10.4-1-3.5-1.7-7.1-1.9-10.7-.1-.9-.1-1.7-.1-2.6v-7.2l.2-9.1.8-35.4.2-8.6v-4.6l.3-4.2.3-4.2c.1-1.4.2-2.7.4-4.2l1-8.4c1.5-10.6 3.6-21.1 6.4-31.5 2.5-9.5 5.6-18.8 9.1-28l2.7-6.4c.9-2.1 1.7-4.2 2.7-6.2l2.8-5.9c.9-1.9 1.8-3.9 2.8-5.7l2.9-5.4 1.4-2.6 1.5-2.5 2.9-4.9c.9-1.6 1.8-3.2 2.8-4.7l5.6-8.7 5.4-7.7 2.6-3.5 2.5-3.2c1.6-2.1 3.1-4.1 4.6-5.8l4.1-4.9 3.5-4 6.6-7.1c.8-.9 2.2-1.1 3.1-.3.9.8 1.1 2.2.3 3.1l-5.6 7.8c-3.6 5.1-8.8 12.6-14.9 22.5l-4.7 7.8-4.8 8.8c-.9 1.5-1.7 3.1-2.5 4.7l-2.5 4.9-1.3 2.5-1.2 2.6-2.5 5.4c-7.4 16.3-13.4 33.2-17.7 50.6l-.9 3.6-.4 1.8-.4 1.8-1.5 7.4-.4 1.9-.3 1.9-.6 3.8-.6 3.9-.3 1.9-.2 1.9-.9 7.8c-.2 1.3-.2 2.7-.3 4.1l-.3 4.2-.3 4.2v12.5l-.5 35.4v15.8s0 1.4.1 2c.2 2.5.7 5.1 1.4 7.5.7 2.2 1.8 4.3 3.2 6.2 2.7 3.6 6.9 5.8 12 6.9l1.8.3.9.2h1.2l2.2.2 3 .3c4.1.6 8.1 2 11.7 4.2 3.5 2.2 6.6 5.1 9 8.5 2.3 3.2 4.1 6.8 5.4 10.5.3.9.6 1.8.8 2.8l.4 1.4.3 1.6v2.9l.2 2.7c.1.9.1 1.8.1 2.8s.1 1.8 0 2.8c-.1 1.9-.2 3.8-.5 5.7-.3 2-.7 3.9-1.2 5.8l-1 2.9c-.3 1-.8 1.9-1.3 2.9-1.9 3.9-4.6 7.3-7.9 10.1-3.3 2.6-6.9 4.7-10.9 6l-2.8.9-3 .7-1.5.3-1.3.2-2.5.3h-5.7l-5 .2-10 .4-20.1.7-40.1 1.3-10 .3h-5.4l-5.6-.4c-3.7-.4-7.4-1.2-11-2.3l-2.7-.9-1.4-.5-1.2-.5-4.9-2.3c-12.9-6.5-23.7-16.4-31.4-28.6-3.8-6-6.7-12.4-8.7-19.2l-.7-2.6-.3-1.3c-.1-.4-.2-.9-.3-1.3l-.5-2.3-.2-1.2v-1.4l-1.5-9.3-22-135.6-4.5-28.5-3.8-25.7-3.2-22.7c-1-7-1.8-13.4-2.5-19.3-1.5-11.6-2.5-20.8-3.2-27.1l-1-9.6c.4-1.1 1.7-1.7 2.8-1.3.4.1.7.4 1 .7z"/>
    <path fill="#31323D" d="M1783.2 2307.4h3.2c2.7.3 5.4.8 8 1.7 1.8.6 3.5 1.3 5.1 2.1 1.9.9 3.6 2 5.3 3.3 1.8 1.3 3.5 2.9 5 4.5.7.9 1.5 1.7 2.2 2.7l1 1.4 1 1.5c1.2 1.9 2.4 4 3.3 6.1.9 2 1.7 4.1 2.4 6.2.4 1 .6 2 .9 3s.5 2 .7 2.9l.6 2.8.4 2.6c.3 1.7.4 3.2.6 4.6s.3 2.5.3 3.5l.2 3.1c-.2 3.5-3.1 6.2-6.6 6-3-.1-5.4-2.3-5.9-5.2v-1l.2-2.7c.1-.9.1-1.9.1-3.1s.1-2.6 0-4v-2.3l-.2-2.4c-.1-.8-.2-1.7-.3-2.5s-.2-1.8-.4-2.6c-.3-1.8-.8-3.6-1.3-5.3-.6-1.8-1.3-3.5-2.1-5.2l-.6-1.3-.7-1.2c-.4-.8-1-1.6-1.5-2.3-1-1.5-2.2-2.8-3.5-4.1-2.3-2.3-5-4.1-8-5.5-2.1-1-4.3-1.7-6.6-2.2l-1.9-.3h-.7c-1.3.1-2.4-1-2.5-2.3s1-2.4 2.3-2.5zm50.6-3.2h3.2c2.7.3 5.4.8 8 1.7 1.8.6 3.5 1.3 5.1 2.1 1.9.9 3.6 2 5.3 3.3 1.8 1.3 3.5 2.9 5 4.5.7.9 1.5 1.7 2.2 2.7l1 1.4 1 1.5c1.2 1.9 2.4 4 3.3 6.1.9 2 1.7 4.1 2.4 6.2.4 1 .6 2 .9 3s.5 2 .7 2.9l.6 2.8.4 2.6c.3 1.7.4 3.2.6 4.6s.3 2.5.3 3.5l.2 3.1c.5 3.4-2 6.6-5.4 7.1-3.4.5-6.6-2-7.1-5.4-.1-.5-.1-1.1 0-1.6v-.3l.2-2.7c.1-.9.1-1.9.1-3.1s.1-2.6 0-4v-2.3l-.2-2.4c-.1-.8-.2-1.7-.3-2.5s-.2-1.8-.4-2.6c-.3-1.8-.8-3.6-1.3-5.3-.6-1.8-1.3-3.5-2.1-5.2l-.6-1.3-.7-1.2c-.4-.8-1-1.6-1.5-2.3-1-1.5-2.2-2.8-3.5-4.1-2.3-2.3-5-4.1-8-5.5-2.1-1-4.3-1.7-6.6-2.2l-1.9-.3h-.7c-1.3.1-2.4-1-2.5-2.3s1-2.4 2.3-2.5z"/>
    <path fill="none" stroke="#31323D" stroke-width="12.5" stroke-miterlimit="10" d="M1206.2 862.9c-41.5-34.1-105.9-77.5-130.8-42.6-3.4 4.7-3.7 10.9-.9 16l60.5 108.1m472-90.4c24.5-19.2 89.4-68.2 129.3-66.3 8.3.4 14.7 7.4 14.3 15.6-.1 2.6-.9 5.1-2.2 7.3L1684 914.8M931.3 2117.4c-38.1 9.1-130.4 43.4-184.5 78.3-26.5 17.1-10.1 55.9 23.2 55.3l280.4-5.5" stroke-linecap="round"/>
    <path fill="#31323D" d="M840.5 2200.1l-.7.2-2 .6-3.1 1-4 1.5-4.5 2.1c-1.6.8-3.2 1.8-4.7 2.8-1.6 1.1-3 2.2-4.4 3.5-1.4 1.3-2.6 2.7-3.7 4.2l-.8 1.1-.7 1.2c-.4.8-.8 1.6-1.1 2.4-.2.4-.3.8-.4 1.2l-.3 1.2c-.2.8-.3 1.6-.4 2.4v3.6c0 .4.1.8.1 1.2 0 .7.1 1.5.3 2.2.2.7.3 1.4.5 2.1.3 1.2.7 2.4 1.2 3.6.4 1 .8 1.9 1.2 2.8l1.2 2.4.2.3c1.3 3.2-.3 6.9-3.5 8.2-2.9 1.2-6.2 0-7.8-2.7l-.3-.7-1.1-3.1c-.4-1-.7-2.2-1.1-3.7-.4-1.6-.8-3.3-1-4.9-.1-.9-.2-1.9-.3-2.9-.1-1.1-.1-2.1-.1-3.2v-1.7l.2-1.7c.1-.6.1-1.2.2-1.7l.4-1.8c.3-1.2.6-2.4 1-3.5.2-.6.4-1.1.7-1.7l.8-1.7c.6-1.1 1.3-2.2 2-3.2l1.1-1.5 1.2-1.4c1.6-1.8 3.4-3.5 5.4-4.9 1.8-1.4 3.8-2.6 5.8-3.6 1.9-1 3.8-1.8 5.7-2.6l5.2-1.8 4.4-1.2 3.5-.7 2.3-.3h.8c1.2-.2 2.4.6 2.6 1.8.2 1.2-.6 2.4-1.8 2.6h-.2zm-47.5 2h-.6l-1.7.5c-2 .7-4 1.5-5.9 2.5-1.2.7-2.4 1.4-3.6 2.2-1.2.9-2.4 1.8-3.5 2.9-1.1 1.1-2.1 2.4-2.9 3.7-.8 1.3-1.5 2.7-2 4.2-.2.7-.4 1.5-.6 2.2-.1.8-.3 1.5-.3 2.3-.1 1.5-.1 3.1.1 4.6.2 1.4.4 2.9.8 4.3s.7 2.7 1.2 3.9l.6 1.7.7 1.5.6 1.3.6 1.1 1.1 2.1v.2c1.2 3.3-.5 6.9-3.7 8.1-2.8 1-5.9 0-7.5-2.5l-.3-.8-.9-2.7-.5-1.4-.5-1.7-.5-1.9c-.2-.7-.3-1.4-.5-2.2s-.6-3.3-.8-5.1c-.2-2-.3-3.9-.2-5.9.1-2.1.3-4.2.8-6.3.2-1.1.6-2.1.9-3.2.4-1.1.8-2.1 1.3-3.1 1-2 2.2-3.9 3.6-5.6 1.4-1.6 2.9-3 4.5-4.3 1.5-1.1 3.1-2.1 4.8-3 1.5-.8 3-1.4 4.6-2 2.3-.9 4.7-1.5 7.1-2l2-.3h.8c1.2-.2 2.4.6 2.6 1.8.2 1.2-.6 2.4-1.8 2.6h-.4v.3z"/>
    <path fill="none" stroke="#31323D" stroke-width="12.5" stroke-miterlimit="10" d="M2020.7 2120.2c47.5 13.8 136.8 46.1 179.8 75.5 26.1 17.8 10.1 55.9-23.2 55.3l-261.6-5.1" stroke-linecap="round"/>
    <path fill="#31323D" d="M2107.6 2193.7h.8l2.3.4 3.5.8 4.5 1.4 5.2 2c1.9.8 3.8 1.8 5.6 2.8 2 1.1 3.9 2.4 5.7 3.8 1.9 1.5 3.7 3.2 5.3 5.1l1.2 1.5 1.1 1.6c.7 1.1 1.3 2.2 1.9 3.3.3.6.5 1.2.8 1.7s.5 1.2.7 1.8l.6 1.8.3.9.2.9c.3 1.2.5 2.3.6 3.5.1 1.1.2 2.3.2 3.4 0 2.1-.1 4.1-.4 6.2-.2 1.7-.6 3.4-1 5-.4 1.5-.7 2.8-1.1 3.7l-1.1 3.2c-1.6 3.1-5.3 4.4-8.5 2.8-2.5-1.3-3.9-4.1-3.3-6.9l.3-.7.2-.3 1.2-2.4c.4-.8.7-1.7 1.2-2.8s.8-2.3 1.2-3.7c.4-1.4.6-2.9.8-4.4.1-.8.1-1.6.1-2.4 0-.8 0-1.7-.1-2.5v-1.2l-.2-1.3c-.1-.4-.2-.8-.4-1.3-.1-.4-.2-.9-.4-1.3-.3-.9-.7-1.7-1.1-2.5l-.7-1.2-.8-1.2c-1.1-1.6-2.3-3.1-3.7-4.4-1.4-1.4-2.8-2.6-4.4-3.8-1.5-1.1-3.1-2.1-4.7-3l-4.5-2.3c-2.3-1.1-4.7-2.1-7.1-2.9l-2-.6-.7-.2h-.1c-1.2-.4-1.8-1.6-1.5-2.7.3-1 1.3-1.7 2.3-1.6zm47.5 2h.8l2.1.4c2.4.6 4.8 1.4 7.1 2.4 1.5.7 3 1.4 4.5 2.3 1.6 1 3.2 2.1 4.7 3.3 1.6 1.4 3.1 2.9 4.4 4.5 2.1 2.6 3.7 5.6 4.8 8.8.4 1.1.6 2.2.9 3.2s.4 2.2.6 3.3.3 2.2.2 3.2.1 2.1 0 3.1l-.2 2.9c-.3 1.8-.5 3.6-.8 5.2l-.5 2.3-.6 2-.5 1.8-.5 1.4-.9 2.7c-1.6 3.1-5.3 4.4-8.5 2.8-2.5-1.3-3.9-4.1-3.3-6.9l.3-.7v-.3l1.1-2.2.6-1.2.6-1.4.7-1.6.6-1.7c.5-1.2.8-2.6 1.2-4l.4-2.2c.2-.7.2-1.5.3-2.3s.1-1.5.1-2.3-.1-1.6-.1-2.4-.2-1.6-.3-2.4c-.2-.8-.4-1.5-.6-2.3-.5-1.5-1.2-3-2-4.4-.8-1.4-1.8-2.7-2.9-3.9-1.1-1.2-2.3-2.2-3.5-3.2-1.1-.9-2.4-1.7-3.6-2.4-1.9-1.1-3.9-2.1-5.9-2.9l-1.7-.6-.6-.2h-.1c-1-.6-1.4-2-.8-3 .4-.7 1.1-1.1 1.9-1.1z"/>
  </g>
</svg>