<?xml version="1.0" encoding="utf-8"?>
<!-- Generator: Adobe Illustrator 19.0.0, SVG Export Plug-In . SVG Version: 6.00 Build 0)  -->
<svg version="1.1" id="Layer_1" xmlns="http://www.w3.org/2000/svg" xmlns:xlink="http://www.w3.org/1999/xlink" x="0px" y="0px"
	 viewBox="1020 -1220 3000 3000" style="enable-background:new 1020 -1220 3000 3000;" xml:space="preserve">
<style type="text/css">
	.st0{clip-path:url(#SVGID_2_);}
	.st1{fill:#B1B1BE;}
	.st2{clip-path:url(#SVGID_4_);}
	.st3{fill:none;}
	.st4{opacity:0.25;fill:#7F7F7F;enable-background:new    ;}
	.st5{opacity:0.3;fill:#7F7F7F;enable-background:new    ;}
	.st6{opacity:0.5;fill:url(#SVGID_5_);enable-background:new    ;}
	.st7{fill:none;stroke:#31323D;stroke-width:12.5;stroke-linecap:round;stroke-linejoin:round;}
	.st8{fill:none;stroke:#31323D;stroke-width:12.5;stroke-linecap:round;stroke-miterlimit:10;}
	.st9{clip-path:url(#SVGID_7_);}
	.st10{fill:#FF7A7A;}
	.st11{clip-path:url(#SVGID_9_);}
	.st12{opacity:0.2;fill:#7F7F7F;enable-background:new    ;}
	.st13{opacity:0.4;fill:url(#SVGID_10_);enable-background:new    ;}
	.st14{opacity:0.4;fill:url(#SVGID_11_);enable-background:new    ;}
	.st15{opacity:0.2;clip-path:url(#SVGID_13_);}
	.st16{fill:#FFFFFF;}
	.st17{fill:#31323D;}
	.st18{fill:none;stroke:#31323D;stroke-width:12;stroke-linecap:round;stroke-miterlimit:10;}
</style>
<g id="tailFur">
	<g>
		<defs>
			<path id="SVGID_1_" d="M3863.8,415c0,0-3.6,27-26.7,75.5c-31.4-98.7-91-197.3-168.6-256c-1.8-1.3-4.6-3.2-8.3-5.6
				c-161.3-100.9-374.7-31.8-447.1,144.2l-6.7,16c40.7-31.8,96.3-51.8,96.3-51.8s-19.9,27.2-35.1,47.6c-47.1,63-78,149.5-54.1,228.9
				c7.5,24.9,26.4,49,50.3,71c-121.3,19.7-207.2,143.9-207.2,143.9l-116,136.8l169.4,35.3l96.5,3.5c51.6,15.5,117.1,26.6,199.1,26.6
				c242.5,0,413.1-159,449.1-329.9c2.8-13.4,5.7-26.8,8.8-40.1C3874.8,611.3,3897.9,487.7,3863.8,415L3863.8,415z"/>
		</defs>
		<clipPath id="SVGID_2_">
			<use xlink:href="#SVGID_1_"  style="overflow:visible;"/>
		</clipPath>
		<g class="st0">
			<path class="st1" d="M3862.9,1025.9H2924V137.2h990.6L3862.9,1025.9L3862.9,1025.9z"/>
		</g>
	</g>
	<g id="tailShadow">
		<g>
			<g>
				<defs>
					<path id="SVGID_3_" d="M3863.8,415c0,0-3.6,27-26.7,75.5c-31.4-98.7-91-197.3-168.6-256c-1.8-1.3-4.6-3.2-8.3-5.6
						c-161.3-100.9-374.7-31.8-447.1,144.2l-6.7,16c40.7-31.8,96.3-51.8,96.3-51.8s-19.9,27.2-35.1,47.6
						c-47.1,63-78,149.5-54.1,228.9c7.5,24.9,26.4,49,50.3,71c-121.3,19.7-207.2,143.9-207.2,143.9l-116,136.8l169.4,35.3l96.5,3.5
						c51.6,15.5,117.1,26.6,199.1,26.6c242.5,0,413.1-159,449.1-329.9c2.8-13.4,5.7-26.8,8.8-40.1
						C3874.8,611.3,3897.9,487.7,3863.8,415L3863.8,415z"/>
				</defs>
				<clipPath id="SVGID_4_">
					<use xlink:href="#SVGID_3_"  style="overflow:visible;"/>
				</clipPath>
				<g class="st2">
					<path class="st3" d="M3861.2,1047.2l-937.3-21.3l265.6-916l742.4,60L3861.2,1047.2z"/>
					<path class="st4" d="M3030.4,856.9c0,0,112.9-156,137.5-146.1c-100.8,117.4-26.2,185.8,23,200.3
						c199.6,59,530.9,111,665.9-164.6l-219,299.4l-649.5-3L3030.4,856.9z"/>
					<path class="st5" d="M3258,670.9c-25.5,5.8-25,6.1-25,6.1c3.6,3.7,35.6,103.9,139.1,118.9c3.8,0.5,7.3-2.1,7.8-5.9
						c0.2-1.2,0-2.5-0.5-3.6c-2.3-5.3-4.4-13-5.7-24.1 M3648.8,511.1c0,0-19.6,101.4-52.6,138.4c-18.1,20.4-42.8,33.6-69.7,37.5
						c-2,0.3-3.8-1.1-4-3.1c-0.1-0.4,0-0.8,0-1.2c2.3-13-2.2-28.3-2.2-28.3S3398.6,719,3406.6,770c0,0-16-71.9,67.7-119.2
						s69.7-65.3,69.7-65.3l-1.7,54.7C3599.1,629.1,3648.8,511.1,3648.8,511.1L3648.8,511.1z"/>
					
						<linearGradient id="SVGID_5_" gradientUnits="userSpaceOnUse" x1="3559.6499" y1="4.6" x2="3559.6501" y2="496.6" gradientTransform="matrix(1 0 0 -1 0 560)">
						<stop  offset="0" style="stop-color:#FFFFFF;stop-opacity:0"/>
						<stop  offset="0.72" style="stop-color:#FFFFFF"/>
					</linearGradient>
					<path class="st6" d="M3282.3,280c0,0,151.6-146.4,378,7.5c93,66.9,144,267.9,144,267.9l32.7-64.9l-59.7-377.6L3544,63.4
						l-150.6,20.2L3282.3,280z"/>
				</g>
			</g>
		</g>
	</g>
</g>
<g id="tail">
	<g>
		<path class="st7" d="M3837.2,490.6c-31.3-98.7-91-197.4-168.7-256.1c-1.8-1.3-4.6-3.2-8.3-5.6
			c-161.3-100.9-374.7-31.8-447.1,144.2l-6.7,16c40.7-31.8,96.3-51.8,96.3-51.8s-19.9,27.2-35.1,47.6c-47.1,63-78,149.5-54.1,228.9
			c20.6,68.7,128.7,131.6,186.3,158.8c4.1,2,8.5-1.6,6.6-5.7c-9.7-21.4,6.3-60.3,19-78c15.9-22.3,42.2-34.2,66.2-47.4
			s48.6-30.9,55.7-57.3l-5,57.7c37.9-18.6,69.3-49.7,89.3-86.9c8.6-15.9,14.9-32.9,18.9-50.6"/>
		<path class="st8" d="M3056.6,828.8c0,0,85.9-124.2,207.2-143.9"/>
		<path class="st7" d="M3206.4,1004.4c51.6,15.5,117.1,26.6,199.1,26.6c242.5,0,413.1-159,449.1-329.9c2.8-13.4,5.7-26.8,8.8-40.1
			c11.5-49.7,34.6-173.3,0.4-246c0,0-4.8,35.4-37.9,97.8"/>
	</g>
</g>
<g id="bodyFur">
	<g>
		<defs>
			<path id="SVGID_6_" d="M3220.5,975.7c-43-29.4-132.4-61.7-179.8-75.5l-0.8-0.3c18.8-49.9,21.1-104.6,6.4-155.9l-134.5-437.7
				c15.1-4.7,29-12.3,41.2-22.3c-16.2,7.6-39.1-8.1-54.9-21.9l-2.2-7.2c54.7,26.7,104.5-45.6,104.5-45.6
				c-45.4,5.5-101.9-31.2-136.4-58.1l-3.7-12.1c36.3,6.8,73.8-24.6,73.8-24.6c-21.6,0.7-45-17.8-65.7-40.9
				c-28.7-32.2-50-70.3-62.5-111.5L2751.1-216c-9.2-32.7-25.3-63.1-47.2-89.2l64.4-104.2c4.4-7,2.2-16.3-4.8-20.7
				c-2.2-1.4-4.7-2.1-7.3-2.2c-40-2-104.9,47-129.3,66.3c-18.3-9.2-37.8-16-57.8-20.2c6.5-13.2,13.8-26,21.9-38.4
				c3.1-4.7,1.7-11-3-14.1c-2.4-1.6-5.4-2-8.2-1.3c-26.7,7.1-55.7,28.1-64.7,34.9c-0.5,0.4-1.3,0.3-1.7-0.2
				c-0.3-0.3-0.3-0.7-0.2-1.1c4.1-16.7,21.1-88.9,7.5-95.5c-13.6-6.6-36.2,52.6-44.6,74.7c-0.1,0.7-0.8,1.1-1.5,1
				c-0.7-0.1-1.1-0.8-0.9-1.5c1.7-24.4,4.8-91.4-13-88c-19.7,3.7-56.2,87.7-63.1,104.1c-0.3,0.6-1,0.9-1.6,0.6
				c-0.3-0.1-0.5-0.3-0.6-0.6c-4.6-11.7-22.9-55.8-29.2-40.3s0.6,43.4,3.4,54.3c0.2,0.6-0.2,1.3-0.8,1.5c-0.4,0.1-0.9,0-1.2-0.3
				c-19-17-51.5-17.4-73.9-15.2c-5.6,0.5-9.8,5.4-9.3,11c0.2,2.4,1.3,4.7,3,6.4c3.5,3.5,6.7,7.3,9.7,11.3
				c-23.2,6.4-45.4,16.2-65.7,29.2l-5.2-3.5c-41.5-34.1-105.9-77.5-130.8-42.6c-3.4,4.7-3.7,10.9-0.9,16l60.5,108.1
				c-17.4,28.6-28.7,60.6-33,93.8l-30.5,160.3c-7.6,40.9-24.5,79.5-49.4,112.8c-17.8,23.7-38.8,43.5-60.1,45.7
				c0,0,41.5,26.2,76.6,14.4l-2.4,12.7c-30.6,31.2-81.6,75-127.2,75.7c0,0,56.6,62.3,106.5,33.2l-1.8,9.7
				c-13.6,14.7-32,29.7-47.6,24.8c12.3,7.6,25.8,13,39.9,15.9l-86.8,456.2c-5.3,39.6-1,80,12.6,117.6l-0.6,0.2
				c-38.1,9.1-130.4,43.4-184.5,78.3c-26.5,17.1-10.1,55.9,23.2,55.3l266.9-5.2c4.5,2.8,9.2,5.4,13.9,7.9v3.3
				c0.4,23.3-6.7,42.4-29.9,43.6c-15.6,0.8-28.2,9.9-30.6,21.1c-4.7,21.5,5.8,38.9,27.2,40.4l84.3,5c26.4,1.6,51.9-11.3,65.3-34.1
				c4.3-7.4,7.3-15.5,8.8-23.9l5-26.6h533.6l3.5,20.7c4.1,24.3,20.3,44.8,43.1,54.3c7.1,2.9,14.7,4.3,22.3,4l91.8-3
				c22-2.2,30.1-15.7,27.9-36.9c-0.7-6.9-6.2-24.5-24.5-25.5c-15.8-0.9-25.2-8.6-28.1-21.9c23-6.1,45-15.6,65.3-28l261.6,5
				C3230.6,1031.6,3246.6,993.5,3220.5,975.7L3220.5,975.7z"/>
		</defs>
		<clipPath id="SVGID_7_">
			<use xlink:href="#SVGID_6_"  style="overflow:visible;"/>
		</clipPath>
		<g class="st9">
			<path class="st1" d="M1744.1-653.5h1520.5v1874.8H1744.1V-653.5z"/>
			<path class="st10" d="M2201.5,1074.7c-5.6-14.6,3.2-56.8,20.7-141.2c10.5-50.5,18.8-83.4,24-105c38.8-161.9,16.1-179.6,50-276
				c23.1-65.9,47.1-131.2,111-162c7.6-3.7,65.9-30.7,125-7s81.2,80.6,105.3,141.9c29.1,74.1,20,99.7,53,285.3
				c6.9,38.6,13.7,77.2,20.6,115.8c4.1,22.7,8,45.3,12,68c9.4,53.2,9.6,54.1,9.4,56.2C2722.8,1129.2,2245.9,1191.3,2201.5,1074.7z"
				/>
		</g>
	</g>
</g>
<g id="shadow">
	<g>
		<g>
			<defs>
				<path id="SVGID_8_" d="M3220.5,975.7c-43-29.4-132.4-61.7-179.8-75.5l-0.8-0.3c18.8-49.9,21.1-104.6,6.4-155.9l-134.5-437.7
					c15.1-4.7,29-12.3,41.2-22.3c-16.2,7.6-39.1-8.1-54.9-21.9l-2.2-7.2c54.7,26.7,104.5-45.6,104.5-45.6
					c-45.4,5.5-101.9-31.2-136.4-58.1l-3.7-12.1c36.3,6.8,73.8-24.6,73.8-24.6c-43.1,1.4-93.7-74.1-115-109.3l-68-221.2
					c-9.2-32.7-25.3-63.1-47.2-89.2l73.3-118.6c-32.4-31.9-120.8,34.6-150.3,57.8c-18.3-9.2-37.8-16-57.8-20.2
					c6.5-13.2,13.8-26,21.9-38.3c5.1-7.8-2.2-17.9-11.2-15.5c-26.7,7.1-55.7,28.1-64.7,34.9c-0.5,0.4-1.3,0.3-1.7-0.2
					c-0.3-0.3-0.3-0.7-0.2-1.1c4.1-16.7,21-88.9,7.5-95.5s-36.2,52.6-44.6,74.7c-0.1,0.7-0.8,1.1-1.5,1c-0.7-0.1-1.1-0.8-0.9-1.5
					l0,0c1.7-24.4,4.8-91.4-13-88c-19.7,3.7-56.1,87.7-63.1,104.1c-0.2,0.6-0.9,1-1.5,0.8c-0.4-0.1-0.7-0.4-0.8-0.8
					c-4.7-11.7-22.9-55.7-29.2-40.3s0.6,43.3,3.4,54.3c0.2,0.6-0.2,1.3-0.8,1.5c-0.4,0.1-0.9,0-1.2-0.3c-19-17-51.5-17.4-73.9-15.2
					c-5.6,0.5-9.8,5.4-9.3,11c0.2,2.4,1.3,4.7,3,6.4c3.5,3.5,6.7,7.3,9.7,11.3c-23.2,6.4-45.4,16.2-65.7,29.2l-5.2-3.5
					c-44.5-36.6-115.4-83.9-135.6-33.6l64.5,115.2c-17.4,28.6-28.7,60.6-33,93.8l-38.8,204c-17.3,35.5-58.5,110.3-101.2,114.7
					c0,0,41.5,26.2,76.6,14.4l-2.4,12.7c-30.6,31.2-81.6,75-127.2,75.7c0,0,56.6,62.3,106.5,33.2l-1.8,9.7
					c-13.6,14.7-32,29.7-47.6,24.8c12.3,7.6,25.8,13,39.9,15.9l-86.8,456.2c-5.3,39.6-1,80,12.6,117.6l-0.6,0.2
					c-38.1,9.1-130.4,43.4-184.5,78.3c-26.5,17.1-10.1,55.9,23.2,55.3l266.9-5.2c4.5,2.8,9.2,5.4,13.9,7.9v3.3
					c0.4,23.3-6.7,42.4-29.9,43.6c-15.6,0.8-28.2,9.9-30.6,21.1c-4.7,21.5,5.8,38.9,27.2,40.4l84.3,5c26.4,1.6,51.9-11.3,65.3-34.1
					c4.3-7.4,7.3-15.5,8.8-23.9l5-26.6h533.6l3.5,20.7c4.1,24.3,20.3,44.8,43.1,54.3c7.1,2.9,14.7,4.3,22.3,4l91.8-3
					c22-2.2,30.1-15.7,27.9-36.9c-0.7-6.9-6.2-24.5-24.5-25.5c-15.8-0.9-25.2-8.6-28.1-21.9c23-6.1,45-15.6,65.3-28l261.6,5
					C3230.6,1031.6,3246.6,993.5,3220.5,975.7L3220.5,975.7z"/>
			</defs>
			<clipPath id="SVGID_9_">
				<use xlink:href="#SVGID_8_"  style="overflow:visible;"/>
			</clipPath>
			<g class="st11">
				<path class="st12" d="M2313.2-356.2c-81.5,23.6-133.4,115.8-161.7,239.6c-6.6,28.9-12.6,63.2-18.4,100.9
					c-15,97.8-28.1,218.9-44.5,331.4c-21.1,33.1-29.1,39.4-35.5,75.8c-20.4,117.1-20.8,257.1-28,315.4c-4,32.7-6.3,65.5-6.8,98.4
					v3.4c23.5,26,47.6,88.8,52.6,176.8l1.3,49c0,0-31.3-0.8-81-0.8c-62,0-110.8-111.7-79.2-278.2c28.4-149.5-68-915.5-68-915.5
					l282.1-44.3c0,0,23.5-135.7,171-178.5L2313.2-356.2z M2246.5,820.4c-24.3,147.7,54.3,178.3,68.5,181.6
					c86.5,15.5,223.8,8.8,268.5-7c41.8-14.8,129.9-58.5,108-189.5l43,256.8h-533.6L2246.5,820.4z M2874.3,937.4
					c0,0,29.9-91.4,66.3-124.9c-39.4,75,14.1,92.7,28.1,87.7c53.7-19.2,75-66.7,79.2-150l65.3,116.3c0,0-55,256-204,214l-38.7-18.1
					L2874.3,937.4z"/>
				
					<linearGradient id="SVGID_10_" gradientUnits="userSpaceOnUse" x1="2733.3499" y1="985.4232" x2="2733.3501" y2="852" gradientTransform="matrix(1 0 0 -1 0 560)">
					<stop  offset="0" style="stop-color:#808080"/>
					<stop  offset="0.14" style="stop-color:#797979"/>
					<stop  offset="0.35" style="stop-color:#646464"/>
					<stop  offset="0.6" style="stop-color:#434343"/>
					<stop  offset="0.89" style="stop-color:#141414"/>
					<stop  offset="1" style="stop-color:#000000"/>
				</linearGradient>
				<path class="st13" d="M2801.2-420.5c0,0-38-26-102,41.5l-33.7,40.5l56.1,46.5L2801.2-420.5z"/>
				
					<linearGradient id="SVGID_11_" gradientUnits="userSpaceOnUse" x1="2061.2" y1="891.2211" x2="2195.2" y2="891.2211" gradientTransform="matrix(1 0 0 -1 0 560)">
					<stop  offset="0" style="stop-color:#808080"/>
					<stop  offset="0.14" style="stop-color:#797979"/>
					<stop  offset="0.35" style="stop-color:#646464"/>
					<stop  offset="0.6" style="stop-color:#434343"/>
					<stop  offset="0.89" style="stop-color:#141414"/>
					<stop  offset="1" style="stop-color:#000000"/>
				</linearGradient>
				<path class="st14" d="M2061.2-380.5c0,0,27.5-18.9,71.6-0.8c18.5,7.7,34.8,19.8,47.5,35.2l14.9,17.9l-37.7,54.9L2061.2-380.5z"
					/>
			</g>
		</g>
	</g>
</g>
<g id="highlight">
	<g>
		<g>
			<defs>
				<path id="SVGID_12_" d="M3220.5,975.7c-43-29.4-132.4-61.7-179.8-75.5l-0.8-0.3c18.8-49.9,21.1-104.6,6.4-155.9l-134.5-437.7
					c15.1-4.7,29-12.3,41.2-22.3c-16.2,7.6-39.1-8.1-54.9-21.9l-2.2-7.2c54.7,26.7,104.5-45.6,104.5-45.6
					c-45.4,5.5-101.9-31.2-136.4-58.1l-3.7-12.1c36.3,6.8,73.8-24.6,73.8-24.6c-43.1,1.4-93.7-74.1-115-109.3l-68-221.2
					c-9.2-32.7-25.3-63.1-47.2-89.2l73.3-118.6c-32.4-31.9-120.8,34.6-150.3,57.8c-18.3-9.2-37.8-16-57.8-20.2
					c6.5-13.2,13.8-26,21.9-38.3c5.1-7.8-2.2-17.9-11.2-15.5c-26.7,7.1-55.7,28.1-64.7,34.9c-0.5,0.4-1.3,0.3-1.7-0.2
					c-0.3-0.3-0.3-0.7-0.2-1.1c4.1-16.7,21-88.9,7.5-95.5s-36.2,52.6-44.6,74.7c-0.1,0.7-0.8,1.1-1.5,1c-0.7-0.1-1.1-0.8-0.9-1.5
					l0,0c1.7-24.4,4.8-91.4-13-88c-19.7,3.7-56.1,87.7-63.1,104.1c-0.2,0.6-0.9,1-1.5,0.8c-0.4-0.1-0.7-0.4-0.8-0.8
					c-4.7-11.7-22.9-55.7-29.2-40.3s0.6,43.3,3.4,54.3c0.2,0.6-0.2,1.3-0.8,1.5c-0.4,0.1-0.9,0-1.2-0.3c-19-17-51.5-17.4-73.9-15.2
					c-5.6,0.5-9.8,5.4-9.3,11c0.2,2.4,1.3,4.7,3,6.4c3.5,3.5,6.7,7.3,9.7,11.3c-23.2,6.4-45.4,16.2-65.7,29.2l-5.2-3.5
					c-44.5-36.6-115.4-83.9-135.6-33.6l64.5,115.2c-17.4,28.6-28.7,60.6-33,93.8l-38.8,204c-17.3,35.5-58.5,110.3-101.2,114.7
					c0,0,41.5,26.2,76.6,14.4l-2.4,12.7c-30.6,31.2-81.6,75-127.2,75.7c0,0,56.6,62.3,106.5,33.2l-1.8,9.7
					c-13.6,14.7-32,29.7-47.6,24.8c12.3,7.6,25.8,13,39.9,15.9l-86.8,456.2c-5.3,39.6-1,80,12.6,117.6l-0.6,0.2
					c-38.1,9.1-130.4,43.4-184.5,78.3c-26.5,17.1-10.1,55.9,23.2,55.3l266.9-5.2c4.5,2.8,9.2,5.4,13.9,7.9v3.3
					c0.4,23.3-6.7,42.4-29.9,43.6c-15.6,0.8-28.2,9.9-30.6,21.1c-4.7,21.5,5.8,38.9,27.2,40.4l84.3,5c26.4,1.6,51.9-11.3,65.3-34.1
					c4.3-7.4,7.3-15.5,8.8-23.9l5-26.6h533.6l3.5,20.7c4.1,24.3,20.3,44.8,43.1,54.3c7.1,2.9,14.7,4.3,22.3,4l91.8-3
					c22-2.2,30.1-15.7,27.9-36.9c-0.7-6.9-6.2-24.5-24.5-25.5c-15.8-0.9-25.2-8.6-28.1-21.9c23-6.1,45-15.6,65.3-28l261.6,5
					C3230.6,1031.6,3246.6,993.5,3220.5,975.7L3220.5,975.7z"/>
			</defs>
			<clipPath id="SVGID_13_">
				<use xlink:href="#SVGID_12_"  style="overflow:visible;"/>
			</clipPath>
			<g class="st15">
				<path class="st16" d="M2567.8-383.4c0,0,59,33.5,81,64.8s44.1,86.3,65.6,181c58.9,258.7,229.4,683.2,275.5,888
					c46.1,204.8-81.2,286-81.2,286l61.1-35.5c0,0,63-74.8,72.5-107.6c20.8-71.9,139-33,117.2-147.7
					c-31.7-166.5-305.7-970.5-305.7-970.5s-123.4-29.9-151.2-79.3c-20.7-36.8-73.2-64.7-124.1-79.9L2567.8-383.4z"/>
			</g>
		</g>
	</g>
</g>
<g id="body">
	<path class="st8" d="M2734.5,1062.4h-533.6 M2912.6,309.2l133.7,434.9c39,137.9-45.2,275-175.8,309.9 M2070.7,1033.7
		c-89.2-47.1-145.7-146.2-131.5-254.1l86.3-453.7"/>
	<path class="st17" d="M2248.6,820.8c-1.7,15.3-3.8,30.4-6,45.6l-3.5,22.7l-3.8,22.6c-2.6,15.1-5.4,30.1-8.1,45.2l-8.3,45.1
		l-16.6,90.3c-0.8,4.1-2,8.2-3.5,12.1c-1.5,3.9-3.3,7.8-5.4,11.4c-4.2,7.3-9.6,13.9-16,19.4c-12.9,11.1-29,17.6-45.9,18.8l-6.3,0.2
		h-6.1l-11.5-0.7l-22.9-1.3l-45.8-2.8h-4.7l-1.8-0.3c-2.3-0.4-4.5-1-6.7-1.7c-4.6-1.6-8.7-4.1-12.3-7.3c-3.6-3.3-6.4-7.3-8.3-11.7
		c-1.8-4.3-2.9-8.9-3.1-13.5c-0.2-4.4,0.1-8.9,1-13.2l0.2-0.8v-1.7l0.3-1.1c0.4-1.2,0.9-2.4,1.5-3.6c1.1-2.2,2.5-4.3,4.1-6.2
		c3.1-3.6,6.8-6.6,11-8.8c4-2.1,8.3-3.6,12.7-4.5c2.2-0.4,4.4-0.8,6.6-0.9l2.7-0.2l2.1-0.3c1.5-0.3,2.9-0.7,4.3-1.2
		c1.3-0.5,2.6-1.1,3.8-1.9c4.6-3,7.7-8.4,9.4-14.8c1.6-6.8,2.2-13.8,1.8-20.8l-0.9-22.9l-1.9-45.9c-0.6-15.3-1.3-30.6-1.8-45.9v0.5
		c-0.6-5-1.3-9.9-2-14.9c-0.4-2.5-0.8-4.9-1.2-7.4s-0.9-4.9-1.4-7.3s-1-4.9-1.6-7.3l-1.8-7.2c-1.3-4.8-2.7-9.5-4.4-14.2
		c-0.8-2.3-1.7-4.6-2.6-6.9s-1.8-4.6-2.9-6.8l-1.5-3.4l-1.6-3.3l-1.7-3.3l-1.8-3.3l-1.8-3.2l-1.9-3.2l-4-6.3
		c-1.4-2.1-2.8-4.1-4.3-6.2l-2.2-3l-2.3-3c-0.8-0.9-0.7-2.3,0.2-3.2s2.3-0.7,3.2,0.2l0,0l5.4,5.6c1.7,1.9,3.4,3.9,5.1,5.9
		c1.7,2,3.3,4,4.8,6.1l2.3,3.2l2.2,3.2c1.5,2.2,2.9,4.3,4.2,6.6l2,3.4l1.9,3.4c1.3,2.3,2.4,4.6,3.5,7c1.1,2.4,2.2,4.7,3.2,7.2
		c2,4.8,3.8,9.7,5.4,14.7s3,10,4.2,15c0.6,2.5,1.2,5.1,1.7,7.6c0.5,2.5,1.1,5.1,1.5,7.6c0.9,5.1,1.7,10.2,2.4,15.3v0.5
		c0.9,15.3,1.6,30.6,2.4,45.8l2.3,45.8l1.1,22.9c0.2,4.1,0.2,8.2-0.1,12.3c-0.3,4.2-0.9,8.4-1.9,12.5c-0.5,2.1-1.2,4.2-2,6.3
		c-0.9,2.1-1.9,4.2-3.1,6.2c-2.5,4.1-5.8,7.7-9.8,10.4c-4,2.6-8.5,4.5-13.2,5.3l-3.5,0.5l-3,0.2c-1.6,0.1-3.1,0.3-4.7,0.6
		c-3.1,0.6-6,1.7-8.8,3.2c-2.6,1.4-5,3.3-6.9,5.5c-0.9,1-1.6,2.1-2.2,3.3c-0.6,1.2-1,2.4-1.2,3.7c-0.7,3.2-0.9,6.4-0.7,9.6
		c0.2,3,0.8,5.9,2,8.7c1.1,2.6,2.8,5,4.9,6.9c2.1,1.9,4.6,3.4,7.3,4.3c1.4,0.5,2.9,0.8,4.4,1.1l1,0.2h3.9l45.8,2.7l22.9,1.4
		l11.5,0.7h10.5c13.8-0.9,27-6.2,37.6-15.2c5.2-4.5,9.6-9.8,13.1-15.7c3.5-6,6-12.4,7.4-19.2l17.4-90.1l8.7-45.1
		c2.9-15,5.8-30,8.8-45l4.7-22.5l5-22.4c3.4-14.9,7-29.8,11-44.6c0.2-1.4,1.4-2.3,2.8-2.2S2248.8,819.4,2248.6,820.8L2248.6,820.8z"
		/>
	<path class="st17" d="M2115.2,1099.6h-0.5l-1.7,0.2c-2,0.3-4,1-5.8,2c-2.6,1.4-4.8,3.2-6.7,5.5c-1.1,1.3-2,2.6-2.9,4
		c-0.9,1.5-1.7,3-2.4,4.6l-0.5,1.2l-0.5,1.2l-0.5,1.2l-0.4,1.3c-0.5,1.7-0.9,3.4-1.3,5l-0.5,2.4c-0.2,0.8-0.3,1.6-0.4,2.4
		s-0.4,3-0.6,4.4c-0.2,1.4-0.2,2.6-0.3,3.7s-0.1,2.1-0.2,2.9v2.7c0.2,3.5-2.4,6.5-5.9,6.7c-3.5,0.2-6.5-2.4-6.7-5.9
		c0-0.5,0-1,0.1-1.5c0-0.3,0.1-0.5,0.1-0.8l0.5-2.7c0.2-0.9,0.3-1.9,0.6-3.1c0.3-1.2,0.5-2.6,0.9-4.1s0.8-3.1,1.3-4.8l0.8-2.6
		l0.9-2.7c0.7-1.8,1.4-3.7,2.3-5.5l0.6-1.4l0.7-1.4l0.7-1.4l0.8-1.4c1.1-1.8,2.3-3.5,3.6-5.2c1.3-1.6,2.7-3.1,4.2-4.5
		c2.7-2.5,5.9-4.5,9.4-5.8c2.5-0.9,5.1-1.4,7.7-1.5h3.1c1.3,0.1,2.3,1.3,2.2,2.6C2117.7,1098.8,2116.5,1099.7,2115.2,1099.6
		L2115.2,1099.6z M2072.7,1094.9h-0.6l-1.6,0.4l-2.5,0.9l-0.7,0.3l-0.8,0.4l-1.6,0.9l-1.7,1.1l-1.7,1.3l-0.9,0.7l-0.8,0.8l-1.6,1.7
		l-1.5,2l-0.7,1l-0.6,1.1l-1.3,2.2l-1.1,2.4c-0.3,0.8-0.7,1.6-1,2.4l-0.8,2.5l-0.8,2.4l-0.6,2.5c-0.4,1.5-0.8,3.1-1,4.7l-0.6,4.3
		c-0.2,1.2-0.3,2.5-0.3,3.7l-0.2,2.8l-0.2,2.5v0.4c0.2,3.5-2.5,6.4-6,6.6c-3.5,0.2-6.4-2.5-6.6-6c0-0.5,0-0.9,0.1-1.4
		c0-0.3,0.1-0.5,0.1-0.8l0.5-2.7l0.6-3.1c0.3-1.2,0.4-2.5,0.9-4l1.3-4.7c0.5-1.8,1.1-3.5,1.8-5.2l1-2.7l1.3-2.7l1.3-2.7
		c0.5-0.9,1.1-1.8,1.6-2.7l1.7-2.6l1.9-2.4l0.9-1.2l1.1-1.1l2.1-2.1l2.2-1.8l1.1-0.9l1.2-0.7l2.2-1.4l2.2-1.1l2.1-0.8l1-0.4l1-0.3
		c1.1-0.3,2.1-0.5,3.2-0.7l2.2-0.2h0.8c1.2-0.1,2.3,0.8,2.4,2C2074.8,1093.7,2073.9,1094.8,2072.7,1094.9L2072.7,1094.9z
		 M2693.7,805.2l2.2,9.4c1.4,6.1,3.4,15.1,5.8,26.6c1.2,5.7,2.5,12.1,3.9,19l4.4,22.5l4.8,25.6l5,28.4l23.3,135.3
		c1.1,6.1,2,12.8,3.6,17.8c1.7,5.5,4.1,10.8,7.2,15.7c6.3,10,15.3,18.1,25.9,23.4l4.1,1.9l1.1,0.4l1,0.4l2,0.7
		c2.7,0.8,5.6,1.4,8.4,1.7l4.3,0.3h4.6l10-0.3l40.1-1.4l39.4-1.2l2.5-0.3l1.2-0.2l0.9-0.2l1.9-0.4l1.9-0.6c2.4-0.8,4.5-2,6.5-3.5
		c1.8-1.5,3.3-3.3,4.3-5.4c0.2-0.6,0.6-1.1,0.7-1.7l0.6-1.8c0.4-1.3,0.6-2.6,0.8-3.9c0.2-1.4,0.3-2.7,0.4-4.1v-2.1
		c0,0,0-1.4-0.1-2.2l-0.2-2.2v-0.3c0,0.2-0.2,0.3-0.3,0.2c-0.2,0-0.3-0.2-0.2-0.3s0.2-0.3,0.3-0.2c0.1,0,0.2,0.1,0.2,0.2v-1.6
		l-0.2-0.8l-0.2-0.9c-0.1-0.6-0.4-1.3-0.6-1.9c-1.7-5-4.7-9.3-8.4-11.7c-2-1.2-4.1-2-6.4-2.3l-1.8-0.2l-2.6-0.2h-1.2l-1.5-0.2
		l-2.9-0.5c-3.8-0.9-7.5-2.3-10.9-4.2c-3.5-2-6.6-4.7-9.1-8c-2.4-3.1-4.1-6.7-5.3-10.4c-1-3.5-1.7-7.1-1.9-10.7
		c-0.1-0.9-0.1-1.7-0.1-2.6v-7.2l0.2-9.1l0.8-35.4l0.2-8.6v-4.6l0.3-4.2l0.3-4.2c0.1-1.4,0.2-2.7,0.4-4.2l1-8.4
		c1.5-10.6,3.6-21.1,6.4-31.5c2.5-9.5,5.6-18.8,9.1-28l2.7-6.4c0.9-2.1,1.7-4.2,2.7-6.2l2.8-5.9c0.9-1.9,1.8-3.9,2.8-5.7l2.9-5.4
		l1.4-2.6l1.5-2.5l2.9-4.9c0.9-1.6,1.8-3.2,2.8-4.7l5.6-8.7l5.4-7.7l2.6-3.5l2.5-3.2c1.6-2.1,3.1-4.1,4.6-5.8l4.1-4.9l3.5-4l6.6-7.1
		c0.8-0.9,2.2-1.1,3.1-0.3c0.9,0.8,1.1,2.2,0.3,3.1l-5.6,7.8c-3.6,5.1-8.8,12.6-14.9,22.5l-4.7,7.8l-4.8,8.8
		c-0.9,1.5-1.7,3.1-2.5,4.7l-2.5,4.9l-1.3,2.5l-1.2,2.6l-2.5,5.4c-7.4,16.3-13.4,33.2-17.7,50.6l-0.9,3.6l-0.4,1.8l-0.4,1.8
		l-1.5,7.4l-0.4,1.9l-0.3,1.9l-0.6,3.8l-0.6,3.9l-0.3,1.9l-0.2,1.9l-0.9,7.8c-0.2,1.3-0.2,2.7-0.3,4.1l-0.3,4.2l-0.3,4.2v12.5
		l-0.5,35.4v15.8c0,0,0,1.4,0.1,2c0.2,2.5,0.7,5.1,1.4,7.5c0.7,2.2,1.8,4.3,3.2,6.2c2.7,3.6,6.9,5.8,12,6.9l1.8,0.3l0.9,0.2h1.2
		l2.2,0.2l3,0.3c4.1,0.6,8.1,2,11.7,4.2c3.5,2.2,6.6,5.1,9,8.5c2.3,3.2,4.1,6.8,5.4,10.5c0.3,0.9,0.6,1.8,0.8,2.8l0.4,1.4l0.3,1.6
		v2.9l0.2,2.7c0.1,0.9,0.1,1.8,0.1,2.8s0.1,1.8,0,2.8c-0.1,1.9-0.2,3.8-0.5,5.7c-0.3,2-0.7,3.9-1.2,5.8l-1,2.9
		c-0.3,1-0.8,1.9-1.3,2.9c-1.9,3.9-4.6,7.3-7.9,10.1c-3.3,2.6-6.9,4.7-10.9,6l-2.8,0.9l-3,0.7l-1.5,0.3l-1.3,0.2l-2.5,0.3h-5.7
		l-5,0.2l-10,0.4l-20.1,0.7l-40.1,1.3l-10,0.3h-5.4l-5.6-0.4c-3.7-0.4-7.4-1.2-11-2.3l-2.7-0.9l-1.4-0.5l-1.2-0.5l-4.9-2.3
		c-12.9-6.5-23.7-16.4-31.4-28.6c-3.8-6-6.7-12.4-8.7-19.2l-0.7-2.6l-0.3-1.3c-0.1-0.4-0.2-0.9-0.3-1.3l-0.5-2.3l-0.2-1.2v-1.4
		l-1.5-9.3l-22-135.6l-4.5-28.5l-3.8-25.7l-3.2-22.7c-1-7-1.8-13.4-2.5-19.3c-1.5-11.6-2.5-20.8-3.2-27.1l-1-9.6
		c0.4-1.1,1.7-1.7,2.8-1.3C2693.1,804.6,2693.4,804.9,2693.7,805.2L2693.7,805.2z"/>
	<path class="st17" d="M2803.2,1087.4h3.2c2.7,0.3,5.4,0.8,8,1.7c1.8,0.6,3.5,1.3,5.1,2.1c1.9,0.9,3.6,2,5.3,3.3
		c1.8,1.3,3.5,2.9,5,4.5c0.7,0.9,1.5,1.7,2.2,2.7l1,1.4l1,1.5c1.2,1.9,2.4,4,3.3,6.1c0.9,2,1.7,4.1,2.4,6.2c0.4,1,0.6,2,0.9,3
		c0.3,1,0.5,2,0.7,2.9l0.6,2.8l0.4,2.6c0.3,1.7,0.4,3.2,0.6,4.6s0.3,2.5,0.3,3.5l0.2,3.1c-0.2,3.5-3.1,6.2-6.6,6
		c-3-0.1-5.4-2.3-5.9-5.2c0-0.2,0-0.5,0-0.7v-0.3l0.2-2.7c0.1-0.9,0.1-1.9,0.1-3.1s0.1-2.6,0-4v-2.3l-0.2-2.4
		c-0.1-0.8-0.2-1.7-0.3-2.5s-0.2-1.8-0.4-2.6c-0.3-1.8-0.8-3.6-1.3-5.3c-0.6-1.8-1.3-3.5-2.1-5.2l-0.6-1.3l-0.7-1.2
		c-0.4-0.8-1-1.6-1.5-2.3c-1-1.5-2.2-2.8-3.5-4.1c-2.3-2.3-5-4.1-8-5.5c-2.1-1-4.3-1.7-6.6-2.2l-1.9-0.3h-0.7
		c-1.3,0.1-2.4-1-2.5-2.3S2801.9,1087.5,2803.2,1087.4z M2853.8,1084.2h3.2c2.7,0.3,5.4,0.8,8,1.7c1.8,0.6,3.5,1.3,5.1,2.1
		c1.9,0.9,3.6,2,5.3,3.3c1.8,1.3,3.5,2.9,5,4.5c0.7,0.9,1.5,1.7,2.2,2.7l1,1.4l1,1.5c1.2,1.9,2.4,4,3.3,6.1c0.9,2,1.7,4.1,2.4,6.2
		c0.4,1,0.6,2,0.9,3s0.5,2,0.7,2.9l0.6,2.8l0.4,2.6c0.3,1.7,0.4,3.2,0.6,4.6c0.2,1.4,0.3,2.5,0.3,3.5l0.2,3.1c0.5,3.4-2,6.6-5.4,7.1
		c-3.4,0.5-6.6-2-7.1-5.4c-0.1-0.5-0.1-1.1,0-1.6v-0.3l0.2-2.7c0.1-0.9,0.1-1.9,0.1-3.1s0.1-2.6,0-4v-2.3l-0.2-2.4
		c-0.1-0.8-0.2-1.7-0.3-2.5s-0.2-1.8-0.4-2.6c-0.3-1.8-0.8-3.6-1.3-5.3c-0.6-1.8-1.3-3.5-2.1-5.2l-0.6-1.3l-0.7-1.2
		c-0.4-0.8-1-1.6-1.5-2.3c-1-1.5-2.2-2.8-3.5-4.1c-2.3-2.3-5-4.1-8-5.5c-2.1-1-4.3-1.7-6.6-2.2l-1.9-0.3h-0.7
		c-1.3,0.1-2.4-1-2.5-2.3S2852.5,1084.3,2853.8,1084.2L2853.8,1084.2z"/>
	<path class="st18" d="M2226.2-357.1c-41.5-34.1-105.9-77.5-130.8-42.6c-3.4,4.7-3.7,10.9-0.9,16l60.5,108.1 M2627-366
		c24.5-19.2,89.4-68.2,129.3-66.3c8.3,0.4,14.7,7.4,14.3,15.6c-0.1,2.6-0.9,5.1-2.2,7.3L2704-305.2"/>
	<path class="st17" d="M2087.4,314.9l-2.7,1.9l-1.4,0.9l-1.5,0.9l-3,1.8l-3.1,1.5l-1.5,0.8l-1.6,0.7l-3.2,1.3
		c-2.2,0.7-4.4,1.5-6.6,2.1c-2.2,0.6-4.5,1.1-6.8,1.6c-2.3,0.5-4.6,0.7-6.9,0.9s-4.6,0.3-6.9,0.4h-3.5l-3.5-0.2l-3.5-0.3l-3.4-0.4
		l-3.4-0.5l-3.4-0.6l-6.8-1.5l-6.7-1.9l-6.5-2.3l-6.4-2.6l-6.3-2.9l-3.1-1.6l-1.6-0.9l-1.7-1c-3.1-2-3.9-6.1-1.9-9.1
		c1.5-2.3,4.2-3.4,6.8-2.9l0.8,0.2l1.8,0.4l1.9,0.2h1.9l2-0.3l2.1-0.5l2.1-0.7l2.1-0.8l2.1-1c1.4-0.7,2.8-1.5,4.2-2.4l2.1-1.3l2-1.5
		l2-1.5l2-1.6l3.9-3.4c5.1-4.7,9.9-9.8,14.4-15.1c2.3-2.7,4.5-5.4,6.6-8.2l3.1-4.2l3-4.2l10.4,8c-2.1,2.4-4.4,4.7-6.8,6.8
		c-2.4,2.2-5,4.2-7.7,6c-2.7,1.9-5.5,3.5-8.5,5c-3,1.5-6.1,2.7-9.3,3.7c-6.4,1.9-13,2.8-19.6,2.7c-6.5-0.2-12.9-1.1-19.2-2.9
		c-6.1-1.7-12.1-4-17.8-6.8c-5.6-2.8-11-5.9-16.2-9.4c-5.1-3.5-10.1-7.2-14.8-11.2c-2.4-2-4.7-4-6.9-6.1l-3.4-3.2l-1.7-1.7l-1.7-1.8
		c-2.4-2.6-2.3-6.7,0.4-9.2c1.1-1,2.5-1.6,4-1.7h0.4l5.5-0.3l5.5-0.7l1.4-0.2l1.4-0.3l2.7-0.6l2.7-0.6l2.7-0.8l2.7-0.8l2.7-0.9
		l2.7-1l2.7-1l5.3-2.2l5.2-2.5l1.3-0.6l1.3-0.7l2.6-1.4l2.6-1.4l2.5-1.5l5-3l4.9-3.1c3.2-2.2,6.5-4.3,9.7-6.7s6.3-4.7,9.4-7.1
		s6.2-4.9,9.2-7.5s6-5.1,9-7.7l4.4-4l4.3-4.1l8.5-8.3l4.2-4.2l4.1-4.3l8.1-8.7l7.9-8.9c2.6-3,5.2-6,7.6-9l0.2-0.2c2-3,6-3.8,9-1.8
		c3,2,3.8,6,1.8,9c-0.2,0.3-0.5,0.6-0.7,0.9v0.2l-2.5,2.9l-1.3,1.5l-1.4,1.4l-2.8,2.7l-3,2.5c-1,0.8-2.1,1.6-3.2,2.3
		c-1.1,0.8-2.2,1.5-3.3,2.1l-3.4,1.9l-3.6,1.6l-0.9,0.4l-0.9,0.3l-1.8,0.6l-1.9,0.6l-1.9,0.5l-1.9,0.5l-1.9,0.4l-3.8,0.7l-3.8,0.4
		l-3.8,0.2h-7.6l-3.8-0.3l-3.7-0.4c-2.5-0.4-4.9-0.8-7.3-1.3l-3.6-0.8l-3.6-0.9l-7-2.2c-4.6-1.6-9.2-3.4-13.6-5.4l-6.6-3.2l-3.2-1.7
		l-1.6-0.9l-1.7-1c-3-1.9-3.9-5.8-2.1-8.8c1-1.7,2.8-2.8,4.8-3h0.1c5.8-0.7,11.3-2.7,16.2-5.8c5.3-3.2,10.2-7.1,14.6-11.4
		c9.1-8.8,17.1-19.2,24.4-30c1.8-2.7,3.6-5.5,5.3-8.3l1.3-2.1l1.2-2l2.6-4.3c1.8-2.9,3.2-5.7,4.9-8.6l4.6-8.7
		c6-11.7,11.3-23.7,16-36c4.7-12.3,8.7-24.9,12.1-37.6c0.9-3.2,1.6-6.4,2.4-9.6s1.5-6.4,2.1-9.6c1.3-6.4,2.6-13,3.8-19.6l15-78.9
		l7.5-39.4l0.2-1.2v-1.4l0.4-2.5l0.7-5c0.6-3.4,1.3-6.8,1.9-10.2c0.6-3.4,1.5-6.7,2.3-10l1.3-5l0.7-2.5l0.7-2.5
		c3.9-13.2,9-26,15-38.3c6.1-12.3,13.1-24.2,21.2-35.3c8.2-11.1,17.2-21.5,27.1-31.1c9.8-9.6,20.3-18.5,31.5-26.4
		c11.2-8,23.1-15,35.5-20.9c12.4-5.9,25.2-10.9,38.4-14.7c3.3-1,6.8,0.9,7.8,4.2c1,3.3-0.9,6.8-4.2,7.8c-12.5,3.7-24.7,8.3-36.5,14
		c-11.8,5.6-23.1,12.3-33.7,19.8c-10.6,7.5-20.6,15.9-29.9,25.1c-9.2,9.2-17.7,19.1-25.3,29.7c-7.6,10.6-14.4,21.8-20.1,33.5
		c-5.7,11.7-10.5,23.9-14.2,36.4l-0.7,2.3l-0.6,2.4l-1.3,4.7c-0.8,3.2-1.5,6.3-2.2,9.5s-1.2,6.3-1.8,9.5l-0.7,5l-0.4,2.5v1.5
		l-0.2,1.2l-7.5,39.4l-15,78.9c-1.3,6.6-2.5,13.1-3.8,19.8c-0.7,3.3-1.5,6.6-2.2,10c-0.7,3.4-1.6,6.6-2.5,9.9
		c-3.5,13.2-7.7,26.2-12.5,38.9c-4.9,12.7-10.4,25.2-16.6,37.3l-4.8,9c-1.7,3-3.3,6.1-5,8.9l-2.5,4.3l-1.4,2.2l-1.3,2.2
		c-1.8,2.9-3.7,5.7-5.6,8.6c-7.6,11.3-16,22.3-26.2,32.1c-5.1,5-10.8,9.5-17,13.2c-6.5,4-13.8,6.6-21.4,7.5l2.8-11.8l1.3,0.8
		l1.4,0.8l2.9,1.6l6,2.9c4,1.8,8.2,3.5,12.4,4.9l6.3,2l3.2,0.8l3.2,0.7l6.4,1.1l3.2,0.4l3.2,0.2h6.4l3.2-0.2l3.1-0.3l3.1-0.6
		l1.5-0.3l1.5-0.4l1.5-0.4l1.5-0.5l1.5-0.5l0.7-0.3l0.7-0.3l2.8-1.2l2.7-1.5c0.9-0.5,1.8-1,2.6-1.6c0.9-0.5,1.7-1.1,2.5-1.8l2.4-1.9
		l2.2-2.2l1.1-1.1l1-1.2l2-2.4l10.1,8c-2.7,3.3-5.3,6.3-7.9,9.4l-8.1,9.1l-8.3,8.9l-4.3,4.4l-4.3,4.3l-8.8,8.5l-4.5,4.2l-4.5,4.1
		c-3.1,2.7-6.1,5.4-9.3,8c-3.2,2.6-6.3,5.2-9.5,7.7c-3.2,2.5-6.5,5-9.9,7.4c-3.4,2.4-6.7,4.7-10.2,7l-5.2,3.3l-5.3,3.2l-2.7,1.6
		l-2.7,1.5l-2.7,1.5l-1.4,0.7l-1.4,0.7l-5.6,2.7l-5.8,2.5l-2.9,1.1l-3,1.1l-3,1l-3.1,0.9l-3.1,0.9l-3.1,0.7l-3.1,0.7l-1.6,0.3
		l-1.6,0.2c-2.1,0.3-4.3,0.7-6.4,0.9l-6.5,0.4l4.7-10.9l1.4,1.4l1.5,1.5l3.1,3c2.1,1.9,4.2,3.8,6.4,5.7c4.4,3.7,9,7.1,13.7,10.3
		c4.7,3.2,9.6,6,14.7,8.5c5,2.5,10.2,4.5,15.5,6c5.2,1.5,10.5,2.3,15.9,2.4c5.3,0.1,10.5-0.7,15.6-2.2c2.5-0.8,4.9-1.7,7.3-2.9
		c2.4-1.2,4.7-2.5,6.9-4c2.2-1.5,4.3-3.2,6.3-5c2-1.8,4-3.8,5.8-5.8h0.1c2.5-2.7,6.6-2.9,9.3-0.4c2.4,2.2,2.8,5.9,1,8.6l-3.3,4.7
		l-3.3,4.5c-2.3,3-4.6,5.9-7,8.7c-4.8,5.8-10.1,11.3-15.6,16.4l-4.3,3.8l-2.3,1.8l-2.3,1.8l-2.4,1.7l-2.5,1.6c-1.7,1-3.4,2.1-5.3,3
		l-2.8,1.3l-2.9,1.2l-3.1,1l-3.2,0.7l-3.4,0.4h-3.5l-3.5-0.4l-3.5-0.8l5.7-11.8l1.1,0.8l1.3,0.8l2.6,1.6l5.5,3.1l5.7,2.8l5.8,2.5
		l5.9,2.2l6,1.9l3.1,0.8l3.1,0.7l3.1,0.6l3.1,0.5l3.1,0.4l3.1,0.3c2.1,0.1,4.2,0.2,6.3,0.1l6.3-0.3c0,0,4.2-0.5,6.2-0.9
		s4.1-0.9,6.1-1.4l3-1l1.5-0.5l1.5-0.6l2.9-1.2l2.8-1.4l1.4-0.7l1.4-0.8l2.9-1.6c1.2-0.6,2.8-0.1,3.4,1.1S2088.6,314.3,2087.4,314.9
		L2087.4,314.9L2087.4,314.9z M2575.8-391.1l4.9,1.2l2.5,0.6l2.5,0.7l5.1,1.5l5,1.6c6.6,2.1,13.1,4.6,19.6,7.3
		c12.8,5.4,25.2,11.9,36.9,19.4c11.7,7.5,22.8,15.9,33.1,25.3l3.8,3.5l3.7,3.6c2.5,2.4,4.9,5,7.3,7.5c4.7,5.1,9.3,10.4,13.5,15.9
		c4.2,5.5,8.3,11.2,12.2,16.9s7.4,11.8,10.7,17.9c3.3,6.1,6.3,12.4,9.2,18.8s5.3,12.9,7.5,19.5c0.5,1.7,1.1,3.3,1.6,5l1.5,5l2.9,9.7
		l5.8,19.5l11.7,39l23.3,78l5.8,19.4l1.5,4.9l0.8,2.4l0.8,2.3l1.6,4.7l1.7,4.7c2.2,6.3,4.8,12.4,7.4,18.6c2.6,6.2,5.5,12.2,8.5,18.1
		c12,23.8,26.8,46,44.2,66.2c8.7,10,18,19.4,28.3,27.1c5,3.8,10.5,7,16.2,9.5c5.3,2.4,11.1,3.6,17,3.6c3.6-0.3,6.8,2.5,7,6.1
		c0.2,2.2-0.8,4.3-2.5,5.7l-1.5,1.2l-1.5,1.1l-3,2.2l-6.1,4.1c-4.1,2.6-8.3,5-12.7,7.2l-6.7,3.1l-3.4,1.4l-3.5,1.3
		c-2.3,0.9-4.7,1.6-7.1,2.3l-3.6,0.9l-3.7,0.8l-3.7,0.6l-1.9,0.3l-1.9,0.2l-3.8,0.3h-3.9l-3.9-0.2l-1.9-0.2l-1.9-0.2l-1.9-0.2
		l-1.9-0.4l-1.9-0.4l-1-0.2l-0.9-0.3l-3.8-1.1l-3.7-1.4c-1.2-0.5-2.4-1-3.6-1.6c-1.2-0.6-2.4-1.2-3.5-1.9l-3.4-2.1l-3.2-2.3
		l-1.6-1.2l-1.5-1.3l-2.9-2.6c-2.8-2.5-3.1-6.7-0.6-9.5s6.7-3.1,9.5-0.6h0.1l0.3,0.2c2.8,2.6,5.8,5.3,8.7,7.9l9,7.7l9.2,7.5l4.7,3.7
		l4.7,3.6l9.6,7l4.8,3.4l4.9,3.3c3.3,2.2,6.6,4.4,9.9,6.5s6.7,4.1,10.1,6.2c3.4,2.1,6.8,3.9,10.3,5.7s7,3.6,10.5,5.3l5.3,2.4
		l5.4,2.3l2.7,1.1l2.7,1l2.7,1l1.4,0.5l1.4,0.4l5.5,1.8l5.5,1.5l2.8,0.7l2.8,0.6l2.8,0.6l2.8,0.4l2.8,0.4l2.8,0.3l2.8,0.2h8.3
		l5.5-0.4h0.4c3.6-0.3,6.8,2.4,7.1,6.1c0.1,1.5-0.3,3.1-1.2,4.3l-1.4,2l-1.4,1.9l-2.9,3.6c-2,2.4-4,4.7-6.1,7
		c-4.2,4.6-8.6,8.9-13.2,13c-4.7,4.5-9.7,8.6-14.9,12.4c-5.3,3.5-10.9,6.6-16.7,9.1c-6,2.6-12.3,4.4-18.7,5.4
		c-6.6,1-13.2,1-19.8-0.1c-3.3-0.5-6.5-1.3-9.6-2.4c-3.1-1-6.2-2.3-9.1-3.8c-2.9-1.5-5.7-3.2-8.4-5c-2.6-1.8-5.2-3.7-7.6-5.8
		l8.8-8.9l3.5,3.8l3.7,3.8c2.5,2.5,5,4.9,7.6,7.3c5.1,4.7,10.5,9.1,16.2,13.2l4.3,2.9l2.2,1.3l2.2,1.3l2.2,1.2l2.2,1.1
		c1.5,0.7,3,1.4,4.5,1.9l2.3,0.8l2.2,0.6l2.2,0.4l2.2,0.2h2.1l2-0.2l1.9-0.4l1.8-0.7l0.7-0.2c3-0.9,6.1,0.8,7,3.7
		c0.6,2.1,0,4.3-1.6,5.8l-2.8,2.3l-2.8,2.1c-1.9,1.4-3.8,2.6-5.7,3.8l-5.9,3.5l-6.1,3.2l-6.3,2.9l-6.4,2.5l-3.3,1.1l-3.3,1l-3.4,0.9
		l-3.4,0.8l-3.4,0.7l-3.4,0.5c-2.3,0.3-4.6,0.5-6.9,0.6c-2.3,0.1-4.6,0.1-7,0.1c-2.4,0-4.6-0.2-6.9-0.6s-4.6-0.8-6.8-1.2l-3.4-0.9
		l-1.7-0.4l-1.6-0.6l-3.3-1.1l-3.2-1.3l-1.6-0.7l-1.5-0.8l-3.1-1.6c-1.3-0.6-1.9-2-1.3-3.3c0.6-1.3,2-1.9,3.3-1.3h0.2l3,1.2l1.5,0.6
		l1.5,0.5l3,1l3.1,0.8l1.5,0.4l1.6,0.3l3.1,0.6c2.1,0.2,4.2,0.5,6.3,0.6s4.2,0.1,6.3,0.1s4.2-0.2,6.3-0.5s4.2-0.6,6.2-0.9l3.1-0.7
		l3.1-0.8l3-0.9l3-1l3-1.1l2.9-1.2l2.9-1.3l2.9-1.3l5.6-2.9l5.5-3.2l5.3-3.5l5.1-3.7l2.5-1.9l2.3-1.9l6.1,9.3l-3.2,1.3l-3.3,0.9
		l-3.4,0.4h-3.3l-3.2-0.3l-3.1-0.5l-3-0.7l-2.9-0.9c-1.9-0.6-3.8-1.4-5.6-2.2l-2.7-1.3l-2.6-1.4l-2.5-1.4l-2.5-1.5l-4.8-3.1
		c-6.2-4.3-12.1-9-17.7-14c-2.8-2.5-5.5-5-8.1-7.7l-3.9-4l-3.9-4.2c-2.4-2.5-2.3-6.5,0.2-8.9c2.4-2.3,6.1-2.4,8.5-0.2h0.1
		c2.1,1.8,4.3,3.4,6.6,5c2.2,1.5,4.6,2.9,7,4.1c2.4,1.2,4.9,2.2,7.4,3.1c2.5,0.8,5.1,1.5,7.7,1.9c5.2,0.8,10.6,0.8,15.8,0
		c5.3-0.9,10.5-2.4,15.5-4.6c5.1-2.2,9.9-4.9,14.5-8c4.7-3.2,9.2-6.6,13.4-10.4c4.2-3.8,8.3-7.9,12.1-12.1c1.9-2.1,3.8-4.3,5.6-6.5
		l2.6-3.3l1.3-1.7l1.2-1.6l6.3,10.3l-6.5,0.5h-9.7l-3.2-0.3l-3.2-0.3l-3.2-0.5l-3.2-0.5l-3.1-0.6l-3.1-0.7l-3.1-0.7l-6.1-1.6l-6-1.9
		l-1.5-0.5l-1.5-0.5l-2.9-1.1l-2.9-1.1l-2.9-1.2l-5.7-2.4l-5.6-2.6c-3.7-1.8-7.4-3.6-11-5.6l-10.8-6c0,0-7-4.2-10.5-6.4
		s-6.9-4.4-10.3-6.7l-5.1-3.5l-5-3.5l-9.8-7.3l-4.9-3.7l-4.8-3.8l-9.5-7.7l-9.3-7.9c-3.1-2.7-6.1-5.4-9.1-8.3l9.3-9.7l2.3,2.1l1.2,1
		l1.2,0.9l2.5,1.8l2.6,1.6c0.9,0.5,1.8,1,2.7,1.4c0.9,0.5,1.8,0.9,2.8,1.3l2.8,1.1l2.9,0.8l0.7,0.2l0.7,0.2l1.5,0.3l1.5,0.3l1.5,0.2
		l1.5,0.2h7.8l3.1-0.2h1.6l1.6-0.2l3.1-0.5l3.1-0.7l3.1-0.8l6.2-2l3.1-1.2l3-1.2l6-2.8c4-2,7.8-4.1,11.6-6.5l5.5-3.7l2.7-1.9l1.3-1
		l1.2-0.9l4.5,11.8c-7.8,0.1-15.5-1.5-22.6-4.7c-6.7-3-13-6.7-18.8-11.1c-11.5-8.6-21.3-18.6-30.4-29.1c-18-21.1-33.4-44.2-45.8-69
		c-3.1-6.2-6-12.5-8.8-18.8c-2.8-6.3-5.3-12.8-7.6-19.3l-1.8-4.9l-1.7-5l-0.8-2.5l-0.8-2.4l-1.5-4.9L2788-70l-23.2-78l-11.6-39
		l-5.8-19.5l-2.9-9.8l-1.4-4.7c-0.5-1.6-1-3.1-1.6-4.7c-2.1-6.3-4.5-12.4-7.1-18.5c-2.6-6.1-5.5-12-8.7-17.8
		c-3.2-5.8-6.6-11.5-10.1-17s-7.5-10.9-11.6-16.1c-4.1-5.2-8.4-10.2-12.9-15.1c-2.3-2.4-4.5-4.8-6.9-7.1l-3.5-3.5l-3.7-3.4
		c-9.8-8.9-20.3-17-31.5-24.1c-11.2-7.1-22.9-13.3-35.1-18.4c-6.1-2.5-12.3-4.9-18.6-6.9l-4.7-1.5l-4.7-1.4l-2.4-0.7l-2.5-0.6
		l-4.9-1.2c-3.3-0.9-5.3-4.3-4.4-7.6C2569-390,2572.5-392,2575.8-391.1L2575.8-391.1z"/>
	<path class="st17" d="M2311-355l-5.4-7.8c-1.7-2.5-3.9-5.5-6.6-9s-5.7-7.4-9.4-11.5c-1.8-2-3.8-4.1-6-6.2l-0.4-0.4l-0.7-0.8
		l-0.4-0.4l-0.2-0.2h-0.1l-0.2-0.2l-1.3-1.9c-0.4-0.6-0.6-1.2-0.9-1.8c-1.1-2.6-1.4-5.4-1.1-8.1c0.4-2.8,1.4-5.5,3.1-7.8
		c1.8-2.4,4.2-4.3,7-5.4l2.2-0.7l2.2-0.4l3-0.3l6.1-0.5c8.9-0.6,17.8-0.4,26.7,0.5c4.9,0.5,9.7,1.4,14.5,2.5
		c5.1,1.3,10.1,3,14.9,5.2l3.7,1.9c1.2,0.7,2.4,1.4,3.6,2.2c1.2,0.8,2.4,1.6,3.5,2.5l1.7,1.4l0.9,0.7l0.4,0.3l-0.2-0.2
		c-0.3-0.3-0.7-0.5-1.1-0.7c-2.7-1.2-5.9,0.1-7.1,2.9c0,0,0,0,0,0c-0.3,0.7-0.4,1.4-0.4,2.2c0,0.3,0,0.7,0.1,1l-0.2-0.9l-0.9-3.9
		c-0.6-2.6-1.2-5.3-1.7-8c-1.1-5.4-1.9-11-2.5-16.7c-0.3-2.9-0.5-5.8-0.6-8.8v-4.6c0,0,0.1-3.1,0.3-4.7c0.2-1.6,0.4-3.3,0.8-4.9
		c0.2-0.8,0.3-1.7,0.6-2.5l0.9-2.6v-0.3l0.2-0.5l0.2-0.5l0.2-0.5l0.3-0.5l0.6-1l0.3-0.5l0.4-0.5l0.4-0.5l0.5-0.5l0.6-0.5l0.7-0.5
		l1.6-0.9c1.2-0.5,2.5-0.8,3.8-0.8h1.8l1.5,0.4c1.4,0.5,2.7,1.2,3.9,2.1c1.6,1.2,3,2.6,4.2,4.2c1.1,1.4,2.1,2.7,3,4.1
		s3.4,5.4,4.9,8.2c3,5.5,5.6,11.1,8.1,16.7c1.3,2.9,2.5,5.7,3.7,8.6l0.9,2.2l0.4,1.1l-0.3-0.6c-0.3-0.5-0.7-1-1.1-1.4
		c-2.3-2.2-6-2.1-8.2,0.2c-0.5,0.5-0.8,1-1.1,1.6v-0.3l0.9-2.2c4.9-11.5,10.2-23,15.7-34.6c5.6-11.6,11.5-23.2,18.2-34.7
		c3.3-5.7,6.9-11.5,10.9-17.1c2-2.9,4.2-5.6,6.5-8.3c2.5-3,5.4-5.6,8.6-7.9c2.1-1.5,4.6-2.5,7.1-3.1h3.8l1.4,0.2
		c1.7,0.3,3.4,1,4.9,2c2.3,1.6,4.2,3.7,5.5,6.1c1.1,1.8,1.9,3.8,2.6,5.8c1.2,3.5,2,7.1,2.6,10.8c0.6,3.5,1,7,1.3,10.4
		c1,13.4,1.2,26.9,0.6,40.4c-0.3,6.7-0.6,13.3-1.1,19.9v-0.3c0,0,0.1,0.4-0.1-0.8c-0.1-0.6-0.3-1.2-0.6-1.8
		c-0.2-0.5-0.5-0.9-0.9-1.3c-1.3-1.4-3.3-2.1-5.2-1.8c-1,0.2-2,0.6-2.8,1.2c-0.8,0.6-1.4,1.4-1.8,2.3l0.3-0.9l1.8-4.6l3.7-9.2
		c5-12.2,10.3-24.1,16.4-35.7c3.1-5.9,6.5-11.7,10.4-17.1c1-1.4,2.1-2.8,3.4-4.2c1.3-1.5,2.7-2.9,4.3-4.1c1-0.8,2-1.4,3.1-2
		c1.4-0.7,2.9-1.2,4.5-1.4c2-0.3,4,0,5.9,0.8l1.1,0.5h0.3l0.8,0.5l1.3,1.1l0.9,0.9c0.9,1.1,1.7,2.2,2.3,3.5c0.5,1,1,2.1,1.3,3.2
		c0.6,1.9,1,3.8,1.2,5.7c0.4,3.4,0.6,6.7,0.5,10.1c-0.2,6.3-0.7,12.6-1.5,18.8c-1.5,12.1-3.7,23.7-6.1,35
		c-1.2,5.6-2.4,11.1-3.7,16.5l-1,4l-0.5,2l-0.2,1v0.2c-0.1,0.3,0,0,0.1-0.8c0-0.4-0.1-0.9-0.2-1.3c-0.1-0.4-0.2-0.7-0.4-1.1
		c-1-2-3.2-3.2-5.5-2.9c-0.7,0.1-1.5,0.3-2.1,0.7l-0.3,0.2l0.2-0.2l0.8-0.6l3.3-2.4c8.5-6.2,17.4-11.9,26.6-17.1
		c4.5-2.5,8.9-4.8,13.3-6.9l6.7-3l3.4-1.3l3.4-1.3l3.4-1.2l3.4-1l1.7-0.5l0.8-0.2h5.1l1.3,0.2c3.4,0.5,6.6,2,9.1,4.4
		c2.4,2.3,4,5.2,4.7,8.4c0.7,3.1,0.4,6.4-0.8,9.4c-0.3,0.7-0.6,1.4-1,2.1l-0.5,0.9l-0.4,0.6l-1.6,2.4l-5.8,9c-3.7,5.8-7,11.2-9.9,16
		c-5.8,9.8-9.9,17.7-12.6,23.2l-1.7,3.6l-1.2,2.7l-1,2.2c-0.6,1.2-2.1,1.8-3.3,1.2c-1-0.5-1.6-1.6-1.4-2.8l0.5-2.4
		c0.3-1.6,0.9-4,1.8-7c0.5-1.5,0.9-3.2,1.6-5l1-2.9l1.2-3.1c1.7-4.3,3.7-9.1,6.2-14.4s5.5-11.1,9-17.2c1.7-3.1,3.6-6.2,5.6-9.5
		l1.5-2.4l0.4-0.6v-0.3c0.1-0.2,0.2-0.4,0.2-0.6c0.2-0.7,0.3-1.5,0.1-2.2c-0.2-0.8-0.7-1.5-1.3-2.1c-0.6-0.5-1.3-0.9-2.1-1h-1.6
		l-0.7,0.2l-1.5,0.4l-3,0.9l-3,1.1l-3,1.2l-3,1.2l-6.1,2.8c-4.1,1.9-8.3,4.2-12.5,6.6c-8.7,5-17.1,10.5-25.2,16.5l-3.1,2.3l-0.8,0.6
		l-0.2,0.2l-0.7,0.5c-3.7,2.3-8.5,1.1-10.7-2.5c-0.1-0.2-0.3-0.4-0.4-0.7c-0.3-0.5-0.5-1-0.6-1.6c-0.1-0.6-0.2-1.2-0.2-1.8
		c0-0.4,0-0.9,0.1-1.3l0.2-0.8v-0.5l0.2-1l0.5-2l0.9-4c1.2-5.3,2.4-10.7,3.5-16.2c2.2-11,4.3-22.4,5.6-33.9
		c0.7-5.7,1.1-11.5,1.2-17.3c0.1-2.7-0.1-5.4-0.4-8.1c-0.1-1.2-0.4-2.3-0.7-3.4c-0.2-0.5-0.4-1-0.7-1.5h0.1l0.4,0.3h-0.4l0.6,0.3
		c0.4,0.2,0.9,0.2,1.3,0.2c0.6-0.1-0.1,0-0.8,0.6c-1.9,1.6-3.5,3.5-4.9,5.5c-3.4,4.9-6.5,10.1-9.2,15.4c-5.7,11-10.8,22.7-15.7,34.6
		l-3.6,9l-1.7,4.5l-0.2,0.6v0.3l-0.2,0.5c-1.9,4.2-6.8,6.2-11.1,4.3c-1-0.5-2-1.1-2.7-1.9c-0.5-0.5-0.9-1.1-1.3-1.8
		c-0.4-0.8-0.7-1.6-0.8-2.4c-0.1-0.5-0.1-0.9-0.1-1.4c0-0.3,0-0.7,0-1c0.5-6.5,0.8-12.9,1-19.4c0.5-12.9,0.3-25.8-0.7-38.6
		c-0.3-3.1-0.7-6.3-1.2-9.3c-0.4-2.8-1.1-5.7-2-8.4c-0.4-1.1-0.8-2.2-1.4-3.2c-0.3-0.5-0.6-0.9-1-1.3h0.9c0.8-0.1-1,0.1-0.2,0
		c-0.7,0.2-1.3,0.5-1.9,0.9c-2.1,1.6-4.1,3.4-5.8,5.4c-2,2.3-3.9,4.7-5.6,7.2c-3.6,5-7,10.4-10.2,15.9c-6.4,11-12.2,22.3-17.8,33.7
		s-10.7,22.7-15.6,34l-0.9,2.1l-0.3,0.7c-2,4.1-6.9,5.9-11,4c-0.8-0.4-1.5-0.9-2.2-1.5c-0.6-0.6-1.1-1.2-1.5-1.9l-0.5-1.1l-0.4-1
		l-0.8-2.1l-3.5-8.3c-2.4-5.5-4.8-10.8-7.5-15.8c-1.3-2.5-2.7-4.9-4.2-7.1s-1.5-2.1-2.2-3c-0.6-0.7-1.2-1.4-1.9-2
		c-0.2-0.2-0.3-0.2,0.2,0h1.1c0.6,0,1.2-0.2,1.7-0.4l0.6-0.4l0.2-0.2h0.2l0.2-0.2h0.1l-0.2,0.5c-0.1,0.1,0.1-0.2,0,0v0.2l-0.5,1.5
		c-0.2,0.5-0.3,1.1-0.4,1.6c-0.3,1.2-0.5,2.3-0.6,3.5c-0.2,1.2-0.2,2.5-0.3,3.7s-0.1,2.6,0,3.8s0.2,5.2,0.4,7.8
		c0.5,5.2,1.3,10.4,2.2,15.5c0.5,2.5,1,5.1,1.5,7.6l0.9,3.7l0.2,0.9v-0.7c0.3,1.5,0.2,3.1-0.4,4.6c-1.6,4-6.2,5.9-10.2,4.3
		c-0.1,0-0.2-0.1-0.2-0.1c-0.6-0.3-1.1-0.6-1.6-0.9l-0.6-0.5l-0.3-0.3l-0.6-0.5l-1.3-1c-0.9-0.7-1.8-1.3-2.7-1.9
		c-0.9-0.6-1.8-1.2-2.8-1.7l-2.9-1.6c-4-1.8-8.2-3.3-12.5-4.4c-4.2-1-8.5-1.8-12.8-2.3c-8.1-0.9-16.3-1.1-24.5-0.6l-5.7,0.4
		l-2.7,0.2h-0.6l-0.5,0.2c-1.3,0.6-2.3,1.8-2.5,3.2c-0.1,0.7-0.1,1.4,0.1,2l0.2,0.4c0.1,0,0.1,0,0.1,0.1c0,0.1,0,0.1-0.1,0.1h0.1
		l0.2,0.2l0.4,0.5l0.2,0.2h0.1l-0.2-0.2l0.4,0.5c2.2,2.4,4.3,4.8,6.2,7.4c5.5,7.5,10.1,15.5,13.7,24.1c1.2,2.9,2.1,5.2,2.6,6.8
		l0.8,2.3c0.7,1.2,0.2,2.8-1,3.5S2311.7-353.8,2311-355L2311-355z"/>
	<path class="st3" d="M2333.1,212.7c0,0-18.7,17.7-10.7,47.6c13.5-24.7,42-27.5,42-27.5s-43.9,66.7,0.9,112
		c-4.2-25.7,28-44.8,28-44.8s-13.4,65.6,42.5,91c41.1,18.7,15.9,74.2,15.9,74.2s148.4-101.7,112-168.9c0,0,45.7,11.7,44.3,48.5
		c0,0,59.7-79.8,13.1-146"/>
	<path class="st8" d="M1951.3,897.4c-38.1,9.1-130.4,43.4-184.5,78.3c-26.5,17.1-10.1,55.9,23.2,55.3l280.4-5.5"/>
	<path class="st17" d="M1860.5,980.1l-0.7,0.2l-2,0.6l-3.1,1l-4,1.5l-4.5,2.1c-1.6,0.8-3.2,1.8-4.7,2.8c-1.6,1.1-3,2.2-4.4,3.5
		c-1.4,1.3-2.6,2.7-3.7,4.2l-0.8,1.1l-0.7,1.2c-0.4,0.8-0.8,1.6-1.1,2.4c-0.2,0.4-0.3,0.8-0.4,1.2c-0.1,0.4-0.2,0.8-0.3,1.2
		c-0.2,0.8-0.3,1.6-0.4,2.4v3.6c0,0.4,0.1,0.8,0.1,1.2c0,0.7,0.1,1.5,0.3,2.2c0.2,0.7,0.3,1.4,0.5,2.1c0.3,1.2,0.7,2.4,1.2,3.6
		c0.4,1,0.8,1.9,1.2,2.8l1.2,2.4l0.2,0.3c1.3,3.2-0.3,6.9-3.5,8.2c-2.9,1.2-6.2,0-7.8-2.7l-0.3-0.7l-1.1-3.1c-0.4-1-0.7-2.2-1.1-3.7
		c-0.4-1.6-0.8-3.3-1-4.9c-0.1-0.9-0.2-1.9-0.3-2.9c-0.1-1.1-0.1-2.1-0.1-3.2v-1.7l0.2-1.7c0.1-0.6,0.1-1.2,0.2-1.7l0.4-1.8
		c0.3-1.2,0.6-2.4,1-3.5c0.2-0.6,0.4-1.1,0.7-1.7l0.8-1.7c0.6-1.1,1.3-2.2,2-3.2l1.1-1.5l1.2-1.4c1.6-1.8,3.4-3.5,5.4-4.9
		c1.8-1.4,3.8-2.6,5.8-3.6c1.9-1,3.8-1.8,5.7-2.6l5.2-1.8l4.4-1.2l3.5-0.7l2.3-0.3h0.8c1.2-0.2,2.4,0.6,2.6,1.8
		c0.2,1.2-0.6,2.4-1.8,2.6h-0.1L1860.5,980.1z M1813,982.1h-0.6l-1.7,0.5c-2,0.7-4,1.5-5.9,2.5c-1.2,0.7-2.4,1.4-3.6,2.2
		c-1.2,0.9-2.4,1.8-3.5,2.9c-1.1,1.1-2.1,2.4-2.9,3.7c-0.8,1.3-1.5,2.7-2,4.2c-0.2,0.7-0.4,1.5-0.6,2.2c-0.1,0.8-0.3,1.5-0.3,2.3
		c-0.1,1.5-0.1,3.1,0.1,4.6c0.2,1.4,0.4,2.9,0.8,4.3c0.4,1.4,0.7,2.7,1.2,3.9l0.6,1.7l0.7,1.5l0.6,1.3l0.6,1.1l1.1,2.1v0.2
		c1.2,3.3-0.5,6.9-3.7,8.1c-2.8,1-5.9,0-7.5-2.5l-0.3-0.8l-0.9-2.7l-0.5-1.4l-0.5-1.7l-0.5-1.9c-0.2-0.7-0.3-1.4-0.5-2.2
		c-0.2-0.8-0.6-3.3-0.8-5.1c-0.2-2-0.3-3.9-0.2-5.9c0.1-2.1,0.3-4.2,0.8-6.3c0.2-1.1,0.6-2.1,0.9-3.2c0.4-1.1,0.8-2.1,1.3-3.1
		c1-2,2.2-3.9,3.6-5.6c1.4-1.6,2.9-3,4.5-4.3c1.5-1.1,3.1-2.1,4.8-3c1.5-0.8,3-1.4,4.6-2c2.3-0.9,4.7-1.5,7.1-2l2-0.3h0.8
		c1.2-0.2,2.4,0.6,2.6,1.8c0.2,1.2-0.6,2.4-1.8,2.6h-0.4L1813,982.1z"/>
	<path class="st8" d="M3040.7,900.2c47.5,13.8,136.8,46.1,179.8,75.5c26.1,17.8,10.1,55.9-23.2,55.3l-261.6-5.1"/>
	<path class="st17" d="M3127.6,973.7h0.8l2.3,0.4l3.5,0.8l4.5,1.4l5.2,2c1.9,0.8,3.8,1.8,5.6,2.8c2,1.1,3.9,2.4,5.7,3.8
		c1.9,1.5,3.7,3.2,5.3,5.1l1.2,1.5l1.1,1.6c0.7,1.1,1.3,2.2,1.9,3.3c0.3,0.6,0.5,1.2,0.8,1.7s0.5,1.2,0.7,1.8l0.6,1.8l0.3,0.9
		l0.2,0.9c0.3,1.2,0.5,2.3,0.6,3.5c0.1,1.1,0.2,2.3,0.2,3.4c0,2.1-0.1,4.1-0.4,6.2c-0.2,1.7-0.6,3.4-1,5c-0.4,1.5-0.7,2.8-1.1,3.7
		l-1.1,3.2c-1.6,3.1-5.3,4.4-8.5,2.8c-2.5-1.3-3.9-4.1-3.3-6.9l0.3-0.7l0.2-0.3l1.2-2.4c0.4-0.8,0.7-1.7,1.2-2.8s0.8-2.3,1.2-3.7
		c0.4-1.4,0.6-2.9,0.8-4.4c0.1-0.8,0.1-1.6,0.1-2.4c0-0.8,0-1.7-0.1-2.5v-1.2l-0.2-1.3c-0.1-0.4-0.2-0.8-0.4-1.3
		c-0.1-0.4-0.2-0.9-0.4-1.3c-0.3-0.9-0.7-1.7-1.1-2.5l-0.7-1.2l-0.8-1.2c-1.1-1.6-2.3-3.1-3.7-4.4c-1.4-1.4-2.8-2.6-4.4-3.8
		c-1.5-1.1-3.1-2.1-4.7-3l-4.5-2.3c-2.3-1.1-4.7-2.1-7.1-2.9l-2-0.6l-0.7-0.2h-0.1c-1.2-0.4-1.8-1.6-1.5-2.7
		C3125.6,974.3,3126.6,973.6,3127.6,973.7L3127.6,973.7z M3175.1,975.7h0.8l2.1,0.4c2.4,0.6,4.8,1.4,7.1,2.4c1.5,0.7,3,1.4,4.5,2.3
		c1.6,1,3.2,2.1,4.7,3.3c1.6,1.4,3.1,2.9,4.4,4.5c2.1,2.6,3.7,5.6,4.8,8.8c0.4,1.1,0.6,2.2,0.9,3.2s0.4,2.2,0.6,3.3s0.3,2.2,0.2,3.2
		s0.1,2.1,0,3.1l-0.2,2.9c-0.3,1.8-0.5,3.6-0.8,5.2l-0.5,2.3l-0.6,2l-0.5,1.8l-0.5,1.4l-0.9,2.7c-1.6,3.1-5.3,4.4-8.5,2.8
		c-2.5-1.3-3.9-4.1-3.3-6.9l0.3-0.7v-0.3l1.1-2.2l0.6-1.2l0.6-1.4l0.7-1.6l0.6-1.7c0.5-1.2,0.8-2.6,1.2-4l0.4-2.2
		c0.2-0.7,0.2-1.5,0.3-2.3s0.1-1.5,0.1-2.3s-0.1-1.6-0.1-2.4s-0.2-1.6-0.3-2.4c-0.2-0.8-0.4-1.5-0.6-2.3c-0.5-1.5-1.2-3-2-4.4
		c-0.8-1.4-1.8-2.7-2.9-3.9c-1.1-1.2-2.3-2.2-3.5-3.2c-1.1-0.9-2.4-1.7-3.6-2.4c-1.9-1.1-3.9-2.1-5.9-2.9l-1.7-0.6l-0.6-0.2h-0.1
		c-1-0.6-1.4-2-0.8-3C3173.6,976.1,3174.3,975.7,3175.1,975.7L3175.1,975.7z"/>
</g>
</svg>
