<?xml version="1.0" encoding="utf-8"?>
<svg viewBox="0 0 3000 3000" xmlns="http://www.w3.org/2000/svg">
  <g id="tailFur">
    <clipPath id="tailFurClipPath">
      <path d="M1942.6 1959.2c69 30 162.4 39.9 162.4 39.9s347.1 45 398.6-246c19.5-161.9-177.1-195.4-177.1-195.4s91.8-36.7 124.7-7c0 0-18.5-30.3-46.3-32.7 0 0 118.2-79.9 213.3 102.6 0 0-12.3-93-50.5-111.6 0 0 142.5 32.6 167.6 241.5 0 0 26.3-41.6 23.4-76.4 0 0 67.9 99.8-7.3 214.7 0 0 58.9-56.3 63.7-86.5 0 0 73.9 212.1-151.5 244.1 0 0 61.2 22.9 101.8 3.3 0 0-39.1 85.3-165.9 74.3 0 0 61.7 42.1 99.3 33.5 0 0-93.2 47.7-251.3 13.2 0 0 53.6 49.5 93.2 50.5l-10.5 2.6a635.5 635.5 0 0 1-345.6-16.1l-151-50.4-90.9-37.1v-161z" fill="none" stroke="#31323d" stroke-linecap="round" stroke-linejoin="round" stroke-width="12.5"/>
    </clipPath>
    <g clip-path="url(#tailFurClipPath)">
      <path fill="#f4a792" d="M1904 1390.5h939v855.44h-939z"/>
      <path d="M2476.8 1611.7l35 28.6a24.5 24.5 0 0 1 4.8 32.6l-30 44.8a24.5 24.5 0 0 1-16.2 10.5l-26.1 4.5a24.5 24.5 0 0 1-27.8-30.5l21.1-78a24.5 24.5 0 0 1 39.2-12.5zm-84.7-106.9l41.2 45.9a33.4 33.4 0 0 1-.3 44.9l-49.8 54.1a33.4 33.4 0 0 1-24 10.8l-36.1.6a33.4 33.4 0 0 1-31.1-46.9l44.7-100.7a33.4 33.4 0 0 1 55.4-8.7zm92.2 73.6c12.4 14.6 29 33.4 39.6 45.4a23.6 23.6 0 0 0 25.6 6.5l53.4-19.1a23.6 23.6 0 0 0 10-6.9l29.8-34.9a23.6 23.6 0 0 0-7.1-36.2l-59.1-30.6a23.6 23.6 0 0 0-23.3.9l-63.4 39.6a23.6 23.6 0 0 0-5.5 35.3zm387.6 223.5l-4.7-18.1a14.2 14.2 0 0 0-21-8.7l-34.7 20.4a14.2 14.2 0 0 0-6.7 9.5l-14.4 73.5a14.2 14.2 0 0 0 17.3 16.5l32.9-7.9a14.2 14.2 0 0 0 10.2-9.6l20.9-67.9a14.2 14.2 0 0 0 .2-7.7zm-215.1-219.6l-15.5 25.5a28.4 28.4 0 0 0-3.1 22.3l15.3 55.7a28.4 28.4 0 0 0 9.7 14.7l49.1 39.1a28.4 28.4 0 0 0 14.4 6l30.3 3.6c23.8 2.8 40.2-23.3 27.3-43.6l-79.2-123.9a28.4 28.4 0 0 0-48.3.6zm-74.3 224.2l49.3-49.8a25.3 25.3 0 0 1 31.2-3.9l21.8 13.2a25.3 25.3 0 0 1 12.1 19l6.4 59.4a25.3 25.3 0 0 1-3 15L2680 1896a25.3 25.3 0 0 1-29.6 12l-60.5-18.6a25.3 25.3 0 0 1-17.8-26.3l3.3-40.8a25.3 25.3 0 0 1 7.1-15.8zm189.4-37l-34.2 4.1a16.4 16.4 0 0 0-14.4 15.8l-1 42.1a16.4 16.4 0 0 0 7.6 14.2l31.4 19.9a16.4 16.4 0 0 0 25.1-12.9l3.8-66.1a16.4 16.4 0 0 0-18.3-17.1zm-137.3-57l-9.2 13.2a14.5 14.5 0 0 1-25.5-3.5l-23.1-66a14.5 14.5 0 0 1 10-18.8l16.3-4.3a14.5 14.5 0 0 1 17.6 10.1l16 57.1a14.5 14.5 0 0 1-2.1 12.2zm58.2 249.3l-45.5-16.6a33.4 33.4 0 0 0-25.7 1.1l-57.4 26.8a33.4 33.4 0 0 0-13.6 11.6l-18.5 27.4c-16.8 24.8 5.1 57.5 34.5 51.4l117.6-24.5a33.4 33.4 0 0 0 25.1-22.8l4-13a33.4 33.4 0 0 0-20.5-41.4zm-175.6-40.4l9.2 23.2a28.7 28.7 0 0 1-2.4 25.9l-30.7 48.7a28.7 28.7 0 0 1-26 13.3l-47.7-2.9a28.7 28.7 0 0 1-19.5-9.3l-39.3-43.2a28.7 28.7 0 0 1-7.5-18.6l-.6-25.9a28.7 28.7 0 0 1 28.7-29.4h109.1a28.7 28.7 0 0 1 26.7 18.2zm381 9.2l9.2 23.2a28.7 28.7 0 0 1-2.4 25.9l-30.7 48.7a28.7 28.7 0 0 1-26 13.3l-47.7-2.9a28.7 28.7 0 0 1-19.5-9.3l-39.3-43.2a28.7 28.7 0 0 1-7.5-18.6l-.6-25.9a28.7 28.7 0 0 1 28.7-29.4h109.1a28.7 28.7 0 0 1 26.7 18.2zm-534 99.7l-26.2-44.7a21.1 21.1 0 0 0-19.3-10.4l-41.7 2.4a21.1 21.1 0 0 0-19.5 17.3l-4.8 27a21.1 21.1 0 0 0 16.4 24.3l72.7 15.3c17.7 3.8 31.6-15.4 22.4-31.2zm-29.7-132.1l-2.2 47.4a10.4 10.4 0 0 1-11.1 9.9h-2a10.4 10.4 0 0 1-9.2-7.2l-9.6-29.6a10.4 10.4 0 0 1-.1-6l6.4-22.8a10.4 10.4 0 0 1 16-5.7l7.3 5.1a10.4 10.4 0 0 1 4.5 8.9zm208.5 16.2l6.6 23.5a11.3 11.3 0 0 0 14 7.8l39.6-11.5a11.3 11.3 0 0 0 7.5-14.5 11.3 11.3 0 0 0-6.3-6.7l-38.7-16.3a11.3 11.3 0 0 0-10 .6l-7.5 4.3a11.3 11.3 0 0 0-5.2 12.8zM2404.2 2042a10.6 10.6 0 0 0-10.4 4.7c-2.5 3.9-5 9.1-4.5 13.4.8 5.9 40.8 13.5 61.7 17a10.6 10.6 0 0 0 12.4-10.5v-6.9a10.6 10.6 0 0 0-9.1-10.5zm296.9-151l-17 26.9a12.4 12.4 0 0 0-1.9 6.6v6.5a12.4 12.4 0 0 0 6.4 10.9l9.7 5.3a12.4 12.4 0 0 0 15-2.3l2.4-2.5a12.4 12.4 0 0 0 3.2-6.1l7.2-35.4a12.4 12.4 0 0 0-7.5-14l-2.3-.9a12.4 12.4 0 0 0-15.2 5zm-215.3-84.3l46.8 20.7a20.7 20.7 0 0 1 12.2 20.8l-1.3 14.7a20.7 20.7 0 0 1-10.7 16.3l-17 9.3a20.7 20.7 0 0 1-11.1 2.5l-51.1-2.9a20.7 20.7 0 0 1-17.1-30.5l22.6-41.9a20.7 20.7 0 0 1 26.7-9zm4.6-20.4l40.2 12.1a16.3 16.3 0 0 0 15.3-3.2l30.9-26.1a16.3 16.3 0 0 0 5.3-16.6l-15.9-61.5a16.3 16.3 0 0 0-13.5-12.1l-8.2-1.2a16.3 16.3 0 0 0-14.6 5.4l-34 38.9a16.3 16.3 0 0 0-3.2 5.5l-13 37.9a16.3 16.3 0 0 0 10.7 20.9z" fill="#cf5be8"/>
      <path d="M2542.7 1707.5c3.2 0 3.2-5 0-5s-3.2 5 0 5zM2213.1 1969l17.4 6.9a14.2 14.2 0 0 1 6 21.9l-24.6 31.9a14.2 14.2 0 0 1-10.3 5.5l-74.7 5.3a14.2 14.2 0 0 1-14.3-19.2l11.9-31.7a14.2 14.2 0 0 1 10.8-9l70-12.4a14.2 14.2 0 0 1 7.8.8zm-40.3 286.7l55.5-42.8a25.3 25.3 0 0 0 7.7-30.5l-10.4-23.3a25.3 25.3 0 0 0-17.3-14.3l-58.2-13.7a25.3 25.3 0 0 0-15.2 1.2L2096 2148a25.3 25.3 0 0 0-15.5 27.9l11 62.3a25.3 25.3 0 0 0 23.9 20.9l40.9 1.7a25.3 25.3 0 0 0 16.5-5.1zm60.1-183.4l-8.3 33.5a16.4 16.4 0 0 1-17.5 12.4l-41.9-4.2a16.4 16.4 0 0 1-13.2-9.3l-15.9-33.7a16.4 16.4 0 0 1 15.9-23.3l66 4.4a16.4 16.4 0 0 1 14.9 20.2zm35.3 127.4l-13.6 8.6a14.5 14.5 0 0 0 2.3 25.6l64.9 26.1a14.5 14.5 0 0 0 19.2-9.1l5-16.1a14.5 14.5 0 0 0-9.3-18l-56.3-18.6a14.5 14.5 0 0 0-12.2 1.5zm-235.8-72.6c3.6 16.1 8 34.8 10.9 47.2a33.4 33.4 0 0 1-4.2 25.4l-33.7 53.7a33.4 33.4 0 0 1-13.2 12l-29.5 15c-26.7 13.6-56.4-12.2-46.7-40.5l38.8-113.7a33.4 33.4 0 0 1 25.8-22.1l13.4-2.4a33.4 33.4 0 0 1 38.4 25.4zm56.2-200l-21.9-12a28.7 28.7 0 0 0-26-.8l-52.1 24.5a28.7 28.7 0 0 0-16.4 24.1l-3 47.7a28.7 28.7 0 0 0 6.8 20.5l38 44.3a28.7 28.7 0 0 0 17.6 9.7l25.6 3.8a28.7 28.7 0 0 0 32.7-24.8l13.5-108.2a28.7 28.7 0 0 0-14.8-28.8zm-27.7 354.5l-22.5-9.4a11.3 11.3 0 0 1-6-14.9l16.3-37.9a11.3 11.3 0 0 1 15.4-5.7 11.3 11.3 0 0 1 5.9 7.1l11.5 40.4a11.3 11.3 0 0 1-1.8 9.9l-5.2 6.9a11.3 11.3 0 0 1-13.6 3.6zm42.7-154l-28.8 13.6a12.4 12.4 0 0 1-6.8 1.1l-6.5-.8a12.4 12.4 0 0 1-10-7.7l-4.1-10.3a12.4 12.4 0 0 1 4.1-14.6l2.8-2.1a12.4 12.4 0 0 1 6.5-2.4l36-2.8a12.4 12.4 0 0 1 13 9.2l.6 2.4a12.4 12.4 0 0 1-6.8 14.4zm268.8-43.1l-1.9 2.3a16.9 16.9 0 0 0 2.5 24l49.8 39.3a16.9 16.9 0 0 0 7.5 3.4l33.1 5.9a16.9 16.9 0 0 0 18.7-22.6l-13.3-34.6a16.9 16.9 0 0 0-12.6-10.5l-67.6-13a16.9 16.9 0 0 0-16.2 5.8zm128.9 50.3l4.5 33.1a27.6 27.6 0 0 0 24.6 23.7l163.8 16.1a27.6 27.6 0 0 0 27.1-14.7l-48-100.6a39.4 39.4 0 0 0-41.5-22l-83.7 12.8a27.6 27.6 0 0 0-13.9 6.4l-23.7 20.6a27.6 27.6 0 0 0-9.2 24.6zm218.9-18c-3.6-6.2-14.1-19.8-22.8-30.8a20.8 20.8 0 0 1 3.8-29.5l30.3-23.1s64-10 66-6 4 46 2.7 50.7-80 38.7-80 38.7zm-355.4 141.9l-.9-2.5a29.4 29.4 0 0 1 14.6-36.6l26.9-13.2a29.4 29.4 0 0 1 7.2-2.4l65.6-13.2s68.7 24.2 70 29.8-10 40.9-18 46.9-165.4-8.8-165.4-8.8zm-112.6-180.1l-7.6 25.3a15.7 15.7 0 0 0 8.3 18.7l51.8 24.6a15.7 15.7 0 0 0 20.5-6.5l14.5-25.9a15.7 15.7 0 0 0 1.6-11.2l-3.6-15.6a15.7 15.7 0 0 0-13-12.1l-55.2-8.4a15.7 15.7 0 0 0-17.3 11.1zm99.3 58.8l-7.8 9.8a15.3 15.3 0 0 0 .4 19.4l22.1 25.9a15.3 15.3 0 0 0 15.5 4.8l31.2-8.3a15.3 15.3 0 0 0 10.4-20 15.3 15.3 0 0 0-6.5-7.9l-45.5-27.4a15.3 15.3 0 0 0-19.8 3.7zm-17.1 40.2l7.4 13.4a8.5 8.5 0 0 1-10 12.1l-39.3-12.9a8.5 8.5 0 0 1-5.1-4.6l-4.9-11.1a8.5 8.5 0 0 1 10.1-11.5l36.8 10.6a8.5 8.5 0 0 1 5 4zm-95.9-14.3a11.1 11.1 0 0 1 14.6-13.3c5 1.9 9 4.2 9 6.5 0 4.1 2.5 16 4.2 23.7a11.1 11.1 0 0 1-4.4 11.4c-5.4 3.8-12.6 8.3-13.8 5.2s-5.8-19.8-9.6-33.5z" fill="#cf5be8"/>
      <path d="M2487.7 2053.3l-9.8 21.6a10.6 10.6 0 0 0 1.5 11.2l7.4 8.9a10.6 10.6 0 0 0 16.5-.2l11.9-15a10.6 10.6 0 0 0 .4-12.7 115 115 0 0 1-8.7-14.2 10.6 10.6 0 0 0-12.6-5.4 10.6 10.6 0 0 0-6.6 5.8z" fill="#cf5be8"/>
    </g>
    <g id="tailShadow">
      <defs>
        <clipPath id="tailShadowClipPath">
          <path fill="none" d="M1942.6 1959.2c69 30 162.4 39.9 162.4 39.9s347.1 45 398.6-246c19.5-161.9-177.1-195.4-177.1-195.4s91.8-36.7 124.7-7c0 0-18.5-30.3-46.3-32.7 0 0 118.2-79.9 213.3 102.6 0 0-12.3-93-50.5-111.6 0 0 142.5 32.6 167.6 241.5 0 0 26.3-41.6 23.4-76.4 0 0 67.9 99.8-7.3 214.7 0 0 58.9-56.3 63.7-86.5 0 0 73.9 212.1-151.5 244.1 0 0 61.2 22.9 101.8 3.3 0 0-39.1 85.3-165.9 74.3 0 0 61.7 42.1 99.3 33.5 0 0-93.2 47.7-251.3 13.2 0 0 53.6 49.5 93.2 50.5l-10.5 2.6a635.5 635.5 0 0 1-345.6-16.1l-151-50.4-90.9-37.1v-161z"/>
        </clipPath>
        <linearGradient id="tailShadowGradient" x1="2504.56" x2="2504.56" y1="1680.75" y2="1448.67" gradientUnits="userSpaceOnUse">
          <stop offset="0" stop-color="#fff" stop-opacity="0"/>
          <stop offset="0.72" stop-color="#fff"/>
        </linearGradient>
        <linearGradient id="tailShadowGradient2" x1="1665.26" x2="2549.1" y1="2120.22" y2="2120.22" gradientUnits="userSpaceOnUse">
          <stop offset="0" stop-color="gray"/>
          <stop offset="0.27" stop-color="#7d7d7d"/>
          <stop offset="0.46" stop-color="#747474"/>
          <stop offset="0.64" stop-color="#646464"/>
          <stop offset="0.8" stop-color="#4d4d4d"/>
          <stop offset="0.95" stop-color="#303030"/>
          <stop offset="1" stop-color="#242424"/>
        </linearGradient>
        <linearGradient id="tailShadowGradient3" x1="2662.04" x2="2662.04" y1="1826.32" y2="1468.7" gradientUnits="userSpaceOnUse">
          <stop offset="0" stop-color="#fff" stop-opacity="0"/>
          <stop offset="0.72" stop-color="#fff"/>
        </linearGradient>
        <linearGradient id="tailShadowGradient4" x1="2751.27" x2="2751.27" y1="1935.67" y2="1592.06" gradientUnits="userSpaceOnUse">
          <stop offset="0" stop-color="#fff" stop-opacity="0"/>
          <stop offset="0.72" stop-color="#fff"/>
        </linearGradient>
        <linearGradient id="tailShadowGradient5" x1="2518.86" x2="2807.7" y1="2094.95" y2="2094.95" gradientUnits="userSpaceOnUse">
          <stop offset="0" stop-color="gray"/>
          <stop offset="0.27" stop-color="#7d7d7d"/>
          <stop offset="0.46" stop-color="#747474"/>
          <stop offset="0.64" stop-color="#646464"/>
          <stop offset="0.8" stop-color="#4d4d4d"/>
          <stop offset="0.95" stop-color="#303030"/>
          <stop offset="1" stop-color="#242424"/>
        </linearGradient>
        <linearGradient id="tailShadowGradient6" x1="2408.12" x2="2697.59" y1="2162.15" y2="2162.15" gradientUnits="userSpaceOnUse">
          <stop offset="0" stop-color="gray"/>
          <stop offset="0.27" stop-color="#7d7d7d"/>
          <stop offset="0.46" stop-color="#747474"/>
          <stop offset="0.64" stop-color="#646464"/>
          <stop offset="0.8" stop-color="#4d4d4d"/>
          <stop offset="0.95" stop-color="#303030"/>
          <stop offset="1" stop-color="#242424"/>
        </linearGradient>
      </defs>
      <g style="isolation:isolate">
        <path fill="none" d="M3000 3010L0 3000V0l3000 10v3000"/>
        <path fill="none" d="M3000 3010L0 3000V0l3000 10v3000"/>
        <g clip-path="url(#tailShadowClipPath)" data-name="TAIL 02">
          <path fill="url(#tailShadowGradient)" d="M2413.6 1500.9c82.9 31.3 151.8 98 185.8 179.8 7.6-39.8 7.4-81.7-5-120.3s-37.8-73.7-73-93.9-80.2-24.3-116.8-6.8" opacity=".5" style="mix-blend-mode:overlay"/>
          <path fill="url(#tailShadowGradient3)" d="M2581.6 1513.1c86.1 76.2 125.5 201.4 98.7 313.2 49.5-46 69.9-118.6 59.7-185.4s-48.5-127.4-99.1-172.2" opacity=".5" style="mix-blend-mode:overlay"/>
          <path fill="url(#tailShadowGradient4)" d="M2756.9 1685.6c7.8 87.6-16 177.7-66 250.1 63.9-20.6 108-84 118-150.4s-9.7-134.4-41.9-193.3" opacity=".5" style="mix-blend-mode:overlay"/>
          <path fill="url(#tailShadowGradient2)" d="M2042 1944.9c13.2 65.6 41.6 120.5 90.7 149.8 128.8 76.8 266.9 119.3 416.4 131.2.7 41.4-25.3 79.9-59.4 103.5s-75.3 34.3-116.1 41.5c-194.7 34.1-402.2-7.1-567.5-115.6-56.1-36.8-109.5-84.1-131.1-147.6-20.8-61.3-7.3-133.1 34.4-182.6s110.1-75.1 174.1-64.9" opacity=".25" style="mix-blend-mode:multiply"/>
          <path fill="url(#tailShadowGradient5)" d="M2753.1 2055.2c-71.1 38-158.6 44.1-234.2 16.3 9.3 20.4 27.2 35.9 46.9 46.4s41.6 16.6 63.2 22.4c28.7 7.7 58 15.1 87.7 13.7s60.3-13 77.9-36.9 18.3-61.1-3.5-81.3" opacity=".25" style="mix-blend-mode:multiply"/>
          <path fill="url(#tailShadowGradient6)" d="M2672.3 2157.6c-91.9 11.2-187.6-11.9-264.2-63.8 7.8 45.4 43.4 81.8 83.4 104.6 52.2 29.8 116.2 41.3 173.8 24.1 13.9-4.2 29-11.8 32.3-25.9" opacity=".25" style="mix-blend-mode:multiply"/>
        </g>
      </g>
    </g>
  </g>
  <g id="tail">
    <path d="M1942.6 1959.2c69 30 162.4 39.9 162.4 39.9s347.1 45 398.6-246c19.5-161.9-177.1-195.4-177.1-195.4s91.8-36.7 124.7-7c0 0-18.5-30.3-46.3-32.7 0 0 118.2-79.9 213.3 102.6 0 0-12.3-93-50.5-111.6 0 0 142.5 32.6 167.6 241.5 0 0 26.3-41.6 23.4-76.4 0 0 67.9 99.8-7.3 214.7 0 0 58.9-56.3 63.7-86.5 0 0 73.9 212.1-151.5 244.1 0 0 61.2 22.9 101.8 3.3 0 0-39.1 85.3-165.9 74.3 0 0 61.7 42.1 99.3 33.5 0 0-93.2 47.7-251.3 13.2 0 0 53.6 49.5 93.2 50.5l-10.5 2.6a635.5 635.5 0 0 1-345.6-16.1l-151-50.4-90.9-37.1v-161z" fill="none" stroke="#31323d" stroke-linecap="round" stroke-linejoin="round" stroke-width="12.5" data-name="TAIL 02"/>
  </g>
  <g id="bodyFur">
    <clipPath id="furClipPath">
      <path fill="none" d="M2200.5 2195.7c-43-29.4-132.4-61.7-179.8-75.5l-.8-.3a248.1 248.1 0 0 0 6.4-155.9l-134.5-437.7a121.2 121.2 0 0 0 41.2-22.3c-16.2 7.6-39.1-8.1-54.9-21.9l-2.2-7.2c54.7 26.7 104.5-45.6 104.5-45.6-45.4 5.5-101.9-31.2-136.4-58.1l-3.7-12.1c36.3 6.8 73.8-24.6 73.8-24.6-21.6.7-45-17.8-65.7-40.9a298 298 0 0 1-62.5-111.5l-54.8-178.1a240.5 240.5 0 0 0-47.2-89.2l64.4-104.2a15 15 0 0 0-12.1-22.9c-40-2-104.9 47-129.3 66.3a240.4 240.4 0 0 0-57.8-20.2 371.6 371.6 0 0 1 21.9-38.4 10.2 10.2 0 0 0-11.2-15.4c-26.7 7.1-55.7 28.1-64.7 34.9a1.2 1.2 0 0 1-1.9-1.3c4.1-16.7 21.1-88.9 7.5-95.5s-36.2 52.6-44.6 74.7a1.2 1.2 0 0 1-2.4-.5c1.7-24.4 4.8-91.4-13-88-19.7 3.7-56.2 87.7-63.1 104.1a1.2 1.2 0 0 1-2.2 0c-4.6-11.7-22.9-55.8-29.2-40.3s.6 43.4 3.4 54.3a1.2 1.2 0 0 1-2 1.2c-19-17-51.5-17.4-73.9-15.2a10.2 10.2 0 0 0-6.3 17.4 106.3 106.3 0 0 1 9.7 11.3 240.3 240.3 0 0 0-65.7 29.2l-5.2-3.5c-41.5-34.1-105.9-77.5-130.8-42.6a15 15 0 0 0-.9 16l60.5 108.1a240.3 240.3 0 0 0-33 93.8l-30.5 160.3a272.3 272.3 0 0 1-49.4 112.8c-17.8 23.7-38.8 43.5-60.1 45.7 0 0 41.5 26.2 76.6 14.4l-2.4 12.7c-30.6 31.2-81.6 75-127.2 75.7 0 0 56.6 62.3 106.5 33.2l-1.8 9.7c-13.6 14.7-32 29.7-47.6 24.8a121.7 121.7 0 0 0 39.9 15.9l-86.8 456.2a248.9 248.9 0 0 0 12.6 117.6l-.6.2c-38.1 9.1-130.4 43.4-184.5 78.3-26.5 17.1-10.1 55.9 23.2 55.3l266.9-5.2q6.8 4.2 13.9 7.9v3.3c.4 23.3-6.7 42.4-29.9 43.6-15.6.8-28.2 9.9-30.6 21.1-4.7 21.5 5.8 38.9 27.2 40.4l84.3 5c26.4 1.6 51.9-11.3 65.3-34.1a71.4 71.4 0 0 0 8.8-23.9l5-26.6h533.6l3.5 20.7a71.6 71.6 0 0 0 43.1 54.3 53.5 53.5 0 0 0 22.3 4l91.8-3c22-2.2 30.1-15.7 27.9-36.9-.7-6.9-6.2-24.5-24.5-25.5-15.8-.9-25.2-8.6-28.1-21.9a246.8 246.8 0 0 0 65.3-28l261.6 5c33.3.5 49.3-37.6 23.2-55.4z"/>
    </clipPath>
    <g clip-path="url(#furClipPath)">
      <defs>
        <linearGradient id="furLinearGradient" x1="1713.27" x2="1713.27" y1="794.55" y2="927.94" gradientUnits="userSpaceOnUse">
          <stop offset="0" stop-color="gray"/>
          <stop offset="0.14" stop-color="#797979"/>
          <stop offset="0.35" stop-color="#646464"/>
          <stop offset="0.6" stop-color="#434343"/>
          <stop offset="0.89" stop-color="#141414"/>
          <stop offset="1"/>
        </linearGradient>
        <linearGradient id="furLinearGradient2" x1="1041.15" x2="1175.15" y1="888.73" y2="888.73" gradientUnits="userSpaceOnUse">
          <stop offset="0" stop-color="gray"/>
          <stop offset="0.14" stop-color="#797979"/>
          <stop offset="0.35" stop-color="#646464"/>
          <stop offset="0.6" stop-color="#434343"/>
          <stop offset="0.89" stop-color="#141414"/>
          <stop offset="1"/>
        </linearGradient>
      </defs>
      <path fill="#f4a792" d="M724.1 562.8h1509.4v1824.09H724.1z"/>
      <path fill="url(#furLinearGradient)" d="M1781.2 799.5s-38-26-102 41.5l-33.7 40.5 56.1 46.5z" opacity=".4" style="mix-blend-mode:multiply"/>
      <path fill="url(#furLinearGradient2)" d="M1041.2 839.5s27.5-18.9 71.6-.8a122.7 122.7 0 0 1 47.5 35.2l14.9 17.9-37.7 54.9z" opacity=".4" style="mix-blend-mode:multiply"/>
      <path fill="#b1aeb9" d="M1181.5 2294.7c-5.6-14.6 3.2-56.8 20.7-141.2 10.5-50.5 18.8-83.4 24-105 38.8-161.9 50.8-387.1 250.3-384.1 172.9 2.6 161 180.7 194.1 366.3 6.9 38.6 13.7 77.2 20.6 115.8 4.1 22.7 8 45.3 12 68 9.4 53.2 9.6 54.1 9.4 56.2-9.8 78.5-486.7 140.6-531.1 24z"/>
      <path fill="#cf5be8" d="M982.9 1602.7l88.7-38.4a33.4 33.4 0 0 1 38.2 8.4c15.5 17.3 37.1 47.1 47.4 87.5a33.3 33.3 0 0 1 0 16.3 285.7 285.7 0 0 1-23 60.6 33.3 33.3 0 0 1-36.7 17.1l-74.4-16.3a33.4 33.4 0 0 1-23-18.3l-34.1-71.9a33.4 33.4 0 0 1 16.9-45zm66.2 175.4c16.3-1.9 41.7-1.8 67.8 9.8a21.8 21.8 0 0 1 12.2 14.4c3.9 14.6 9.9 43.7 6.1 72.4a21.6 21.6 0 0 1-11 16c-12.1 6.8-33.1 17.8-40.4 17.8s-37.4-26.4-51.7-39.6a21.8 21.8 0 0 1-6.9-17.9l4.6-53.1a21.9 21.9 0 0 1 19.3-19.8zm-90.8 95.9l32-26.8a18.8 18.8 0 0 0 6.4-10.9l8-42.3a18.8 18.8 0 0 0-2.7-13.8l-19.8-30.3c-9.2-14.1-30.8-9.9-34.2 6.5l-20.2 99.4c-3.6 17.4 16.9 29.6 30.5 18.2zm240.6-201.1l47-21.9a23.1 23.1 0 0 1 31.9 14.1c3.2 10.5 5.2 25.5 3.3 46.4-3.2 35-48.9 46.5-81.8 50.3a23.2 23.2 0 0 1-25-29l12-44.9a23.1 23.1 0 0 1 12.6-15zm-40 120.9l2.9 30.8a9.7 9.7 0 0 0 2.7 5.8c3.9 4.1 12.8 11.1 27.3 10.6a9.7 9.7 0 0 0 8.9-6.7l10.9-34.1a9.7 9.7 0 0 0-7.1-12.4c-10.1-2.2-25.4-5-36.3-4.5a9.7 9.7 0 0 0-9.3 10.5zm8.4 57.7h15.8a9.1 9.1 0 0 1 8.6 5.9l2.8 7.4c.6 1.4.6 4.8.6 8.3a9.1 9.1 0 0 1-10 8.9l-18.6-1.7a9.1 9.1 0 0 1-8.3-9.1v-10.5a9.1 9.1 0 0 1 9.1-9.2zm-280.4 155.3s35.9-34.3 67.5-53.5a22.9 22.9 0 0 1 34.7 18.8c.7 21 3.3 46.6 11 56.5l24 34.9-29.7 33a27.5 27.5 0 0 1-29.6 7.6l-66-23.2zm150.2 94l-19.3 17.4a36.5 36.5 0 0 0-12 26.3l-1.6 77.4 42.5 29.6-2.9-107.4zm-101.6 16.6l24.9 8.9a36.5 36.5 0 0 1 24 30.9l4.8 50.6-46.8-65.8zm982.9-520.2c-17.7-5.7-43.3-13.2-64.8-17.2a39.8 39.8 0 0 0-41.4 18.7c-10.9 18.1-25 45-29.6 69.8a39.6 39.6 0 0 0 5.5 28.3c9.5 15.2 27.2 42.4 42.9 61.7a39.8 39.8 0 0 0 49.1 10.2c20.2-10.4 48.6-26.3 66.5-41.9a39.6 39.6 0 0 0 12.6-38.8l-14.1-61.8a39.8 39.8 0 0 0-26.7-29zm37.3 163.8c-23.3 12.3-54.1 30.2-72.2 47.7a29.7 29.7 0 0 0-8.5 27.6l11.2 52.4a29.7 29.7 0 0 0 8.2 15l35.1 34.5a29.7 29.7 0 0 0 33.7 5.6c17-8.2 41.7-21 57.9-34.1a29.6 29.6 0 0 0 9.4-32.3l-32.7-99.4a29.7 29.7 0 0 0-42.1-17zm-198.4-37.7l59.4 83.6a13.7 13.7 0 0 1 2.5 7.9 13.7 13.7 0 0 1-5.2 10.7l-23.9 19a13.7 13.7 0 0 1-11.3 2.7c-13.4-2.7-43.5-10.6-49.6-26.8l-20.3-56.5a13.7 13.7 0 0 1 2.5-13.6l24.3-28.2a13.7 13.7 0 0 1 21.6 1.2zm90.8 121.5l12.9 35.3a9.9 9.9 0 0 1-.7 8.3l-13.2 23.6a9.9 9.9 0 0 1-15.8 2l-29.8-30.7a9.9 9.9 0 0 1-.5-13.2l20.5-24.9a9.9 9.9 0 0 1 4.5-3.1l9.5-3.2a9.9 9.9 0 0 1 12.6 5.9zm5.3 340.8l15.2-1.6a56.8 56.8 0 0 1 32 5.9l53.4 27.3-63.4 42.3-40.1 14.5zm182.4-195.5l-43.6 12.5a16.7 16.7 0 0 0-12.1 16v4.2a16.7 16.7 0 0 0 8.3 14.4l41.7 24.2zm-8.5 106.7l-42.6-25.8a29.3 29.3 0 0 0-31.4.7l-29 19.3a29.3 29.3 0 0 0-11.7 15.7l-6.9 22.3a29.3 29.3 0 0 0 11.1 32.6l51.5 36.2 42.4-48.4zM1255.1 972.3l-140.7 131.3a43.3 43.3 0 0 1-68-11.7l-115.1-222a43.3 43.3 0 0 1 7-49.7l73.5-77.9a43.3 43.3 0 0 1 49.9-9.5L1218 806a43.3 43.3 0 0 1 23.4 27.9l25.9 95.4a43.3 43.3 0 0 1-12.2 43zm336.1-104l-9.7 25.4a15.3 15.3 0 0 0 2.6 15.4l17.3 20.4a15.3 15.3 0 0 0 21.9 1.5l25.1-22.5a15.3 15.3 0 0 0-1.3-23.9l-32.6-23.2a15.3 15.3 0 0 0-23.3 6.9zm-305.8-178l-36.8 53.1a21.9 21.9 0 0 0-2 21.3l37.4 84.9a21.9 21.9 0 0 0 14 12.2l45.2 12.8a21.9 21.9 0 0 0 19.1-3.5l15.9-11.9a21.9 21.9 0 0 0 8.2-12.8l14.2-64.4a21.9 21.9 0 0 0-6-20.3l-75.8-74.5a21.9 21.9 0 0 0-33.4 3.1zm222.1-2.3l-68.6 127a21.9 21.9 0 0 0-2.5 8.1l-4.5 42.4a21.9 21.9 0 0 0 6.2 17.7l25.2 25.3a21.9 21.9 0 0 0 23.6 4.9l56.5-22.4a21.9 21.9 0 0 0 13.2-15.4l33.8-147.7a21.9 21.9 0 0 0-10.4-23.8l-42.6-24.6a21.9 21.9 0 0 0-29.9 8.5zm56.5 233.6l9.2 17.1a15.3 15.3 0 0 1-6.8 21.1l-18.2 8.8a15.3 15.3 0 0 1-16.3-1.9l-18.3-14.9a15.3 15.3 0 0 1 3.9-26.1l27.3-11.1a15.3 15.3 0 0 1 19.2 7z"/>
      <path fill="#cf5be8" d="M1591.2 851.2l30.7 5.3 65.2 62.1 63.5 90.5 66.1-261.8-69.9-37.2-124.9 77.6-30.7 63.5"/>
      <path fill="#cf5be8" d="M1687.1 918.6l-46 31.2a38.2 38.2 0 0 0-23.9 35.4v40.3a38.2 38.2 0 0 0 21.5 34.3l74.6 36.1a57 57 0 0 0 68.8-15l-1-25.5-30.6-46.4zm-378.9-24.8l25 6.5a13.4 13.4 0 0 1 9.8 15.6l-5.6 27.7a13.4 13.4 0 0 1-15.2 10.6l-19.4-3a13.4 13.4 0 0 1-11.4-13.2v-31.2a13.4 13.4 0 0 1 16.8-13zm468.8 714.4l-22.3 61.6a34 34 0 0 1-8.8 13.3l-17.7 16.4a34 34 0 0 1-44.4 1.6l-39.7-31.8a34 34 0 0 1-11.9-34l11.6-51.3a34 34 0 0 1 30.1-26.3l51.7-4.6a34 34 0 0 1 20.3 4.6l16.4 9.7a34 34 0 0 1 14.7 40.8zm-4.7-51.1l25.8 15.2a11 11 0 0 0 13.3-1.7l10.1-10a11 11 0 0 0-3-17.7l-27.2-13.1a11 11 0 0 0-12.2 1.8l-8.6 7.9a11 11 0 0 0 1.8 17.6zm-109.4 156.3l21.6 17a8.8 8.8 0 0 1 3.1 4.6l17.1 64.4a8.8 8.8 0 0 1-11.1 10.6l-22-7a8.8 8.8 0 0 1-5.9-6.4l-16.8-74.4a8.8 8.8 0 0 1 14-8.8zM1164 1545.5a24.5 24.5 0 0 0-15.8 34c12.7 27.3 32.3 66.3 42 69.3s48.1-9.7 69.2-17.6a24.5 24.5 0 0 0 15.8-21.3l4.3-62.1a24.5 24.5 0 0 0-30.9-25.4zm57.5-774.7l-24.7 48.7 90.7 18.5-11.8-59.8-54.2-7.4m381.3-16.2s-50.5 24.6-48.6 27 36.9 43.1 36.9 43.1l5.3-7.3z"/>
    </g>
  </g>
  <g id="shadow">
    <defs>
      <clipPath id="shadowClipPath">
        <path fill="none" d="M2200.5 2195.7c-43-29.4-132.4-61.7-179.8-75.5l-.8-.3a248.1 248.1 0 0 0 6.4-155.9l-134.5-437.7a121.2 121.2 0 0 0 41.2-22.3c-16.2 7.6-39.1-8.1-54.9-21.9l-2.2-7.2c54.7 26.7 104.5-45.6 104.5-45.6-45.4 5.5-101.9-31.2-136.4-58.1l-3.7-12.1c36.3 6.8 73.8-24.6 73.8-24.6-43.1 1.4-93.7-74.1-115-109.3l-68-221.2a240.5 240.5 0 0 0-47.2-89.2l73.3-118.6c-32.4-31.9-120.8 34.6-150.3 57.8a240.4 240.4 0 0 0-57.8-20.2 371.4 371.4 0 0 1 21.9-38.3c5.1-7.8-2.2-17.9-11.2-15.5-26.7 7.1-55.7 28.1-64.7 34.9a1.2 1.2 0 0 1-1.9-1.3c4.1-16.7 21-88.9 7.5-95.5s-36.2 52.6-44.6 74.7a1.2 1.2 0 0 1-2.4-.5c1.7-24.4 4.8-91.4-13-88-19.7 3.7-56.1 87.7-63.1 104.1a1.2 1.2 0 0 1-2.3 0c-4.7-11.7-22.9-55.7-29.2-40.3s.6 43.3 3.4 54.3a1.2 1.2 0 0 1-2 1.2c-19-17-51.5-17.4-73.9-15.2a10.2 10.2 0 0 0-6.3 17.4 106.3 106.3 0 0 1 9.7 11.3 240.3 240.3 0 0 0-65.7 29.2l-5.2-3.5c-44.5-36.6-115.4-83.9-135.6-33.6l64.5 115.2a240.3 240.3 0 0 0-33 93.8l-38.8 204c-17.3 35.5-58.5 110.3-101.2 114.7 0 0 41.5 26.2 76.6 14.4l-2.4 12.7c-30.6 31.2-81.6 75-127.2 75.7 0 0 56.6 62.3 106.5 33.2l-1.8 9.7c-13.6 14.7-32 29.7-47.6 24.8a121.7 121.7 0 0 0 39.9 15.9l-86.8 456.2a248.9 248.9 0 0 0 12.6 117.6l-.6.2c-38.1 9.1-130.4 43.4-184.5 78.3-26.5 17.1-10.1 55.9 23.2 55.3l266.9-5.2q6.8 4.2 13.9 7.9v3.3c.4 23.3-6.7 42.4-29.9 43.6-15.6.8-28.2 9.9-30.6 21.1-4.7 21.5 5.8 38.9 27.2 40.4l84.3 5c26.4 1.6 51.9-11.3 65.3-34.1a71.4 71.4 0 0 0 8.8-23.9l5-26.6h533.6l3.5 20.7a71.6 71.6 0 0 0 43.1 54.3 53.5 53.5 0 0 0 22.3 4l91.8-3c22-2.2 30.1-15.7 27.9-36.9-.7-6.9-6.2-24.5-24.5-25.5-15.8-.9-25.2-8.6-28.1-21.9a246.8 246.8 0 0 0 65.3-28l261.6 5c33.3.5 49.3-37.6 23.2-55.4z" data-name="&lt;Clipping Path&gt;"/>
      </clipPath>
      <linearGradient id="shadowLinearGradient" x1="1713.27" x2="1713.27" y1="794.55" y2="927.94" gradientUnits="userSpaceOnUse">
        <stop offset="0" stop-color="gray"/>
        <stop offset="0.14" stop-color="#797979"/>
        <stop offset="0.35" stop-color="#646464"/>
        <stop offset="0.6" stop-color="#434343"/>
        <stop offset="0.89" stop-color="#141414"/>
        <stop offset="1"/>
      </linearGradient>
      <linearGradient id="shadowLinearGradient2" x1="1041.15" x2="1175.15" y1="888.73" y2="888.73" gradientUnits="userSpaceOnUse">
        <stop offset="0" stop-color="gray"/>
        <stop offset="0.14" stop-color="#797979"/>
        <stop offset="0.35" stop-color="#646464"/>
        <stop offset="0.6" stop-color="#434343"/>
        <stop offset="0.89" stop-color="#141414"/>
        <stop offset="1"/>
      </linearGradient>
    </defs>
    <g style="isolation:isolate">
      <g clip-path="url(#shadowClipPath)" style="mix-blend-mode:multiply">
        <path fill="#7f7f7f" d="M1293.2 863.8c-81.5 23.6-133.4 115.8-161.7 239.6-6.6 28.9-12.6 63.2-18.4 100.9-15 97.8-28.1 218.9-44.5 331.4-21.1 33.1-29.1 39.4-35.5 75.8-20.4 117.1-20.8 257.1-28 315.4a910.2 910.2 0 0 0-6.8 98.4v3.4c23.5 26 47.6 88.8 52.6 176.8l1.3 49s-31.3-.8-81-.8c-62 0-110.8-111.7-79.2-278.2 28.4-149.5-68-915.5-68-915.5l282.1-44.3s23.5-135.7 171-178.5zm-66.7 1176.6c-24.3 147.7 54.3 178.3 68.5 181.6 86.5 15.5 223.8 8.8 268.5-7 41.8-14.8 129.9-58.5 108-189.5l43 256.8h-533.6zm627.8 117s29.9-91.4 66.3-124.9c-39.4 75 14.1 92.7 28.1 87.7 53.7-19.2 75-66.7 79.2-150l65.3 116.3s-55 256-204 214l-38.7-18.1z" opacity=".2"/>
        <path fill="url(#shadowLinearGradient)" d="M1781.2 799.5s-38-26-102 41.5l-33.7 40.5 56.1 46.5z" opacity=".4" style="mix-blend-mode:multiply"/>
        <path fill="url(#shadowLinearGradient2)" d="M1041.2 839.5s27.5-18.9 71.6-.8a122.7 122.7 0 0 1 47.5 35.2l14.9 17.9-37.7 54.9z" opacity=".4" style="mix-blend-mode:multiply"/>
      </g>
    </g>
  </g>
  <g id="highlight">
    <defs>
      <clipPath id="highlightClipPath">
        <path fill="none" d="M2200.5 2195.7c-43-29.4-132.4-61.7-179.8-75.5l-.8-.3a248.1 248.1 0 0 0 6.4-155.9l-134.5-437.7a121.2 121.2 0 0 0 41.2-22.3c-16.2 7.6-39.1-8.1-54.9-21.9l-2.2-7.2c54.7 26.7 104.5-45.6 104.5-45.6-45.4 5.5-101.9-31.2-136.4-58.1l-3.7-12.1c36.3 6.8 73.8-24.6 73.8-24.6-43.1 1.4-93.7-74.1-115-109.3l-68-221.2a240.5 240.5 0 0 0-47.2-89.2l73.3-118.6c-32.4-31.9-120.8 34.6-150.3 57.8a240.4 240.4 0 0 0-57.8-20.2 371.4 371.4 0 0 1 21.9-38.3c5.1-7.8-2.2-17.9-11.2-15.5-26.7 7.1-55.7 28.1-64.7 34.9a1.2 1.2 0 0 1-1.9-1.3c4.1-16.7 21-88.9 7.5-95.5s-36.2 52.6-44.6 74.7a1.2 1.2 0 0 1-2.4-.5c1.7-24.4 4.8-91.4-13-88-19.7 3.7-56.1 87.7-63.1 104.1a1.2 1.2 0 0 1-2.3 0c-4.7-11.7-22.9-55.7-29.2-40.3s.6 43.3 3.4 54.3a1.2 1.2 0 0 1-2 1.2c-19-17-51.5-17.4-73.9-15.2a10.2 10.2 0 0 0-6.3 17.4 106.3 106.3 0 0 1 9.7 11.3 240.3 240.3 0 0 0-65.7 29.2l-5.2-3.5c-44.5-36.6-115.4-83.9-135.6-33.6l64.5 115.2a240.3 240.3 0 0 0-33 93.8l-38.8 204c-17.3 35.5-58.5 110.3-101.2 114.7 0 0 41.5 26.2 76.6 14.4l-2.4 12.7c-30.6 31.2-81.6 75-127.2 75.7 0 0 56.6 62.3 106.5 33.2l-1.8 9.7c-13.6 14.7-32 29.7-47.6 24.8a121.7 121.7 0 0 0 39.9 15.9l-86.8 456.2a248.9 248.9 0 0 0 12.6 117.6l-.6.2c-38.1 9.1-130.4 43.4-184.5 78.3-26.5 17.1-10.1 55.9 23.2 55.3l266.9-5.2q6.8 4.2 13.9 7.9v3.3c.4 23.3-6.7 42.4-29.9 43.6-15.6.8-28.2 9.9-30.6 21.1-4.7 21.5 5.8 38.9 27.2 40.4l84.3 5c26.4 1.6 51.9-11.3 65.3-34.1a71.4 71.4 0 0 0 8.8-23.9l5-26.6h533.6l3.5 20.7a71.6 71.6 0 0 0 43.1 54.3 53.5 53.5 0 0 0 22.3 4l91.8-3c22-2.2 30.1-15.7 27.9-36.9-.7-6.9-6.2-24.5-24.5-25.5-15.8-.9-25.2-8.6-28.1-21.9a246.8 246.8 0 0 0 65.3-28l261.6 5c33.3.5 49.3-37.6 23.2-55.4z" data-name="&lt;Clipping Path&gt;"/>
      </clipPath>
    </defs>
    <g style="isolation:isolate">
      <g clip-path="url(#highlightClipPath)" opacity=".2" style="mix-blend-mode:overlay">
        <path fill="#fff" d="M1547.8 836.6s59 33.5 81 64.8 44.1 86.3 65.6 181c58.9 258.7 229.4 683.2 275.5 888s-81.2 286-81.2 286l61.1-35.5s63-74.8 72.5-107.6c20.8-71.9 139-33 117.2-147.7-31.7-166.5-305.7-970.5-305.7-970.5s-123.4-29.9-151.2-79.3c-20.7-36.8-73.2-64.7-124.1-79.9z"/>
      </g>
    </g>
  </g>
  <g id="body">
    <path fill="none" stroke="#31323d" stroke-width="12.5" stroke-miterlimit="10" d="M1714.5 2282.4h-533.6m711.7-753.2l133.7 434.9c39 137.9-45.2 275-175.8 309.9m-799.8-20.3c-89.2-47.1-145.7-146.2-131.5-254.1l86.3-453.7" stroke-linecap="round"/>
    <path fill="#31323d" d="M1228.6 2040.8c-1.7 15.3-3.8 30.4-6 45.6l-3.5 22.7-3.8 22.6c-2.6 15.1-5.4 30.1-8.1 45.2l-8.3 45.1-16.6 90.3a76.3 76.3 0 0 1-3.5 12.1 77.5 77.5 0 0 1-5.4 11.4 75.5 75.5 0 0 1-16 19.4 78.7 78.7 0 0 1-45.9 18.8l-6.3.2h-6.1l-11.5-.7-22.9-1.3-45.8-2.8h-4.7l-1.8-.3a44.1 44.1 0 0 1-6.7-1.7 35.7 35.7 0 0 1-12.3-7.3 34.7 34.7 0 0 1-8.3-11.7 40.4 40.4 0 0 1-3.1-13.5 50.7 50.7 0 0 1 1-13.2l.2-.8v-1.7l.3-1.1a26.9 26.9 0 0 1 1.5-3.6 30.2 30.2 0 0 1 4.1-6.2 37.9 37.9 0 0 1 11-8.8 45.9 45.9 0 0 1 12.7-4.5 49 49 0 0 1 6.6-.9l2.7-.2 2.1-.3a22 22 0 0 0 4.3-1.2 18.5 18.5 0 0 0 3.8-1.9c4.6-3 7.7-8.4 9.4-14.8a70.5 70.5 0 0 0 1.8-20.8l-.9-22.9-1.9-45.9c-.6-15.3-1.3-30.6-1.8-45.9v.5c-.6-5-1.3-9.9-2-14.9-.4-2.5-.8-4.9-1.2-7.4s-.9-4.9-1.4-7.3-1-4.9-1.6-7.3l-1.8-7.2q-1.9-7.2-4.4-14.2c-.8-2.3-1.7-4.6-2.6-6.9s-1.8-4.6-2.9-6.8l-1.5-3.4-1.6-3.3-1.7-3.3-1.8-3.3-1.8-3.2-1.9-3.2-4-6.3c-1.4-2.1-2.8-4.1-4.3-6.2l-2.2-3-2.3-3a2.2 2.2 0 0 1 3.4-2.9l5.4 5.6q2.6 2.9 5.1 5.9c1.7 2 3.3 4 4.8 6.1l2.3 3.2 2.2 3.2c1.5 2.2 2.9 4.3 4.2 6.6l2 3.4 1.9 3.4q1.9 3.4 3.5 7c1.1 2.4 2.2 4.7 3.2 7.2q3 7.2 5.4 14.7c1.6 5 3 10 4.2 15q.9 3.8 1.7 7.6c.5 2.5 1.1 5.1 1.5 7.6.9 5.1 1.7 10.2 2.4 15.3v.5c.9 15.3 1.6 30.6 2.4 45.8l2.3 45.8 1.1 22.9a94.4 94.4 0 0 1-.1 12.3 71.8 71.8 0 0 1-1.9 12.5 54.5 54.5 0 0 1-2 6.3 42.8 42.8 0 0 1-3.1 6.2 33.3 33.3 0 0 1-9.8 10.4 35.1 35.1 0 0 1-13.2 5.3l-3.5.5-3 .2a35 35 0 0 0-4.7.6 31.9 31.9 0 0 0-8.8 3.2 23.9 23.9 0 0 0-6.9 5.5 16.1 16.1 0 0 0-2.2 3.3 13 13 0 0 0-1.2 3.7 36.6 36.6 0 0 0-.7 9.6 26.2 26.2 0 0 0 2 8.7 20.4 20.4 0 0 0 4.9 6.9 21.4 21.4 0 0 0 7.3 4.3 30.1 30.1 0 0 0 4.4 1.1l1 .2h3.9l45.8 2.7 22.9 1.4 11.5.7h10.5a64.5 64.5 0 0 0 37.6-15.2 61.4 61.4 0 0 0 13.1-15.7 65 65 0 0 0 7.4-19.2l17.4-90.1 8.7-45.1c2.9-15 5.8-30 8.8-45l4.7-22.5 5-22.4c3.4-14.9 7-29.8 11-44.6a2.2 2.2 0 0 1 4.9.6z"/>
    <path fill="#31323d" d="M1095.2 2319.6h-.5l-1.7.2a18.6 18.6 0 0 0-5.8 2 22.5 22.5 0 0 0-6.7 5.5 30.2 30.2 0 0 0-2.9 4 38.9 38.9 0 0 0-2.4 4.6l-.5 1.2-.5 1.2-.5 1.2-.4 1.3c-.5 1.7-.9 3.4-1.3 5l-.5 2.4c-.2.8-.3 1.6-.4 2.4s-.4 3-.6 4.4-.2 2.6-.3 3.7-.1 2.1-.2 2.9v2.7a6.3 6.3 0 1 1-12.5-.6 6.9 6.9 0 0 1 .1-.8l.5-2.7c.2-.9.3-1.9.6-3.1s.5-2.6.9-4.1.8-3.1 1.3-4.8l.8-2.6.9-2.7c.7-1.8 1.4-3.7 2.3-5.5l.6-1.4.7-1.4.7-1.4.8-1.4a46.9 46.9 0 0 1 3.6-5.2 37.5 37.5 0 0 1 4.2-4.5 28.8 28.8 0 0 1 9.4-5.8 23.9 23.9 0 0 1 7.7-1.5h3.1a2.2 2.2 0 1 1-.5 4.8zm-42.5-4.7h-.6l-1.6.4-2.5.9-.7.3-.8.4-1.6.9-1.7 1.1-1.7 1.3-.9.7-.8.8-1.6 1.7-1.5 2-.7 1-.6 1.1-1.3 2.2-1.1 2.4c-.3.8-.7 1.6-1 2.4l-.8 2.5-.8 2.4-.6 2.5a42.3 42.3 0 0 0-1 4.7l-.6 4.3a35.4 35.4 0 0 0-.3 3.7l-.2 2.8-.2 2.5v.4a6.3 6.3 0 1 1-12.5-.8 6.9 6.9 0 0 1 .1-.8l.5-2.7.6-3.1c.3-1.2.4-2.5.9-4l1.3-4.7a51.3 51.3 0 0 1 1.8-5.2l1-2.7 1.3-2.7 1.3-2.7c.5-.9 1.1-1.8 1.6-2.7l1.7-2.6 1.9-2.4.9-1.2 1.1-1.1 2.1-2.1 2.2-1.8 1.1-.9 1.2-.7 2.2-1.4 2.2-1.1 2.1-.8 1-.4 1-.3a26.5 26.5 0 0 1 3.2-.7l2.2-.2h.8a2.2 2.2 0 1 1 .4 4.4zm621-289.7l2.2 9.4c1.4 6.1 3.4 15.1 5.8 26.6 1.2 5.7 2.5 12.1 3.9 19l4.4 22.5 4.8 25.6 5 28.4 23.3 135.3c1.1 6.1 2 12.8 3.6 17.8a63.3 63.3 0 0 0 7.2 15.7 65.1 65.1 0 0 0 25.9 23.4l4.1 1.9 1.1.4 1 .4 2 .7a45.4 45.4 0 0 0 8.4 1.7l4.3.3h4.6l10-.3 40.1-1.4 39.4-1.2 2.5-.3 1.2-.2.9-.2 1.9-.4 1.9-.6a21.7 21.7 0 0 0 6.5-3.5 17 17 0 0 0 4.3-5.4c.2-.6.6-1.1.7-1.7l.6-1.8a30.4 30.4 0 0 0 .8-3.9 37.8 37.8 0 0 0 .4-4.1v-2.1s0-1.4-.1-2.2l-.2-2.2v-.3a.3.3 0 1 1 0-.1v-1.6l-.2-.8-.2-.9c-.1-.6-.4-1.3-.6-1.9-1.7-5-4.7-9.3-8.4-11.7a17.3 17.3 0 0 0-6.4-2.3l-1.8-.2-2.6-.2h-1.2l-1.5-.2-2.9-.5a39.5 39.5 0 0 1-10.9-4.2 30.1 30.1 0 0 1-9.1-8 34 34 0 0 1-5.3-10.4 47.2 47.2 0 0 1-1.9-10.7c-.1-.9-.1-1.7-.1-2.6v-7.2l.2-9.1.8-35.4.2-8.6v-4.6l.3-4.2.3-4.2c.1-1.4.2-2.7.4-4.2l1-8.4a250.4 250.4 0 0 1 6.4-31.5 277 277 0 0 1 9.1-28l2.7-6.4c.9-2.1 1.7-4.2 2.7-6.2l2.8-5.9c.9-1.9 1.8-3.9 2.8-5.7l2.9-5.4 1.4-2.6 1.5-2.5 2.9-4.9c.9-1.6 1.8-3.2 2.8-4.7l5.6-8.7 5.4-7.7 2.6-3.5 2.5-3.2c1.6-2.1 3.1-4.1 4.6-5.8l4.1-4.9 3.5-4 6.6-7.1a2.2 2.2 0 0 1 3.4 2.8l-5.6 7.8c-3.6 5.1-8.8 12.6-14.9 22.5l-4.7 7.8-4.8 8.8c-.9 1.5-1.7 3.1-2.5 4.7l-2.5 4.9-1.3 2.5-1.2 2.6-2.5 5.4a290.9 290.9 0 0 0-17.7 50.6l-.9 3.6-.4 1.8-.4 1.8-1.5 7.4-.4 1.9-.3 1.9-.6 3.8-.6 3.9-.3 1.9-.2 1.9-.9 7.8c-.2 1.3-.2 2.7-.3 4.1l-.3 4.2-.3 4.2v12.5l-.5 35.4v15.8s0 1.4.1 2a33.7 33.7 0 0 0 1.4 7.5 20.3 20.3 0 0 0 3.2 6.2c2.7 3.6 6.9 5.8 12 6.9l1.8.3.9.2h1.2l2.2.2 3 .3a31.3 31.3 0 0 1 11.7 4.2 31.8 31.8 0 0 1 9 8.5 40.3 40.3 0 0 1 5.4 10.5c.3.9.6 1.8.8 2.8l.4 1.4.3 1.6v2.9l.2 2.7c.1.9.1 1.8.1 2.8s.1 1.8 0 2.8a52 52 0 0 1-.5 5.7 44.4 44.4 0 0 1-1.2 5.8l-1 2.9c-.3 1-.8 1.9-1.3 2.9a31.3 31.3 0 0 1-7.9 10.1 35.8 35.8 0 0 1-10.9 6l-2.8.9-3 .7-1.5.3-1.3.2-2.5.3h-5.7l-5 .2-10 .4-20.1.7-40.1 1.3-10 .3h-5.4l-5.6-.4a59.7 59.7 0 0 1-11-2.3l-2.7-.9-1.4-.5-1.2-.5-4.9-2.3a79.2 79.2 0 0 1-31.4-28.6 77.2 77.2 0 0 1-8.7-19.2l-.7-2.6-.3-1.3c-.1-.4-.2-.9-.3-1.3l-.5-2.3-.2-1.2v-1.4l-1.5-9.3-22-135.6-4.5-28.5-3.8-25.7-3.2-22.7c-1-7-1.8-13.4-2.5-19.3-1.5-11.6-2.5-20.8-3.2-27.1l-1-9.6a2.2 2.2 0 0 1 3.8-.6z"/>
    <path fill="#31323d" d="M1783.2 2307.4h3.2a34.8 34.8 0 0 1 8 1.7 33.5 33.5 0 0 1 5.1 2.1 34.2 34.2 0 0 1 5.3 3.3 37.9 37.9 0 0 1 5 4.5c.7.9 1.5 1.7 2.2 2.7l1 1.4 1 1.5a46.8 46.8 0 0 1 3.3 6.1 56.5 56.5 0 0 1 2.4 6.2c.4 1 .6 2 .9 3s.5 2 .7 2.9l.6 2.8.4 2.6c.3 1.7.4 3.2.6 4.6s.3 2.5.3 3.5l.2 3.1a6.3 6.3 0 0 1-12.5.8 6.4 6.4 0 0 1 0-.7v-.3l.2-2.7c.1-.9.1-1.9.1-3.1s.1-2.6 0-4v-2.3l-.2-2.4c-.1-.8-.2-1.7-.3-2.5s-.2-1.8-.4-2.6a47.1 47.1 0 0 0-1.3-5.3 38.1 38.1 0 0 0-2.1-5.2l-.6-1.3-.7-1.2c-.4-.8-1-1.6-1.5-2.3a30.5 30.5 0 0 0-3.5-4.1 29.3 29.3 0 0 0-8-5.5 29.5 29.5 0 0 0-6.6-2.2l-1.9-.3h-.7a2.2 2.2 0 0 1-.2-4.8zm50.6-3.2h3.2a34.8 34.8 0 0 1 8 1.7 33.5 33.5 0 0 1 5.1 2.1 34.2 34.2 0 0 1 5.3 3.3 37.9 37.9 0 0 1 5 4.5c.7.9 1.5 1.7 2.2 2.7l1 1.4 1 1.5a46.8 46.8 0 0 1 3.3 6.1 56.6 56.6 0 0 1 2.4 6.2c.4 1 .6 2 .9 3s.5 2 .7 2.9l.6 2.8.4 2.6c.3 1.7.4 3.2.6 4.6s.3 2.5.3 3.5l.2 3.1a6.3 6.3 0 1 1-12.5.1v-.3l.2-2.7c.1-.9.1-1.9.1-3.1s.1-2.6 0-4v-2.3l-.2-2.4c-.1-.8-.2-1.7-.3-2.5s-.2-1.8-.4-2.6a47.1 47.1 0 0 0-1.3-5.3 38 38 0 0 0-2.1-5.2l-.6-1.3-.7-1.2c-.4-.8-1-1.6-1.5-2.3a30.5 30.5 0 0 0-3.5-4.1 29.3 29.3 0 0 0-8-5.5 29.5 29.5 0 0 0-6.6-2.2l-1.9-.3h-.7a2.2 2.2 0 0 1-.2-4.8z"/>
    <path fill="none" stroke="#31323d" stroke-width="12" stroke-miterlimit="10" d="M1206.2 862.9c-41.5-34.1-105.9-77.5-130.8-42.6a15 15 0 0 0-.9 16l60.5 108.1m472-90.4c24.5-19.2 89.4-68.2 129.3-66.3a15 15 0 0 1 12.1 22.9L1684 914.8" stroke-linecap="round"/>
    <path fill="#31323d" d="M1067.4 1534.9l-2.7 1.9-1.4.9-1.5.9-3 1.8-3.1 1.5-1.5.8-1.6.7-3.2 1.3c-2.2.7-4.4 1.5-6.6 2.1s-4.5 1.1-6.8 1.6-4.6.7-6.9.9-4.6.3-6.9.4h-3.5l-3.5-.2-3.5-.3-3.4-.4-3.4-.5-3.4-.6-6.8-1.5-6.7-1.9-6.5-2.3-6.4-2.6-6.3-2.9-3.1-1.6-1.6-.9-1.7-1a6.6 6.6 0 0 1 4.9-12l.8.2 1.8.4 1.9.2h1.9l2-.3 2.1-.5 2.1-.7 2.1-.8 2.1-1c1.4-.7 2.8-1.5 4.2-2.4l2.1-1.3 2-1.5 2-1.5 2-1.6 3.9-3.4a162.3 162.3 0 0 0 14.4-15.1q3.4-4 6.6-8.2l3.1-4.2 3-4.2 10.4 8a92.3 92.3 0 0 1-6.8 6.8 74.5 74.5 0 0 1-7.7 6 68.2 68.2 0 0 1-8.5 5 62.7 62.7 0 0 1-9.3 3.7 63.4 63.4 0 0 1-19.6 2.7 77.4 77.4 0 0 1-19.2-2.9 103.2 103.2 0 0 1-17.8-6.8 138.8 138.8 0 0 1-16.2-9.4 171.9 171.9 0 0 1-14.8-11.2c-2.4-2-4.7-4-6.9-6.1l-3.4-3.2-1.7-1.7-1.7-1.8a6.5 6.5 0 0 1 4.4-10.9h.4l5.5-.3 5.5-.7 1.4-.2 1.4-.3 2.7-.6 2.7-.6 2.7-.8 2.7-.8 2.7-.9 2.7-1 2.7-1 5.3-2.2 5.2-2.5 1.3-.6 1.3-.7 2.6-1.4 2.6-1.4 2.5-1.5 5-3 4.9-3.1c3.2-2.2 6.5-4.3 9.7-6.7s6.3-4.7 9.4-7.1 6.2-4.9 9.2-7.5 6-5.1 9-7.7l4.4-4 4.3-4.1 8.5-8.3 4.2-4.2 4.1-4.3 8.1-8.7 7.9-8.9c2.6-3 5.2-6 7.6-9l.2-.2a6.5 6.5 0 1 1 10.1 8.1v.2l-2.5 2.9-1.3 1.5-1.4 1.4-2.8 2.7-3 2.5a34 34 0 0 1-3.2 2.3 35.7 35.7 0 0 1-3.3 2.1l-3.4 1.9-3.6 1.6-.9.4-.9.3-1.8.6-1.9.6-1.9.5-1.9.5-1.9.4-3.8.7-3.8.4-3.8.2h-7.6l-3.8-.3-3.7-.4c-2.5-.4-4.9-.8-7.3-1.3l-3.6-.8-3.6-.9-7-2.2a143.6 143.6 0 0 1-13.6-5.4l-6.6-3.2-3.2-1.7-1.6-.9-1.7-1a6.4 6.4 0 0 1 2.7-11.8h.1a40.4 40.4 0 0 0 16.2-5.8 81.9 81.9 0 0 0 14.6-11.4c9.1-8.8 17.1-19.2 24.4-30q2.7-4.1 5.3-8.3l1.3-2.1 1.2-2 2.6-4.3c1.8-2.9 3.2-5.7 4.9-8.6l4.6-8.7a371.5 371.5 0 0 0 16-36 376 376 0 0 0 12.1-37.6c.9-3.2 1.6-6.4 2.4-9.6s1.5-6.4 2.1-9.6c1.3-6.4 2.6-13 3.8-19.6l15-78.9 7.5-39.4.2-1.2v-1.4l.4-2.5.7-5c.6-3.4 1.3-6.8 1.9-10.2s1.5-6.7 2.3-10l1.3-5 .7-2.5.7-2.5a249.6 249.6 0 0 1 15-38.3 242.3 242.3 0 0 1 21.2-35.3A248.6 248.6 0 0 1 1167 894a253.3 253.3 0 0 1 31.5-26.4 241.8 241.8 0 0 1 35.5-20.9 250.4 250.4 0 0 1 38.4-14.7 6.2 6.2 0 1 1 3.5 12 237.9 237.9 0 0 0-36.5 14 229.3 229.3 0 0 0-33.7 19.8 240.8 240.8 0 0 0-29.9 25.1 236 236 0 0 0-25.3 29.7 228.7 228.7 0 0 0-20.1 33.5 237 237 0 0 0-14.2 36.4l-.7 2.3-.6 2.4-1.3 4.7c-.8 3.2-1.5 6.3-2.2 9.5s-1.2 6.3-1.8 9.5l-.7 5-.4 2.5v1.5l-.2 1.2-7.5 39.4-15 78.9c-1.3 6.6-2.5 13.1-3.8 19.8-.7 3.3-1.5 6.6-2.2 10s-1.6 6.6-2.5 9.9a388.7 388.7 0 0 1-12.5 38.9 384.3 384.3 0 0 1-16.6 37.3l-4.8 9c-1.7 3-3.3 6.1-5 8.9l-2.5 4.3-1.4 2.2-1.3 2.2q-2.7 4.3-5.6 8.6c-7.6 11.3-16 22.3-26.2 32.1a94.5 94.5 0 0 1-17 13.2 53.2 53.2 0 0 1-21.4 7.5l2.8-11.8 1.3.8 1.4.8 2.9 1.6 6 2.9a130.8 130.8 0 0 0 12.4 4.9l6.3 2 3.2.8 3.2.7 6.4 1.1 3.2.4 3.2.2h6.4l3.2-.2 3.1-.3 3.1-.6 1.5-.3 1.5-.4 1.5-.4 1.5-.5 1.5-.5.7-.3.7-.3 2.8-1.2 2.7-1.5a25.1 25.1 0 0 0 2.6-1.6 23.8 23.8 0 0 0 2.5-1.8l2.4-1.9 2.2-2.2 1.1-1.1 1-1.2 2-2.4 10.1 8c-2.7 3.3-5.3 6.3-7.9 9.4l-8.1 9.1-8.3 8.9-4.3 4.4-4.3 4.3-8.8 8.5-4.5 4.2-4.5 4.1c-3.1 2.7-6.1 5.4-9.3 8s-6.3 5.2-9.5 7.7-6.5 5-9.9 7.4-6.7 4.7-10.2 7l-5.2 3.3-5.3 3.2-2.7 1.6-2.7 1.5-2.7 1.5-1.4.7-1.4.7-5.6 2.7-5.8 2.5-2.9 1.1-3 1.1-3 1-3.1.9-3.1.9-3.1.7-3.1.7-1.6.3-1.6.2c-2.1.3-4.3.7-6.4.9l-6.5.4 4.7-10.9 1.4 1.4 1.5 1.5 3.1 3c2.1 1.9 4.2 3.8 6.4 5.7a158.8 158.8 0 0 0 13.7 10.3 125.7 125.7 0 0 0 14.7 8.5 90.2 90.2 0 0 0 15.5 6 64.3 64.3 0 0 0 15.9 2.4 50.2 50.2 0 0 0 15.6-2.2 49.5 49.5 0 0 0 7.3-2.9 55.1 55.1 0 0 0 6.9-4 61.4 61.4 0 0 0 6.3-5 79.3 79.3 0 0 0 5.8-5.8h.1a6.6 6.6 0 0 1 10.3 8.2l-3.3 4.7-3.3 4.5q-3.4 4.5-7 8.7a175.3 175.3 0 0 1-15.6 16.4l-4.3 3.8-2.3 1.8-2.3 1.8-2.4 1.7-2.5 1.6c-1.7 1-3.4 2.1-5.3 3l-2.8 1.3-2.9 1.2-3.1 1-3.2.7-3.4.4h-3.5l-3.5-.4-3.5-.8 5.7-11.8 1.1.8 1.3.8 2.6 1.6 5.5 3.1 5.7 2.8 5.8 2.5 5.9 2.2 6 1.9 3.1.8 3.1.7 3.1.6 3.1.5 3.1.4 3.1.3c2.1.1 4.2.2 6.3.1l6.3-.3s4.2-.5 6.2-.9 4.1-.9 6.1-1.4l3-1 1.5-.5 1.5-.6 2.9-1.2 2.8-1.4 1.4-.7 1.4-.8 2.9-1.6a2.5 2.5 0 0 1 2.3 4.5zm488.4-706l4.9 1.2 2.5.6 2.5.7 5.1 1.5 5 1.6c6.6 2.1 13.1 4.6 19.6 7.3a250.6 250.6 0 0 1 36.9 19.4 246.7 246.7 0 0 1 33.1 25.3l3.8 3.5 3.7 3.6c2.5 2.4 4.9 5 7.3 7.5 4.7 5.1 9.3 10.4 13.5 15.9s8.3 11.2 12.2 16.9 7.4 11.8 10.7 17.9 6.3 12.4 9.2 18.8 5.3 12.9 7.5 19.5c.5 1.7 1.1 3.3 1.6 5l1.5 5 2.9 9.7 5.8 19.5 11.7 39 23.3 78 5.8 19.4 1.5 4.9.8 2.4.8 2.3 1.6 4.7 1.7 4.7c2.2 6.3 4.8 12.4 7.4 18.6s5.5 12.2 8.5 18.1a328.1 328.1 0 0 0 44.2 66.2c8.7 10 18 19.4 28.3 27.1a81.3 81.3 0 0 0 16.2 9.5 40.5 40.5 0 0 0 17 3.6 6.6 6.6 0 0 1 4.5 11.8l-1.5 1.2-1.5 1.1-3 2.2-6.1 4.1a143.9 143.9 0 0 1-12.7 7.2l-6.7 3.1-3.4 1.4-3.5 1.3c-2.3.9-4.7 1.6-7.1 2.3l-3.6.9-3.7.8-3.7.6-1.9.3-1.9.2-3.8.3h-3.9l-3.9-.2-1.9-.2-1.9-.2-1.9-.2-1.9-.4-1.9-.4-1-.2-.9-.3-3.8-1.1-3.7-1.4a35.9 35.9 0 0 1-3.6-1.6 34.2 34.2 0 0 1-3.5-1.9l-3.4-2.1-3.2-2.3-1.6-1.2-1.5-1.3-2.9-2.6a6.7 6.7 0 0 1 8.9-10.1h.1l.3.2c2.8 2.6 5.8 5.3 8.7 7.9l9 7.7 9.2 7.5 4.7 3.7 4.7 3.6 9.6 7 4.8 3.4 4.9 3.3c3.3 2.2 6.6 4.4 9.9 6.5s6.7 4.1 10.1 6.2 6.8 3.9 10.3 5.7 7 3.6 10.5 5.3l5.3 2.4 5.4 2.3 2.7 1.1 2.7 1 2.7 1 1.4.5 1.4.4 5.5 1.8 5.5 1.5 2.8.7 2.8.6 2.8.6 2.8.4 2.8.4 2.8.3 2.8.2h8.3l5.5-.4h.4a6.6 6.6 0 0 1 5.9 10.4l-1.4 2-1.4 1.9-2.9 3.6c-2 2.4-4 4.7-6.1 7a172 172 0 0 1-13.2 13 138.7 138.7 0 0 1-14.9 12.4 103.2 103.2 0 0 1-16.7 9.1 77.3 77.3 0 0 1-18.7 5.4 63.2 63.2 0 0 1-19.8-.1 62.4 62.4 0 0 1-9.6-2.4 68 68 0 0 1-9.1-3.8 74.2 74.2 0 0 1-8.4-5 92.1 92.1 0 0 1-7.6-5.8l8.8-8.9 3.5 3.8 3.7 3.8q3.7 3.7 7.6 7.3a163.8 163.8 0 0 0 16.2 13.2l4.3 2.9 2.2 1.3 2.2 1.3 2.2 1.2 2.2 1.1c1.5.7 3 1.4 4.5 1.9l2.3.8 2.2.6 2.2.4 2.2.2h2.1l2-.2 1.9-.4 1.8-.7.7-.2a5.6 5.6 0 0 1 5.4 9.5l-2.8 2.3-2.8 2.1c-1.9 1.4-3.8 2.6-5.7 3.8l-5.9 3.5-6.1 3.2-6.3 2.9-6.4 2.5-3.3 1.1-3.3 1-3.4.9-3.4.8-3.4.7-3.4.5c-2.3.3-4.6.5-6.9.6s-4.6.1-7 .1-4.6-.2-6.9-.6-4.6-.8-6.8-1.2l-3.4-.9-1.7-.4-1.6-.6-3.3-1.1-3.2-1.3-1.6-.7-1.5-.8-3.1-1.6a2.5 2.5 0 0 1 2-4.6h.2l3 1.2 1.5.6 1.5.5 3 1 3.1.8 1.5.4 1.6.3 3.1.6c2.1.2 4.2.5 6.3.6s4.2.1 6.3.1 4.2-.2 6.3-.5 4.2-.6 6.2-.9l3.1-.7 3.1-.8 3-.9 3-1 3-1.1 2.9-1.2 2.9-1.3 2.9-1.3 5.6-2.9 5.5-3.2 5.3-3.5 5.1-3.7 2.5-1.9 2.3-1.9 6.1 9.3-3.2 1.3-3.3.9-3.4.4h-3.3l-3.2-.3-3.1-.5-3-.7-2.9-.9a57.6 57.6 0 0 1-5.6-2.2l-2.7-1.3-2.6-1.4-2.5-1.4-2.5-1.5-4.8-3.1a174.2 174.2 0 0 1-17.7-14q-4.2-3.7-8.1-7.7l-3.9-4-3.9-4.2a6.3 6.3 0 0 1 8.7-9.1h.1a79.4 79.4 0 0 0 6.6 5 61.6 61.6 0 0 0 7 4.1 55.3 55.3 0 0 0 7.4 3.1 49.7 49.7 0 0 0 7.7 1.9 50.4 50.4 0 0 0 15.8 0 64.5 64.5 0 0 0 15.5-4.6 90.3 90.3 0 0 0 14.5-8 125.8 125.8 0 0 0 13.4-10.4 158.9 158.9 0 0 0 12.1-12.1c1.9-2.1 3.8-4.3 5.6-6.5l2.6-3.3 1.3-1.7 1.2-1.6 6.3 10.3-6.5.5h-9.7l-3.2-.3-3.2-.3-3.2-.5-3.2-.5-3.1-.6-3.1-.7-3.1-.7-6.1-1.6-6-1.9-1.5-.5-1.5-.5-2.9-1.1-2.9-1.1-2.9-1.2-5.7-2.4-5.6-2.6c-3.7-1.8-7.4-3.6-11-5.6l-10.8-6s-7-4.2-10.5-6.4-6.9-4.4-10.3-6.7l-5.1-3.5-5-3.5-9.8-7.3-4.9-3.7-4.8-3.8-9.5-7.7-9.3-7.9c-3.1-2.7-6.1-5.4-9.1-8.3l9.3-9.7 2.3 2.1 1.2 1 1.2.9 2.5 1.8 2.6 1.6a23.5 23.5 0 0 0 2.7 1.4 24.9 24.9 0 0 0 2.8 1.3l2.8 1.1 2.9.8.7.2.7.2 1.5.3 1.5.3 1.5.2 1.5.2h7.8l3.1-.2h1.6l1.6-.2 3.1-.5 3.1-.7 3.1-.8 6.2-2 3.1-1.2 3-1.2 6-2.8a130.5 130.5 0 0 0 11.6-6.5l5.5-3.7 2.7-1.9 1.3-1 1.2-.9 4.5 11.8a53.7 53.7 0 0 1-22.6-4.7 94.3 94.3 0 0 1-18.8-11.1c-11.5-8.6-21.3-18.6-30.4-29.1a341.4 341.4 0 0 1-45.8-69c-3.1-6.2-6-12.5-8.8-18.8s-5.3-12.8-7.6-19.3l-1.8-4.9-1.7-5-.8-2.5-.8-2.4-1.5-4.9-5.2-19.4-23.2-78-11.6-39-5.8-19.5-2.9-9.8-1.4-4.7c-.5-1.6-1-3.1-1.6-4.7-2.1-6.3-4.5-12.4-7.1-18.5s-5.5-12-8.7-17.8-6.6-11.5-10.1-17-7.5-10.9-11.6-16.1-8.4-10.2-12.9-15.1c-2.3-2.4-4.5-4.8-6.9-7.1l-3.5-3.5-3.7-3.4a234.2 234.2 0 0 0-31.5-24.1 238.1 238.1 0 0 0-35.1-18.4c-6.1-2.5-12.3-4.9-18.6-6.9l-4.7-1.5-4.7-1.4-2.4-.7-2.5-.6-4.9-1.2a6.2 6.2 0 0 1 3.2-12.1z"/>
    <path fill="#31323d" d="M1291 865l-5.4-7.8c-1.7-2.5-3.9-5.5-6.6-9s-5.7-7.4-9.4-11.5c-1.8-2-3.8-4.1-6-6.2l-.4-.4-.7-.8-.4-.4-.2-.2h-.1l-.2-.2-1.3-1.9c-.4-.6-.6-1.2-.9-1.8a16.1 16.1 0 0 1-1.1-8.1 16.7 16.7 0 0 1 3.1-7.8 16.3 16.3 0 0 1 7-5.4l2.2-.7 2.2-.4 3-.3 6.1-.5a163.1 163.1 0 0 1 26.7.5 116.9 116.9 0 0 1 14.5 2.5 85.7 85.7 0 0 1 14.9 5.2l3.7 1.9a34.8 34.8 0 0 1 3.6 2.2 34.2 34.2 0 0 1 3.5 2.5l1.7 1.4.9.7.4.3-.2-.2a5.5 5.5 0 0 0-1.1-.7 5.4 5.4 0 0 0-7.1 2.9 5.5 5.5 0 0 0-.4 2.2 5.4 5.4 0 0 0 .1 1l-.2-.9-.9-3.9c-.6-2.6-1.2-5.3-1.7-8-1.1-5.4-1.9-11-2.5-16.7q-.4-4.3-.6-8.8v-4.6s.1-3.1.3-4.7a43.5 43.5 0 0 1 .8-4.9c.2-.8.3-1.7.6-2.5l.9-2.6v-.3l.2-.5.2-.5.2-.5.3-.5.6-1 .3-.5.4-.5.4-.5.5-.5.6-.5.7-.5 1.6-.9a9.4 9.4 0 0 1 3.8-.8h1.8l1.5.4a13.2 13.2 0 0 1 3.9 2.1 25.6 25.6 0 0 1 4.2 4.2c1.1 1.4 2.1 2.7 3 4.1s3.4 5.4 4.9 8.2c3 5.5 5.6 11.1 8.1 16.7q1.9 4.3 3.7 8.6l.9 2.2.4 1.1-.3-.6a6 6 0 0 0-1.1-1.4 5.8 5.8 0 0 0-9.3 1.8v-.3l.9-2.2q7.4-17.2 15.7-34.6c5.6-11.6 11.5-23.2 18.2-34.7 3.3-5.7 6.9-11.5 10.9-17.1a105.1 105.1 0 0 1 6.5-8.3 46.1 46.1 0 0 1 8.6-7.9 20.1 20.1 0 0 1 7.1-3.1h3.8l1.4.2a13.7 13.7 0 0 1 4.9 2 18 18 0 0 1 5.5 6.1 32.7 32.7 0 0 1 2.6 5.8 67 67 0 0 1 2.6 10.8c.6 3.5 1 7 1.3 10.4a336.2 336.2 0 0 1 .6 40.4q-.4 10-1.1 19.9v-.3s.1.4-.1-.8a5.9 5.9 0 0 0-.6-1.8 6 6 0 0 0-.9-1.3 5.8 5.8 0 0 0-5.2-1.8 6 6 0 0 0-2.8 1.2 5.9 5.9 0 0 0-1.8 2.3l.3-.9 1.8-4.6 3.7-9.2c5-12.2 10.3-24.1 16.4-35.7a139.7 139.7 0 0 1 10.4-17.1c1-1.4 2.1-2.8 3.4-4.2a33.1 33.1 0 0 1 4.3-4.1 19.3 19.3 0 0 1 3.1-2 13.6 13.6 0 0 1 4.5-1.4 11.5 11.5 0 0 1 5.9.8l1.1.5h.3l.8.5 1.3 1.1.9.9a15.4 15.4 0 0 1 2.3 3.5 21.9 21.9 0 0 1 1.3 3.2 35.2 35.2 0 0 1 1.2 5.7 72.1 72.1 0 0 1 .5 10.1 174.6 174.6 0 0 1-1.5 18.8c-1.5 12.1-3.7 23.7-6.1 35q-1.8 8.4-3.7 16.5l-1 4-.5 2-.2 1v.2c-.1.3 0 0 .1-.8a5.1 5.1 0 0 0-.2-1.3 5.3 5.3 0 0 0-.4-1.1 5.4 5.4 0 0 0-5.5-2.9 5.5 5.5 0 0 0-2.1.7l-.3.2.2-.2.8-.6 3.3-2.4a286.8 286.8 0 0 1 26.6-17.1c4.5-2.5 8.9-4.8 13.3-6.9l6.7-3 3.4-1.3 3.4-1.3 3.4-1.2 3.4-1 1.7-.5.8-.2h5.1l1.3.2a16.2 16.2 0 0 1 9.1 4.4 16.8 16.8 0 0 1 4.7 8.4 15.8 15.8 0 0 1-.8 9.4 12.7 12.7 0 0 1-1 2.1l-.5.9-.4.6-1.6 2.4-5.8 9c-3.7 5.8-7 11.2-9.9 16-5.8 9.8-9.9 17.7-12.6 23.2l-1.7 3.6-1.2 2.7-1 2.2a2.5 2.5 0 0 1-4.7-1.6l.5-2.4c.3-1.6.9-4 1.8-7 .5-1.5.9-3.2 1.6-5l1-2.9 1.2-3.1c1.7-4.3 3.7-9.1 6.2-14.4s5.5-11.1 9-17.2c1.7-3.1 3.6-6.2 5.6-9.5l1.5-2.4.4-.6v-.3a2.1 2.1 0 0 0 .2-.6 3.8 3.8 0 0 0 .1-2.2 4.3 4.3 0 0 0-1.3-2.1 3.8 3.8 0 0 0-2.1-1h-1.6l-.7.2-1.5.4-3 .9-3 1.1-3 1.2-3 1.2-6.1 2.8c-4.1 1.9-8.3 4.2-12.5 6.6a273.9 273.9 0 0 0-25.2 16.5l-3.1 2.3-.8.6-.2.2-.7.5a7.8 7.8 0 0 1-11.1-3.2 7.9 7.9 0 0 1-.6-1.6 7.7 7.7 0 0 1-.2-1.8 7.8 7.8 0 0 1 .1-1.3l.2-.8v-.5l.2-1 .5-2 .9-4q1.8-8 3.5-16.2c2.2-11 4.3-22.4 5.6-33.9a161.5 161.5 0 0 0 1.2-17.3 58.8 58.8 0 0 0-.4-8.1 21.6 21.6 0 0 0-.7-3.4 5.5 5.5 0 0 0-.7-1.5h.1l.4.3h-.4l.6.3a2.7 2.7 0 0 0 1.3.2c.6-.1-.1 0-.8.6a29.7 29.7 0 0 0-4.9 5.5 126.8 126.8 0 0 0-9.2 15.4c-5.7 11-10.8 22.7-15.7 34.6l-3.6 9-1.7 4.5-.2.6v.3l-.2.5a8.4 8.4 0 0 1-13.8 2.4 8.3 8.3 0 0 1-1.3-1.8 8.2 8.2 0 0 1-.8-2.4 6.9 6.9 0 0 1-.1-1.4 6.7 6.7 0 0 1 0-1q.7-9.7 1-19.4a322.8 322.8 0 0 0-.7-38.6c-.3-3.1-.7-6.3-1.2-9.3a55.3 55.3 0 0 0-2-8.4 18.6 18.6 0 0 0-1.4-3.2 5 5 0 0 0-1-1.3h.9c.8-.1-1 .1-.2 0a6.7 6.7 0 0 0-1.9.9 32.7 32.7 0 0 0-5.8 5.4 91 91 0 0 0-5.6 7.2c-3.6 5-7 10.4-10.2 15.9-6.4 11-12.2 22.3-17.8 33.7s-10.7 22.7-15.6 34l-.9 2.1-.3.7a8.3 8.3 0 0 1-13.2 2.5 8.1 8.1 0 0 1-1.5-1.9l-.5-1.1-.4-1-.8-2.1-3.5-8.3c-2.4-5.5-4.8-10.8-7.5-15.8-1.3-2.5-2.7-4.9-4.2-7.1s-1.5-2.1-2.2-3a13 13 0 0 0-1.9-2c-.2-.2-.3-.2.2 0h1.1a4.4 4.4 0 0 0 1.7-.4l.6-.4.2-.2h.2l.2-.2h.1l-.2.5c-.1.1.1-.2 0 0v.2l-.5 1.5a15.4 15.4 0 0 0-.4 1.6 30.1 30.1 0 0 0-.6 3.5c-.2 1.2-.2 2.5-.3 3.7s-.1 2.6 0 3.8.2 5.2.4 7.8c.5 5.2 1.3 10.4 2.2 15.5.5 2.5 1 5.1 1.5 7.6l.9 3.7.2.9v-.7a7.8 7.8 0 0 1-.4 4.6 7.8 7.8 0 0 1-10.4 4.2 10.5 10.5 0 0 1-1.6-.9l-.6-.5-.3-.3-.6-.5-1.3-1a23.4 23.4 0 0 0-2.7-1.9 24.3 24.3 0 0 0-2.8-1.7l-2.9-1.6a72.9 72.9 0 0 0-12.5-4.4 104.1 104.1 0 0 0-12.8-2.3 150.5 150.5 0 0 0-24.5-.6l-5.7.4-2.7.2h-.6l-.5.2a4.1 4.1 0 0 0-2.5 3.2 4.3 4.3 0 0 0 .1 2l.2.4a.1.1 0 0 1 0 .2h.1l.2.2.4.5.2.2h.1l-.2-.2.4.5a87.6 87.6 0 0 1 6.2 7.4 114.8 114.8 0 0 1 13.7 24.1c1.2 2.9 2.1 5.2 2.6 6.8l.8 2.3a2.5 2.5 0 0 1-4.5 2.5z"/>
    <path fill="none" d="M1313.1 1432.7s-18.7 17.7-10.7 47.6c13.5-24.7 42-27.5 42-27.5s-43.9 66.7.9 112c-4.2-25.7 28-44.8 28-44.8s-13.4 65.6 42.5 91c41.1 18.7 15.9 74.2 15.9 74.2s148.4-101.7 112-168.9c0 0 45.7 11.7 44.3 48.5 0 0 59.7-79.8 13.1-146"/>
    <path fill="none" stroke="#31323d" stroke-width="12.5" stroke-miterlimit="10" d="M931.3 2117.4c-38.1 9.1-130.4 43.4-184.5 78.3-26.5 17.1-10.1 55.9 23.2 55.3l280.4-5.5" stroke-linecap="round"/>
    <path fill="#31323d" d="M840.5 2200.1l-.7.2-2 .6-3.1 1-4 1.5-4.5 2.1a49.4 49.4 0 0 0-4.7 2.8 36 36 0 0 0-4.4 3.5 26.3 26.3 0 0 0-3.7 4.2l-.8 1.1-.7 1.2a21.4 21.4 0 0 0-1.1 2.4c-.2.4-.3.8-.4 1.2a8.9 8.9 0 0 0-.3 1.2 18.1 18.1 0 0 0-.4 2.4v3.6c0 .4.1.8.1 1.2a15.6 15.6 0 0 0 .3 2.2c.2.7.3 1.4.5 2.1a36.6 36.6 0 0 0 1.2 3.6 29.8 29.8 0 0 0 1.2 2.8l1.2 2.4.2.3a6.3 6.3 0 0 1-11.3 5.5l-.3-.7-1.1-3.1c-.4-1-.7-2.2-1.1-3.7a48 48 0 0 1-1-4.9c-.1-.9-.2-1.9-.3-2.9a24.9 24.9 0 0 1-.1-3.2v-1.7l.2-1.7c.1-.6.1-1.2.2-1.7l.4-1.8a27.7 27.7 0 0 1 1-3.5 16.1 16.1 0 0 1 .7-1.7l.8-1.7a30.5 30.5 0 0 1 2-3.2l1.1-1.5 1.2-1.4a34.5 34.5 0 0 1 5.4-4.9 43.4 43.4 0 0 1 5.8-3.6 56.1 56.1 0 0 1 5.7-2.6l5.2-1.8 4.4-1.2 3.5-.7 2.3-.3h.8a2.2 2.2 0 0 1 .8 4.4h-.1zm-47.5 2h-.6l-1.7.5a38.1 38.1 0 0 0-5.9 2.5 32.6 32.6 0 0 0-3.6 2.2 29.2 29.2 0 0 0-3.5 2.9 23.5 23.5 0 0 0-2.9 3.7 18.7 18.7 0 0 0-2 4.2 21.2 21.2 0 0 0-.6 2.2c-.1.8-.3 1.5-.3 2.3a24.7 24.7 0 0 0 .1 4.6 34.5 34.5 0 0 0 .8 4.3c.4 1.4.7 2.7 1.2 3.9l.6 1.7.7 1.5.6 1.3.6 1.1 1.1 2.1v.2a6.3 6.3 0 0 1-11.2 5.6l-.3-.8-.9-2.7-.5-1.4-.5-1.7-.5-1.9c-.2-.7-.3-1.4-.5-2.2s-.6-3.3-.8-5.1a44.7 44.7 0 0 1-.2-5.9 34.2 34.2 0 0 1 .8-6.3c.2-1.1.6-2.1.9-3.2a29.7 29.7 0 0 1 1.3-3.1 26.9 26.9 0 0 1 3.6-5.6 31 31 0 0 1 4.5-4.3 35.8 35.8 0 0 1 4.8-3 38.6 38.6 0 0 1 4.6-2 43.3 43.3 0 0 1 7.1-2l2-.3h.8a2.2 2.2 0 0 1 .8 4.4h-.4z"/>
    <path fill="none" stroke="#31323d" stroke-width="12.5" stroke-miterlimit="10" d="M2020.7 2120.2c47.5 13.8 136.8 46.1 179.8 75.5 26.1 17.8 10.1 55.9-23.2 55.3l-261.6-5.1" stroke-linecap="round"/>
    <path fill="#31323d" d="M2107.6 2193.7h.8l2.3.4 3.5.8 4.5 1.4 5.2 2a58.4 58.4 0 0 1 5.6 2.8 45.8 45.8 0 0 1 5.7 3.8 36.7 36.7 0 0 1 5.3 5.1l1.2 1.5 1.1 1.6a31 31 0 0 1 1.9 3.3c.3.6.5 1.2.8 1.7s.5 1.2.7 1.8l.6 1.8.3.9.2.9a26.4 26.4 0 0 1 .6 3.5 25.1 25.1 0 0 1 .2 3.4 42.1 42.1 0 0 1-.4 6.2 50.3 50.3 0 0 1-1 5c-.4 1.5-.7 2.8-1.1 3.7l-1.1 3.2a6.3 6.3 0 0 1-11.8-4.1l.3-.7.2-.3 1.2-2.4c.4-.8.7-1.7 1.2-2.8s.8-2.3 1.2-3.7a31.5 31.5 0 0 0 .8-4.4 15.7 15.7 0 0 0 .1-2.4 16.7 16.7 0 0 0-.1-2.5v-1.2l-.2-1.3c-.1-.4-.2-.8-.4-1.3a12.8 12.8 0 0 0-.4-1.3 21.8 21.8 0 0 0-1.1-2.5l-.7-1.2-.8-1.2a28.5 28.5 0 0 0-3.7-4.4 38.4 38.4 0 0 0-4.4-3.8 51.5 51.5 0 0 0-4.7-3l-4.5-2.3a66.6 66.6 0 0 0-7.1-2.9l-2-.6-.7-.2h-.1a2.2 2.2 0 0 1 .8-4.3zm47.5 2h.8l2.1.4a44.7 44.7 0 0 1 7.1 2.4 40.4 40.4 0 0 1 4.5 2.3 38.2 38.2 0 0 1 4.7 3.3 33.1 33.1 0 0 1 4.4 4.5 30 30 0 0 1 4.8 8.8c.4 1.1.6 2.2.9 3.2s.4 2.2.6 3.3.3 2.2.2 3.2.1 2.1 0 3.1l-.2 2.9c-.3 1.8-.5 3.6-.8 5.2l-.5 2.3-.6 2-.5 1.8-.5 1.4-.9 2.7a6.3 6.3 0 0 1-11.8-4.1l.3-.7v-.3l1.1-2.2.6-1.2.6-1.4.7-1.6.6-1.7c.5-1.2.8-2.6 1.2-4l.4-2.2c.2-.7.2-1.5.3-2.3s.1-1.5.1-2.3-.1-1.6-.1-2.4-.2-1.6-.3-2.4a20.2 20.2 0 0 0-.6-2.3 20.6 20.6 0 0 0-2-4.4 25.7 25.7 0 0 0-2.9-3.9 31.5 31.5 0 0 0-3.5-3.2 34.4 34.4 0 0 0-3.6-2.4 39.4 39.4 0 0 0-5.9-2.9l-1.7-.6-.6-.2h-.1a2.2 2.2 0 0 1 1.1-4.1z"/>
  </g>
</svg>