<?xml version="1.0" encoding="utf-8"?>
<svg viewBox="0 0 3000 3000" xmlns="http://www.w3.org/2000/svg">
  <g id="tailFur">
    <clipPath id="tailFurClipPath">
      <path fill="none" d="M2518.1 1775.9c67.6-29 132.5 39.9 146.6 73.7 48 115.1-49.4 194.9-49.4 194.9-36.6 34.8-88.5 67.7-157.3 88.8-175.3 53.8-339.2-38.4-422.2-99l-34.7-24.9-36.1 140.1 220.6 76.5a852.5 852.5 0 0 0 229 11.7c98.1-8.4 186.9-29.1 266-104.6 93.6-89.2 148.9-239.5 82.8-373.6-44.5-90.3-152-191.5-273.6-171.9-89 14.4-190.9 94.4-182.7 186.5 5.8 64 64.6 132.1 133.1 133.9 48.3 1.2 112.1-30.2 112.1-73.4-.1-34.5-40.8-73.1-100.9-79.4"/>
    </clipPath>
    <g clip-path="url(#tailFurClipPath)">
      <path fill="#b1b1be" d="M1904 1437.5h939v808.41h-939z"/>
      <path d="M2348.5 1853.5l34.8-28.9a24.5 24.5 0 0 1 32.9 1.5l38.3 38a24.5 24.5 0 0 1 7.2 17.9l-.5 26.5a24.5 24.5 0 0 1-35.2 21.5l-72.5-35.5a24.5 24.5 0 0 1-5-41zm-31.1-13.6c16.7-9.4 38.3-22.1 52.1-30.2a23.6 23.6 0 0 0 11.3-23.9l-8.6-56.1a23.6 23.6 0 0 0-4.9-11.1l-28.6-35.9a23.6 23.6 0 0 0-36.9.1l-41.3 52.2a23.6 23.6 0 0 0-3.5 23.1l26.8 69.8a23.6 23.6 0 0 0 33.6 12zm131.5-55l-15.3 10.8a14.2 14.2 0 0 0-.7 22.7l31.4 25.3a14.2 14.2 0 0 0 11.3 2.9l73.9-12.4a14.2 14.2 0 0 0 9.4-22l-19-28a14.2 14.2 0 0 0-12.6-6.2l-70.9 4.3a14.2 14.2 0 0 0-7.5 2.6zm130.3 81.6l-99-5-1 73 50-5 50-63zM2354 1671.2l22.1 20.1a28.4 28.4 0 0 0 21.3 7.3l57.6-4.4a28.4 28.4 0 0 0 16.3-6.7l47.8-40.7a28.4 28.4 0 0 0 8.6-13l9.3-29.1c7.3-22.9-15.3-43.9-37.6-35.1l-136.7 54.1a28.4 28.4 0 0 0-8.7 47.5zm206 115.6l-39.5-57.9a25.3 25.3 0 0 1 2.2-31.3l17.1-18.9a25.3 25.3 0 0 1 20.9-8.2l59.5 5a25.3 25.3 0 0 1 14.1 5.8l32.1 26.9a25.3 25.3 0 0 1 6.1 31.3l-29.8 55.9a25.3 25.3 0 0 1-29.2 12.5l-39.5-11a25.3 25.3 0 0 1-14-10.1zm-.3-192.9l-2.5 34.4a16.4 16.4 0 0 0 12.8 17.2l41.1 9a16.4 16.4 0 0 0 15.4-4.7l25.6-27.1a16.4 16.4 0 0 0-7.9-27.1l-64.1-16.3a16.4 16.4 0 0 0-20.4 14.6zm-110.2 122.4l7.5 7.7a9.6 9.6 0 0 1-5.5 16.2l-46 6.8a9.6 9.6 0 0 1-11-8.9l-.7-11.2a9.6 9.6 0 0 1 8.8-10.2l39.3-3.2a9.6 9.6 0 0 1 7.6 2.8zm283.9-8.2c-8.4 14.2-18.4 30.6-25 41.5a33.4 33.4 0 0 0-3.9 25.4l15.4 61.5a33.4 33.4 0 0 0 8.8 15.5l23.4 23.4c21.2 21.2 57.4 5.9 57-24.1l-1.6-120.1a33.4 33.4 0 0 0-17.6-29l-12-6.4a33.4 33.4 0 0 0-44.5 12.3zm-70.1-62l-5.5 7.9a17.8 17.8 0 0 0 2.3 23l24 22.9a17.8 17.8 0 0 0 23.2 1.2l10.1-7.8a17.8 17.8 0 0 0 .2-27.9l-28.6-23a17.8 17.8 0 0 0-25.7 3.7zm-3 226.7l24.6-4.7a28.7 28.7 0 0 1 25 7.3l42 39.4a28.7 28.7 0 0 1 8.2 28l-11.9 46.3a28.7 28.7 0 0 1-12.9 17.4l-49.9 30.4a28.7 28.7 0 0 1-19.7 3.8l-25.5-4.3a28.7 28.7 0 0 1-23.4-33.7l20.7-107.1a28.7 28.7 0 0 1 22.8-22.8zm82.5 170.8l-40.6 14.3a17.5 17.5 0 0 0-11.5 14.1l-4.7 34.4a17.5 17.5 0 0 0 11.1 18.7l21.3 8.2a17.5 17.5 0 0 0 22.4-9.5l24-56.9a17.5 17.5 0 0 0-22-23.3zm-140.1 4.2l46.1 11.2a10.4 10.4 0 0 1 7.6 12.8l-.5 1.9a10.4 10.4 0 0 1-8.8 7.7l-30.9 3.8a10.4 10.4 0 0 1-5.9-1l-21.1-10.6a10.4 10.4 0 0 1-2.6-16.8l6.4-6.2a10.4 10.4 0 0 1 9.7-2.8zm55.4 41.2l-13.3 4.2a9.5 9.5 0 0 0-5.6 13.3l4.4 8.7a9.5 9.5 0 0 0 11.3 4.8l9.9-3.1a9.5 9.5 0 0 0 6.6-10l-1-9.7a9.5 9.5 0 0 0-12.3-8.2z" fill="#cf5be8"/>
    </g>
    <g id="tailShadow">
      <defs>
        <clipPath id="tailShadowClipPath">
          <path d="M2518.1 1775.9c67.6-29 132.5 39.9 146.6 73.7 48 115.1-49.4 194.9-49.4 194.9-36.6 34.8-88.5 67.7-157.3 88.8-175.3 53.8-339.2-38.4-422.2-99l-34.7-24.9-36.1 140.1 220.6 76.5a852.5 852.5 0 0 0 229 11.7c98.1-8.4 186.9-29.1 266-104.6 93.6-89.2 148.9-239.5 82.8-373.6-44.5-90.3-152-191.5-273.6-171.9-89 14.4-190.9 94.4-182.7 186.5 5.8 64 64.6 132.1 133.1 133.9 48.3 1.2 112.1-30.2 112.1-73.4-.1-34.5-40.8-73.1-100.9-79.4" fill="none"/>
        </clipPath>
        <linearGradient id="tailShadowLinearGradient" x1="2364.15" y1="2291.47" x2="2364.15" y2="2013.47" gradientUnits="userSpaceOnUse">
          <stop offset="0" stop-color="gray"/>
          <stop offset="0.27" stop-color="#7d7d7d"/>
          <stop offset="0.46" stop-color="#747474"/>
          <stop offset="0.64" stop-color="#646464"/>
          <stop offset="0.8" stop-color="#4d4d4d"/>
          <stop offset="0.95" stop-color="#303030"/>
          <stop offset="1" stop-color="#242424"/>
        </linearGradient>
        <linearGradient id="tailShadowLinearGradient2" x1="2579.15" y1="1935.2" x2="2579.15" y2="1441.6" gradientUnits="userSpaceOnUse">
          <stop offset="0" stop-color="#fff" stop-opacity="0"/>
          <stop offset="0.72" stop-color="#fff"/>
        </linearGradient>
        <linearGradient id="tailShadowLinearGradient3" x1="2583.8" y1="2124.84" x2="2583.8" y2="1726.66" gradientUnits="userSpaceOnUse">
          <stop offset="0" stop-color="gray"/>
          <stop offset="0.27" stop-color="#7d7d7d"/>
          <stop offset="0.46" stop-color="#747474"/>
          <stop offset="0.64" stop-color="#646464"/>
          <stop offset="0.8" stop-color="#4d4d4d"/>
          <stop offset="0.95" stop-color="#303030"/>
          <stop offset="1" stop-color="#242424"/>
        </linearGradient>
      </defs>
      <g style="isolation:isolate">
        <g clip-path="url(#tailShadowClipPath)">
          <path d="M2135.9 2084.1c107 52 71.6 104 199.2 113.8 208.3 32.6 329.5-41.9 390.8-121l100.2-44.4-96 259-828-9.1 54-268.9s122.5 42.7 179.8 70.6z" opacity=".25" fill="url(#tailShadowLinearGradient)" style="mix-blend-mode:multiply"/>
          <path d="M2307.1 1774.1s77.1-188.9 277.1-114.6 203.7 275.7 203.7 275.7l134.3-263.7-234-212.5-344-17.4-108 123.9z" opacity=".5" fill="url(#tailShadowLinearGradient2)" style="mix-blend-mode:overlay"/>
          <path d="M2519.6 1734.3c8.4-2.3 109.1-43.4 164.5 92.2 57.5 140.6-26.3 224.4-201.1 298.4l96.1-317.4s-20.1-11.2-61-31.6-52.7-18.9-52.7-18.9 20.5-10.4 54.2-22.7z" opacity=".25" fill="url(#tailShadowLinearGradient3)" style="mix-blend-mode:multiply"/>
        </g>
      </g>
    </g>
  </g>
  <g id="tail">
    <path d="M2515.9 1770l5.8-2.2 1.6-.5 1.6-.5 3.3-1 3.3-.8 3.2-.7 3.3-.6 3.3-.5a92.5 92.5 0 0 1 26.4.8 110 110 0 0 1 25 7.6 138.2 138.2 0 0 1 22.6 12.5 169 169 0 0 1 20 16 181.2 181.2 0 0 1 17.5 18.7 139.6 139.6 0 0 1 14.5 21.4l1.5 3 1.4 3.1.3.8v.9l.6 1.4 1.1 2.9 2.2 5.8 2 6.2 1 3.1c.3 1 .7 2.1.9 3.1l1.5 6.2.8 3.1.6 3.2 1.1 6.3c.4 2.1.5 4.2.8 6.4l.4 3.2.2 1.6v1.6l.3 6.4v6.4a154.3 154.3 0 0 1-2.3 25.6l-1.2 6.3c-.5 2.1-1 4.2-1.5 6.2s-.5 2.1-.8 3.1l-.9 3.1-.9 3.1-.5 1.5-.5 1.5-2.1 6-2.4 5.9c-.8 2-1.7 3.9-2.6 5.8l-1.3 2.9-1.4 2.9a193.8 193.8 0 0 1-12.9 22 213.5 213.5 0 0 1-15.5 20.2c-2.8 3.2-5.6 6.3-8.6 9.4l-4.6 4.5-2.4 2.2-2.6 2.2.3-.3a366.6 366.6 0 0 1-68.8 51 404.9 404.9 0 0 1-38.1 19.4q-19.5 8.7-39.8 15.6l-10.2 3.3-2.5.8h-.8l-.6.2-1.3.4-5.1 1.4-10.2 2.8-10.5 2.5-5.3 1.2-5.3 1-10.5 2-10.6 1.5-5.3.7-5.3.6-10.7 1-10.7.6c-7.1.5-14.3.4-21.4.5l-10.7-.3-5.4-.2-5.3-.3-10.7-.7-10.6-1.1-5.3-.6-5.3-.7-10.6-1.5c-7-1.3-14.1-2.4-21-4-14-2.8-27.7-6.5-41.4-10.6l-10.2-3.2-10.1-3.4c-3.4-1.1-6.7-2.4-10-3.6s-6.7-2.4-10-3.8l-9.9-4-9.8-4.2-9.7-4.4-9.7-4.5c-12.8-6.1-25.4-12.7-37.8-19.6s-24.5-14.3-36.5-21.9-23.6-15.7-35-24l-34.2-24.6 9.7-3.5-35.8 140.3-4-7.5 220.6 76.5-.9-.2a866.3 866.3 0 0 0 126.3 14q31.8 1.1 63.6-.1c21.2-.8 42.3-2.5 63.4-4.9a628.3 628.3 0 0 0 62.5-10 412.3 412.3 0 0 0 60.4-18 344.9 344.9 0 0 0 56.3-27.9 331.7 331.7 0 0 0 50.1-37.9l5.8-5.3.7-.7.4-.3.3-.3 1.4-1.4 2.8-2.8c3.9-3.7 7.4-7.5 11-11.3l1.3-1.4 1.3-1.5 2.6-2.9c1.7-2 3.5-3.9 5.2-5.9 3.3-4.1 6.8-8 9.9-12.2l4.8-6.2 4.6-6.4 2.3-3.2 2.2-3.3 4.4-6.5c5.6-8.9 11.1-17.8 16-27.1 2.5-4.6 4.8-9.3 7.1-14 1.2-2.3 2.2-4.8 3.3-7.1s2.2-4.8 3.2-7.2l3-7.3 1.5-3.6 1.4-3.7 2.7-7.4 2.4-7.5c1.7-5 3-10 4.5-15.1.4-1.3.7-2.5 1-3.8l.9-3.8c.6-2.5 1.3-5.1 1.8-7.6l1.6-7.7c.2-1.3.6-2.6.7-3.9l.6-3.9 1.2-7.7.9-7.8a282.3 282.3 0 0 0 .3-62.5l-.4-3.9c-.1-1.3-.4-2.6-.5-3.9l-1.1-7.7-.3-1.9-.4-1.9-.8-3.8c-.5-2.6-.9-5.1-1.5-7.7l-1.9-7.6-.9-3.8-1.1-3.8-2.2-7.5c-.3-1.3-.8-2.5-1.2-3.7l-1.3-3.7c-13.7-39.4-36.7-75.5-64.5-106.9-7-7.8-14.4-15.3-22-22.5s-15.7-13.9-23.9-20.4-16.9-12.3-25.8-17.8l-6.7-4-3.4-2-3.5-1.8c-2.3-1.2-4.6-2.5-6.9-3.6l-7-3.4-3.6-1.6-3.6-1.5-3.6-1.5-3.6-1.4-7.3-2.7-7.4-2.4c-2.5-.8-5-1.4-7.5-2.1s-5-1.4-7.5-1.9l-7.6-1.6-7.7-1.2a183.9 183.9 0 0 0-30.9-1.9h-3.9l-3.9.3-7.7.6-7.7 1-1.9.3h-.8l-1 .2-3.9.7-3.9.7-3.7.9-3.7.8-3.8 1c-2.5.7-5 1.3-7.5 2.1s-5 1.5-7.4 2.4a238.4 238.4 0 0 0-28.8 12 265.3 265.3 0 0 0-27.2 15.4l-6.5 4.3-6.4 4.5-6.2 4.8c-2.1 1.6-4 3.3-6 5a224.5 224.5 0 0 0-22.3 21.7 177.5 177.5 0 0 0-18.6 24.7c-10.9 17.4-18.4 36.9-20.4 57.1-.2 2.5-.6 5-.5 7.6v7.6l.2 3.8v3.7l.5 4c.2 1.3.4 2.5.6 3.7s1 4.9 1.5 7.4.6 2.5.9 3.7.6 2.5 1 3.7 1.5 4.9 2.4 7.3l1.3 3.6 1.5 3.6a154.6 154.6 0 0 0 14.6 27 157 157 0 0 0 19.6 23.7c3.6 3.7 7.4 7 11.4 10.3a147.3 147.3 0 0 0 12.4 9 140.1 140.1 0 0 0 13.2 7.6 124 124 0 0 0 14 5.9 116.7 116.7 0 0 0 14.5 4 105 105 0 0 0 14.9 1.9h11.3l3.8-.3a138.1 138.1 0 0 0 15.1-2.2 144.7 144.7 0 0 0 14.8-3.8 136.8 136.8 0 0 0 14.4-5.3 118.7 118.7 0 0 0 26.2-15.3c7.9-6.1 14.7-13.6 19-22.1a42.5 42.5 0 0 0 4.2-13.3v-7.1a7.8 7.8 0 0 0-.1-.9v-.8c-.1-.6-.1-1.1-.2-1.7s-.3-2.3-.6-3.5a55 55 0 0 0-5.1-13.6 71.7 71.7 0 0 0-8.3-12.4 102 102 0 0 0-22.9-20.1 132.7 132.7 0 0 0-27.8-13.7q-7.4-2.6-15-4.5c-5.1-1.2-10.2-2.2-15.4-3a2.5 2.5 0 0 1 .6-5c21.6 1.5 43.2 7.6 62.3 18.9a106.8 106.8 0 0 1 25.9 21 81.9 81.9 0 0 1 10 13.8 65.5 65.5 0 0 1 6.5 16.1c.4 1.4.6 2.9.9 4.3s.4 3.2.6 4.6v8.8a52.1 52.1 0 0 1-4.9 17.2 68.6 68.6 0 0 1-9.6 14.7 89.8 89.8 0 0 1-12.3 11.9 128.7 128.7 0 0 1-28.7 17.4 154.4 154.4 0 0 1-31.7 10.3 151.2 151.2 0 0 1-16.6 2.5l-4.2.3-4.3.2h-8.4a118.3 118.3 0 0 1-16.8-2.1 124 124 0 0 1-16.3-4.6 137.3 137.3 0 0 1-15.5-6.6 147.7 147.7 0 0 1-14.5-8.4 160.3 160.3 0 0 1-13.4-9.9c-4.2-3.6-8.4-7.3-12.3-11.3a171.7 171.7 0 0 1-21-25.7 167.3 167.3 0 0 1-15.7-29.3l-1.6-3.9-1.4-3.9c-1-2.6-1.7-5.3-2.6-7.9s-.7-2.7-1.1-4-.7-2.7-1-4.1-1.2-5.4-1.6-8.3-.5-2.9-.7-4.2l-.5-4v-4.5l-.2-4.2v-8.4c0-2.8.3-5.6.6-8.4a135 135 0 0 1 7.6-32.6 161.5 161.5 0 0 1 14.7-29.9 190 190 0 0 1 19.9-26.4 236.9 236.9 0 0 1 23.6-22.9c2.1-1.7 4.2-3.5 6.3-5.2l6.5-5 6.7-4.8 6.8-4.6a277.8 277.8 0 0 1 28.5-16.2 250.9 250.9 0 0 1 30.3-12.6c2.6-1 5.2-1.7 7.8-2.5s5.3-1.5 7.9-2.3l4-1.1 4.1-.9 4.1-.9 4-.7 3.9-.7 1-.2h1.2l2-.3 8.2-1.1 8.2-.6 4.1-.3h4.1a196.3 196.3 0 0 1 32.9 2l8.2 1.3 8.1 1.7c2.7.5 5.3 1.3 8 2s5.3 1.3 7.9 2.2l7.8 2.5 7.7 2.8 3.8 1.5 3.8 1.6 3.8 1.6 3.7 1.7 7.4 3.5c2.5 1.2 4.8 2.5 7.3 3.8l3.6 1.9 3.5 2.1 7.1 4.1c9.3 5.7 18.2 12 26.9 18.6s16.9 13.7 24.8 21.2 15.5 15.2 22.7 23.3 14.1 16.5 20.6 25.2 12.6 17.7 18.3 27c2.8 4.7 5.6 9.3 8.2 14.2l2 3.6 1.8 3.6 1.8 3.6.5.9.3.5.2.5.9 1.9 3.4 7.4c.6 1.2 1.2 2.5 1.7 3.7l1.5 3.8 3.1 7.6c1 2.5 1.8 5.1 2.7 7.7l1.4 3.9c.5 1.3.9 2.6 1.3 3.9l2.3 7.8 1.2 3.9 1 4 1.9 8c.6 2.7 1.1 5.4 1.6 8l.8 4 .4 2 .3 2 1.2 8.1c.2 1.4.4 2.7.6 4.1l.4 4.1a294.8 294.8 0 0 1-.3 65.3l-1 8.1-1.3 8.1-.6 4c-.2 1.3-.5 2.7-.8 4l-1.6 8c-.5 2.7-1.3 5.3-1.9 7.9l-1 4c-.3 1.3-.6 2.6-1 3.9-1.5 5.2-2.9 10.5-4.6 15.6l-2.5 7.7-2.8 7.7-1.4 3.8-1.5 3.8-3.1 7.5c-1.1 2.5-2.2 5-3.3 7.4s-2.2 5-3.4 7.4c-2.4 4.9-4.7 9.8-7.4 14.5-5 9.6-10.7 18.9-16.5 28.1l-4.5 6.8-2.3 3.4-2.4 3.3-4.8 6.6-5 6.5c-3.3 4.3-6.8 8.5-10.2 12.7-1.7 2.1-3.6 4.1-5.4 6.1l-2.7 3-1.4 1.5-1.4 1.5c-3.8 4-7.5 8-11.3 11.7l-2.8 2.8-1.4 1.4-.4.4-.4.3-.8.7-6 5.5a344.1 344.1 0 0 1-51.9 39.3 357.4 357.4 0 0 1-58.3 28.9 424.8 424.8 0 0 1-62.2 18.6 640.4 640.4 0 0 1-63.9 10.3c-21.3 2.4-42.8 4.1-64.3 5s-43 .9-64.5.1a878.7 878.7 0 0 1-128.1-14.2h-.5l-.4-.2-220.6-76.5-5.4-1.9 1.4-5.6 36.2-140.2 2.3-8.8 7.4 5.3 34.2 24.6c11.3 8.3 22.8 16.1 34.5 23.7s23.7 14.7 35.8 21.5 24.5 13.3 37 19.3l9.5 4.4 9.5 4.3 9.6 4.1 9.7 3.9c3.2 1.3 6.5 2.5 9.7 3.7s6.5 2.5 9.8 3.5l9.9 3.4 9.9 3.1c13.3 4 26.7 7.6 40.3 10.4 6.8 1.5 13.6 2.6 20.4 3.9l10.3 1.5 5.1.7 5.2.5 10.3 1.1 10.4.7 5.2.3 5.2.2 10.4.3c6.9-.1 13.8 0 20.7-.5l10.4-.6 10.3-1 5.2-.5 5.1-.7 10.3-1.5 10.2-1.9 5.1-.9 5-1.2 10-2.3 10.1-2.8 5.1-1.4 1.3-.4.6-.2h.5l2.5-.8 9.9-3.2q19.7-6.7 38.7-15.2a392.4 392.4 0 0 0 37-18.8 354.1 354.1 0 0 0 65.7-49.9h.1l.2-.2 2.1-1.8 2.2-2 4.2-4.2c2.8-2.8 5.5-5.8 8.1-8.8a201 201 0 0 0 14.5-19 181.3 181.3 0 0 0 12.1-20.6l1.3-2.7 1.2-2.7c.8-1.8 1.7-3.6 2.4-5.5l2.2-5.5 2-5.6.5-1.4.4-1.4.9-2.8.9-2.8c.3-.9.5-1.9.7-2.9s1-3.8 1.4-5.8l1.1-5.8a141.8 141.8 0 0 0 2.1-23.6v-6l-.3-5.9v-1.5l-.2-1.5-.3-2.9c-.2-2-.4-3.9-.7-5.9l-1-5.8-.5-2.9-.7-2.9-1.4-5.8c-.2-1-.5-1.9-.8-2.8l-.9-2.8-1.7-5.6-2.2-5.8-1.1-2.9-.6-1.4v-.7l-.3-.6-1.2-2.6-1.3-2.5a127.3 127.3 0 0 0-13.2-19.4 164.1 164.1 0 0 0-34.8-32.2c-13-8.8-27.6-15.5-42.7-18.1a79.9 79.9 0 0 0-22.8-.7l-2.8.4-2.8.5-2.8.6-2.7.7-2.6.8-1.3.4-1.4.5-5.8 2.2a6.3 6.3 0 0 1-4.8-11.8z" fill="#31323d"/>
  </g>
  <g id="bodyFur">
    <clipPath id="furClipPath">
      <path fill="none" d="M1211.5 866.4a240.2 240.2 0 0 1 129.5-37.8h158.2A240.5 240.5 0 0 1 1607 854c24.5-19.2 89.4-68.2 129.3-66.3a15 15 0 0 1 12.1 22.9L1684 914.8a240.5 240.5 0 0 1 47.2 89.2l295.1 960.1a248.1 248.1 0 0 1-6.4 155.9l.8.3c47.5 13.8 136.8 46.1 179.8 75.5 26.1 17.8 10.1 55.9-23.2 55.3l-261.6-5a246.8 246.8 0 0 1-65.3 28c2.8 13.3 12.3 21 28.1 21.9 18.2 1 23.7 18.6 24.5 25.5 2.3 21.2-5.8 34.7-27.9 36.9l-91.8 3a53.5 53.5 0 0 1-22.3-4 71.6 71.6 0 0 1-43.1-54.3l-3.5-20.7h-533.5l-5 26.6a71.4 71.4 0 0 1-8.8 23.9c-13.4 22.8-38.9 35.7-65.3 34.1l-84.3-5c-21.4-1.6-31.9-18.9-27.2-40.4 2.5-11.1 15.1-20.3 30.6-21.1 23.3-1.2 30.3-20.2 29.9-43.6v-3.3q-7.1-3.7-13.9-7.9L770 2251c-33.3.6-49.7-38.2-23.2-55.3 54-34.9 146.4-69.2 184.5-78.3l.6-.2a248.9 248.9 0 0 1-12.6-117.6l182.9-961.4a240.3 240.3 0 0 1 33-93.8l-60.5-108.1a15 15 0 0 1 .9-16c24.9-34.9 89.3 8.5 130.8 42.6z"/>
    </clipPath>
    <g clip-path="url(#furClipPath)">
      <defs>
        <linearGradient id="furLinearGradient" x1="1713.27" x2="1713.27" y1="794.55" y2="927.94" gradientUnits="userSpaceOnUse">
          <stop offset="0" stop-color="gray"/>
          <stop offset="0.14" stop-color="#797979"/>
          <stop offset="0.35" stop-color="#646464"/>
          <stop offset="0.6" stop-color="#434343"/>
          <stop offset="0.89" stop-color="#141414"/>
          <stop offset="1"/>
        </linearGradient>
        <linearGradient id="furLinearGradient2" x1="1041.15" x2="1175.15" y1="888.73" y2="888.73" gradientUnits="userSpaceOnUse">
          <stop offset="0" stop-color="gray"/>
          <stop offset="0.14" stop-color="#797979"/>
          <stop offset="0.35" stop-color="#646464"/>
          <stop offset="0.6" stop-color="#434343"/>
          <stop offset="0.89" stop-color="#141414"/>
          <stop offset="1"/>
        </linearGradient>
      </defs>
      <path fill="#b1b1be" d="M724.1 562.8h1509.4v1824.09H724.1z"/>
      <path fill="url(#furLinearGradient)" d="M1781.2 799.5s-38-26-102 41.5l-33.7 40.5 56.1 46.5z" opacity=".4" style="mix-blend-mode:multiply"/>
      <path fill="url(#furLinearGradient2)" d="M1041.2 839.5s27.5-18.9 71.6-.8a122.7 122.7 0 0 1 47.5 35.2l14.9 17.9-37.7 54.9z" opacity=".4" style="mix-blend-mode:multiply"/>
      <path fill="#f7ebda" d="M1181.5 2294.7c-5.6-14.6 3.2-56.8 20.7-141.2 10.5-50.5 18.8-83.4 24-105 38.8-161.9 50.8-387.1 250.3-384.1 172.9 2.6 161 180.7 194.1 366.3 6.9 38.6 13.7 77.2 20.6 115.8 4.1 22.7 8 45.3 12 68 9.4 53.2 9.6 54.1 9.4 56.2-9.8 78.5-486.7 140.6-531.1 24z"/>
      <path fill="#cf5be8" d="M982.9 1602.7l88.7-38.4a33.4 33.4 0 0 1 38.2 8.4c15.5 17.3 37.1 47.1 47.4 87.5a33.3 33.3 0 0 1 0 16.3 285.7 285.7 0 0 1-23 60.6 33.3 33.3 0 0 1-36.7 17.1l-74.4-16.3a33.4 33.4 0 0 1-23-18.3l-34.1-71.9a33.4 33.4 0 0 1 16.9-45zm66.2 175.4c16.3-1.9 41.7-1.8 67.8 9.8a21.8 21.8 0 0 1 12.2 14.4c3.9 14.6 9.9 43.7 6.1 72.4a21.6 21.6 0 0 1-11 16c-12.1 6.8-33.1 17.8-40.4 17.8s-37.4-26.4-51.7-39.6a21.8 21.8 0 0 1-6.9-17.9l4.6-53.1a21.9 21.9 0 0 1 19.3-19.8zm-90.8 95.9l32-26.8a18.8 18.8 0 0 0 6.4-10.9l8-42.3a18.8 18.8 0 0 0-2.7-13.8l-19.8-30.3c-9.2-14.1-30.8-9.9-34.2 6.5l-20.2 99.4c-3.6 17.4 16.9 29.6 30.5 18.2zm240.6-201.1l47-21.9a23.1 23.1 0 0 1 31.9 14.1c3.2 10.5 5.2 25.5 3.3 46.4-3.2 35-48.9 46.5-81.8 50.3a23.2 23.2 0 0 1-25-29l12-44.9a23.1 23.1 0 0 1 12.6-15zm-40 120.9l2.9 30.8a9.7 9.7 0 0 0 2.7 5.8c3.9 4.1 12.8 11.1 27.3 10.6a9.7 9.7 0 0 0 8.9-6.7l10.9-34.1a9.7 9.7 0 0 0-7.1-12.4c-10.1-2.2-25.4-5-36.3-4.5a9.7 9.7 0 0 0-9.3 10.5zm8.4 57.7h15.8a9.1 9.1 0 0 1 8.6 5.9l2.8 7.4c.6 1.4.6 4.8.6 8.3a9.1 9.1 0 0 1-10 8.9l-18.6-1.7a9.1 9.1 0 0 1-8.3-9.1v-10.5a9.1 9.1 0 0 1 9.1-9.2zm-280.4 155.3s35.9-34.3 67.5-53.5a22.9 22.9 0 0 1 34.7 18.8c.7 21 3.3 46.6 11 56.5l24 34.9-29.7 33a27.5 27.5 0 0 1-29.6 7.6l-66-23.2zm150.2 94l-19.3 17.4a36.5 36.5 0 0 0-12 26.3l-1.6 77.4 42.5 29.6-2.9-107.4zm-101.6 16.6l24.9 8.9a36.5 36.5 0 0 1 24 30.9l4.8 50.6-46.8-65.8zm982.9-520.2c-17.7-5.7-43.3-13.2-64.8-17.2a39.8 39.8 0 0 0-41.4 18.7c-10.9 18.1-25 45-29.6 69.8a39.6 39.6 0 0 0 5.5 28.3c9.5 15.2 27.2 42.4 42.9 61.7a39.8 39.8 0 0 0 49.1 10.2c20.2-10.4 48.6-26.3 66.5-41.9a39.6 39.6 0 0 0 12.6-38.8l-14.1-61.8a39.8 39.8 0 0 0-26.7-29zm37.3 163.8c-23.3 12.3-54.1 30.2-72.2 47.7a29.7 29.7 0 0 0-8.5 27.6l11.2 52.4a29.7 29.7 0 0 0 8.2 15l35.1 34.5a29.7 29.7 0 0 0 33.7 5.6c17-8.2 41.7-21 57.9-34.1a29.6 29.6 0 0 0 9.4-32.3l-32.7-99.4a29.7 29.7 0 0 0-42.1-17zm-198.4-37.7l59.4 83.6a13.7 13.7 0 0 1 2.5 7.9 13.7 13.7 0 0 1-5.2 10.7l-23.9 19a13.7 13.7 0 0 1-11.3 2.7c-13.4-2.7-43.5-10.6-49.6-26.8l-20.3-56.5a13.7 13.7 0 0 1 2.5-13.6l24.3-28.2a13.7 13.7 0 0 1 21.6 1.2zm90.8 121.5l12.9 35.3a9.9 9.9 0 0 1-.7 8.3l-13.2 23.6a9.9 9.9 0 0 1-15.8 2l-29.8-30.7a9.9 9.9 0 0 1-.5-13.2l20.5-24.9a9.9 9.9 0 0 1 4.5-3.1l9.5-3.2a9.9 9.9 0 0 1 12.6 5.9zm5.3 340.8l15.2-1.6a56.8 56.8 0 0 1 32 5.9l53.4 27.3-63.4 42.3-40.1 14.5zm182.4-195.5l-43.6 12.5a16.7 16.7 0 0 0-12.1 16v4.2a16.7 16.7 0 0 0 8.3 14.4l41.7 24.2zm-8.5 106.7l-42.6-25.8a29.3 29.3 0 0 0-31.4.7l-29 19.3a29.3 29.3 0 0 0-11.7 15.7l-6.9 22.3a29.3 29.3 0 0 0 11.1 32.6l51.5 36.2 42.4-48.4zM1255.1 972.3l-140.7 131.3a43.3 43.3 0 0 1-68-11.7l-115.1-222a43.3 43.3 0 0 1 7-49.7l73.5-77.9a43.3 43.3 0 0 1 49.9-9.5L1218 806a43.3 43.3 0 0 1 23.4 27.9l25.9 95.4a43.3 43.3 0 0 1-12.2 43zm336.1-104l-9.7 25.4a15.3 15.3 0 0 0 2.6 15.4l17.3 20.4a15.3 15.3 0 0 0 21.9 1.5l25.1-22.5a15.3 15.3 0 0 0-1.3-23.9l-32.6-23.2a15.3 15.3 0 0 0-23.3 6.9zm-305.8-178l-36.8 53.1a21.9 21.9 0 0 0-2 21.3l37.4 84.9a21.9 21.9 0 0 0 14 12.2l45.2 12.8a21.9 21.9 0 0 0 19.1-3.5l15.9-11.9a21.9 21.9 0 0 0 8.2-12.8l14.2-64.4a21.9 21.9 0 0 0-6-20.3l-75.8-74.5a21.9 21.9 0 0 0-33.4 3.1zm222.1-2.3l-68.6 127a21.9 21.9 0 0 0-2.5 8.1l-4.5 42.4a21.9 21.9 0 0 0 6.2 17.7l25.2 25.3a21.9 21.9 0 0 0 23.6 4.9l56.5-22.4a21.9 21.9 0 0 0 13.2-15.4l33.8-147.7a21.9 21.9 0 0 0-10.4-23.8l-42.6-24.6a21.9 21.9 0 0 0-29.9 8.5zm56.5 233.6l9.2 17.1a15.3 15.3 0 0 1-6.8 21.1l-18.2 8.8a15.3 15.3 0 0 1-16.3-1.9l-18.3-14.9a15.3 15.3 0 0 1 3.9-26.1l27.3-11.1a15.3 15.3 0 0 1 19.2 7z"/>
      <path fill="#cf5be8" d="M1591.2 851.2l30.7 5.3 65.2 62.1 63.5 90.5 66.1-261.8-69.9-37.2-124.9 77.6-30.7 63.5"/>
      <path fill="#cf5be8" d="M1687.1 918.6l-46 31.2a38.2 38.2 0 0 0-23.9 35.4v40.3a38.2 38.2 0 0 0 21.5 34.3l74.6 36.1a57 57 0 0 0 68.8-15l-1-25.5-30.6-46.4zm-378.9-24.8l25 6.5a13.4 13.4 0 0 1 9.8 15.6l-5.6 27.7a13.4 13.4 0 0 1-15.2 10.6l-19.4-3a13.4 13.4 0 0 1-11.4-13.2v-31.2a13.4 13.4 0 0 1 16.8-13zm468.8 714.4l-22.3 61.6a34 34 0 0 1-8.8 13.3l-17.7 16.4a34 34 0 0 1-44.4 1.6l-39.7-31.8a34 34 0 0 1-11.9-34l11.6-51.3a34 34 0 0 1 30.1-26.3l51.7-4.6a34 34 0 0 1 20.3 4.6l16.4 9.7a34 34 0 0 1 14.7 40.8zm-4.7-51.1l25.8 15.2a11 11 0 0 0 13.3-1.7l10.1-10a11 11 0 0 0-3-17.7l-27.2-13.1a11 11 0 0 0-12.2 1.8l-8.6 7.9a11 11 0 0 0 1.8 17.6zm-109.4 156.3l21.6 17a8.8 8.8 0 0 1 3.1 4.6l17.1 64.4a8.8 8.8 0 0 1-11.1 10.6l-22-7a8.8 8.8 0 0 1-5.9-6.4l-16.8-74.4a8.8 8.8 0 0 1 14-8.8zM1164 1545.5a24.5 24.5 0 0 0-15.8 34c12.7 27.3 32.3 66.3 42 69.3s48.1-9.7 69.2-17.6a24.5 24.5 0 0 0 15.8-21.3l4.3-62.1a24.5 24.5 0 0 0-30.9-25.4zm57.5-774.7l-24.7 48.7 90.7 18.5-11.8-59.8-54.2-7.4m381.3-16.2s-50.5 24.6-48.6 27 36.9 43.1 36.9 43.1l5.3-7.3z"/>
    </g>
  </g>
  <g id="shadow">
    <defs>
      <clipPath id="shadowClipPath">
        <path fill="none" d="M1211.5 866.4a240.2 240.2 0 0 1 129.5-37.8h158.2A240.5 240.5 0 0 1 1607 854c24.5-19.2 89.4-68.2 129.3-66.3a15 15 0 0 1 12.1 22.9L1684 914.8a240.5 240.5 0 0 1 47.2 89.2l295.1 960.1a248.1 248.1 0 0 1-6.4 155.9l.8.3c47.5 13.8 136.8 46.1 179.8 75.5 26.1 17.8 10.1 55.9-23.2 55.3l-261.6-5a246.8 246.8 0 0 1-65.3 28c2.8 13.3 12.3 21 28.1 21.9 18.2 1 23.7 18.6 24.5 25.5 2.3 21.2-5.8 34.7-27.9 36.9l-91.8 3a53.5 53.5 0 0 1-22.3-4 71.6 71.6 0 0 1-43.1-54.3l-3.5-20.7h-533.5l-5 26.6a71.4 71.4 0 0 1-8.8 23.9c-13.4 22.8-38.9 35.7-65.3 34.1l-84.3-5c-21.4-1.6-31.9-18.9-27.2-40.4 2.5-11.1 15.1-20.3 30.6-21.1 23.3-1.2 30.3-20.2 29.9-43.6v-3.3q-7.1-3.7-13.9-7.9L770 2251c-33.3.6-49.7-38.2-23.2-55.3 54-34.9 146.4-69.2 184.5-78.3l.6-.2a248.9 248.9 0 0 1-12.6-117.6l182.9-961.4a240.3 240.3 0 0 1 33-93.8l-60.5-108.1a15 15 0 0 1 .9-16c24.9-34.9 89.3 8.5 130.8 42.6z"/>
      </clipPath>
      <linearGradient id="shadowLinearGradient" x1="1180.91" x2="1714.46" y1="2153.98" y2="2153.98" gradientUnits="userSpaceOnUse">
        <stop offset="0" stop-color="gray"/>
        <stop offset="0.27" stop-color="#7d7d7d"/>
        <stop offset="0.46" stop-color="#747474"/>
        <stop offset="0.64" stop-color="#646464"/>
        <stop offset="0.8" stop-color="#4d4d4d"/>
        <stop offset="0.95" stop-color="#303030"/>
        <stop offset="1" stop-color="#242424"/>
      </linearGradient>
      <linearGradient id="shadowLinearGradient2" x1="1713.27" x2="1713.27" y1="794.55" y2="927.94" gradientUnits="userSpaceOnUse">
        <stop offset="0" stop-color="gray"/>
        <stop offset="0.14" stop-color="#797979"/>
        <stop offset="0.35" stop-color="#646464"/>
        <stop offset="0.6" stop-color="#434343"/>
        <stop offset="0.89" stop-color="#141414"/>
        <stop offset="1"/>
      </linearGradient>
      <linearGradient id="shadowLinearGradient3" x1="1028.58" x2="1028.58" y1="855.47" y2="2254.41" gradientUnits="userSpaceOnUse">
        <stop offset="0" stop-color="gray"/>
        <stop offset="0.27" stop-color="#7d7d7d"/>
        <stop offset="0.46" stop-color="#747474"/>
        <stop offset="0.64" stop-color="#646464"/>
        <stop offset="0.8" stop-color="#4d4d4d"/>
        <stop offset="0.95" stop-color="#303030"/>
        <stop offset="1" stop-color="#242424"/>
      </linearGradient>
      <linearGradient id="shadowLinearGradient4" x1="1971.82" x2="1971.82" y1="1970.17" y2="2305.13" gradientUnits="userSpaceOnUse">
        <stop offset="0" stop-color="gray"/>
        <stop offset="0.27" stop-color="#7d7d7d"/>
        <stop offset="0.46" stop-color="#747474"/>
        <stop offset="0.64" stop-color="#646464"/>
        <stop offset="0.8" stop-color="#4d4d4d"/>
        <stop offset="0.95" stop-color="#303030"/>
        <stop offset="1" stop-color="#242424"/>
      </linearGradient>
      <linearGradient id="shadowLinearGradient5" x1="1041.15" x2="1175.15" y1="888.73" y2="888.73" gradientUnits="userSpaceOnUse">
        <stop offset="0" stop-color="gray"/>
        <stop offset="0.14" stop-color="#797979"/>
        <stop offset="0.35" stop-color="#646464"/>
        <stop offset="0.6" stop-color="#434343"/>
        <stop offset="0.89" stop-color="#141414"/>
        <stop offset="1"/>
      </linearGradient>
    </defs>
    <g clip-path="url(#shadowClipPath)" style="mix-blend-mode:multiply">
      <path fill="url(#shadowLinearGradient)" d="M1213.2 2110.7c-22.2 91.8 60.8 117.5 83.2 119.2 41.2 3.1 203.6 5.6 287.7-7.9 43.8-7 109.2-65.4 87.3-196.3l43 256.8h-533.5z" opacity=".2"/>
      <path fill="url(#shadowLinearGradient3)" d="M1233.2 855.5c-66 66-73.4 124.2-101.7 248-48.7 214.1-107.5 671.9-126.3 823.4a910.2 910.2 0 0 0-6.8 98.4v3.4c23.5 26 47.6 88.8 52.6 176.8l1.3 49s-31.3-.8-81-.8c-62 0-110.8-111.7-79.2-278.2 28.4-149.5-68-915.5-68-915.5l282.1-44.3s16-102.2 127-160.2z" opacity=".2"/>
      <path fill="url(#shadowLinearGradient4)" d="M1854.3 2157.4s29.9-91.4 66.3-124.9c-39.4 75 14.1 92.7 28.1 87.7 53.7-19.2 75-66.7 79.2-150l65.3 116.3s-55 256-204 214l-38.7-18.1z" opacity=".2"/>
      <path fill="url(#shadowLinearGradient2)" d="M1781.2 799.5s-38-26-102 41.5l-33.7 40.5 56.1 46.5z" opacity=".4" style="mix-blend-mode:multiply"/>
      <path fill="url(#shadowLinearGradient5)" d="M1041.2 839.5s27.5-18.9 71.6-.8a122.7 122.7 0 0 1 47.5 35.2l14.9 17.9-37.7 54.9z" opacity=".4" style="mix-blend-mode:multiply"/>
    </g>
  </g>
  <g id="highlight">
    <defs>
      <clipPath id="highlightClipPath">
        <path fill="none" d="M1211.5 866.4a240.2 240.2 0 0 1 129.5-37.8h158.2A240.5 240.5 0 0 1 1607 854c24.5-19.2 89.4-68.2 129.3-66.3a15 15 0 0 1 12.1 22.9L1684 914.8a240.5 240.5 0 0 1 47.2 89.2l295.1 960.1a248.1 248.1 0 0 1-6.4 155.9l.8.3c47.5 13.8 136.8 46.1 179.8 75.5 26.1 17.8 10.1 55.9-23.2 55.3l-261.6-5a246.8 246.8 0 0 1-65.3 28c2.8 13.3 12.3 21 28.1 21.9 18.2 1 23.7 18.6 24.5 25.5 2.3 21.2-5.8 34.7-27.9 36.9l-91.8 3a53.5 53.5 0 0 1-22.3-4 71.6 71.6 0 0 1-43.1-54.3l-3.5-20.7h-533.5l-5 26.6a71.4 71.4 0 0 1-8.8 23.9c-13.4 22.8-38.9 35.7-65.3 34.1l-84.3-5c-21.4-1.6-31.9-18.9-27.2-40.4 2.5-11.1 15.1-20.3 30.6-21.1 23.3-1.2 30.3-20.2 29.9-43.6v-3.3q-7.1-3.7-13.9-7.9L770 2251c-33.3.6-49.7-38.2-23.2-55.3 54-34.9 146.4-69.2 184.5-78.3l.6-.2a248.9 248.9 0 0 1-12.6-117.6l182.9-961.4a240.3 240.3 0 0 1 33-93.8l-60.5-108.1a15 15 0 0 1 .9-16c24.9-34.9 89.3 8.5 130.8 42.6z"/>
      </clipPath>
      <linearGradient id="highlightLinearGradient" x1="1844.99" x2="1844.99" y1="2256.39" y2="835.98" gradientUnits="userSpaceOnUse">
        <stop offset="0" stop-color="#fff" stop-opacity="0"/>
        <stop offset="0.72" stop-color="#fff"/>
      </linearGradient>
    </defs>
    <g clip-path="url(#highlightClipPath)" opacity=".2" style="mix-blend-mode:overlay">
      <path fill="url(#highlightLinearGradient)" d="M1547.8 836.6s29 33.5 51 64.8 44.1 86.3 65.6 181c58.9 258.7 229.4 683.2 275.5 888s-51.2 286-51.2 286l61.1-35.5s63-74.8 72.5-107.6c20.8-71.9 139-33 117.2-147.7-31.7-166.5-305.7-970.5-305.7-970.5s-123.4-29.9-151.2-79.3c-20.7-36.8-73.2-64.7-124.1-79.9z"/>
    </g>
  </g>
  <g id="body">
    <path fill="none" stroke="#31323D" stroke-width="12.5" stroke-miterlimit="10" d="M1714.5 2282.4h-533.6m-130.2-28.7c-89.2-47.1-145.7-146.2-131.5-254.1l182.9-961.4c15.8-119.9 118-209.6 238.9-209.6h158.2c107.8 0 202.5 71.6 231.9 175.4l295.1 960.1c39 137.9-45.2 275-175.8 309.9" stroke-linecap="round"/>
    <path fill="#31323D" d="M1228.6 2040.8c-1.7 15.3-3.8 30.4-6 45.6l-3.5 22.7-3.8 22.6c-2.6 15.1-5.4 30.1-8.1 45.2l-8.3 45.1-16.6 90.3c-.8 4.1-2 8.2-3.5 12.1-1.5 3.9-3.3 7.8-5.4 11.4-4.2 7.3-9.6 13.9-16 19.4-12.9 11.1-29 17.6-45.9 18.8l-6.3.2h-6.1l-11.5-.7-22.9-1.3-45.8-2.8h-4.7l-1.8-.3c-2.3-.4-4.5-1-6.7-1.7-4.6-1.6-8.7-4.1-12.3-7.3-3.6-3.3-6.4-7.3-8.3-11.7-1.8-4.3-2.9-8.9-3.1-13.5-.2-4.4.1-8.9 1-13.2l.2-.8v-1.7l.3-1.1c.4-1.2.9-2.4 1.5-3.6 1.1-2.2 2.5-4.3 4.1-6.2 3.1-3.6 6.8-6.6 11-8.8 4-2.1 8.3-3.6 12.7-4.5 2.2-.4 4.4-.8 6.6-.9l2.7-.2 2.1-.3c1.5-.3 2.9-.7 4.3-1.2 1.3-.5 2.6-1.1 3.8-1.9 4.6-3 7.7-8.4 9.4-14.8 1.6-6.8 2.2-13.8 1.8-20.8l-.9-22.9-1.9-45.9c-.6-15.3-1.3-30.6-1.8-45.9v.5c-.6-5-1.3-9.9-2-14.9-.4-2.5-.8-4.9-1.2-7.4s-.9-4.9-1.4-7.3-1-4.9-1.6-7.3l-1.8-7.2c-1.3-4.8-2.7-9.5-4.4-14.2-.8-2.3-1.7-4.6-2.6-6.9s-1.8-4.6-2.9-6.8l-1.5-3.4-1.6-3.3-1.7-3.3-1.8-3.3-1.8-3.2-1.9-3.2-4-6.3c-1.4-2.1-2.8-4.1-4.3-6.2l-2.2-3-2.3-3c-.8-.9-.7-2.3.2-3.2s2.3-.7 3.2.2l5.4 5.6c1.7 1.9 3.4 3.9 5.1 5.9 1.7 2 3.3 4 4.8 6.1l2.3 3.2 2.2 3.2c1.5 2.2 2.9 4.3 4.2 6.6l2 3.4 1.9 3.4c1.3 2.3 2.4 4.6 3.5 7 1.1 2.4 2.2 4.7 3.2 7.2 2 4.8 3.8 9.7 5.4 14.7 1.6 5 3 10 4.2 15 .6 2.5 1.2 5.1 1.7 7.6s1.1 5.1 1.5 7.6c.9 5.1 1.7 10.2 2.4 15.3v.5c.9 15.3 1.6 30.6 2.4 45.8l2.3 45.8 1.1 22.9c.2 4.1.2 8.2-.1 12.3-.3 4.2-.9 8.4-1.9 12.5-.5 2.1-1.2 4.2-2 6.3-.9 2.1-1.9 4.2-3.1 6.2-2.5 4.1-5.8 7.7-9.8 10.4-4 2.6-8.5 4.5-13.2 5.3l-3.5.5-3 .2c-1.6.1-3.1.3-4.7.6-3.1.6-6 1.7-8.8 3.2-2.6 1.4-5 3.3-6.9 5.5-.9 1-1.6 2.1-2.2 3.3-.6 1.2-1 2.4-1.2 3.7-.7 3.2-.9 6.4-.7 9.6.2 3 .8 5.9 2 8.7 1.1 2.6 2.8 5 4.9 6.9 2.1 1.9 4.6 3.4 7.3 4.3 1.4.5 2.9.8 4.4 1.1l1 .2h3.9l45.8 2.7 22.9 1.4 11.5.7h10.5c13.8-.9 27-6.2 37.6-15.2 5.2-4.5 9.6-9.8 13.1-15.7 3.5-6 6-12.4 7.4-19.2l17.4-90.1 8.7-45.1c2.9-15 5.8-30 8.8-45l4.7-22.5 5-22.4c3.4-14.9 7-29.8 11-44.6.2-1.4 1.4-2.3 2.7-2.2s2.4 1.5 2.2 2.9z"/>
    <path fill="#31323D" d="M1095.2 2319.6h-.5l-1.7.2c-2 .3-4 1-5.8 2-2.6 1.4-4.8 3.2-6.7 5.5-1.1 1.3-2 2.6-2.9 4-.9 1.5-1.7 3-2.4 4.6l-.5 1.2-.5 1.2-.5 1.2-.4 1.3c-.5 1.7-.9 3.4-1.3 5l-.5 2.4c-.2.8-.3 1.6-.4 2.4s-.4 3-.6 4.4-.2 2.6-.3 3.7-.1 2.1-.2 2.9v2.7c.2 3.5-2.4 6.5-5.9 6.7-3.5.2-6.5-2.4-6.7-5.9 0-.5 0-1 .1-1.5 0-.3.1-.5.1-.8l.5-2.7c.2-.9.3-1.9.6-3.1s.5-2.6.9-4.1.8-3.1 1.3-4.8l.8-2.6.9-2.7c.7-1.8 1.4-3.7 2.3-5.5l.6-1.4.7-1.4.7-1.4.8-1.4c1.1-1.8 2.3-3.5 3.6-5.2 1.3-1.6 2.7-3.1 4.2-4.5 2.7-2.5 5.9-4.5 9.4-5.8 2.5-.9 5.1-1.4 7.7-1.5h3.1c1.3.1 2.3 1.3 2.2 2.7-.2 1.4-1.4 2.3-2.7 2.2zm-42.5-4.7h-.6l-1.6.4-2.5.9-.7.3-.8.4-1.6.9-1.7 1.1-1.7 1.3-.9.7-.8.8-1.6 1.7-1.5 2-.7 1-.6 1.1-1.3 2.2-1.1 2.4c-.3.8-.7 1.6-1 2.4l-.8 2.5-.8 2.4-.6 2.5c-.4 1.5-.8 3.1-1 4.7l-.6 4.3c-.2 1.2-.3 2.5-.3 3.7l-.2 2.8-.2 2.5v.4c.2 3.5-2.5 6.4-6 6.6-3.5.2-6.4-2.5-6.6-6 0-.5 0-.9.1-1.4 0-.3.1-.5.1-.8l.5-2.7.6-3.1c.3-1.2.4-2.5.9-4l1.3-4.7c.5-1.8 1.1-3.5 1.8-5.2l1-2.7 1.3-2.7 1.3-2.7c.5-.9 1.1-1.8 1.6-2.7l1.7-2.6 1.9-2.4.9-1.2 1.1-1.1 2.1-2.1 2.2-1.8 1.1-.9 1.2-.7 2.2-1.4 2.2-1.1 2.1-.8 1-.4 1-.3c1.1-.3 2.1-.5 3.2-.7l2.2-.2h.8c1.2-.1 2.3.8 2.4 2 .1 1.2-.8 2.3-2 2.4zm621-289.7l2.2 9.4c1.4 6.1 3.4 15.1 5.8 26.6 1.2 5.7 2.5 12.1 3.9 19l4.4 22.5 4.8 25.6 5 28.4 23.3 135.3c1.1 6.1 2 12.8 3.6 17.8 1.7 5.5 4.1 10.8 7.2 15.7 6.3 10 15.3 18.1 25.9 23.4l4.1 1.9 1.1.4 1 .4 2 .7c2.7.8 5.6 1.4 8.4 1.7l4.3.3h4.6l10-.3 40.1-1.4 39.4-1.2 2.5-.3 1.2-.2.9-.2 1.9-.4 1.9-.6c2.4-.8 4.5-2 6.5-3.5 1.8-1.5 3.3-3.3 4.3-5.4.2-.6.6-1.1.7-1.7l.6-1.8c.4-1.3.6-2.6.8-3.9.2-1.4.3-2.7.4-4.1v-2.1s0-1.4-.1-2.2l-.2-2.2v-.3c0 .2-.2.3-.3.2-.2 0-.3-.2-.2-.3 0-.2.2-.3.3-.2.1 0 .2.1.2.2v-1.6l-.2-.8-.2-.9c-.1-.6-.4-1.3-.6-1.9-1.7-5-4.7-9.3-8.4-11.7-2-1.2-4.1-2-6.4-2.3l-1.8-.2-2.6-.2h-1.2l-1.5-.2-2.9-.5c-3.8-.9-7.5-2.3-10.9-4.2-3.5-2-6.6-4.7-9.1-8-2.4-3.1-4.1-6.7-5.3-10.4-1-3.5-1.7-7.1-1.9-10.7-.1-.9-.1-1.7-.1-2.6v-7.2l.2-9.1.8-35.4.2-8.6v-4.6l.3-4.2.3-4.2c.1-1.4.2-2.7.4-4.2l1-8.4c1.5-10.6 3.6-21.1 6.4-31.5 2.5-9.5 5.6-18.8 9.1-28l2.7-6.4c.9-2.1 1.7-4.2 2.7-6.2l2.8-5.9c.9-1.9 1.8-3.9 2.8-5.7l2.9-5.4 1.4-2.6 1.5-2.5 2.9-4.9c.9-1.6 1.8-3.2 2.8-4.7l5.6-8.7 5.4-7.7 2.6-3.5 2.5-3.2c1.6-2.1 3.1-4.1 4.6-5.8l4.1-4.9 3.5-4 6.6-7.1c.8-.9 2.2-1.1 3.1-.3.9.8 1.1 2.2.3 3.1l-5.6 7.8c-3.6 5.1-8.8 12.6-14.9 22.5l-4.7 7.8-4.8 8.8c-.9 1.5-1.7 3.1-2.5 4.7l-2.5 4.9-1.3 2.5-1.2 2.6-2.5 5.4c-7.4 16.3-13.4 33.2-17.7 50.6l-.9 3.6-.4 1.8-.4 1.8-1.5 7.4-.4 1.9-.3 1.9-.6 3.8-.6 3.9-.3 1.9-.2 1.9-.9 7.8c-.2 1.3-.2 2.7-.3 4.1l-.3 4.2-.3 4.2v12.5l-.5 35.4v15.8s0 1.4.1 2c.2 2.5.7 5.1 1.4 7.5.7 2.2 1.8 4.3 3.2 6.2 2.7 3.6 6.9 5.8 12 6.9l1.8.3.9.2h1.2l2.2.2 3 .3c4.1.6 8.1 2 11.7 4.2 3.5 2.2 6.6 5.1 9 8.5 2.3 3.2 4.1 6.8 5.4 10.5.3.9.6 1.8.8 2.8l.4 1.4.3 1.6v2.9l.2 2.7c.1.9.1 1.8.1 2.8s.1 1.8 0 2.8c-.1 1.9-.2 3.8-.5 5.7-.3 2-.7 3.9-1.2 5.8l-1 2.9c-.3 1-.8 1.9-1.3 2.9-1.9 3.9-4.6 7.3-7.9 10.1-3.3 2.6-6.9 4.7-10.9 6l-2.8.9-3 .7-1.5.3-1.3.2-2.5.3h-5.7l-5 .2-10 .4-20.1.7-40.1 1.3-10 .3h-5.4l-5.6-.4c-3.7-.4-7.4-1.2-11-2.3l-2.7-.9-1.4-.5-1.2-.5-4.9-2.3c-12.9-6.5-23.7-16.4-31.4-28.6-3.8-6-6.7-12.4-8.7-19.2l-.7-2.6-.3-1.3c-.1-.4-.2-.9-.3-1.3l-.5-2.3-.2-1.2v-1.4l-1.5-9.3-22-135.6-4.5-28.5-3.8-25.7-3.2-22.7c-1-7-1.8-13.4-2.5-19.3-1.5-11.6-2.5-20.8-3.2-27.1l-1-9.6c.4-1.1 1.7-1.7 2.8-1.3.4.1.7.4 1 .7z"/>
    <path fill="#31323D" d="M1783.2 2307.4h3.2c2.7.3 5.4.8 8 1.7 1.8.6 3.5 1.3 5.1 2.1 1.9.9 3.6 2 5.3 3.3 1.8 1.3 3.5 2.9 5 4.5.7.9 1.5 1.7 2.2 2.7l1 1.4 1 1.5c1.2 1.9 2.4 4 3.3 6.1.9 2 1.7 4.1 2.4 6.2.4 1 .6 2 .9 3s.5 2 .7 2.9l.6 2.8.4 2.6c.3 1.7.4 3.2.6 4.6s.3 2.5.3 3.5l.2 3.1c-.2 3.5-3.1 6.2-6.6 6-3-.1-5.4-2.3-5.9-5.2v-1l.2-2.7c.1-.9.1-1.9.1-3.1s.1-2.6 0-4v-2.3l-.2-2.4c-.1-.8-.2-1.7-.3-2.5s-.2-1.8-.4-2.6c-.3-1.8-.8-3.6-1.3-5.3-.6-1.8-1.3-3.5-2.1-5.2l-.6-1.3-.7-1.2c-.4-.8-1-1.6-1.5-2.3-1-1.5-2.2-2.8-3.5-4.1-2.3-2.3-5-4.1-8-5.5-2.1-1-4.3-1.7-6.6-2.2l-1.9-.3h-.7c-1.3.1-2.4-1-2.5-2.3s1-2.4 2.3-2.5zm50.6-3.2h3.2c2.7.3 5.4.8 8 1.7 1.8.6 3.5 1.3 5.1 2.1 1.9.9 3.6 2 5.3 3.3 1.8 1.3 3.5 2.9 5 4.5.7.9 1.5 1.7 2.2 2.7l1 1.4 1 1.5c1.2 1.9 2.4 4 3.3 6.1.9 2 1.7 4.1 2.4 6.2.4 1 .6 2 .9 3s.5 2 .7 2.9l.6 2.8.4 2.6c.3 1.7.4 3.2.6 4.6s.3 2.5.3 3.5l.2 3.1c.5 3.4-2 6.6-5.4 7.1-3.4.5-6.6-2-7.1-5.4-.1-.5-.1-1.1 0-1.6v-.3l.2-2.7c.1-.9.1-1.9.1-3.1s.1-2.6 0-4v-2.3l-.2-2.4c-.1-.8-.2-1.7-.3-2.5s-.2-1.8-.4-2.6c-.3-1.8-.8-3.6-1.3-5.3-.6-1.8-1.3-3.5-2.1-5.2l-.6-1.3-.7-1.2c-.4-.8-1-1.6-1.5-2.3-1-1.5-2.2-2.8-3.5-4.1-2.3-2.3-5-4.1-8-5.5-2.1-1-4.3-1.7-6.6-2.2l-1.9-.3h-.7c-1.3.1-2.4-1-2.5-2.3s1-2.4 2.3-2.5z"/>
    <path fill="none" stroke="#31323D" stroke-width="12.5" stroke-miterlimit="10" d="M1206.2 862.9c-41.5-34.1-105.9-77.5-130.8-42.6-3.4 4.7-3.7 10.9-.9 16l60.5 108.1m472-90.4c24.5-19.2 89.4-68.2 129.3-66.3 8.3.4 14.7 7.4 14.3 15.6-.1 2.6-.9 5.1-2.2 7.3L1684 914.8M931.3 2117.4c-38.1 9.1-130.4 43.4-184.5 78.3-26.5 17.1-10.1 55.9 23.2 55.3l280.4-5.5" stroke-linecap="round"/>
    <path fill="#31323D" d="M840.5 2200.1l-.7.2-2 .6-3.1 1-4 1.5-4.5 2.1c-1.6.8-3.2 1.8-4.7 2.8-1.6 1.1-3 2.2-4.4 3.5-1.4 1.3-2.6 2.7-3.7 4.2l-.8 1.1-.7 1.2c-.4.8-.8 1.6-1.1 2.4-.2.4-.3.8-.4 1.2l-.3 1.2c-.2.8-.3 1.6-.4 2.4v3.6c0 .4.1.8.1 1.2 0 .7.1 1.5.3 2.2.2.7.3 1.4.5 2.1.3 1.2.7 2.4 1.2 3.6.4 1 .8 1.9 1.2 2.8l1.2 2.4.2.3c1.3 3.2-.3 6.9-3.5 8.2-2.9 1.2-6.2 0-7.8-2.7l-.3-.7-1.1-3.1c-.4-1-.7-2.2-1.1-3.7-.4-1.6-.8-3.3-1-4.9-.1-.9-.2-1.9-.3-2.9-.1-1.1-.1-2.1-.1-3.2v-1.7l.2-1.7c.1-.6.1-1.2.2-1.7l.4-1.8c.3-1.2.6-2.4 1-3.5.2-.6.4-1.1.7-1.7l.8-1.7c.6-1.1 1.3-2.2 2-3.2l1.1-1.5 1.2-1.4c1.6-1.8 3.4-3.5 5.4-4.9 1.8-1.4 3.8-2.6 5.8-3.6 1.9-1 3.8-1.8 5.7-2.6l5.2-1.8 4.4-1.2 3.5-.7 2.3-.3h.8c1.2-.2 2.4.6 2.6 1.8.2 1.2-.6 2.4-1.8 2.6h-.2zm-47.5 2h-.6l-1.7.5c-2 .7-4 1.5-5.9 2.5-1.2.7-2.4 1.4-3.6 2.2-1.2.9-2.4 1.8-3.5 2.9-1.1 1.1-2.1 2.4-2.9 3.7-.8 1.3-1.5 2.7-2 4.2-.2.7-.4 1.5-.6 2.2-.1.8-.3 1.5-.3 2.3-.1 1.5-.1 3.1.1 4.6.2 1.4.4 2.9.8 4.3s.7 2.7 1.2 3.9l.6 1.7.7 1.5.6 1.3.6 1.1 1.1 2.1v.2c1.2 3.3-.5 6.9-3.7 8.1-2.8 1-5.9 0-7.5-2.5l-.3-.8-.9-2.7-.5-1.4-.5-1.7-.5-1.9c-.2-.7-.3-1.4-.5-2.2s-.6-3.3-.8-5.1c-.2-2-.3-3.9-.2-5.9.1-2.1.3-4.2.8-6.3.2-1.1.6-2.1.9-3.2.4-1.1.8-2.1 1.3-3.1 1-2 2.2-3.9 3.6-5.6 1.4-1.6 2.9-3 4.5-4.3 1.5-1.1 3.1-2.1 4.8-3 1.5-.8 3-1.4 4.6-2 2.3-.9 4.7-1.5 7.1-2l2-.3h.8c1.2-.2 2.4.6 2.6 1.8.2 1.2-.6 2.4-1.8 2.6h-.4v.3z"/>
    <path fill="none" stroke="#31323D" stroke-width="12.5" stroke-miterlimit="10" d="M2020.7 2120.2c47.5 13.8 136.8 46.1 179.8 75.5 26.1 17.8 10.1 55.9-23.2 55.3l-261.6-5.1" stroke-linecap="round"/>
    <path fill="#31323D" d="M2107.6 2193.7h.8l2.3.4 3.5.8 4.5 1.4 5.2 2c1.9.8 3.8 1.8 5.6 2.8 2 1.1 3.9 2.4 5.7 3.8 1.9 1.5 3.7 3.2 5.3 5.1l1.2 1.5 1.1 1.6c.7 1.1 1.3 2.2 1.9 3.3.3.6.5 1.2.8 1.7s.5 1.2.7 1.8l.6 1.8.3.9.2.9c.3 1.2.5 2.3.6 3.5.1 1.1.2 2.3.2 3.4 0 2.1-.1 4.1-.4 6.2-.2 1.7-.6 3.4-1 5-.4 1.5-.7 2.8-1.1 3.7l-1.1 3.2c-1.6 3.1-5.3 4.4-8.5 2.8-2.5-1.3-3.9-4.1-3.3-6.9l.3-.7.2-.3 1.2-2.4c.4-.8.7-1.7 1.2-2.8s.8-2.3 1.2-3.7c.4-1.4.6-2.9.8-4.4.1-.8.1-1.6.1-2.4 0-.8 0-1.7-.1-2.5v-1.2l-.2-1.3c-.1-.4-.2-.8-.4-1.3-.1-.4-.2-.9-.4-1.3-.3-.9-.7-1.7-1.1-2.5l-.7-1.2-.8-1.2c-1.1-1.6-2.3-3.1-3.7-4.4-1.4-1.4-2.8-2.6-4.4-3.8-1.5-1.1-3.1-2.1-4.7-3l-4.5-2.3c-2.3-1.1-4.7-2.1-7.1-2.9l-2-.6-.7-.2h-.1c-1.2-.4-1.8-1.6-1.5-2.7.3-1 1.3-1.7 2.3-1.6zm47.5 2h.8l2.1.4c2.4.6 4.8 1.4 7.1 2.4 1.5.7 3 1.4 4.5 2.3 1.6 1 3.2 2.1 4.7 3.3 1.6 1.4 3.1 2.9 4.4 4.5 2.1 2.6 3.7 5.6 4.8 8.8.4 1.1.6 2.2.9 3.2s.4 2.2.6 3.3.3 2.2.2 3.2.1 2.1 0 3.1l-.2 2.9c-.3 1.8-.5 3.6-.8 5.2l-.5 2.3-.6 2-.5 1.8-.5 1.4-.9 2.7c-1.6 3.1-5.3 4.4-8.5 2.8-2.5-1.3-3.9-4.1-3.3-6.9l.3-.7v-.3l1.1-2.2.6-1.2.6-1.4.7-1.6.6-1.7c.5-1.2.8-2.6 1.2-4l.4-2.2c.2-.7.2-1.5.3-2.3s.1-1.5.1-2.3-.1-1.6-.1-2.4-.2-1.6-.3-2.4c-.2-.8-.4-1.5-.6-2.3-.5-1.5-1.2-3-2-4.4-.8-1.4-1.8-2.7-2.9-3.9-1.1-1.2-2.3-2.2-3.5-3.2-1.1-.9-2.4-1.7-3.6-2.4-1.9-1.1-3.9-2.1-5.9-2.9l-1.7-.6-.6-.2h-.1c-1-.6-1.4-2-.8-3 .4-.7 1.1-1.1 1.9-1.1z"/>
  </g>
</svg>