<?xml version="1.0" encoding="utf-8"?>
<svg viewBox="0 0 500 500" xmlns="http://www.w3.org/2000/svg">
  <g fill="none" fill-rule="evenodd" transform="matrix(0.194524, 0, 0, 0.194524, -45.139599, -39.405045)">
    <g fill-rule="nonzero" fill="#FFF" opacity=".3" transform="matrix(1, 0, 0, 1, 14.11884, -28.23768)">
      <path d="M1077.2 2172.7c-89.2-47.1-145.7-146.2-131.5-254.1l182.9-961.4c15.758072-119.9147683 117.954277-209.57707312 238.9-209.6h158.2c107.836038.00002894 202.54712 71.6357507 231.9 175.4l295.1 960.1c39 137.9-45.2 275-175.8 309.9"/>
      <path d="M1253 1959.4l-50.6 268.6c-1.477278 8.42968-4.458022 16.52511-8.8 23.9-13.4 22.8-38.9 35.7-65.3 34.1l-84.3-5c-21.4-1.6-31.9-18.9-27.2-40.4 2.5-11.1 15.1-20.3 30.6-21.1 23.3-1.2 30.3-20.2 29.9-43.6l-5.3-117.5c-5.2-40.9-15.4-77-45.4-110.9"/>
      <path d="M1122 2236.3s-26.7-3.8-31.7 46.2"/>
      <path d="M1079.2 2231.6s-26.7 0-31.1 46.6"/>
      <path d="M1698 1944.6l46.4 277.5c4.062156 24.31222 20.344355 44.82552 43.1 54.3 7.062544 2.91001 14.666349 4.27392 22.3 4l91.8-3c22-2.2 30.1-15.7 27.9-36.9-.7-6.9-6.2-24.5-24.5-25.5s-29.3-12.6-29-32.1l1.1-61.9c2.9-62.6 29.9-122.4 69.9-169.4"/>
      <path d="M1809.7 2228.7s34.7-.6 34 49.6"/>
      <path d="M1860.3 2225.4s34.7-.6 34 49.6"/>
      <path d="M1232.7 781.9c-41.5-34.1-105.9-77.5-130.8-42.6-3.362521 4.7127634-3.712796 10.939875-.9 16l60.5 108.1"/>
      <path d="M1633.5 773c24.5-19.2 89.4-68.2 129.3-66.3 5.32545.2283298 10.12969 3.26566927 12.61991 7.97856207 2.49022 4.71289283 2.2923 10.39329883-.51991 14.92143793l-64.4 104.2"/>
      <g>
        <path d="M957.8 2036.4c-38.1 9.1-130.4 43.4-184.5 78.3-26.5 17.1-10.1 55.9 23.2 55.3l280.4-5.5"/>
        <path d="M866.6 2116.9s-49.9 7.6-31.7 48.1"/>
        <path d="M819.2 2118.9s-39 5.6-20.9 46.1"/>
      </g>
      <g>
        <path d="M2047.2 2039.2c47.5 13.8 136.8 46.1 179.8 75.5 26.1 17.8 10.1 55.9-23.2 55.3l-261.6-5.1"/>
        <path d="M2133.7 2114.9s49.9 9.6 31.7 50.1"/>
        <path d="M2181.1 2116.9s39 7.6 20.9 48.1"/>
      </g>
    </g>
    <path d="M 1755.119 2173.162 L 1221.519 2173.162" stroke="#31323D" stroke-width="12.5" stroke-linecap="round"/>
    <path d="M 1091.319 2144.462 C 1002.119 2097.362 945.619 1998.262 959.819 1890.362 L 1142.719 928.962 C 1158.477 809.048 1260.673 719.385 1381.619 719.362 L 1539.819 719.362 C 1647.655 719.362 1742.366 790.998 1771.719 894.762 L 2066.819 1854.862 C 2105.819 1992.762 2021.619 2129.862 1891.019 2164.762" stroke="#31323D" stroke-width="12.5" stroke-linecap="round"/>
    <path d="M 1269.219 1931.562 C 1267.519 1946.862 1265.419 1961.962 1263.219 1977.162 L 1259.719 1999.862 L 1255.919 2022.462 C 1253.319 2037.562 1250.519 2052.562 1247.819 2067.662 L 1239.519 2112.762 L 1222.919 2203.062 C 1222.088 2207.185 1220.917 2211.232 1219.419 2215.162 C 1217.932 2219.103 1216.126 2222.915 1214.019 2226.562 C 1209.808 2233.878 1204.399 2240.436 1198.019 2245.962 C 1185.145 2257.012 1169.045 2263.607 1152.119 2264.762 L 1145.819 2264.962 L 1139.719 2264.962 L 1128.219 2264.262 L 1105.319 2262.962 L 1059.519 2260.162 L 1054.819 2260.162 L 1053.019 2259.862 C 1050.745 2259.472 1048.504 2258.903 1046.319 2258.162 C 1041.768 2256.583 1037.584 2254.1 1034.019 2250.862 C 1030.467 2247.583 1027.64 2243.598 1025.719 2239.162 C 1023.916 2234.874 1022.867 2230.307 1022.619 2225.662 C 1022.374 2221.237 1022.71 2216.8 1023.619 2212.462 L 1023.819 2211.662 L 1023.819 2209.962 L 1024.119 2208.862 C 1024.531 2207.627 1025.032 2206.424 1025.619 2205.262 C 1026.725 2203.035 1028.102 2200.952 1029.719 2199.062 C 1032.803 2195.467 1036.535 2192.482 1040.719 2190.262 C 1044.708 2188.146 1048.987 2186.629 1053.419 2185.762 C 1055.596 2185.313 1057.801 2185.012 1060.019 2184.862 L 1062.719 2184.662 L 1064.819 2184.362 C 1066.289 2184.109 1067.73 2183.707 1069.119 2183.162 C 1070.454 2182.677 1071.729 2182.039 1072.919 2181.262 C 1077.519 2178.262 1080.619 2172.862 1082.319 2166.462 C 1083.948 2159.657 1084.555 2152.646 1084.119 2145.662 L 1083.219 2122.762 L 1081.319 2076.862 C 1080.719 2061.562 1080.019 2046.262 1079.519 2030.962 L 1079.519 2031.462 C 1078.919 2026.462 1078.219 2021.562 1077.519 2016.562 C 1077.119 2014.062 1076.719 2011.662 1076.319 2009.162 C 1075.919 2006.662 1075.419 2004.262 1074.919 2001.862 C 1074.419 1999.462 1073.919 1996.962 1073.319 1994.562 L 1071.519 1987.362 C 1070.252 1982.562 1068.786 1977.829 1067.119 1973.162 C 1066.319 1970.862 1065.419 1968.562 1064.519 1966.262 C 1063.619 1963.962 1062.719 1961.662 1061.619 1959.462 L 1060.119 1956.062 L 1058.519 1952.762 L 1056.819 1949.462 L 1055.019 1946.162 L 1053.219 1942.962 L 1051.319 1939.762 L 1047.319 1933.462 C 1045.919 1931.362 1044.519 1929.362 1043.019 1927.262 L 1040.819 1924.262 L 1038.519 1921.262 C 1037.718 1920.323 1037.83 1918.913 1038.769 1918.112 C 1039.708 1917.312 1041.118 1917.423 1041.919 1918.362 L 1047.319 1923.962 C 1049.052 1925.896 1050.752 1927.862 1052.419 1929.862 C 1054.119 1931.862 1055.719 1933.862 1057.219 1935.962 L 1059.519 1939.162 L 1061.719 1942.362 C 1063.219 1944.562 1064.619 1946.662 1065.919 1948.962 L 1067.919 1952.362 L 1069.819 1955.762 C 1071.086 1958.029 1072.252 1960.362 1073.319 1962.762 C 1074.419 1965.162 1075.519 1967.462 1076.519 1969.962 C 1078.519 1974.762 1080.319 1979.662 1081.919 1984.662 C 1083.519 1989.662 1084.919 1994.662 1086.119 1999.662 C 1086.719 2002.196 1087.286 2004.729 1087.819 2007.262 C 1088.319 2009.762 1088.919 2012.362 1089.319 2014.862 C 1090.219 2019.962 1091.019 2025.062 1091.719 2030.162 L 1091.719 2030.662 C 1092.619 2045.962 1093.319 2061.262 1094.119 2076.462 L 1096.419 2122.262 L 1097.519 2145.162 C 1097.753 2149.26 1097.72 2153.369 1097.419 2157.462 C 1097.154 2161.677 1096.519 2165.86 1095.519 2169.962 C 1094.98 2172.101 1094.312 2174.205 1093.519 2176.262 C 1092.655 2178.409 1091.618 2180.483 1090.419 2182.462 C 1087.943 2186.597 1084.6 2190.146 1080.619 2192.862 C 1076.627 2195.511 1072.135 2197.315 1067.419 2198.162 L 1063.919 2198.662 L 1060.919 2198.862 C 1059.34 2198.956 1057.77 2199.156 1056.219 2199.462 C 1053.144 2200.09 1050.179 2201.168 1047.419 2202.662 C 1044.797 2204.052 1042.458 2205.917 1040.519 2208.162 C 1039.652 2209.167 1038.913 2210.276 1038.319 2211.462 C 1037.736 2212.628 1037.331 2213.876 1037.119 2215.162 C 1036.464 2218.317 1036.229 2221.545 1036.419 2224.762 C 1036.583 2227.755 1037.259 2230.698 1038.419 2233.462 C 1039.552 2236.079 1041.221 2238.43 1043.319 2240.362 C 1045.441 2242.268 1047.923 2243.73 1050.619 2244.662 C 1052.056 2245.139 1053.527 2245.507 1055.019 2245.762 L 1056.019 2245.962 L 1059.919 2245.962 L 1105.719 2248.662 L 1128.619 2250.062 L 1140.119 2250.762 L 1150.619 2250.762 C 1164.461 2249.87 1177.646 2244.54 1188.219 2235.562 C 1193.432 2231.098 1197.86 2225.791 1201.319 2219.862 C 1204.789 2213.896 1207.287 2207.415 1208.719 2200.662 L 1226.119 2110.562 L 1234.819 2065.462 C 1237.719 2050.462 1240.619 2035.462 1243.619 2020.462 L 1248.319 1997.962 L 1253.319 1975.562 C 1256.719 1960.662 1260.319 1945.762 1264.319 1930.962 C 1264.485 1929.609 1265.716 1928.647 1267.069 1928.812 C 1268.422 1928.978 1269.385 1930.209 1269.219 1931.562 Z" fill="#31323D" fill-rule="nonzero"/>
    <path d="M 1135.819 2210.362 L 1135.319 2210.362 L 1133.619 2210.562 C 1131.588 2210.903 1129.628 2211.579 1127.819 2212.562 C 1125.25 2213.944 1122.975 2215.812 1121.119 2218.062 C 1120.045 2219.314 1119.075 2220.652 1118.219 2222.062 C 1117.317 2223.541 1116.516 2225.077 1115.819 2226.662 L 1115.319 2227.862 L 1114.819 2229.062 L 1114.319 2230.262 L 1113.919 2231.562 C 1113.419 2233.262 1113.019 2234.962 1112.619 2236.562 L 1112.119 2238.962 C 1111.919 2239.762 1111.819 2240.562 1111.719 2241.362 C 1111.619 2242.162 1111.319 2244.362 1111.119 2245.762 C 1110.919 2247.162 1110.919 2248.362 1110.819 2249.462 C 1110.719 2250.562 1110.719 2251.562 1110.619 2252.362 L 1110.619 2255.062 C 1110.785 2257.483 1109.547 2259.785 1107.434 2260.979 C 1105.322 2262.173 1102.711 2262.048 1100.722 2260.657 C 1098.734 2259.266 1097.721 2256.856 1098.119 2254.462 C 1098.137 2254.194 1098.17 2253.927 1098.219 2253.662 L 1098.719 2250.962 C 1098.919 2250.062 1099.019 2249.062 1099.319 2247.862 C 1099.619 2246.662 1099.819 2245.262 1100.219 2243.762 C 1100.619 2242.262 1101.019 2240.662 1101.519 2238.962 L 1102.319 2236.362 L 1103.219 2233.662 C 1103.919 2231.862 1104.619 2229.962 1105.519 2228.162 L 1106.119 2226.762 L 1106.819 2225.362 L 1107.519 2223.962 L 1108.319 2222.562 C 1109.401 2220.75 1110.603 2219.012 1111.919 2217.362 C 1113.193 2215.75 1114.598 2214.245 1116.119 2212.862 C 1118.849 2210.341 1122.041 2208.371 1125.519 2207.062 C 1127.985 2206.142 1130.587 2205.635 1133.219 2205.562 L 1136.319 2205.562 C 1137.644 2205.7 1138.607 2206.887 1138.469 2208.212 C 1138.331 2209.538 1137.144 2210.5 1135.819 2210.362 Z" fill="#31323D" fill-rule="nonzero"/>
    <path d="M 1093.319 2205.662 L 1092.719 2205.662 L 1091.119 2206.062 L 1088.619 2206.962 L 1087.919 2207.262 L 1087.119 2207.662 L 1085.519 2208.562 L 1083.819 2209.662 L 1082.119 2210.962 L 1081.219 2211.662 L 1080.419 2212.462 L 1078.819 2214.162 L 1077.319 2216.162 L 1076.619 2217.162 L 1076.019 2218.262 L 1074.719 2220.462 L 1073.619 2222.862 C 1073.319 2223.662 1072.919 2224.462 1072.619 2225.262 L 1071.819 2227.762 L 1071.019 2230.162 L 1070.419 2232.662 C 1069.997 2234.209 1069.663 2235.778 1069.419 2237.362 L 1068.819 2241.662 C 1068.654 2242.889 1068.554 2244.125 1068.519 2245.362 L 1068.319 2248.162 L 1068.119 2250.662 L 1068.119 2251.062 C 1068.227 2253.475 1066.947 2255.737 1064.823 2256.885 C 1062.699 2258.035 1060.105 2257.869 1058.146 2256.458 C 1056.185 2255.048 1055.204 2252.641 1055.619 2250.262 C 1055.637 2249.994 1055.67 2249.727 1055.719 2249.462 L 1056.219 2246.762 L 1056.819 2243.662 C 1057.119 2242.462 1057.219 2241.162 1057.719 2239.662 L 1059.019 2234.962 C 1059.525 2233.198 1060.126 2231.462 1060.819 2229.762 L 1061.819 2227.062 L 1063.119 2224.362 L 1064.419 2221.662 C 1064.919 2220.762 1065.519 2219.862 1066.019 2218.962 L 1067.719 2216.362 L 1069.619 2213.962 L 1070.519 2212.762 L 1071.619 2211.662 L 1073.719 2209.562 L 1075.919 2207.762 L 1077.019 2206.862 L 1078.219 2206.162 L 1080.419 2204.762 L 1082.619 2203.662 L 1084.719 2202.862 L 1085.719 2202.462 L 1086.719 2202.162 C 1087.77 2201.863 1088.839 2201.629 1089.919 2201.462 L 1092.119 2201.262 L 1092.919 2201.262 C 1093.705 2201.191 1094.469 2201.544 1094.924 2202.189 C 1095.379 2202.834 1095.455 2203.673 1095.124 2204.389 C 1094.793 2205.105 1094.105 2205.591 1093.319 2205.662 Z" fill="#31323D" fill-rule="nonzero"/>
    <path d="M 1714.319 1915.962 L 1716.519 1925.362 C 1717.919 1931.462 1719.919 1940.462 1722.319 1951.962 C 1723.519 1957.662 1724.819 1964.062 1726.219 1970.962 L 1730.619 1993.462 L 1735.419 2019.062 L 1740.419 2047.462 L 1763.719 2182.762 C 1764.819 2188.862 1765.719 2195.562 1767.319 2200.562 C 1768.99 2206.1 1771.413 2211.382 1774.519 2216.262 C 1780.861 2226.274 1789.816 2234.365 1800.419 2239.662 L 1804.519 2241.562 L 1805.619 2241.962 L 1806.619 2242.362 L 1808.619 2243.062 C 1811.359 2243.893 1814.172 2244.462 1817.019 2244.762 L 1821.319 2245.062 L 1825.919 2245.062 L 1835.919 2244.762 L 1876.019 2243.362 L 1915.419 2242.162 L 1917.919 2241.862 L 1919.119 2241.662 L 1920.019 2241.462 L 1921.919 2241.062 L 1923.819 2240.462 C 1926.17 2239.675 1928.368 2238.491 1930.319 2236.962 C 1932.106 2235.475 1933.57 2233.637 1934.619 2231.562 C 1934.819 2230.962 1935.219 2230.462 1935.319 2229.862 L 1935.919 2228.062 C 1936.271 2226.781 1936.538 2225.478 1936.719 2224.162 C 1936.927 2222.804 1937.06 2221.435 1937.119 2220.062 L 1937.119 2217.962 C 1937.119 2217.262 1937.119 2216.562 1937.019 2215.762 L 1936.819 2213.562 L 1936.819 2213.262 C 1936.793 2213.416 1936.653 2213.524 1936.498 2213.511 C 1936.343 2213.498 1936.223 2213.368 1936.223 2213.212 C 1936.223 2213.056 1936.343 2212.926 1936.498 2212.913 C 1936.653 2212.9 1936.793 2213.009 1936.819 2213.162 L 1936.819 2211.562 L 1936.619 2210.762 L 1936.419 2209.862 C 1936.319 2209.262 1936.019 2208.562 1935.819 2207.962 C 1934.119 2202.962 1931.119 2198.662 1927.419 2196.262 C 1925.459 2195.08 1923.283 2194.298 1921.019 2193.962 L 1919.219 2193.762 L 1916.619 2193.562 L 1915.419 2193.562 L 1913.919 2193.362 L 1911.019 2192.862 C 1907.198 2192.01 1903.524 2190.595 1900.119 2188.662 C 1896.575 2186.64 1893.479 2183.918 1891.019 2180.662 C 1888.666 2177.527 1886.873 2174.009 1885.719 2170.262 C 1884.676 2166.781 1884.038 2163.19 1883.819 2159.562 C 1883.719 2158.662 1883.719 2157.862 1883.719 2156.962 L 1883.719 2149.762 L 1883.919 2140.662 L 1884.719 2105.262 L 1884.919 2096.662 L 1884.919 2092.962 L 1884.919 2092.062 L 1885.219 2087.862 L 1885.519 2083.662 C 1885.619 2082.262 1885.719 2080.962 1885.919 2079.462 L 1886.919 2071.062 C 1888.375 2060.436 1890.513 2049.914 1893.319 2039.562 C 1895.854 2030.074 1898.891 2020.728 1902.419 2011.562 L 1905.119 2005.162 C 1906.019 2003.062 1906.819 2000.962 1907.819 1998.962 L 1910.619 1993.062 C 1911.519 1991.162 1912.419 1989.162 1913.419 1987.362 L 1916.319 1981.962 L 1917.719 1979.362 L 1919.219 1976.862 L 1922.119 1971.962 C 1923.019 1970.362 1923.919 1968.762 1924.919 1967.262 L 1930.519 1958.562 L 1935.919 1950.862 L 1938.519 1947.362 L 1941.019 1944.162 C 1942.619 1942.062 1944.119 1940.062 1945.619 1938.362 L 1949.719 1933.462 L 1953.219 1929.462 L 1959.819 1922.362 C 1960.592 1921.423 1961.98 1921.289 1962.919 1922.062 C 1963.858 1922.836 1963.992 1924.223 1963.219 1925.162 L 1957.619 1932.962 C 1954.019 1938.062 1948.819 1945.562 1942.719 1955.462 L 1938.019 1963.262 L 1933.219 1972.062 C 1932.319 1973.562 1931.519 1975.162 1930.719 1976.762 L 1928.219 1981.662 L 1926.919 1984.162 L 1925.719 1986.762 L 1923.219 1992.162 C 1915.774 2008.448 1909.849 2025.387 1905.519 2042.762 L 1904.619 2046.362 L 1904.219 2048.162 L 1903.819 2049.962 L 1902.319 2057.362 L 1901.919 2059.262 L 1901.619 2061.162 L 1901.019 2064.962 L 1900.419 2068.862 L 1900.119 2070.762 L 1899.919 2072.662 L 1899.019 2080.462 C 1898.819 2081.762 1898.819 2083.162 1898.719 2084.562 L 1898.419 2088.762 L 1898.119 2092.962 L 1898.119 2105.462 L 1897.619 2140.862 L 1897.619 2156.662 C 1897.619 2157.362 1897.619 2158.062 1897.719 2158.662 C 1897.9 2161.207 1898.37 2163.723 1899.119 2166.162 C 1899.82 2168.398 1900.902 2170.496 1902.319 2172.362 C 1905.019 2175.962 1909.219 2178.162 1914.319 2179.262 L 1916.119 2179.562 L 1917.019 2179.762 L 1918.219 2179.762 L 1920.419 2179.962 L 1923.419 2180.262 C 1927.56 2180.866 1931.539 2182.294 1935.119 2184.462 C 1938.647 2186.679 1941.705 2189.567 1944.119 2192.962 C 1946.425 2196.178 1948.244 2199.716 1949.519 2203.462 C 1949.819 2204.362 1950.119 2205.262 1950.319 2206.262 L 1950.719 2207.662 L 1951.019 2209.262 L 1951.019 2212.162 L 1951.219 2214.862 C 1951.319 2215.762 1951.319 2216.662 1951.319 2217.662 C 1951.319 2218.662 1951.419 2219.462 1951.319 2220.462 C 1951.257 2222.37 1951.09 2224.273 1950.819 2226.162 C 1950.548 2228.12 1950.148 2230.058 1949.619 2231.962 L 1948.619 2234.862 C 1948.319 2235.862 1947.819 2236.762 1947.319 2237.762 C 1945.411 2241.638 1942.721 2245.077 1939.419 2247.862 C 1936.164 2250.483 1932.475 2252.514 1928.519 2253.862 L 1925.719 2254.762 L 1922.719 2255.462 L 1921.219 2255.762 L 1919.919 2255.962 L 1917.419 2256.262 L 1911.719 2256.262 L 1906.719 2256.462 L 1896.719 2256.862 L 1876.619 2257.562 L 1836.519 2258.862 L 1826.519 2259.162 L 1821.119 2259.162 L 1815.519 2258.762 C 1811.788 2258.343 1808.105 2257.573 1804.519 2256.462 L 1801.819 2255.562 L 1800.419 2255.062 L 1799.219 2254.562 L 1794.319 2252.262 C 1781.444 2245.765 1770.586 2235.876 1762.919 2223.662 C 1759.155 2217.69 1756.227 2211.23 1754.219 2204.462 L 1753.519 2201.862 L 1753.219 2200.562 C 1753.119 2200.162 1753.019 2199.662 1752.919 2199.262 L 1752.419 2196.962 L 1752.219 2195.762 L 1752.219 2194.362 L 1750.719 2185.062 L 1728.719 2049.462 L 1724.219 2020.962 L 1720.419 1995.262 L 1717.219 1972.562 C 1716.219 1965.562 1715.419 1959.162 1714.719 1953.262 C 1713.219 1941.662 1712.219 1932.462 1711.519 1926.162 L 1710.519 1916.562 C 1710.793 1915.812 1711.453 1915.269 1712.242 1915.144 C 1713.032 1915.019 1713.827 1915.333 1714.319 1915.962 Z" fill="#31323D" fill-rule="nonzero"/>
    <path d="M 1823.819 2198.162 L 1827.019 2198.162 C 1829.743 2198.412 1832.428 2198.983 1835.019 2199.862 C 1836.774 2200.421 1838.479 2201.123 1840.119 2201.962 C 1841.983 2202.898 1843.757 2204.003 1845.419 2205.262 C 1847.216 2206.611 1848.889 2208.117 1850.419 2209.762 C 1851.119 2210.662 1851.919 2211.462 1852.619 2212.462 L 1853.619 2213.862 L 1854.619 2215.362 C 1855.868 2217.311 1856.971 2219.35 1857.919 2221.462 C 1858.84 2223.48 1859.641 2225.55 1860.319 2227.662 C 1860.719 2228.662 1860.919 2229.662 1861.219 2230.662 C 1861.519 2231.662 1861.719 2232.662 1861.919 2233.562 L 1862.519 2236.362 L 1862.919 2238.962 C 1863.219 2240.662 1863.319 2242.162 1863.519 2243.562 C 1863.719 2244.962 1863.819 2246.062 1863.819 2247.062 L 1864.019 2250.162 C 1863.875 2253.374 1861.336 2255.962 1858.128 2256.167 C 1854.919 2256.372 1852.071 2254.129 1851.519 2250.962 C 1851.506 2250.729 1851.506 2250.495 1851.519 2250.262 L 1851.519 2249.962 L 1851.719 2247.262 C 1851.819 2246.362 1851.819 2245.362 1851.819 2244.162 C 1851.819 2242.962 1851.919 2241.562 1851.819 2240.162 L 1851.819 2237.862 L 1851.619 2235.462 C 1851.519 2234.662 1851.419 2233.762 1851.319 2232.962 C 1851.219 2232.162 1851.119 2231.162 1850.919 2230.362 C 1850.588 2228.572 1850.154 2226.802 1849.619 2225.062 C 1849.048 2223.28 1848.346 2221.542 1847.519 2219.862 L 1846.919 2218.562 L 1846.219 2217.362 C 1845.819 2216.562 1845.219 2215.762 1844.719 2215.062 C 1843.676 2213.595 1842.504 2212.223 1841.219 2210.962 C 1838.877 2208.697 1836.173 2206.838 1833.219 2205.462 C 1831.113 2204.471 1828.898 2203.733 1826.619 2203.262 L 1824.719 2202.962 L 1824.019 2202.962 C 1822.693 2203.017 1821.574 2201.988 1821.519 2200.662 C 1821.464 2199.337 1822.493 2198.218 1823.819 2198.162 Z" fill="#31323D" fill-rule="nonzero"/>
    <path d="M 1874.419 2194.962 L 1877.619 2194.962 C 1880.343 2195.212 1883.028 2195.783 1885.619 2196.662 C 1887.374 2197.221 1889.079 2197.923 1890.719 2198.762 C 1892.583 2199.698 1894.357 2200.803 1896.019 2202.062 C 1897.816 2203.411 1899.489 2204.917 1901.019 2206.562 C 1901.719 2207.462 1902.519 2208.262 1903.219 2209.262 L 1904.219 2210.662 L 1905.219 2212.162 C 1906.468 2214.111 1907.571 2216.15 1908.519 2218.262 C 1909.44 2220.28 1910.241 2222.35 1910.919 2224.462 C 1911.319 2225.462 1911.519 2226.462 1911.819 2227.462 C 1912.119 2228.462 1912.319 2229.462 1912.519 2230.362 L 1913.119 2233.162 L 1913.519 2235.762 C 1913.819 2237.462 1913.919 2238.962 1914.119 2240.362 C 1914.319 2241.762 1914.419 2242.862 1914.419 2243.862 L 1914.619 2246.962 C 1914.945 2249.381 1913.844 2251.77 1911.794 2253.095 C 1909.744 2254.419 1907.113 2254.44 1905.042 2253.149 C 1902.971 2251.857 1901.832 2249.486 1902.119 2247.062 L 1902.119 2246.762 L 1902.319 2244.062 C 1902.419 2243.162 1902.419 2242.162 1902.419 2240.962 C 1902.419 2239.762 1902.519 2238.362 1902.419 2236.962 L 1902.419 2234.662 L 1902.219 2232.262 C 1902.119 2231.462 1902.019 2230.562 1901.919 2229.762 C 1901.819 2228.962 1901.719 2227.962 1901.519 2227.162 C 1901.188 2225.372 1900.754 2223.602 1900.219 2221.862 C 1899.648 2220.08 1898.946 2218.342 1898.119 2216.662 L 1897.519 2215.362 L 1896.819 2214.162 C 1896.419 2213.362 1895.819 2212.562 1895.319 2211.862 C 1894.276 2210.395 1893.104 2209.023 1891.819 2207.762 C 1889.477 2205.497 1886.773 2203.638 1883.819 2202.262 C 1881.713 2201.271 1879.498 2200.533 1877.219 2200.062 L 1875.319 2199.762 L 1874.619 2199.762 C 1873.293 2199.817 1872.174 2198.788 1872.119 2197.462 C 1872.064 2196.137 1873.093 2195.017 1874.419 2194.962 Z" fill="#31323D" fill-rule="nonzero"/>
    <path d="M 1246.819 753.662 C 1205.319 719.562 1140.919 676.162 1116.019 711.062 C 1112.656 715.775 1112.306 722.002 1115.119 727.062 L 1175.619 835.162" stroke="#31323D" stroke-width="12.5" stroke-linecap="round"/>
    <path d="M 1647.619 744.762 C 1672.119 725.562 1737.019 676.562 1776.919 678.462 C 1782.244 678.691 1787.049 681.728 1789.539 686.441 C 1792.029 691.154 1791.831 696.834 1789.019 701.362 L 1724.619 805.562" stroke="#31323D" stroke-width="12.5" stroke-linecap="round"/>
    <path d="M 971.919 2008.162 C 933.819 2017.262 841.519 2051.562 787.419 2086.462 C 760.919 2103.562 777.319 2142.362 810.619 2141.762 L 1091.019 2136.262" stroke="#31323D" stroke-width="12.5" stroke-linecap="round"/>
    <path d="M 881.119 2090.862 L 880.419 2091.062 L 878.419 2091.662 L 875.319 2092.662 L 871.319 2094.162 L 866.819 2096.262 C 865.202 2097.108 863.633 2098.043 862.119 2099.062 C 860.563 2100.112 859.092 2101.283 857.719 2102.562 C 856.34 2103.827 855.099 2105.235 854.019 2106.762 L 853.219 2107.862 L 852.519 2109.062 C 852.103 2109.839 851.736 2110.64 851.419 2111.462 C 851.219 2111.862 851.119 2112.262 851.019 2112.662 C 850.891 2113.055 850.791 2113.456 850.719 2113.862 C 850.532 2114.652 850.398 2115.454 850.319 2116.262 L 850.319 2119.862 C 850.319 2120.262 850.419 2120.662 850.419 2121.062 C 850.466 2121.802 850.567 2122.537 850.719 2123.262 C 850.919 2123.962 851.019 2124.662 851.219 2125.362 C 851.556 2126.582 851.957 2127.784 852.419 2128.962 C 852.771 2129.915 853.171 2130.85 853.619 2131.762 L 854.819 2134.162 L 855.019 2134.462 C 856.247 2137.529 854.898 2141.024 851.928 2142.47 C 848.957 2143.916 845.374 2142.821 843.719 2139.962 L 843.419 2139.262 L 842.319 2136.162 C 841.919 2135.162 841.619 2133.962 841.219 2132.462 C 840.801 2130.847 840.467 2129.212 840.219 2127.562 C 840.119 2126.662 840.019 2125.662 839.919 2124.662 C 839.817 2123.599 839.784 2122.53 839.819 2121.462 L 839.819 2119.762 L 840.019 2118.062 C 840.119 2117.462 840.119 2116.862 840.219 2116.362 L 840.619 2114.562 C 840.875 2113.375 841.209 2112.206 841.619 2111.062 C 841.82 2110.483 842.053 2109.915 842.319 2109.362 L 843.119 2107.662 C 843.719 2106.555 844.387 2105.487 845.119 2104.462 L 846.219 2102.962 L 847.419 2101.562 C 849.041 2099.743 850.851 2098.1 852.819 2096.662 C 854.655 2095.312 856.594 2094.108 858.619 2093.062 C 860.469 2092.09 862.372 2091.222 864.319 2090.462 L 869.519 2088.662 L 873.919 2087.462 L 877.419 2086.762 L 879.719 2086.462 L 880.519 2086.462 C 881.734 2086.241 882.898 2087.047 883.119 2088.262 C 883.34 2089.477 882.534 2090.641 881.319 2090.862 L 881.119 2090.862 Z" fill="#31323D" fill-rule="nonzero"/>
    <path d="M 833.619 2092.862 L 833.019 2092.862 L 831.319 2093.362 C 829.285 2094.028 827.312 2094.865 825.419 2095.862 C 824.173 2096.517 822.97 2097.252 821.819 2098.062 C 820.579 2098.937 819.408 2099.906 818.319 2100.962 C 817.231 2102.095 816.259 2103.335 815.419 2104.662 C 814.58 2105.973 813.908 2107.385 813.419 2108.862 C 813.18 2109.584 812.979 2110.319 812.819 2111.062 C 812.719 2111.862 812.519 2112.562 812.519 2113.362 C 812.409 2114.895 812.442 2116.435 812.619 2117.962 C 812.794 2119.411 813.061 2120.847 813.419 2122.262 C 813.819 2123.662 814.119 2124.962 814.619 2126.162 L 815.219 2127.862 L 815.919 2129.362 L 816.519 2130.662 L 817.119 2131.762 L 818.219 2133.862 L 818.219 2134.062 C 819.326 2137.074 817.993 2140.436 815.123 2141.871 C 812.253 2143.306 808.764 2142.355 807.019 2139.662 L 806.719 2138.862 L 805.819 2136.162 L 805.319 2134.762 L 804.819 2133.062 L 804.319 2131.162 C 804.119 2130.462 804.019 2129.762 803.819 2128.962 C 803.619 2128.162 803.219 2125.662 803.019 2123.862 C 802.822 2121.902 802.755 2119.931 802.819 2117.962 C 802.89 2115.842 803.157 2113.733 803.619 2111.662 C 803.819 2110.562 804.219 2109.562 804.519 2108.462 C 804.893 2107.405 805.327 2106.37 805.819 2105.362 C 806.782 2103.354 807.992 2101.473 809.419 2099.762 C 810.771 2098.182 812.278 2096.741 813.919 2095.462 C 815.437 2094.337 817.042 2093.334 818.719 2092.462 C 820.207 2091.697 821.744 2091.028 823.319 2090.462 C 825.624 2089.595 828 2088.926 830.419 2088.462 L 832.419 2088.162 L 833.219 2088.162 C 834.005 2088.019 834.807 2088.307 835.324 2088.916 C 835.841 2089.525 835.993 2090.364 835.724 2091.116 C 835.455 2091.868 834.805 2092.419 834.019 2092.562 L 833.619 2092.562 L 833.619 2092.862 Z" fill="#31323D" fill-rule="nonzero"/>
    <path d="M 2061.319 2010.962 C 2108.819 2024.762 2198.119 2057.062 2241.119 2086.462 C 2267.219 2104.262 2251.219 2142.362 2217.919 2141.762 L 1956.319 2136.662" stroke="#31323D" stroke-width="12.5" stroke-linecap="round"/>
    <path d="M 2148.219 2084.462 L 2149.019 2084.462 L 2151.319 2084.862 L 2154.819 2085.662 L 2159.319 2087.062 L 2164.519 2089.062 C 2166.434 2089.895 2168.304 2090.829 2170.119 2091.862 C 2172.111 2092.985 2174.016 2094.255 2175.819 2095.662 C 2177.752 2097.18 2179.528 2098.889 2181.119 2100.762 L 2182.319 2102.262 L 2183.419 2103.862 C 2184.119 2104.922 2184.754 2106.024 2185.319 2107.162 C 2185.619 2107.762 2185.819 2108.362 2186.119 2108.862 C 2186.419 2109.362 2186.619 2110.062 2186.819 2110.662 L 2187.419 2112.462 L 2187.719 2113.362 L 2187.919 2114.262 C 2188.197 2115.414 2188.398 2116.583 2188.519 2117.762 C 2188.662 2118.89 2188.729 2120.026 2188.719 2121.162 C 2188.739 2123.236 2188.605 2125.308 2188.319 2127.362 C 2188.07 2129.045 2187.737 2130.714 2187.319 2132.362 C 2186.919 2133.862 2186.619 2135.162 2186.219 2136.062 L 2185.119 2139.262 C 2183.7 2142.087 2180.407 2143.423 2177.421 2142.386 C 2174.435 2141.348 2172.68 2138.258 2173.319 2135.162 L 2173.619 2134.462 L 2173.819 2134.162 L 2175.019 2131.762 C 2175.419 2130.962 2175.719 2130.062 2176.219 2128.962 C 2176.719 2127.862 2177.019 2126.662 2177.419 2125.262 C 2177.79 2123.816 2178.057 2122.346 2178.219 2120.862 C 2178.313 2120.066 2178.347 2119.264 2178.319 2118.462 C 2178.348 2117.627 2178.315 2116.792 2178.219 2115.962 L 2178.219 2114.762 L 2178.019 2113.462 C 2177.919 2113.062 2177.819 2112.662 2177.619 2112.162 C 2177.509 2111.722 2177.375 2111.288 2177.219 2110.862 C 2176.905 2110.007 2176.537 2109.172 2176.119 2108.362 L 2175.419 2107.162 L 2174.619 2105.962 C 2173.537 2104.375 2172.297 2102.9 2170.919 2101.562 C 2169.55 2100.186 2168.08 2098.916 2166.519 2097.762 C 2165.008 2096.678 2163.438 2095.677 2161.819 2094.762 L 2157.319 2092.462 C 2155.01 2091.36 2152.639 2090.392 2150.219 2089.562 L 2148.219 2088.962 L 2147.519 2088.762 L 2147.419 2088.762 C 2146.344 2088.438 2145.687 2087.357 2145.892 2086.254 C 2146.097 2085.15 2147.1 2084.378 2148.219 2084.462 Z" fill="#31323D" fill-rule="nonzero"/>
    <path d="M 2195.719 2086.462 L 2196.519 2086.462 L 2198.619 2086.862 C 2201.049 2087.462 2203.424 2088.265 2205.719 2089.262 C 2207.265 2089.934 2208.768 2090.702 2210.219 2091.562 C 2211.866 2092.543 2213.437 2093.646 2214.919 2094.862 C 2216.525 2096.219 2217.999 2097.726 2219.319 2099.362 C 2221.401 2102.006 2223.024 2104.98 2224.119 2108.162 C 2224.519 2109.262 2224.719 2110.362 2225.019 2111.362 C 2225.319 2112.362 2225.419 2113.562 2225.619 2114.662 C 2225.819 2115.762 2225.919 2116.862 2225.819 2117.862 C 2225.719 2118.862 2225.919 2119.962 2225.819 2120.962 L 2225.619 2123.862 C 2225.319 2125.662 2225.119 2127.462 2224.819 2129.062 L 2224.319 2131.362 L 2223.719 2133.362 L 2223.219 2135.162 L 2222.719 2136.562 L 2221.819 2139.262 C 2220.4 2142.087 2217.107 2143.423 2214.121 2142.386 C 2211.135 2141.348 2209.38 2138.258 2210.019 2135.162 L 2210.319 2134.462 L 2210.319 2134.162 L 2211.419 2131.962 L 2212.019 2130.762 L 2212.619 2129.362 L 2213.319 2127.762 L 2213.919 2126.062 C 2214.419 2124.862 2214.719 2123.462 2215.119 2122.062 L 2215.519 2119.862 C 2215.719 2119.162 2215.719 2118.362 2215.819 2117.562 C 2215.919 2116.762 2215.919 2116.062 2215.919 2115.262 C 2215.919 2114.462 2215.819 2113.662 2215.819 2112.862 C 2215.819 2112.062 2215.619 2111.262 2215.519 2110.462 C 2215.364 2109.684 2215.164 2108.917 2214.919 2108.162 C 2214.427 2106.622 2213.756 2105.145 2212.919 2103.762 C 2212.078 2102.374 2211.107 2101.068 2210.019 2099.862 C 2208.934 2098.709 2207.764 2097.639 2206.519 2096.662 C 2205.37 2095.787 2204.168 2094.986 2202.919 2094.262 C 2201.036 2093.133 2199.063 2092.163 2197.019 2091.362 L 2195.319 2090.762 L 2194.719 2090.562 L 2194.619 2090.562 C 2193.762 2090.062 2193.346 2089.05 2193.603 2088.092 C 2193.86 2087.134 2194.727 2086.466 2195.719 2086.462 Z" fill="#31323D" fill-rule="nonzero"/>
  </g>
</svg>