<svg xmlns="http://www.w3.org/2000/svg" viewBox="0 0 3000 3000" xmlns:xlink="http://www.w3.org/1999/xlink"><g id="tailFur"><clipPath id="tailFurClipPath"><path fill="none" d="M2518.1 1775.9c67.6-29 132.5 39.9 146.6 73.7 48 115.1-49.4 194.9-49.4 194.9-36.6 34.8-88.5 67.7-157.3 88.8-175.3 53.8-339.2-38.4-422.2-99l-34.7-24.9-36.1 140.1 220.6 76.5a852.5 852.5 0 0 0 229 11.7c98.1-8.4 186.9-29.1 266-104.6 93.6-89.2 148.9-239.5 82.8-373.6-44.5-90.3-152-191.5-273.6-171.9-89 14.4-190.9 94.4-182.7 186.5 5.8 64 64.6 132.1 133.1 133.9 48.3 1.2 112.1-30.2 112.1-73.4-.1-34.5-40.8-73.1-100.9-79.4"></path></clipPath><g clip-path="url(#tailFurClipPath)"><path fill="#d1dadf" d="M1904 1437.5h939v808.41h-939z"></path><path fill="#756650" d="M2636.5 1906.6l-48.7-50.3c37.9-36.6 44.7-69.8 45.4-86.3 1.4-33.2-16.1-69.9-48-100.8-36.5-35.3-88.8-60.6-147.3-71.3l12.5-68.9c72 13.1 137.2 45 183.5 89.9s71.5 100.1 69.2 154c-1.1 27-11.3 80.2-66.6 133.7z"></path><path fill="#756650" d="M2694.4 2026.8c-74.8 0-130.5-44-142.6-54.3l78.1-91.1c1.4 1.2 30 25.4 64.5 25.4a69.8 69.8 0 0 0 16.9-2c18.6-4.6 35.7-17 48.2-34.9 13.8-19.7 21-44.6 20.3-70.1l119.9-3.5c3.1 106.6-63.9 201.2-159.5 225a190 190 0 0 1-45.8 5.5zm-88.9 200.8c-59.3 0-114.2-17.6-156.9-50.6-29-22.4-52.2-51.7-69.1-87a299.6 299.6 0 0 1-23.5-72l88.3-17.2c6.2 31.7 21.5 75.7 59.4 105 30.9 23.9 73.5 34.9 120 31 50.3-4.2 102.3-25.8 146.6-60.7l55.7 70.7c-58.8 46.4-126.2 74-194.8 79.7q-13 1.1-25.7 1.1zm-142.3 229.1a497.1 497.1 0 0 1-96-9.5 482.1 482.1 0 0 1-108-34.8 459.8 459.8 0 0 1-209.2-193.3 485 485 0 0 1-46-115.5c-17.2-66.9-16.7-122.2-15.7-142.9l199.8 9.8c-.3 6.4-1.3 40.6 9.6 83.2 13.9 54 40.9 99.2 80.2 134.4 35.8 32 78.9 53.2 128.1 62.9 36.9 7.3 66.6 5.8 77.6 4.9l17.2 199.3c-10.5.8-23.1 1.5-37.6 1.5z"></path><path fill="#756650" d="M2305.7 2002.2q-10.5 0-21.1-1c-52.7-4.8-101-27.1-135.8-62.8s-53.8-84.3-49.4-132.7 30.1-91.6 72.5-121.6c40.7-28.9 92.1-42.1 144.9-37.3s101 27.1 135.8 62.8 53.8 84.3 49.4 132.7-30.1 91.6-72.5 121.6c-35.3 25-78.6 38.3-123.8 38.3zm-10.1-286.3c-30.8 0-59.9 8.8-83.2 25.4-25.4 18-40.8 43.2-43.3 70.8s8.1 55.2 29.8 77.5 55.8 38.7 92 42 71-5.5 98-24.7c25.4-18 40.8-43.2 43.3-70.8s-8.1-55.2-29.8-77.5-55.8-38.7-92-42q-7.4-.7-14.8-.7z"></path><path fill="#756650" d="M2305.7 2002.2q-10.5 0-21.1-1c-52.7-4.8-101-27.1-135.8-62.8s-53.8-84.3-49.4-132.7 30.1-91.6 72.5-121.6c40.7-28.9 92.1-42.1 144.9-37.3s101 27.1 135.8 62.8 53.8 84.3 49.4 132.7-30.1 91.6-72.5 121.6c-35.3 25-78.6 38.3-123.8 38.3zm-10.1-286.3c-30.8 0-59.9 8.8-83.2 25.4-25.4 18-40.8 43.2-43.3 70.8s8.1 55.2 29.8 77.5 55.8 38.7 92 42 71-5.5 98-24.7c25.4-18 40.8-43.2 43.3-70.8s-8.1-55.2-29.8-77.5-55.8-38.7-92-42q-7.4-.7-14.8-.7z"></path></g><g id="tailShadow"><defs><clipPath id="tailShadowClipPath"><path d="M2518.1 1775.9c67.6-29 132.5 39.9 146.6 73.7 48 115.1-49.4 194.9-49.4 194.9-36.6 34.8-88.5 67.7-157.3 88.8-175.3 53.8-339.2-38.4-422.2-99l-34.7-24.9-36.1 140.1 220.6 76.5a852.5 852.5 0 0 0 229 11.7c98.1-8.4 186.9-29.1 266-104.6 93.6-89.2 148.9-239.5 82.8-373.6-44.5-90.3-152-191.5-273.6-171.9-89 14.4-190.9 94.4-182.7 186.5 5.8 64 64.6 132.1 133.1 133.9 48.3 1.2 112.1-30.2 112.1-73.4-.1-34.5-40.8-73.1-100.9-79.4" fill="none"></path></clipPath><linearGradient id="tailShadowLinearGradient" x1="2364.15" y1="2291.47" x2="2364.15" y2="2013.47" gradientUnits="userSpaceOnUse"><stop offset="0" stop-color="gray"></stop><stop offset=".27" stop-color="#7d7d7d"></stop><stop offset=".46" stop-color="#747474"></stop><stop offset=".64" stop-color="#646464"></stop><stop offset=".8" stop-color="#4d4d4d"></stop><stop offset=".95" stop-color="#303030"></stop><stop offset="1" stop-color="#242424"></stop></linearGradient><linearGradient id="tailShadowLinearGradient2" x1="2579.15" y1="1935.2" x2="2579.15" y2="1441.6" gradientUnits="userSpaceOnUse"><stop offset="0" stop-color="#fff" stop-opacity="0"></stop><stop offset=".72" stop-color="#fff"></stop></linearGradient><linearGradient id="tailShadowLinearGradient3" x1="2583.8" y1="2124.84" x2="2583.8" y2="1726.66" href="#tailShadowLinearGradient" xlink:href="#tailShadowLinearGradient"></linearGradient></defs><g style="isolation:isolate"><g clip-path="url(#tailShadowClipPath)"><path d="M2135.9 2084.1c107 52 71.6 104 199.2 113.8 208.3 32.6 329.5-41.9 390.8-121l100.2-44.4-96 259-828-9.1 54-268.9s122.5 42.7 179.8 70.6z" opacity=".25" fill="url(#tailShadowLinearGradient)" style="mix-blend-mode:multiply"></path><path d="M2307.1 1774.1s77.1-188.9 277.1-114.6 203.7 275.7 203.7 275.7l134.3-263.7-234-212.5-344-17.4-108 123.9z" opacity=".5" fill="url(#tailShadowLinearGradient2)" style="mix-blend-mode:overlay"></path><path d="M2519.6 1734.3c8.4-2.3 109.1-43.4 164.5 92.2 57.5 140.6-26.3 224.4-201.1 298.4l96.1-317.4s-20.1-11.2-61-31.6-52.7-18.9-52.7-18.9 20.5-10.4 54.2-22.7z" opacity=".25" fill="url(#tailShadowLinearGradient3)" style="mix-blend-mode:multiply"></path></g></g></g></g><g id="tail"><path d="M2515.9 1770l5.8-2.2 1.6-.5 1.6-.5 3.3-1 3.3-.8 3.2-.7 3.3-.6 3.3-.5a92.5 92.5 0 0 1 26.4.8 110 110 0 0 1 25 7.6 138.2 138.2 0 0 1 22.6 12.5 169 169 0 0 1 20 16 181.2 181.2 0 0 1 17.5 18.7 139.6 139.6 0 0 1 14.5 21.4l1.5 3 1.4 3.1.3.8v.9l.6 1.4 1.1 2.9 2.2 5.8 2 6.2 1 3.1c.3 1 .7 2.1.9 3.1l1.5 6.2.8 3.1.6 3.2 1.1 6.3c.4 2.1.5 4.2.8 6.4l.4 3.2.2 1.6v1.6l.3 6.4v6.4a154.3 154.3 0 0 1-2.3 25.6l-1.2 6.3c-.5 2.1-1 4.2-1.5 6.2s-.5 2.1-.8 3.1l-.9 3.1-.9 3.1-.5 1.5-.5 1.5-2.1 6-2.4 5.9c-.8 2-1.7 3.9-2.6 5.8l-1.3 2.9-1.4 2.9a193.8 193.8 0 0 1-12.9 22 213.5 213.5 0 0 1-15.5 20.2c-2.8 3.2-5.6 6.3-8.6 9.4l-4.6 4.5-2.4 2.2-2.6 2.2.3-.3a366.6 366.6 0 0 1-68.8 51 404.9 404.9 0 0 1-38.1 19.4q-19.5 8.7-39.8 15.6l-10.2 3.3-2.5.8h-.8l-.6.2-1.3.4-5.1 1.4-10.2 2.8-10.5 2.5-5.3 1.2-5.3 1-10.5 2-10.6 1.5-5.3.7-5.3.6-10.7 1-10.7.6c-7.1.5-14.3.4-21.4.5l-10.7-.3-5.4-.2-5.3-.3-10.7-.7-10.6-1.1-5.3-.6-5.3-.7-10.6-1.5c-7-1.3-14.1-2.4-21-4-14-2.8-27.7-6.5-41.4-10.6l-10.2-3.2-10.1-3.4c-3.4-1.1-6.7-2.4-10-3.6s-6.7-2.4-10-3.8l-9.9-4-9.8-4.2-9.7-4.4-9.7-4.5c-12.8-6.1-25.4-12.7-37.8-19.6s-24.5-14.3-36.5-21.9-23.6-15.7-35-24l-34.2-24.6 9.7-3.5-35.8 140.3-4-7.5 220.6 76.5-.9-.2a866.3 866.3 0 0 0 126.3 14q31.8 1.1 63.6-.1c21.2-.8 42.3-2.5 63.4-4.9a628.3 628.3 0 0 0 62.5-10 412.3 412.3 0 0 0 60.4-18 344.9 344.9 0 0 0 56.3-27.9 331.7 331.7 0 0 0 50.1-37.9l5.8-5.3.7-.7.4-.3.3-.3 1.4-1.4 2.8-2.8c3.9-3.7 7.4-7.5 11-11.3l1.3-1.4 1.3-1.5 2.6-2.9c1.7-2 3.5-3.9 5.2-5.9 3.3-4.1 6.8-8 9.9-12.2l4.8-6.2 4.6-6.4 2.3-3.2 2.2-3.3 4.4-6.5c5.6-8.9 11.1-17.8 16-27.1 2.5-4.6 4.8-9.3 7.1-14 1.2-2.3 2.2-4.8 3.3-7.1s2.2-4.8 3.2-7.2l3-7.3 1.5-3.6 1.4-3.7 2.7-7.4 2.4-7.5c1.7-5 3-10 4.5-15.1.4-1.3.7-2.5 1-3.8l.9-3.8c.6-2.5 1.3-5.1 1.8-7.6l1.6-7.7c.2-1.3.6-2.6.7-3.9l.6-3.9 1.2-7.7.9-7.8a282.3 282.3 0 0 0 .3-62.5l-.4-3.9c-.1-1.3-.4-2.6-.5-3.9l-1.1-7.7-.3-1.9-.4-1.9-.8-3.8c-.5-2.6-.9-5.1-1.5-7.7l-1.9-7.6-.9-3.8-1.1-3.8-2.2-7.5c-.3-1.3-.8-2.5-1.2-3.7l-1.3-3.7c-13.7-39.4-36.7-75.5-64.5-106.9-7-7.8-14.4-15.3-22-22.5s-15.7-13.9-23.9-20.4-16.9-12.3-25.8-17.8l-6.7-4-3.4-2-3.5-1.8c-2.3-1.2-4.6-2.5-6.9-3.6l-7-3.4-3.6-1.6-3.6-1.5-3.6-1.5-3.6-1.4-7.3-2.7-7.4-2.4c-2.5-.8-5-1.4-7.5-2.1s-5-1.4-7.5-1.9l-7.6-1.6-7.7-1.2a183.9 183.9 0 0 0-30.9-1.9h-3.9l-3.9.3-7.7.6-7.7 1-1.9.3h-.8l-1 .2-3.9.7-3.9.7-3.7.9-3.7.8-3.8 1c-2.5.7-5 1.3-7.5 2.1s-5 1.5-7.4 2.4a238.4 238.4 0 0 0-28.8 12 265.3 265.3 0 0 0-27.2 15.4l-6.5 4.3-6.4 4.5-6.2 4.8c-2.1 1.6-4 3.3-6 5a224.5 224.5 0 0 0-22.3 21.7 177.5 177.5 0 0 0-18.6 24.7c-10.9 17.4-18.4 36.9-20.4 57.1-.2 2.5-.6 5-.5 7.6v7.6l.2 3.8v3.7l.5 4c.2 1.3.4 2.5.6 3.7s1 4.9 1.5 7.4.6 2.5.9 3.7.6 2.5 1 3.7 1.5 4.9 2.4 7.3l1.3 3.6 1.5 3.6a154.6 154.6 0 0 0 14.6 27 157 157 0 0 0 19.6 23.7c3.6 3.7 7.4 7 11.4 10.3a147.3 147.3 0 0 0 12.4 9 140.1 140.1 0 0 0 13.2 7.6 124 124 0 0 0 14 5.9 116.7 116.7 0 0 0 14.5 4 105 105 0 0 0 14.9 1.9h11.3l3.8-.3a138.1 138.1 0 0 0 15.1-2.2 144.7 144.7 0 0 0 14.8-3.8 136.8 136.8 0 0 0 14.4-5.3 118.7 118.7 0 0 0 26.2-15.3c7.9-6.1 14.7-13.6 19-22.1a42.5 42.5 0 0 0 4.2-13.3v-7.1a7.8 7.8 0 0 0-.1-.9v-.8c-.1-.6-.1-1.1-.2-1.7s-.3-2.3-.6-3.5a55 55 0 0 0-5.1-13.6 71.7 71.7 0 0 0-8.3-12.4 102 102 0 0 0-22.9-20.1 132.7 132.7 0 0 0-27.8-13.7q-7.4-2.6-15-4.5c-5.1-1.2-10.2-2.2-15.4-3a2.5 2.5 0 0 1 .6-5c21.6 1.5 43.2 7.6 62.3 18.9a106.8 106.8 0 0 1 25.9 21 81.9 81.9 0 0 1 10 13.8 65.5 65.5 0 0 1 6.5 16.1c.4 1.4.6 2.9.9 4.3s.4 3.2.6 4.6v8.8a52.1 52.1 0 0 1-4.9 17.2 68.6 68.6 0 0 1-9.6 14.7 89.8 89.8 0 0 1-12.3 11.9 128.7 128.7 0 0 1-28.7 17.4 154.4 154.4 0 0 1-31.7 10.3 151.2 151.2 0 0 1-16.6 2.5l-4.2.3-4.3.2h-8.4a118.3 118.3 0 0 1-16.8-2.1 124 124 0 0 1-16.3-4.6 137.3 137.3 0 0 1-15.5-6.6 147.7 147.7 0 0 1-14.5-8.4 160.3 160.3 0 0 1-13.4-9.9c-4.2-3.6-8.4-7.3-12.3-11.3a171.7 171.7 0 0 1-21-25.7 167.3 167.3 0 0 1-15.7-29.3l-1.6-3.9-1.4-3.9c-1-2.6-1.7-5.3-2.6-7.9s-.7-2.7-1.1-4-.7-2.7-1-4.1-1.2-5.4-1.6-8.3-.5-2.9-.7-4.2l-.5-4v-4.5l-.2-4.2v-8.4c0-2.8.3-5.6.6-8.4a135 135 0 0 1 7.6-32.6 161.5 161.5 0 0 1 14.7-29.9 190 190 0 0 1 19.9-26.4 236.9 236.9 0 0 1 23.6-22.9c2.1-1.7 4.2-3.5 6.3-5.2l6.5-5 6.7-4.8 6.8-4.6a277.8 277.8 0 0 1 28.5-16.2 250.9 250.9 0 0 1 30.3-12.6c2.6-1 5.2-1.7 7.8-2.5s5.3-1.5 7.9-2.3l4-1.1 4.1-.9 4.1-.9 4-.7 3.9-.7 1-.2h1.2l2-.3 8.2-1.1 8.2-.6 4.1-.3h4.1a196.3 196.3 0 0 1 32.9 2l8.2 1.3 8.1 1.7c2.7.5 5.3 1.3 8 2s5.3 1.3 7.9 2.2l7.8 2.5 7.7 2.8 3.8 1.5 3.8 1.6 3.8 1.6 3.7 1.7 7.4 3.5c2.5 1.2 4.8 2.5 7.3 3.8l3.6 1.9 3.5 2.1 7.1 4.1c9.3 5.7 18.2 12 26.9 18.6s16.9 13.7 24.8 21.2 15.5 15.2 22.7 23.3 14.1 16.5 20.6 25.2 12.6 17.7 18.3 27c2.8 4.7 5.6 9.3 8.2 14.2l2 3.6 1.8 3.6 1.8 3.6.5.9.3.5.2.5.9 1.9 3.4 7.4c.6 1.2 1.2 2.5 1.7 3.7l1.5 3.8 3.1 7.6c1 2.5 1.8 5.1 2.7 7.7l1.4 3.9c.5 1.3.9 2.6 1.3 3.9l2.3 7.8 1.2 3.9 1 4 1.9 8c.6 2.7 1.1 5.4 1.6 8l.8 4 .4 2 .3 2 1.2 8.1c.2 1.4.4 2.7.6 4.1l.4 4.1a294.8 294.8 0 0 1-.3 65.3l-1 8.1-1.3 8.1-.6 4c-.2 1.3-.5 2.7-.8 4l-1.6 8c-.5 2.7-1.3 5.3-1.9 7.9l-1 4c-.3 1.3-.6 2.6-1 3.9-1.5 5.2-2.9 10.5-4.6 15.6l-2.5 7.7-2.8 7.7-1.4 3.8-1.5 3.8-3.1 7.5c-1.1 2.5-2.2 5-3.3 7.4s-2.2 5-3.4 7.4c-2.4 4.9-4.7 9.8-7.4 14.5-5 9.6-10.7 18.9-16.5 28.1l-4.5 6.8-2.3 3.4-2.4 3.3-4.8 6.6-5 6.5c-3.3 4.3-6.8 8.5-10.2 12.7-1.7 2.1-3.6 4.1-5.4 6.1l-2.7 3-1.4 1.5-1.4 1.5c-3.8 4-7.5 8-11.3 11.7l-2.8 2.8-1.4 1.4-.4.4-.4.3-.8.7-6 5.5a344.1 344.1 0 0 1-51.9 39.3 357.4 357.4 0 0 1-58.3 28.9 424.8 424.8 0 0 1-62.2 18.6 640.4 640.4 0 0 1-63.9 10.3c-21.3 2.4-42.8 4.1-64.3 5s-43 .9-64.5.1a878.7 878.7 0 0 1-128.1-14.2h-.5l-.4-.2-220.6-76.5-5.4-1.9 1.4-5.6 36.2-140.2 2.3-8.8 7.4 5.3 34.2 24.6c11.3 8.3 22.8 16.1 34.5 23.7s23.7 14.7 35.8 21.5 24.5 13.3 37 19.3l9.5 4.4 9.5 4.3 9.6 4.1 9.7 3.9c3.2 1.3 6.5 2.5 9.7 3.7s6.5 2.5 9.8 3.5l9.9 3.4 9.9 3.1c13.3 4 26.7 7.6 40.3 10.4 6.8 1.5 13.6 2.6 20.4 3.9l10.3 1.5 5.1.7 5.2.5 10.3 1.1 10.4.7 5.2.3 5.2.2 10.4.3c6.9-.1 13.8 0 20.7-.5l10.4-.6 10.3-1 5.2-.5 5.1-.7 10.3-1.5 10.2-1.9 5.1-.9 5-1.2 10-2.3 10.1-2.8 5.1-1.4 1.3-.4.6-.2h.5l2.5-.8 9.9-3.2q19.7-6.7 38.7-15.2a392.4 392.4 0 0 0 37-18.8 354.1 354.1 0 0 0 65.7-49.9h.1l.2-.2 2.1-1.8 2.2-2 4.2-4.2c2.8-2.8 5.5-5.8 8.1-8.8a201 201 0 0 0 14.5-19 181.3 181.3 0 0 0 12.1-20.6l1.3-2.7 1.2-2.7c.8-1.8 1.7-3.6 2.4-5.5l2.2-5.5 2-5.6.5-1.4.4-1.4.9-2.8.9-2.8c.3-.9.5-1.9.7-2.9s1-3.8 1.4-5.8l1.1-5.8a141.8 141.8 0 0 0 2.1-23.6v-6l-.3-5.9v-1.5l-.2-1.5-.3-2.9c-.2-2-.4-3.9-.7-5.9l-1-5.8-.5-2.9-.7-2.9-1.4-5.8c-.2-1-.5-1.9-.8-2.8l-.9-2.8-1.7-5.6-2.2-5.8-1.1-2.9-.6-1.4v-.7l-.3-.6-1.2-2.6-1.3-2.5a127.3 127.3 0 0 0-13.2-19.4 164.1 164.1 0 0 0-34.8-32.2c-13-8.8-27.6-15.5-42.7-18.1a79.9 79.9 0 0 0-22.8-.7l-2.8.4-2.8.5-2.8.6-2.7.7-2.6.8-1.3.4-1.4.5-5.8 2.2a6.3 6.3 0 0 1-4.8-11.8z" fill="#31323d"></path></g><g id="bodyFur"><clipPath id="furClipPath"><path fill="none" d="M2200.5 2195.7c-43-29.4-132.4-61.7-179.8-75.5l-.8-.3a248.1 248.1 0 0 0 6.4-155.9l-134.5-437.7a121.2 121.2 0 0 0 41.2-22.3c-16.2 7.6-39.1-8.1-54.9-21.9l-2.2-7.2c54.7 26.7 104.5-45.6 104.5-45.6-45.4 5.5-101.9-31.2-136.4-58.1l-3.7-12.1c36.3 6.8 73.8-24.6 73.8-24.6-21.6.7-45-17.8-65.7-40.9a298 298 0 0 1-62.5-111.5l-54.8-178.1a240.5 240.5 0 0 0-47.2-89.2l64.4-104.2a15 15 0 0 0-12.1-22.9c-40-2-104.9 47-129.3 66.3a240.4 240.4 0 0 0-57.8-20.2 371.6 371.6 0 0 1 21.9-38.4 10.2 10.2 0 0 0-11.2-15.4c-26.7 7.1-55.7 28.1-64.7 34.9a1.2 1.2 0 0 1-1.9-1.3c4.1-16.7 21.1-88.9 7.5-95.5s-36.2 52.6-44.6 74.7a1.2 1.2 0 0 1-2.4-.5c1.7-24.4 4.8-91.4-13-88-19.7 3.7-56.2 87.7-63.1 104.1a1.2 1.2 0 0 1-2.2 0c-4.6-11.7-22.9-55.8-29.2-40.3s.6 43.4 3.4 54.3a1.2 1.2 0 0 1-2 1.2c-19-17-51.5-17.4-73.9-15.2a10.2 10.2 0 0 0-6.3 17.4 106.3 106.3 0 0 1 9.7 11.3 240.3 240.3 0 0 0-65.7 29.2l-5.2-3.5c-41.5-34.1-105.9-77.5-130.8-42.6a15 15 0 0 0-.9 16l60.5 108.1a240.3 240.3 0 0 0-33 93.8l-30.5 160.3a272.3 272.3 0 0 1-49.4 112.8c-17.8 23.7-38.8 43.5-60.1 45.7 0 0 41.5 26.2 76.6 14.4l-2.4 12.7c-30.6 31.2-81.6 75-127.2 75.7 0 0 56.6 62.3 106.5 33.2l-1.8 9.7c-13.6 14.7-32 29.7-47.6 24.8a121.7 121.7 0 0 0 39.9 15.9l-86.8 456.2a248.9 248.9 0 0 0 12.6 117.6l-.6.2c-38.1 9.1-130.4 43.4-184.5 78.3-26.5 17.1-10.1 55.9 23.2 55.3l266.9-5.2q6.8 4.2 13.9 7.9v3.3c.4 23.3-6.7 42.4-29.9 43.6-15.6.8-28.2 9.9-30.6 21.1-4.7 21.5 5.8 38.9 27.2 40.4l84.3 5c26.4 1.6 51.9-11.3 65.3-34.1a71.4 71.4 0 0 0 8.8-23.9l5-26.6h533.6l3.5 20.7a71.6 71.6 0 0 0 43.1 54.3 53.5 53.5 0 0 0 22.3 4l91.8-3c22-2.2 30.1-15.7 27.9-36.9-.7-6.9-6.2-24.5-24.5-25.5-15.8-.9-25.2-8.6-28.1-21.9a246.8 246.8 0 0 0 65.3-28l261.6 5c33.3.5 49.3-37.6 23.2-55.4z"></path></clipPath><g clip-path="url(#furClipPath)"><path fill="#d1dadf" d="M724.1 562.8h1509.4v1824.09H724.1z"></path><path fill="#f7ebda" d="M1156.9 2405.5l122.6-618.4a177.2 177.2 0 0 1 170.7-142.7 177.2 177.2 0 0 1 177.6 145.6l107.5 593.7z"></path><path fill="#756650" d="M1176.2 898l71.3 43.4c85 51.8 74.8-2.2 67.9-27.7s-44-81.1-44-81.1l-57.7 31.2zm140.3-139.1a939.1 939.1 0 0 1 38.9 141.1c8.5 44 24.4 89.6 54.3 90.6 58 1.9 44.4-191.1 44.4-191.1s-3.6-175.3-35.6-201.3c-18.9-15.3-13.4-35-57-16-30.3 13.1-39.5 101.6-49.6 122.1-6.7 13.5-2.7 34.4 4.6 54.6zm231.9 72.7s-57 137.1-19.3 154.3 121.3-112.3 121.3-112.3zM917.1 1525s62.6 13.5 96.5 20.3c17.6 16.2 35.1 29.5 51 37 45.7 23 50.5 64.3 29.9 86.1-25.9 27.4-102.7-1.4-127.5-17.6s-114.7-86.4-114.7-86.4z"></path><path fill="#756650" d="M804.4 1506.1S954 1728.5 1057 1776.9c63.8 32 70.5 89.8 41.7 120.1-36.2 38.3-143.4-1.9-178-24.6s-160.1-120.6-160.1-120.6zm1213.1-66s-70.9 47.2-115.6 119.5c-15.4 25-31.8 46.7-48.1 59.9-38.9 33.3-33.6 74.6-8.3 90.7 31.8 20.4 99.4-26 119.6-47.7s90.5-111.5 90.5-111.5zm87.9 129.2s-131.3 187.9-228 247.7c-59.7 39.1-59.8 97.3-27.7 124.1 40.3 33.9 142.2-18.3 174-44.8s145.2-138.1 145.2-138.1zm104.9 164.3s-162.4 230.5-270.8 283.9c-28.8 15.1-38.4 43.6-46.6 63.9-10.9 27.1-5.2 54.9 12.5 73s55.4 18.8 92 10.3c0 0 16.7-35.6 24.7-56.1 16-40.9 239.3-114.8 239.3-114.8zM854.2 1913.5c38.1-25.8 102.3 19.3 120.7 52.7 13.6 24.7 11.3 42 43.3 86.7 22.8 31.9 28.1 78.2 22 89.3-12.9 23.7-118.6-6.2-162-63.3-31.3-41.3-67.2-136.2-24-165.4z"></path></g></g><g id="shadow"><defs><clipPath id="shadowClipPath"><path fill="none" d="M2200.5 2195.7c-43-29.4-132.4-61.7-179.8-75.5l-.8-.3a248.1 248.1 0 0 0 6.4-155.9l-134.5-437.7a121.2 121.2 0 0 0 41.2-22.3c-16.2 7.6-39.1-8.1-54.9-21.9l-2.2-7.2c54.7 26.7 104.5-45.6 104.5-45.6-45.4 5.5-101.9-31.2-136.4-58.1l-3.7-12.1c36.3 6.8 73.8-24.6 73.8-24.6-43.1 1.4-93.7-74.1-115-109.3l-68-221.2a240.5 240.5 0 0 0-47.2-89.2l73.3-118.6c-32.4-31.9-120.8 34.6-150.3 57.8a240.4 240.4 0 0 0-57.8-20.2 371.4 371.4 0 0 1 21.9-38.3c5.1-7.8-2.2-17.9-11.2-15.5-26.7 7.1-55.7 28.1-64.7 34.9a1.2 1.2 0 0 1-1.9-1.3c4.1-16.7 21-88.9 7.5-95.5s-36.2 52.6-44.6 74.7a1.2 1.2 0 0 1-2.4-.5c1.7-24.4 4.8-91.4-13-88-19.7 3.7-56.1 87.7-63.1 104.1a1.2 1.2 0 0 1-2.3 0c-4.7-11.7-22.9-55.7-29.2-40.3s.6 43.3 3.4 54.3a1.2 1.2 0 0 1-2 1.2c-19-17-51.5-17.4-73.9-15.2a10.2 10.2 0 0 0-6.3 17.4 106.3 106.3 0 0 1 9.7 11.3 240.3 240.3 0 0 0-65.7 29.2l-5.2-3.5c-44.5-36.6-115.4-83.9-135.6-33.6l64.5 115.2a240.3 240.3 0 0 0-33 93.8l-38.8 204c-17.3 35.5-58.5 110.3-101.2 114.7 0 0 41.5 26.2 76.6 14.4l-2.4 12.7c-30.6 31.2-81.6 75-127.2 75.7 0 0 56.6 62.3 106.5 33.2l-1.8 9.7c-13.6 14.7-32 29.7-47.6 24.8a121.7 121.7 0 0 0 39.9 15.9l-86.8 456.2a248.9 248.9 0 0 0 12.6 117.6l-.6.2c-38.1 9.1-130.4 43.4-184.5 78.3-26.5 17.1-10.1 55.9 23.2 55.3l266.9-5.2q6.8 4.2 13.9 7.9v3.3c.4 23.3-6.7 42.4-29.9 43.6-15.6.8-28.2 9.9-30.6 21.1-4.7 21.5 5.8 38.9 27.2 40.4l84.3 5c26.4 1.6 51.9-11.3 65.3-34.1a71.4 71.4 0 0 0 8.8-23.9l5-26.6h533.6l3.5 20.7a71.6 71.6 0 0 0 43.1 54.3 53.5 53.5 0 0 0 22.3 4l91.8-3c22-2.2 30.1-15.7 27.9-36.9-.7-6.9-6.2-24.5-24.5-25.5-15.8-.9-25.2-8.6-28.1-21.9a246.8 246.8 0 0 0 65.3-28l261.6 5c33.3.5 49.3-37.6 23.2-55.4z" data-name="&lt;Clipping Path&gt;"></path></clipPath><linearGradient id="shadowLinearGradient" x1="1713.27" x2="1713.27" y1="794.55" y2="927.94" gradientUnits="userSpaceOnUse"><stop offset="0" stop-color="gray"></stop><stop offset=".14" stop-color="#797979"></stop><stop offset=".35" stop-color="#646464"></stop><stop offset=".6" stop-color="#434343"></stop><stop offset=".89" stop-color="#141414"></stop><stop offset="1"></stop></linearGradient><linearGradient id="shadowLinearGradient2" x1="1041.15" x2="1175.15" y1="888.73" y2="888.73" href="#shadowLinearGradient" xlink:href="#shadowLinearGradient"></linearGradient></defs><g style="isolation:isolate"><g clip-path="url(#shadowClipPath)" style="mix-blend-mode:multiply"><path fill="#7f7f7f" d="M1293.2 863.8c-81.5 23.6-133.4 115.8-161.7 239.6-6.6 28.9-12.6 63.2-18.4 100.9-15 97.8-28.1 218.9-44.5 331.4-21.1 33.1-29.1 39.4-35.5 75.8-20.4 117.1-20.8 257.1-28 315.4a910.2 910.2 0 0 0-6.8 98.4v3.4c23.5 26 47.6 88.8 52.6 176.8l1.3 49s-31.3-.8-81-.8c-62 0-110.8-111.7-79.2-278.2 28.4-149.5-68-915.5-68-915.5l282.1-44.3s23.5-135.7 171-178.5zm-66.7 1176.6c-24.3 147.7 54.3 178.3 68.5 181.6 86.5 15.5 223.8 8.8 268.5-7 41.8-14.8 129.9-58.5 108-189.5l43 256.8h-533.6zm627.8 117s29.9-91.4 66.3-124.9c-39.4 75 14.1 92.7 28.1 87.7 53.7-19.2 75-66.7 79.2-150l65.3 116.3s-55 256-204 214l-38.7-18.1z" opacity=".2"></path><path fill="url(#shadowLinearGradient)" d="M1781.2 799.5s-38-26-102 41.5l-33.7 40.5 56.1 46.5z" opacity=".4" style="mix-blend-mode:multiply"></path><path fill="url(#shadowLinearGradient2)" d="M1041.2 839.5s27.5-18.9 71.6-.8a122.7 122.7 0 0 1 47.5 35.2l14.9 17.9-37.7 54.9z" opacity=".4" style="mix-blend-mode:multiply"></path></g></g></g><g id="highlight"><defs><clipPath id="highlightClipPath"><path fill="none" d="M2200.5 2195.7c-43-29.4-132.4-61.7-179.8-75.5l-.8-.3a248.1 248.1 0 0 0 6.4-155.9l-134.5-437.7a121.2 121.2 0 0 0 41.2-22.3c-16.2 7.6-39.1-8.1-54.9-21.9l-2.2-7.2c54.7 26.7 104.5-45.6 104.5-45.6-45.4 5.5-101.9-31.2-136.4-58.1l-3.7-12.1c36.3 6.8 73.8-24.6 73.8-24.6-43.1 1.4-93.7-74.1-115-109.3l-68-221.2a240.5 240.5 0 0 0-47.2-89.2l73.3-118.6c-32.4-31.9-120.8 34.6-150.3 57.8a240.4 240.4 0 0 0-57.8-20.2 371.4 371.4 0 0 1 21.9-38.3c5.1-7.8-2.2-17.9-11.2-15.5-26.7 7.1-55.7 28.1-64.7 34.9a1.2 1.2 0 0 1-1.9-1.3c4.1-16.7 21-88.9 7.5-95.5s-36.2 52.6-44.6 74.7a1.2 1.2 0 0 1-2.4-.5c1.7-24.4 4.8-91.4-13-88-19.7 3.7-56.1 87.7-63.1 104.1a1.2 1.2 0 0 1-2.3 0c-4.7-11.7-22.9-55.7-29.2-40.3s.6 43.3 3.4 54.3a1.2 1.2 0 0 1-2 1.2c-19-17-51.5-17.4-73.9-15.2a10.2 10.2 0 0 0-6.3 17.4 106.3 106.3 0 0 1 9.7 11.3 240.3 240.3 0 0 0-65.7 29.2l-5.2-3.5c-44.5-36.6-115.4-83.9-135.6-33.6l64.5 115.2a240.3 240.3 0 0 0-33 93.8l-38.8 204c-17.3 35.5-58.5 110.3-101.2 114.7 0 0 41.5 26.2 76.6 14.4l-2.4 12.7c-30.6 31.2-81.6 75-127.2 75.7 0 0 56.6 62.3 106.5 33.2l-1.8 9.7c-13.6 14.7-32 29.7-47.6 24.8a121.7 121.7 0 0 0 39.9 15.9l-86.8 456.2a248.9 248.9 0 0 0 12.6 117.6l-.6.2c-38.1 9.1-130.4 43.4-184.5 78.3-26.5 17.1-10.1 55.9 23.2 55.3l266.9-5.2q6.8 4.2 13.9 7.9v3.3c.4 23.3-6.7 42.4-29.9 43.6-15.6.8-28.2 9.9-30.6 21.1-4.7 21.5 5.8 38.9 27.2 40.4l84.3 5c26.4 1.6 51.9-11.3 65.3-34.1a71.4 71.4 0 0 0 8.8-23.9l5-26.6h533.6l3.5 20.7a71.6 71.6 0 0 0 43.1 54.3 53.5 53.5 0 0 0 22.3 4l91.8-3c22-2.2 30.1-15.7 27.9-36.9-.7-6.9-6.2-24.5-24.5-25.5-15.8-.9-25.2-8.6-28.1-21.9a246.8 246.8 0 0 0 65.3-28l261.6 5c33.3.5 49.3-37.6 23.2-55.4z" data-name="&lt;Clipping Path&gt;"></path></clipPath></defs><g style="isolation:isolate"><g clip-path="url(#highlightClipPath)" opacity=".2" style="mix-blend-mode:overlay"><path fill="#fff" d="M1547.8 836.6s59 33.5 81 64.8 44.1 86.3 65.6 181c58.9 258.7 229.4 683.2 275.5 888s-81.2 286-81.2 286l61.1-35.5s63-74.8 72.5-107.6c20.8-71.9 139-33 117.2-147.7-31.7-166.5-305.7-970.5-305.7-970.5s-123.4-29.9-151.2-79.3c-20.7-36.8-73.2-64.7-124.1-79.9z"></path></g></g></g><g id="body"><path fill="none" stroke="#31323d" stroke-width="12.5" stroke-miterlimit="10" d="M1714.5 2282.4h-533.6m711.7-753.2l133.7 434.9c39 137.9-45.2 275-175.8 309.9m-799.8-20.3c-89.2-47.1-145.7-146.2-131.5-254.1l86.3-453.7" stroke-linecap="round"></path><path fill="#31323d" d="M1228.6 2040.8c-1.7 15.3-3.8 30.4-6 45.6l-3.5 22.7-3.8 22.6c-2.6 15.1-5.4 30.1-8.1 45.2l-8.3 45.1-16.6 90.3a76.3 76.3 0 0 1-3.5 12.1 77.5 77.5 0 0 1-5.4 11.4 75.5 75.5 0 0 1-16 19.4 78.7 78.7 0 0 1-45.9 18.8l-6.3.2h-6.1l-11.5-.7-22.9-1.3-45.8-2.8h-4.7l-1.8-.3a44.1 44.1 0 0 1-6.7-1.7 35.7 35.7 0 0 1-12.3-7.3 34.7 34.7 0 0 1-8.3-11.7 40.4 40.4 0 0 1-3.1-13.5 50.7 50.7 0 0 1 1-13.2l.2-.8v-1.7l.3-1.1a26.9 26.9 0 0 1 1.5-3.6 30.2 30.2 0 0 1 4.1-6.2 37.9 37.9 0 0 1 11-8.8 45.9 45.9 0 0 1 12.7-4.5 49 49 0 0 1 6.6-.9l2.7-.2 2.1-.3a22 22 0 0 0 4.3-1.2 18.5 18.5 0 0 0 3.8-1.9c4.6-3 7.7-8.4 9.4-14.8a70.5 70.5 0 0 0 1.8-20.8l-.9-22.9-1.9-45.9c-.6-15.3-1.3-30.6-1.8-45.9v.5c-.6-5-1.3-9.9-2-14.9-.4-2.5-.8-4.9-1.2-7.4s-.9-4.9-1.4-7.3-1-4.9-1.6-7.3l-1.8-7.2q-1.9-7.2-4.4-14.2c-.8-2.3-1.7-4.6-2.6-6.9s-1.8-4.6-2.9-6.8l-1.5-3.4-1.6-3.3-1.7-3.3-1.8-3.3-1.8-3.2-1.9-3.2-4-6.3c-1.4-2.1-2.8-4.1-4.3-6.2l-2.2-3-2.3-3a2.2 2.2 0 0 1 3.4-2.9l5.4 5.6q2.6 2.9 5.1 5.9c1.7 2 3.3 4 4.8 6.1l2.3 3.2 2.2 3.2c1.5 2.2 2.9 4.3 4.2 6.6l2 3.4 1.9 3.4q1.9 3.4 3.5 7c1.1 2.4 2.2 4.7 3.2 7.2q3 7.2 5.4 14.7c1.6 5 3 10 4.2 15q.9 3.8 1.7 7.6c.5 2.5 1.1 5.1 1.5 7.6.9 5.1 1.7 10.2 2.4 15.3v.5c.9 15.3 1.6 30.6 2.4 45.8l2.3 45.8 1.1 22.9a94.4 94.4 0 0 1-.1 12.3 71.8 71.8 0 0 1-1.9 12.5 54.5 54.5 0 0 1-2 6.3 42.8 42.8 0 0 1-3.1 6.2 33.3 33.3 0 0 1-9.8 10.4 35.1 35.1 0 0 1-13.2 5.3l-3.5.5-3 .2a35 35 0 0 0-4.7.6 31.9 31.9 0 0 0-8.8 3.2 23.9 23.9 0 0 0-6.9 5.5 16.1 16.1 0 0 0-2.2 3.3 13 13 0 0 0-1.2 3.7 36.6 36.6 0 0 0-.7 9.6 26.2 26.2 0 0 0 2 8.7 20.4 20.4 0 0 0 4.9 6.9 21.4 21.4 0 0 0 7.3 4.3 30.1 30.1 0 0 0 4.4 1.1l1 .2h3.9l45.8 2.7 22.9 1.4 11.5.7h10.5a64.5 64.5 0 0 0 37.6-15.2 61.4 61.4 0 0 0 13.1-15.7 65 65 0 0 0 7.4-19.2l17.4-90.1 8.7-45.1c2.9-15 5.8-30 8.8-45l4.7-22.5 5-22.4c3.4-14.9 7-29.8 11-44.6a2.2 2.2 0 0 1 4.9.6z"></path><path fill="#31323d" d="M1095.2 2319.6h-.5l-1.7.2a18.6 18.6 0 0 0-5.8 2 22.5 22.5 0 0 0-6.7 5.5 30.2 30.2 0 0 0-2.9 4 38.9 38.9 0 0 0-2.4 4.6l-.5 1.2-.5 1.2-.5 1.2-.4 1.3c-.5 1.7-.9 3.4-1.3 5l-.5 2.4c-.2.8-.3 1.6-.4 2.4s-.4 3-.6 4.4-.2 2.6-.3 3.7-.1 2.1-.2 2.9v2.7a6.3 6.3 0 1 1-12.5-.6 6.9 6.9 0 0 1 .1-.8l.5-2.7c.2-.9.3-1.9.6-3.1s.5-2.6.9-4.1.8-3.1 1.3-4.8l.8-2.6.9-2.7c.7-1.8 1.4-3.7 2.3-5.5l.6-1.4.7-1.4.7-1.4.8-1.4a46.9 46.9 0 0 1 3.6-5.2 37.5 37.5 0 0 1 4.2-4.5 28.8 28.8 0 0 1 9.4-5.8 23.9 23.9 0 0 1 7.7-1.5h3.1a2.2 2.2 0 1 1-.5 4.8zm-42.5-4.7h-.6l-1.6.4-2.5.9-.7.3-.8.4-1.6.9-1.7 1.1-1.7 1.3-.9.7-.8.8-1.6 1.7-1.5 2-.7 1-.6 1.1-1.3 2.2-1.1 2.4c-.3.8-.7 1.6-1 2.4l-.8 2.5-.8 2.4-.6 2.5a42.3 42.3 0 0 0-1 4.7l-.6 4.3a35.4 35.4 0 0 0-.3 3.7l-.2 2.8-.2 2.5v.4a6.3 6.3 0 1 1-12.5-.8 6.9 6.9 0 0 1 .1-.8l.5-2.7.6-3.1c.3-1.2.4-2.5.9-4l1.3-4.7a51.3 51.3 0 0 1 1.8-5.2l1-2.7 1.3-2.7 1.3-2.7c.5-.9 1.1-1.8 1.6-2.7l1.7-2.6 1.9-2.4.9-1.2 1.1-1.1 2.1-2.1 2.2-1.8 1.1-.9 1.2-.7 2.2-1.4 2.2-1.1 2.1-.8 1-.4 1-.3a26.5 26.5 0 0 1 3.2-.7l2.2-.2h.8a2.2 2.2 0 1 1 .4 4.4zm621-289.7l2.2 9.4c1.4 6.1 3.4 15.1 5.8 26.6 1.2 5.7 2.5 12.1 3.9 19l4.4 22.5 4.8 25.6 5 28.4 23.3 135.3c1.1 6.1 2 12.8 3.6 17.8a63.3 63.3 0 0 0 7.2 15.7 65.1 65.1 0 0 0 25.9 23.4l4.1 1.9 1.1.4 1 .4 2 .7a45.4 45.4 0 0 0 8.4 1.7l4.3.3h4.6l10-.3 40.1-1.4 39.4-1.2 2.5-.3 1.2-.2.9-.2 1.9-.4 1.9-.6a21.7 21.7 0 0 0 6.5-3.5 17 17 0 0 0 4.3-5.4c.2-.6.6-1.1.7-1.7l.6-1.8a30.4 30.4 0 0 0 .8-3.9 37.8 37.8 0 0 0 .4-4.1v-2.1s0-1.4-.1-2.2l-.2-2.2v-.3a.3.3 0 1 1 0-.1v-1.6l-.2-.8-.2-.9c-.1-.6-.4-1.3-.6-1.9-1.7-5-4.7-9.3-8.4-11.7a17.3 17.3 0 0 0-6.4-2.3l-1.8-.2-2.6-.2h-1.2l-1.5-.2-2.9-.5a39.5 39.5 0 0 1-10.9-4.2 30.1 30.1 0 0 1-9.1-8 34 34 0 0 1-5.3-10.4 47.2 47.2 0 0 1-1.9-10.7c-.1-.9-.1-1.7-.1-2.6v-7.2l.2-9.1.8-35.4.2-8.6v-4.6l.3-4.2.3-4.2c.1-1.4.2-2.7.4-4.2l1-8.4a250.4 250.4 0 0 1 6.4-31.5 277 277 0 0 1 9.1-28l2.7-6.4c.9-2.1 1.7-4.2 2.7-6.2l2.8-5.9c.9-1.9 1.8-3.9 2.8-5.7l2.9-5.4 1.4-2.6 1.5-2.5 2.9-4.9c.9-1.6 1.8-3.2 2.8-4.7l5.6-8.7 5.4-7.7 2.6-3.5 2.5-3.2c1.6-2.1 3.1-4.1 4.6-5.8l4.1-4.9 3.5-4 6.6-7.1a2.2 2.2 0 0 1 3.4 2.8l-5.6 7.8c-3.6 5.1-8.8 12.6-14.9 22.5l-4.7 7.8-4.8 8.8c-.9 1.5-1.7 3.1-2.5 4.7l-2.5 4.9-1.3 2.5-1.2 2.6-2.5 5.4a290.9 290.9 0 0 0-17.7 50.6l-.9 3.6-.4 1.8-.4 1.8-1.5 7.4-.4 1.9-.3 1.9-.6 3.8-.6 3.9-.3 1.9-.2 1.9-.9 7.8c-.2 1.3-.2 2.7-.3 4.1l-.3 4.2-.3 4.2v12.5l-.5 35.4v15.8s0 1.4.1 2a33.7 33.7 0 0 0 1.4 7.5 20.3 20.3 0 0 0 3.2 6.2c2.7 3.6 6.9 5.8 12 6.9l1.8.3.9.2h1.2l2.2.2 3 .3a31.3 31.3 0 0 1 11.7 4.2 31.8 31.8 0 0 1 9 8.5 40.3 40.3 0 0 1 5.4 10.5c.3.9.6 1.8.8 2.8l.4 1.4.3 1.6v2.9l.2 2.7c.1.9.1 1.8.1 2.8s.1 1.8 0 2.8a52 52 0 0 1-.5 5.7 44.4 44.4 0 0 1-1.2 5.8l-1 2.9c-.3 1-.8 1.9-1.3 2.9a31.3 31.3 0 0 1-7.9 10.1 35.8 35.8 0 0 1-10.9 6l-2.8.9-3 .7-1.5.3-1.3.2-2.5.3h-5.7l-5 .2-10 .4-20.1.7-40.1 1.3-10 .3h-5.4l-5.6-.4a59.7 59.7 0 0 1-11-2.3l-2.7-.9-1.4-.5-1.2-.5-4.9-2.3a79.2 79.2 0 0 1-31.4-28.6 77.2 77.2 0 0 1-8.7-19.2l-.7-2.6-.3-1.3c-.1-.4-.2-.9-.3-1.3l-.5-2.3-.2-1.2v-1.4l-1.5-9.3-22-135.6-4.5-28.5-3.8-25.7-3.2-22.7c-1-7-1.8-13.4-2.5-19.3-1.5-11.6-2.5-20.8-3.2-27.1l-1-9.6a2.2 2.2 0 0 1 3.8-.6z"></path><path fill="#31323d" d="M1783.2 2307.4h3.2a34.8 34.8 0 0 1 8 1.7 33.5 33.5 0 0 1 5.1 2.1 34.2 34.2 0 0 1 5.3 3.3 37.9 37.9 0 0 1 5 4.5c.7.9 1.5 1.7 2.2 2.7l1 1.4 1 1.5a46.8 46.8 0 0 1 3.3 6.1 56.5 56.5 0 0 1 2.4 6.2c.4 1 .6 2 .9 3s.5 2 .7 2.9l.6 2.8.4 2.6c.3 1.7.4 3.2.6 4.6s.3 2.5.3 3.5l.2 3.1a6.3 6.3 0 0 1-12.5.8 6.4 6.4 0 0 1 0-.7v-.3l.2-2.7c.1-.9.1-1.9.1-3.1s.1-2.6 0-4v-2.3l-.2-2.4c-.1-.8-.2-1.7-.3-2.5s-.2-1.8-.4-2.6a47.1 47.1 0 0 0-1.3-5.3 38.1 38.1 0 0 0-2.1-5.2l-.6-1.3-.7-1.2c-.4-.8-1-1.6-1.5-2.3a30.5 30.5 0 0 0-3.5-4.1 29.3 29.3 0 0 0-8-5.5 29.5 29.5 0 0 0-6.6-2.2l-1.9-.3h-.7a2.2 2.2 0 0 1-.2-4.8zm50.6-3.2h3.2a34.8 34.8 0 0 1 8 1.7 33.5 33.5 0 0 1 5.1 2.1 34.2 34.2 0 0 1 5.3 3.3 37.9 37.9 0 0 1 5 4.5c.7.9 1.5 1.7 2.2 2.7l1 1.4 1 1.5a46.8 46.8 0 0 1 3.3 6.1 56.6 56.6 0 0 1 2.4 6.2c.4 1 .6 2 .9 3s.5 2 .7 2.9l.6 2.8.4 2.6c.3 1.7.4 3.2.6 4.6s.3 2.5.3 3.5l.2 3.1a6.3 6.3 0 1 1-12.5.1v-.3l.2-2.7c.1-.9.1-1.9.1-3.1s.1-2.6 0-4v-2.3l-.2-2.4c-.1-.8-.2-1.7-.3-2.5s-.2-1.8-.4-2.6a47.1 47.1 0 0 0-1.3-5.3 38 38 0 0 0-2.1-5.2l-.6-1.3-.7-1.2c-.4-.8-1-1.6-1.5-2.3a30.5 30.5 0 0 0-3.5-4.1 29.3 29.3 0 0 0-8-5.5 29.5 29.5 0 0 0-6.6-2.2l-1.9-.3h-.7a2.2 2.2 0 0 1-.2-4.8z"></path><path fill="none" stroke="#31323d" stroke-width="12" stroke-miterlimit="10" d="M1206.2 862.9c-41.5-34.1-105.9-77.5-130.8-42.6a15 15 0 0 0-.9 16l60.5 108.1m472-90.4c24.5-19.2 89.4-68.2 129.3-66.3a15 15 0 0 1 12.1 22.9L1684 914.8" stroke-linecap="round"></path><path fill="#31323d" d="M1067.4 1534.9l-2.7 1.9-1.4.9-1.5.9-3 1.8-3.1 1.5-1.5.8-1.6.7-3.2 1.3c-2.2.7-4.4 1.5-6.6 2.1s-4.5 1.1-6.8 1.6-4.6.7-6.9.9-4.6.3-6.9.4h-3.5l-3.5-.2-3.5-.3-3.4-.4-3.4-.5-3.4-.6-6.8-1.5-6.7-1.9-6.5-2.3-6.4-2.6-6.3-2.9-3.1-1.6-1.6-.9-1.7-1a6.6 6.6 0 0 1 4.9-12l.8.2 1.8.4 1.9.2h1.9l2-.3 2.1-.5 2.1-.7 2.1-.8 2.1-1c1.4-.7 2.8-1.5 4.2-2.4l2.1-1.3 2-1.5 2-1.5 2-1.6 3.9-3.4a162.3 162.3 0 0 0 14.4-15.1q3.4-4 6.6-8.2l3.1-4.2 3-4.2 10.4 8a92.3 92.3 0 0 1-6.8 6.8 74.5 74.5 0 0 1-7.7 6 68.2 68.2 0 0 1-8.5 5 62.7 62.7 0 0 1-9.3 3.7 63.4 63.4 0 0 1-19.6 2.7 77.4 77.4 0 0 1-19.2-2.9 103.2 103.2 0 0 1-17.8-6.8 138.8 138.8 0 0 1-16.2-9.4 171.9 171.9 0 0 1-14.8-11.2c-2.4-2-4.7-4-6.9-6.1l-3.4-3.2-1.7-1.7-1.7-1.8a6.5 6.5 0 0 1 4.4-10.9h.4l5.5-.3 5.5-.7 1.4-.2 1.4-.3 2.7-.6 2.7-.6 2.7-.8 2.7-.8 2.7-.9 2.7-1 2.7-1 5.3-2.2 5.2-2.5 1.3-.6 1.3-.7 2.6-1.4 2.6-1.4 2.5-1.5 5-3 4.9-3.1c3.2-2.2 6.5-4.3 9.7-6.7s6.3-4.7 9.4-7.1 6.2-4.9 9.2-7.5 6-5.1 9-7.7l4.4-4 4.3-4.1 8.5-8.3 4.2-4.2 4.1-4.3 8.1-8.7 7.9-8.9c2.6-3 5.2-6 7.6-9l.2-.2a6.5 6.5 0 1 1 10.1 8.1v.2l-2.5 2.9-1.3 1.5-1.4 1.4-2.8 2.7-3 2.5a34 34 0 0 1-3.2 2.3 35.7 35.7 0 0 1-3.3 2.1l-3.4 1.9-3.6 1.6-.9.4-.9.3-1.8.6-1.9.6-1.9.5-1.9.5-1.9.4-3.8.7-3.8.4-3.8.2h-7.6l-3.8-.3-3.7-.4c-2.5-.4-4.9-.8-7.3-1.3l-3.6-.8-3.6-.9-7-2.2a143.6 143.6 0 0 1-13.6-5.4l-6.6-3.2-3.2-1.7-1.6-.9-1.7-1a6.4 6.4 0 0 1 2.7-11.8h.1a40.4 40.4 0 0 0 16.2-5.8 81.9 81.9 0 0 0 14.6-11.4c9.1-8.8 17.1-19.2 24.4-30q2.7-4.1 5.3-8.3l1.3-2.1 1.2-2 2.6-4.3c1.8-2.9 3.2-5.7 4.9-8.6l4.6-8.7a371.5 371.5 0 0 0 16-36 376 376 0 0 0 12.1-37.6c.9-3.2 1.6-6.4 2.4-9.6s1.5-6.4 2.1-9.6c1.3-6.4 2.6-13 3.8-19.6l15-78.9 7.5-39.4.2-1.2v-1.4l.4-2.5.7-5c.6-3.4 1.3-6.8 1.9-10.2s1.5-6.7 2.3-10l1.3-5 .7-2.5.7-2.5a249.6 249.6 0 0 1 15-38.3 242.3 242.3 0 0 1 21.2-35.3A248.6 248.6 0 0 1 1167 894a253.3 253.3 0 0 1 31.5-26.4 241.8 241.8 0 0 1 35.5-20.9 250.4 250.4 0 0 1 38.4-14.7 6.2 6.2 0 1 1 3.5 12 237.9 237.9 0 0 0-36.5 14 229.3 229.3 0 0 0-33.7 19.8 240.8 240.8 0 0 0-29.9 25.1 236 236 0 0 0-25.3 29.7 228.7 228.7 0 0 0-20.1 33.5 237 237 0 0 0-14.2 36.4l-.7 2.3-.6 2.4-1.3 4.7c-.8 3.2-1.5 6.3-2.2 9.5s-1.2 6.3-1.8 9.5l-.7 5-.4 2.5v1.5l-.2 1.2-7.5 39.4-15 78.9c-1.3 6.6-2.5 13.1-3.8 19.8-.7 3.3-1.5 6.6-2.2 10s-1.6 6.6-2.5 9.9a388.7 388.7 0 0 1-12.5 38.9 384.3 384.3 0 0 1-16.6 37.3l-4.8 9c-1.7 3-3.3 6.1-5 8.9l-2.5 4.3-1.4 2.2-1.3 2.2q-2.7 4.3-5.6 8.6c-7.6 11.3-16 22.3-26.2 32.1a94.5 94.5 0 0 1-17 13.2 53.2 53.2 0 0 1-21.4 7.5l2.8-11.8 1.3.8 1.4.8 2.9 1.6 6 2.9a130.8 130.8 0 0 0 12.4 4.9l6.3 2 3.2.8 3.2.7 6.4 1.1 3.2.4 3.2.2h6.4l3.2-.2 3.1-.3 3.1-.6 1.5-.3 1.5-.4 1.5-.4 1.5-.5 1.5-.5.7-.3.7-.3 2.8-1.2 2.7-1.5a25.1 25.1 0 0 0 2.6-1.6 23.8 23.8 0 0 0 2.5-1.8l2.4-1.9 2.2-2.2 1.1-1.1 1-1.2 2-2.4 10.1 8c-2.7 3.3-5.3 6.3-7.9 9.4l-8.1 9.1-8.3 8.9-4.3 4.4-4.3 4.3-8.8 8.5-4.5 4.2-4.5 4.1c-3.1 2.7-6.1 5.4-9.3 8s-6.3 5.2-9.5 7.7-6.5 5-9.9 7.4-6.7 4.7-10.2 7l-5.2 3.3-5.3 3.2-2.7 1.6-2.7 1.5-2.7 1.5-1.4.7-1.4.7-5.6 2.7-5.8 2.5-2.9 1.1-3 1.1-3 1-3.1.9-3.1.9-3.1.7-3.1.7-1.6.3-1.6.2c-2.1.3-4.3.7-6.4.9l-6.5.4 4.7-10.9 1.4 1.4 1.5 1.5 3.1 3c2.1 1.9 4.2 3.8 6.4 5.7a158.8 158.8 0 0 0 13.7 10.3 125.7 125.7 0 0 0 14.7 8.5 90.2 90.2 0 0 0 15.5 6 64.3 64.3 0 0 0 15.9 2.4 50.2 50.2 0 0 0 15.6-2.2 49.5 49.5 0 0 0 7.3-2.9 55.1 55.1 0 0 0 6.9-4 61.4 61.4 0 0 0 6.3-5 79.3 79.3 0 0 0 5.8-5.8h.1a6.6 6.6 0 0 1 10.3 8.2l-3.3 4.7-3.3 4.5q-3.4 4.5-7 8.7a175.3 175.3 0 0 1-15.6 16.4l-4.3 3.8-2.3 1.8-2.3 1.8-2.4 1.7-2.5 1.6c-1.7 1-3.4 2.1-5.3 3l-2.8 1.3-2.9 1.2-3.1 1-3.2.7-3.4.4h-3.5l-3.5-.4-3.5-.8 5.7-11.8 1.1.8 1.3.8 2.6 1.6 5.5 3.1 5.7 2.8 5.8 2.5 5.9 2.2 6 1.9 3.1.8 3.1.7 3.1.6 3.1.5 3.1.4 3.1.3c2.1.1 4.2.2 6.3.1l6.3-.3s4.2-.5 6.2-.9 4.1-.9 6.1-1.4l3-1 1.5-.5 1.5-.6 2.9-1.2 2.8-1.4 1.4-.7 1.4-.8 2.9-1.6a2.5 2.5 0 0 1 2.3 4.5zm488.4-706l4.9 1.2 2.5.6 2.5.7 5.1 1.5 5 1.6c6.6 2.1 13.1 4.6 19.6 7.3a250.6 250.6 0 0 1 36.9 19.4 246.7 246.7 0 0 1 33.1 25.3l3.8 3.5 3.7 3.6c2.5 2.4 4.9 5 7.3 7.5 4.7 5.1 9.3 10.4 13.5 15.9s8.3 11.2 12.2 16.9 7.4 11.8 10.7 17.9 6.3 12.4 9.2 18.8 5.3 12.9 7.5 19.5c.5 1.7 1.1 3.3 1.6 5l1.5 5 2.9 9.7 5.8 19.5 11.7 39 23.3 78 5.8 19.4 1.5 4.9.8 2.4.8 2.3 1.6 4.7 1.7 4.7c2.2 6.3 4.8 12.4 7.4 18.6s5.5 12.2 8.5 18.1a328.1 328.1 0 0 0 44.2 66.2c8.7 10 18 19.4 28.3 27.1a81.3 81.3 0 0 0 16.2 9.5 40.5 40.5 0 0 0 17 3.6 6.6 6.6 0 0 1 4.5 11.8l-1.5 1.2-1.5 1.1-3 2.2-6.1 4.1a143.9 143.9 0 0 1-12.7 7.2l-6.7 3.1-3.4 1.4-3.5 1.3c-2.3.9-4.7 1.6-7.1 2.3l-3.6.9-3.7.8-3.7.6-1.9.3-1.9.2-3.8.3h-3.9l-3.9-.2-1.9-.2-1.9-.2-1.9-.2-1.9-.4-1.9-.4-1-.2-.9-.3-3.8-1.1-3.7-1.4a35.9 35.9 0 0 1-3.6-1.6 34.2 34.2 0 0 1-3.5-1.9l-3.4-2.1-3.2-2.3-1.6-1.2-1.5-1.3-2.9-2.6a6.7 6.7 0 0 1 8.9-10.1h.1l.3.2c2.8 2.6 5.8 5.3 8.7 7.9l9 7.7 9.2 7.5 4.7 3.7 4.7 3.6 9.6 7 4.8 3.4 4.9 3.3c3.3 2.2 6.6 4.4 9.9 6.5s6.7 4.1 10.1 6.2 6.8 3.9 10.3 5.7 7 3.6 10.5 5.3l5.3 2.4 5.4 2.3 2.7 1.1 2.7 1 2.7 1 1.4.5 1.4.4 5.5 1.8 5.5 1.5 2.8.7 2.8.6 2.8.6 2.8.4 2.8.4 2.8.3 2.8.2h8.3l5.5-.4h.4a6.6 6.6 0 0 1 5.9 10.4l-1.4 2-1.4 1.9-2.9 3.6c-2 2.4-4 4.7-6.1 7a172 172 0 0 1-13.2 13 138.7 138.7 0 0 1-14.9 12.4 103.2 103.2 0 0 1-16.7 9.1 77.3 77.3 0 0 1-18.7 5.4 63.2 63.2 0 0 1-19.8-.1 62.4 62.4 0 0 1-9.6-2.4 68 68 0 0 1-9.1-3.8 74.2 74.2 0 0 1-8.4-5 92.1 92.1 0 0 1-7.6-5.8l8.8-8.9 3.5 3.8 3.7 3.8q3.7 3.7 7.6 7.3a163.8 163.8 0 0 0 16.2 13.2l4.3 2.9 2.2 1.3 2.2 1.3 2.2 1.2 2.2 1.1c1.5.7 3 1.4 4.5 1.9l2.3.8 2.2.6 2.2.4 2.2.2h2.1l2-.2 1.9-.4 1.8-.7.7-.2a5.6 5.6 0 0 1 5.4 9.5l-2.8 2.3-2.8 2.1c-1.9 1.4-3.8 2.6-5.7 3.8l-5.9 3.5-6.1 3.2-6.3 2.9-6.4 2.5-3.3 1.1-3.3 1-3.4.9-3.4.8-3.4.7-3.4.5c-2.3.3-4.6.5-6.9.6s-4.6.1-7 .1-4.6-.2-6.9-.6-4.6-.8-6.8-1.2l-3.4-.9-1.7-.4-1.6-.6-3.3-1.1-3.2-1.3-1.6-.7-1.5-.8-3.1-1.6a2.5 2.5 0 0 1 2-4.6h.2l3 1.2 1.5.6 1.5.5 3 1 3.1.8 1.5.4 1.6.3 3.1.6c2.1.2 4.2.5 6.3.6s4.2.1 6.3.1 4.2-.2 6.3-.5 4.2-.6 6.2-.9l3.1-.7 3.1-.8 3-.9 3-1 3-1.1 2.9-1.2 2.9-1.3 2.9-1.3 5.6-2.9 5.5-3.2 5.3-3.5 5.1-3.7 2.5-1.9 2.3-1.9 6.1 9.3-3.2 1.3-3.3.9-3.4.4h-3.3l-3.2-.3-3.1-.5-3-.7-2.9-.9a57.6 57.6 0 0 1-5.6-2.2l-2.7-1.3-2.6-1.4-2.5-1.4-2.5-1.5-4.8-3.1a174.2 174.2 0 0 1-17.7-14q-4.2-3.7-8.1-7.7l-3.9-4-3.9-4.2a6.3 6.3 0 0 1 8.7-9.1h.1a79.4 79.4 0 0 0 6.6 5 61.6 61.6 0 0 0 7 4.1 55.3 55.3 0 0 0 7.4 3.1 49.7 49.7 0 0 0 7.7 1.9 50.4 50.4 0 0 0 15.8 0 64.5 64.5 0 0 0 15.5-4.6 90.3 90.3 0 0 0 14.5-8 125.8 125.8 0 0 0 13.4-10.4 158.9 158.9 0 0 0 12.1-12.1c1.9-2.1 3.8-4.3 5.6-6.5l2.6-3.3 1.3-1.7 1.2-1.6 6.3 10.3-6.5.5h-9.7l-3.2-.3-3.2-.3-3.2-.5-3.2-.5-3.1-.6-3.1-.7-3.1-.7-6.1-1.6-6-1.9-1.5-.5-1.5-.5-2.9-1.1-2.9-1.1-2.9-1.2-5.7-2.4-5.6-2.6c-3.7-1.8-7.4-3.6-11-5.6l-10.8-6s-7-4.2-10.5-6.4-6.9-4.4-10.3-6.7l-5.1-3.5-5-3.5-9.8-7.3-4.9-3.7-4.8-3.8-9.5-7.7-9.3-7.9c-3.1-2.7-6.1-5.4-9.1-8.3l9.3-9.7 2.3 2.1 1.2 1 1.2.9 2.5 1.8 2.6 1.6a23.5 23.5 0 0 0 2.7 1.4 24.9 24.9 0 0 0 2.8 1.3l2.8 1.1 2.9.8.7.2.7.2 1.5.3 1.5.3 1.5.2 1.5.2h7.8l3.1-.2h1.6l1.6-.2 3.1-.5 3.1-.7 3.1-.8 6.2-2 3.1-1.2 3-1.2 6-2.8a130.5 130.5 0 0 0 11.6-6.5l5.5-3.7 2.7-1.9 1.3-1 1.2-.9 4.5 11.8a53.7 53.7 0 0 1-22.6-4.7 94.3 94.3 0 0 1-18.8-11.1c-11.5-8.6-21.3-18.6-30.4-29.1a341.4 341.4 0 0 1-45.8-69c-3.1-6.2-6-12.5-8.8-18.8s-5.3-12.8-7.6-19.3l-1.8-4.9-1.7-5-.8-2.5-.8-2.4-1.5-4.9-5.2-19.4-23.2-78-11.6-39-5.8-19.5-2.9-9.8-1.4-4.7c-.5-1.6-1-3.1-1.6-4.7-2.1-6.3-4.5-12.4-7.1-18.5s-5.5-12-8.7-17.8-6.6-11.5-10.1-17-7.5-10.9-11.6-16.1-8.4-10.2-12.9-15.1c-2.3-2.4-4.5-4.8-6.9-7.1l-3.5-3.5-3.7-3.4a234.2 234.2 0 0 0-31.5-24.1 238.1 238.1 0 0 0-35.1-18.4c-6.1-2.5-12.3-4.9-18.6-6.9l-4.7-1.5-4.7-1.4-2.4-.7-2.5-.6-4.9-1.2a6.2 6.2 0 0 1 3.2-12.1z"></path><path fill="#31323d" d="M1291 865l-5.4-7.8c-1.7-2.5-3.9-5.5-6.6-9s-5.7-7.4-9.4-11.5c-1.8-2-3.8-4.1-6-6.2l-.4-.4-.7-.8-.4-.4-.2-.2h-.1l-.2-.2-1.3-1.9c-.4-.6-.6-1.2-.9-1.8a16.1 16.1 0 0 1-1.1-8.1 16.7 16.7 0 0 1 3.1-7.8 16.3 16.3 0 0 1 7-5.4l2.2-.7 2.2-.4 3-.3 6.1-.5a163.1 163.1 0 0 1 26.7.5 116.9 116.9 0 0 1 14.5 2.5 85.7 85.7 0 0 1 14.9 5.2l3.7 1.9a34.8 34.8 0 0 1 3.6 2.2 34.2 34.2 0 0 1 3.5 2.5l1.7 1.4.9.7.4.3-.2-.2a5.5 5.5 0 0 0-1.1-.7 5.4 5.4 0 0 0-7.1 2.9 5.5 5.5 0 0 0-.4 2.2 5.4 5.4 0 0 0 .1 1l-.2-.9-.9-3.9c-.6-2.6-1.2-5.3-1.7-8-1.1-5.4-1.9-11-2.5-16.7q-.4-4.3-.6-8.8v-4.6s.1-3.1.3-4.7a43.5 43.5 0 0 1 .8-4.9c.2-.8.3-1.7.6-2.5l.9-2.6v-.3l.2-.5.2-.5.2-.5.3-.5.6-1 .3-.5.4-.5.4-.5.5-.5.6-.5.7-.5 1.6-.9a9.4 9.4 0 0 1 3.8-.8h1.8l1.5.4a13.2 13.2 0 0 1 3.9 2.1 25.6 25.6 0 0 1 4.2 4.2c1.1 1.4 2.1 2.7 3 4.1s3.4 5.4 4.9 8.2c3 5.5 5.6 11.1 8.1 16.7q1.9 4.3 3.7 8.6l.9 2.2.4 1.1-.3-.6a6 6 0 0 0-1.1-1.4 5.8 5.8 0 0 0-9.3 1.8v-.3l.9-2.2q7.4-17.2 15.7-34.6c5.6-11.6 11.5-23.2 18.2-34.7 3.3-5.7 6.9-11.5 10.9-17.1a105.1 105.1 0 0 1 6.5-8.3 46.1 46.1 0 0 1 8.6-7.9 20.1 20.1 0 0 1 7.1-3.1h3.8l1.4.2a13.7 13.7 0 0 1 4.9 2 18 18 0 0 1 5.5 6.1 32.7 32.7 0 0 1 2.6 5.8 67 67 0 0 1 2.6 10.8c.6 3.5 1 7 1.3 10.4a336.2 336.2 0 0 1 .6 40.4q-.4 10-1.1 19.9v-.3s.1.4-.1-.8a5.9 5.9 0 0 0-.6-1.8 6 6 0 0 0-.9-1.3 5.8 5.8 0 0 0-5.2-1.8 6 6 0 0 0-2.8 1.2 5.9 5.9 0 0 0-1.8 2.3l.3-.9 1.8-4.6 3.7-9.2c5-12.2 10.3-24.1 16.4-35.7a139.7 139.7 0 0 1 10.4-17.1c1-1.4 2.1-2.8 3.4-4.2a33.1 33.1 0 0 1 4.3-4.1 19.3 19.3 0 0 1 3.1-2 13.6 13.6 0 0 1 4.5-1.4 11.5 11.5 0 0 1 5.9.8l1.1.5h.3l.8.5 1.3 1.1.9.9a15.4 15.4 0 0 1 2.3 3.5 21.9 21.9 0 0 1 1.3 3.2 35.2 35.2 0 0 1 1.2 5.7 72.1 72.1 0 0 1 .5 10.1 174.6 174.6 0 0 1-1.5 18.8c-1.5 12.1-3.7 23.7-6.1 35q-1.8 8.4-3.7 16.5l-1 4-.5 2-.2 1v.2c-.1.3 0 0 .1-.8a5.1 5.1 0 0 0-.2-1.3 5.3 5.3 0 0 0-.4-1.1 5.4 5.4 0 0 0-5.5-2.9 5.5 5.5 0 0 0-2.1.7l-.3.2.2-.2.8-.6 3.3-2.4a286.8 286.8 0 0 1 26.6-17.1c4.5-2.5 8.9-4.8 13.3-6.9l6.7-3 3.4-1.3 3.4-1.3 3.4-1.2 3.4-1 1.7-.5.8-.2h5.1l1.3.2a16.2 16.2 0 0 1 9.1 4.4 16.8 16.8 0 0 1 4.7 8.4 15.8 15.8 0 0 1-.8 9.4 12.7 12.7 0 0 1-1 2.1l-.5.9-.4.6-1.6 2.4-5.8 9c-3.7 5.8-7 11.2-9.9 16-5.8 9.8-9.9 17.7-12.6 23.2l-1.7 3.6-1.2 2.7-1 2.2a2.5 2.5 0 0 1-4.7-1.6l.5-2.4c.3-1.6.9-4 1.8-7 .5-1.5.9-3.2 1.6-5l1-2.9 1.2-3.1c1.7-4.3 3.7-9.1 6.2-14.4s5.5-11.1 9-17.2c1.7-3.1 3.6-6.2 5.6-9.5l1.5-2.4.4-.6v-.3a2.1 2.1 0 0 0 .2-.6 3.8 3.8 0 0 0 .1-2.2 4.3 4.3 0 0 0-1.3-2.1 3.8 3.8 0 0 0-2.1-1h-1.6l-.7.2-1.5.4-3 .9-3 1.1-3 1.2-3 1.2-6.1 2.8c-4.1 1.9-8.3 4.2-12.5 6.6a273.9 273.9 0 0 0-25.2 16.5l-3.1 2.3-.8.6-.2.2-.7.5a7.8 7.8 0 0 1-11.1-3.2 7.9 7.9 0 0 1-.6-1.6 7.7 7.7 0 0 1-.2-1.8 7.8 7.8 0 0 1 .1-1.3l.2-.8v-.5l.2-1 .5-2 .9-4q1.8-8 3.5-16.2c2.2-11 4.3-22.4 5.6-33.9a161.5 161.5 0 0 0 1.2-17.3 58.8 58.8 0 0 0-.4-8.1 21.6 21.6 0 0 0-.7-3.4 5.5 5.5 0 0 0-.7-1.5h.1l.4.3h-.4l.6.3a2.7 2.7 0 0 0 1.3.2c.6-.1-.1 0-.8.6a29.7 29.7 0 0 0-4.9 5.5 126.8 126.8 0 0 0-9.2 15.4c-5.7 11-10.8 22.7-15.7 34.6l-3.6 9-1.7 4.5-.2.6v.3l-.2.5a8.4 8.4 0 0 1-13.8 2.4 8.3 8.3 0 0 1-1.3-1.8 8.2 8.2 0 0 1-.8-2.4 6.9 6.9 0 0 1-.1-1.4 6.7 6.7 0 0 1 0-1q.7-9.7 1-19.4a322.8 322.8 0 0 0-.7-38.6c-.3-3.1-.7-6.3-1.2-9.3a55.3 55.3 0 0 0-2-8.4 18.6 18.6 0 0 0-1.4-3.2 5 5 0 0 0-1-1.3h.9c.8-.1-1 .1-.2 0a6.7 6.7 0 0 0-1.9.9 32.7 32.7 0 0 0-5.8 5.4 91 91 0 0 0-5.6 7.2c-3.6 5-7 10.4-10.2 15.9-6.4 11-12.2 22.3-17.8 33.7s-10.7 22.7-15.6 34l-.9 2.1-.3.7a8.3 8.3 0 0 1-13.2 2.5 8.1 8.1 0 0 1-1.5-1.9l-.5-1.1-.4-1-.8-2.1-3.5-8.3c-2.4-5.5-4.8-10.8-7.5-15.8-1.3-2.5-2.7-4.9-4.2-7.1s-1.5-2.1-2.2-3a13 13 0 0 0-1.9-2c-.2-.2-.3-.2.2 0h1.1a4.4 4.4 0 0 0 1.7-.4l.6-.4.2-.2h.2l.2-.2h.1l-.2.5c-.1.1.1-.2 0 0v.2l-.5 1.5a15.4 15.4 0 0 0-.4 1.6 30.1 30.1 0 0 0-.6 3.5c-.2 1.2-.2 2.5-.3 3.7s-.1 2.6 0 3.8.2 5.2.4 7.8c.5 5.2 1.3 10.4 2.2 15.5.5 2.5 1 5.1 1.5 7.6l.9 3.7.2.9v-.7a7.8 7.8 0 0 1-.4 4.6 7.8 7.8 0 0 1-10.4 4.2 10.5 10.5 0 0 1-1.6-.9l-.6-.5-.3-.3-.6-.5-1.3-1a23.4 23.4 0 0 0-2.7-1.9 24.3 24.3 0 0 0-2.8-1.7l-2.9-1.6a72.9 72.9 0 0 0-12.5-4.4 104.1 104.1 0 0 0-12.8-2.3 150.5 150.5 0 0 0-24.5-.6l-5.7.4-2.7.2h-.6l-.5.2a4.1 4.1 0 0 0-2.5 3.2 4.3 4.3 0 0 0 .1 2l.2.4a.1.1 0 0 1 0 .2h.1l.2.2.4.5.2.2h.1l-.2-.2.4.5a87.6 87.6 0 0 1 6.2 7.4 114.8 114.8 0 0 1 13.7 24.1c1.2 2.9 2.1 5.2 2.6 6.8l.8 2.3a2.5 2.5 0 0 1-4.5 2.5z"></path><path fill="none" d="M1313.1 1432.7s-18.7 17.7-10.7 47.6c13.5-24.7 42-27.5 42-27.5s-43.9 66.7.9 112c-4.2-25.7 28-44.8 28-44.8s-13.4 65.6 42.5 91c41.1 18.7 15.9 74.2 15.9 74.2s148.4-101.7 112-168.9c0 0 45.7 11.7 44.3 48.5 0 0 59.7-79.8 13.1-146"></path><path fill="none" stroke="#31323d" stroke-width="12.5" stroke-miterlimit="10" d="M931.3 2117.4c-38.1 9.1-130.4 43.4-184.5 78.3-26.5 17.1-10.1 55.9 23.2 55.3l280.4-5.5" stroke-linecap="round"></path><path fill="#31323d" d="M840.5 2200.1l-.7.2-2 .6-3.1 1-4 1.5-4.5 2.1a49.4 49.4 0 0 0-4.7 2.8 36 36 0 0 0-4.4 3.5 26.3 26.3 0 0 0-3.7 4.2l-.8 1.1-.7 1.2a21.4 21.4 0 0 0-1.1 2.4c-.2.4-.3.8-.4 1.2a8.9 8.9 0 0 0-.3 1.2 18.1 18.1 0 0 0-.4 2.4v3.6c0 .4.1.8.1 1.2a15.6 15.6 0 0 0 .3 2.2c.2.7.3 1.4.5 2.1a36.6 36.6 0 0 0 1.2 3.6 29.8 29.8 0 0 0 1.2 2.8l1.2 2.4.2.3a6.3 6.3 0 0 1-11.3 5.5l-.3-.7-1.1-3.1c-.4-1-.7-2.2-1.1-3.7a48 48 0 0 1-1-4.9c-.1-.9-.2-1.9-.3-2.9a24.9 24.9 0 0 1-.1-3.2v-1.7l.2-1.7c.1-.6.1-1.2.2-1.7l.4-1.8a27.7 27.7 0 0 1 1-3.5 16.1 16.1 0 0 1 .7-1.7l.8-1.7a30.5 30.5 0 0 1 2-3.2l1.1-1.5 1.2-1.4a34.5 34.5 0 0 1 5.4-4.9 43.4 43.4 0 0 1 5.8-3.6 56.1 56.1 0 0 1 5.7-2.6l5.2-1.8 4.4-1.2 3.5-.7 2.3-.3h.8a2.2 2.2 0 0 1 .8 4.4h-.1zm-47.5 2h-.6l-1.7.5a38.1 38.1 0 0 0-5.9 2.5 32.6 32.6 0 0 0-3.6 2.2 29.2 29.2 0 0 0-3.5 2.9 23.5 23.5 0 0 0-2.9 3.7 18.7 18.7 0 0 0-2 4.2 21.2 21.2 0 0 0-.6 2.2c-.1.8-.3 1.5-.3 2.3a24.7 24.7 0 0 0 .1 4.6 34.5 34.5 0 0 0 .8 4.3c.4 1.4.7 2.7 1.2 3.9l.6 1.7.7 1.5.6 1.3.6 1.1 1.1 2.1v.2a6.3 6.3 0 0 1-11.2 5.6l-.3-.8-.9-2.7-.5-1.4-.5-1.7-.5-1.9c-.2-.7-.3-1.4-.5-2.2s-.6-3.3-.8-5.1a44.7 44.7 0 0 1-.2-5.9 34.2 34.2 0 0 1 .8-6.3c.2-1.1.6-2.1.9-3.2a29.7 29.7 0 0 1 1.3-3.1 26.9 26.9 0 0 1 3.6-5.6 31 31 0 0 1 4.5-4.3 35.8 35.8 0 0 1 4.8-3 38.6 38.6 0 0 1 4.6-2 43.3 43.3 0 0 1 7.1-2l2-.3h.8a2.2 2.2 0 0 1 .8 4.4h-.4z"></path><path fill="none" stroke="#31323d" stroke-width="12.5" stroke-miterlimit="10" d="M2020.7 2120.2c47.5 13.8 136.8 46.1 179.8 75.5 26.1 17.8 10.1 55.9-23.2 55.3l-261.6-5.1" stroke-linecap="round"></path><path fill="#31323d" d="M2107.6 2193.7h.8l2.3.4 3.5.8 4.5 1.4 5.2 2a58.4 58.4 0 0 1 5.6 2.8 45.8 45.8 0 0 1 5.7 3.8 36.7 36.7 0 0 1 5.3 5.1l1.2 1.5 1.1 1.6a31 31 0 0 1 1.9 3.3c.3.6.5 1.2.8 1.7s.5 1.2.7 1.8l.6 1.8.3.9.2.9a26.4 26.4 0 0 1 .6 3.5 25.1 25.1 0 0 1 .2 3.4 42.1 42.1 0 0 1-.4 6.2 50.3 50.3 0 0 1-1 5c-.4 1.5-.7 2.8-1.1 3.7l-1.1 3.2a6.3 6.3 0 0 1-11.8-4.1l.3-.7.2-.3 1.2-2.4c.4-.8.7-1.7 1.2-2.8s.8-2.3 1.2-3.7a31.5 31.5 0 0 0 .8-4.4 15.7 15.7 0 0 0 .1-2.4 16.7 16.7 0 0 0-.1-2.5v-1.2l-.2-1.3c-.1-.4-.2-.8-.4-1.3a12.8 12.8 0 0 0-.4-1.3 21.8 21.8 0 0 0-1.1-2.5l-.7-1.2-.8-1.2a28.5 28.5 0 0 0-3.7-4.4 38.4 38.4 0 0 0-4.4-3.8 51.5 51.5 0 0 0-4.7-3l-4.5-2.3a66.6 66.6 0 0 0-7.1-2.9l-2-.6-.7-.2h-.1a2.2 2.2 0 0 1 .8-4.3zm47.5 2h.8l2.1.4a44.7 44.7 0 0 1 7.1 2.4 40.4 40.4 0 0 1 4.5 2.3 38.2 38.2 0 0 1 4.7 3.3 33.1 33.1 0 0 1 4.4 4.5 30 30 0 0 1 4.8 8.8c.4 1.1.6 2.2.9 3.2s.4 2.2.6 3.3.3 2.2.2 3.2.1 2.1 0 3.1l-.2 2.9c-.3 1.8-.5 3.6-.8 5.2l-.5 2.3-.6 2-.5 1.8-.5 1.4-.9 2.7a6.3 6.3 0 0 1-11.8-4.1l.3-.7v-.3l1.1-2.2.6-1.2.6-1.4.7-1.6.6-1.7c.5-1.2.8-2.6 1.2-4l.4-2.2c.2-.7.2-1.5.3-2.3s.1-1.5.1-2.3-.1-1.6-.1-2.4-.2-1.6-.3-2.4a20.2 20.2 0 0 0-.6-2.3 20.6 20.6 0 0 0-2-4.4 25.7 25.7 0 0 0-2.9-3.9 31.5 31.5 0 0 0-3.5-3.2 34.4 34.4 0 0 0-3.6-2.4 39.4 39.4 0 0 0-5.9-2.9l-1.7-.6-.6-.2h-.1a2.2 2.2 0 0 1 1.1-4.1z"></path></g><g id="eye"><defs><clipPath id="eyeClipPath"><circle cx="1703.3" cy="1110.7" r="129.7" fill="#fff" stroke="#31323d" stroke-width="10" stroke-miterlimit="10" transform="translate(-130.9 232.9) rotate(-7.5)" stroke-linecap="round"></circle></clipPath><clipPath id="eyeClipPath2"><circle cx="1162" cy="1128.5" r="129.7" fill="#fff" stroke="#31323d" stroke-width="10" stroke-miterlimit="10" transform="translate(-137.9 162.1) rotate(-7.5)" stroke-linecap="round"></circle></clipPath></defs><circle cx="1703.3" cy="1110.7" r="129.7" fill="#fff" transform="translate(-130.9 232.9) rotate(-7.5)"></circle><g clip-path="url(#eyeClipPath)"><circle cx="1730.3" cy="1113.2" r="106.1" fill="#43edac" transform="translate(-131 236.4) rotate(-7.5)"></circle><circle cx="1727.3" cy="1115.1" r="83" fill="#31323d" transform="translate(-131.3 236.1) rotate(-7.5)"></circle><circle cx="1766.6" cy="1045.2" r="44.2" fill="#fff" transform="translate(-121.8 240.6) rotate(-7.5)"></circle></g><circle cx="1703.3" cy="1110.7" r="129.7" fill="none" stroke="#31323d" stroke-width="10" stroke-miterlimit="10" transform="translate(-130.9 232.9) rotate(-7.5)" stroke-linecap="round"></circle><circle cx="1162" cy="1128.5" r="129.7" fill="#fff" transform="translate(-137.9 162.1) rotate(-7.5)"></circle><g clip-path="url(#eyeClipPath2)"><circle cx="1129" cy="1136.6" r="106.1" fill="#43edac" transform="translate(-139.3 157.8) rotate(-7.5)"></circle><circle cx="1126" cy="1138.5" r="83" fill="#31323d" transform="translate(-139.5 157.4) rotate(-7.5)"></circle><circle cx="1165.3" cy="1068.6" r="44.2" fill="#fff" transform="translate(-130 162) rotate(-7.5)"></circle></g><circle cx="1162" cy="1128.5" r="129.7" fill="none" stroke="#31323d" stroke-width="10" stroke-miterlimit="10" transform="translate(-137.9 162.1) rotate(-7.5)" stroke-linecap="round"></circle></g><g id="mouth"><path opacity=".2" fill="#595959" d="M1387.6 1449.1s7.9 72.2 68.5 66.4c58.7-5.7 61.4-73.9 61.4-73.9s-19.4 31.4-57.4 34.1-72.5-26.6-72.5-26.6z"></path><path fill="#31323D" d="M1371.7 1227.7c-2.5-5.4-1.6-11.7 2.3-16.1 8.2-9.4 26.4-23.8 61.9-26.8s53.3 8 62 16.1c4.3 4.1 5.8 10.3 3.8 15.9-2.7 7.5-9.3 12.8-17.2 13.7-10 1.1-23.6 5.2-31.4 18.4-.5.8-1.1 1.6-1.7 2.3l-.3.3c-6.7 7.1-17.9 7.5-25 .9l-.3-.3s-8.2-11.9-35.2-11.9c-8.1-.1-15.4-4.8-18.7-12.1l-.2-.4z"></path><path fill="#31323D" d="M1447.5 1255.1v.5l.5 1.7c.4 1.5 1.1 3.8 2.1 6.6 2.7 8 6 15.8 9.7 23.3 2.3 4.7 5 9.7 8.2 14.8 3.3 5.4 6.8 10.5 10.7 15.5 4.1 5.3 8.6 10.2 13.4 14.9 5 4.8 10.3 9.2 16 13.1 2.8 2 5.8 3.8 8.8 5.5s6.1 3.2 9.2 4.6c6.2 2.7 12.6 4.9 19.1 6.5 6.1 1.5 12.4 2.4 18.7 2.9 5.7.4 11.4.5 17.1.2l7.6-.6 3.5-.4 3.3-.5 6-1 5.1-1 7.1-1.6 2.5-.6h.1c1 0 1.8.7 1.9 1.7 0 .7-.4 1.4-1 1.7l-2.5.8-7.1 2-5.1 1.3-6.1 1.3-3.4.6-3.6.6c-2.5.4-5.1.7-7.8 1-5.9.6-11.9.8-17.8.7-6.7-.2-13.3-.9-19.9-2.1-7.1-1.3-14-3.3-20.7-5.9-3.4-1.3-6.8-2.8-10.2-4.5s-6.6-3.5-9.8-5.4c-6.3-3.9-12.3-8.3-17.9-13.2-5.4-4.7-10.5-9.9-15.2-15.3-4.4-5.1-8.5-10.4-12.3-16-3.6-5.3-6.8-10.5-9.5-15.3-4.4-7.9-8.3-16-11.7-24.4-1.2-3.1-2.1-5.5-2.7-7.2l-.7-2-.2-.7c-1.5-3.9.4-8.2 4.3-9.7s8.2.4 9.7 4.3c.1.3.2.7.3 1v.3h.3z"></path><path fill="#31323D" d="M1318.9 1385.5h2.4l6.7-.3c2.9-.2 6.4-.6 10.3-1.2s8.4-1.5 13.1-2.8c5.1-1.3 10.1-3 15-5l2-.8 1.9-.9 3.9-1.8c2.6-1.4 5.2-2.7 7.8-4.3l1.9-1.2 1.9-1.3 3.8-2.7 1.8-1.4 1.8-1.5c1.3-.9 2.5-1.9 3.6-3l3.4-3.2 3.2-3.5c2.2-2.3 4-4.9 6-7.3.5-.6 1-1.2 1.4-1.9l1.3-2 1.3-2c.4-.6.8-1.3 1.2-2l2.3-4.1 1.1-2 1-2.1c1.4-2.8 2.6-5.6 3.7-8.5 1.1-2.8 2.1-5.7 2.9-8.6 1.6-5.5 3-11.1 4-16.8l1.2-8 .3-1.9c.1-.6.1-1.3.2-1.9l.3-3.7c.2-2.4.4-4.7.5-6.9l.2-6.3v-5.6c-.1-1.6 0-3.1.1-4.7.2-2.2.6-4.5 1.3-6.6.3-.8.6-1.6 1-2.4v-.3c1.5-2.7 4.9-3.7 7.6-2.3.9.5 1.7 1.3 2.2 2.2.4.8.7 1.6 1 2.4.7 2.2 1.2 4.6 1.4 6.9.1 1.7.2 3.3.1 5l-.4 5.9-.4 6.7c-.2 2.4-.6 4.8-.9 7.4l-.5 3.9c-.1.7-.2 1.3-.3 2l-.4 2.1-1.6 8.5c-.7 2.9-1.5 5.9-2.3 8.9l-.6 2.3c-.2.8-.5 1.5-.8 2.3l-1.6 4.6c-1 3.1-2.4 6.2-3.7 9.3-1.3 3.1-2.8 6.2-4.5 9.2l-1.2 2.3-1.4 2.2-2.8 4.4c-.5.8-1 1.5-1.5 2.2l-1.6 2.1-1.6 2.1c-.5.7-1 1.4-1.6 2.1-2.4 2.6-4.5 5.4-7.1 7.7l-3.8 3.6-4 3.3c-1.3 1.1-2.7 2.1-4.1 3.1s-2.7 2-4.2 2.9l-4.3 2.6-2.2 1.2-2.2 1.1c-2.8 1.6-5.8 2.8-8.7 4.1l-4.3 1.6-2.1.8-2.1.7c-5.3 1.7-10.6 3-16.1 4-4.6.8-9.2 1.4-13.8 1.7-4.1.2-7.7.3-10.7.2l-6.9-.4-1.8-.2h-.6c-.6-.2-.9-.9-.7-1.5.1-.4.5-.7.9-.8l.4.1zM1520.1 1438.4l-.4 1.8c-.1.6-.2 1.3-.5 2.2l-.9 3.1c-.4 1.1-.8 2.3-1.4 3.6s-1.2 2.7-2 4.2c-1.7 3.3-3.8 6.4-6.1 9.3-2.8 3.5-5.9 6.6-9.3 9.4l-2.9 2.2-3 2.1c-2.1 1.3-4.3 2.6-6.6 3.8s-4.7 2.2-7.2 3.1l-3.8 1.3-3.9 1.1c-5.3 1.3-10.7 2.1-16.2 2.3-5.4.2-10.8-.1-16.2-1-5.1-.9-10.2-2.2-15.1-4l-.9-.3-.4-.2h-.5l-1.6-.7-3.4-1.5c-2.3-1.1-4.3-2.2-6.3-3.4-3.7-2.2-7.3-4.7-10.6-7.5-2.8-2.3-5.4-4.9-7.8-7.6-1.8-2.1-3.5-4.3-5.1-6.6-.7-.9-1.2-1.8-1.7-2.6l-1.2-2-.9-1.7c-.8-1.1-.6-2.7.5-3.5s2.7-.6 3.5.5h.1l1.3 1.2 3.6 3.3c1.5 1.4 3.6 3 5.9 4.8s5 3.6 8 5.4c3.3 1.9 6.6 3.7 10.1 5.2l2.8 1.2 2.9 1.1 3 1 1.7.5 1.5.4c4.3 1.2 8.6 2.1 13 2.6 4.5.5 9.1.7 13.6.5 4.5-.2 9-.8 13.4-1.8l3.2-.8 3.2-.9c2.1-.6 4.1-1.4 6.1-2.2s3.9-1.7 5.7-2.6l2.7-1.4 2.5-1.5c3.1-2 6.1-4.2 8.8-6.6 2.4-2.1 4.6-4.4 6.6-6.8 1.6-1.9 3.1-3.9 4.5-5.9l1.5-2.3c.4-.6.8-1.4 1.1-1.9l.9-1.6c1-.9 2.6-.9 3.5.1.4.5.7 1 .7 1.6zM1542.7 1278.1l4-.8 11.4-2.1c9.9-1.7 24-3.8 41-5.4 19.4-1.8 38.8-2.6 58.3-2.4 10.7.1 21.7.6 32.9 1.5s22.5 2.3 33.7 4.2 22.4 4.2 33.2 7.1c10.6 2.8 21.1 6.2 31.3 10.2 9.5 3.7 18.9 8.1 27.9 12.9 8.1 4.3 15.9 9.2 23.4 14.5 6.3 4.5 12.3 9.3 18.1 14.5l3.7 3.4 3.3 3.2 3 3 2.7 2.9c1.7 1.8 3.1 3.5 4.4 4.9l3.1 3.7 2.6 3.2-2.7-3.1-3.2-3.6c-1.3-1.4-2.8-3.1-4.5-4.8l-2.7-2.8-3.1-3-3.4-3.1-3.8-3.3c-5.9-5-12-9.6-18.4-13.9-7.5-5.1-15.4-9.7-23.5-13.8-9.1-4.5-18.4-8.6-27.9-12-10.2-3.6-20.6-6.7-31.2-9.2-10.8-2.6-21.8-4.6-33-6.1s-22.3-2.6-33.4-3.2-21.9-.8-32.5-.6c-19.2.3-38.4 1.6-57.4 4-16.7 2-30.5 4.5-40.1 6.4l-11.1 2.4-3.9.9c-2.7.4-5.3-1.4-5.7-4.2-.4-2.4 1.1-4.7 3.5-5.5zM1715.6 1228.8l-6.6.3-7.6.4-9.9.7-11.7 1-13 1.5c-4.5.6-9.1 1.2-13.8 2l-7.1 1.1-7.1 1.3-7.1 1.4-7 1.4-6.9 1.5-6.7 1.6-6.4 1.6-6.1 1.6-11.2 3.1-9.4 2.8-7.2 2.3-6.2 2.1h-.1c-2.6.9-5.5-.5-6.3-3.2s.5-5.5 3.2-6.3h.3l6.5-1.7 7.5-1.9 9.7-2.3 11.6-2.5 6.3-1.2 6.6-1.2 6.9-1.2 7-1.1 7.2-1 7.2-.9 7.2-.8 7.2-.7c4.8-.5 9.5-.7 14-1.1l13.1-.6 11.7-.3h17.7l6.5.3zM1556.6 1301.2l7.7-1.2 4.3-.4 5.1-.4c3.6 0 7.7-.2 12.1.3l3.4.2 3.5.5 3.6.5 3.7.7 3.8.7 3.8.9 3.9 1 3.9 1.2 3.9 1.3 3.9 1.5 3.9 1.6 3.9 1.7 2 .9 1.9 1 3.9 1.9 7.6 4.2c4.9 3 9.8 6 14.4 9.3s9 6.7 13.1 10.1 8 6.9 11.6 10.2 6.8 6.7 9.8 9.7 5.6 6 7.8 8.6 4.2 4.9 5.8 6.9c3.1 3.9 4.8 6.2 4.8 6.2s-1.8-2.2-5.1-5.9c-1.7-1.8-3.7-4.1-6.1-6.5s-5.2-5.2-8.3-8.1-6.5-6-10.2-9.1-7.7-6.3-12-9.5-8.7-6.3-13.4-9.2-9.6-5.7-14.5-8.3l-7.6-3.6-3.8-1.7-1.9-.8-1.9-.7-3.8-1.4-3.8-1.3-3.8-1.2-3.8-1-3.7-1-3.7-.8-3.6-.7-3.6-.5-3.5-.4-3.4-.3-3.3-.3h-3.1c-4.1-.2-7.8.2-11.2.4l-4.5.6-3.8.5-7.6 1.6c-2.7.6-5.3-1.2-5.9-3.9s1.2-5.3 3.9-5.9h.3l-.4-.1zM1345.9 1303.2l-15.5-3c-9.8-1.9-23.8-4.7-40.7-7.4-8.4-1.4-17.6-2.7-27.3-4s-20-2.3-30.6-3.2-21.6-1.4-32.8-1.6-22.6.1-33.9.8c-11.3.7-22.5 2-33.7 3.9-5.5.9-11 2-16.3 3.2s-10.6 2.6-15.7 4.2c-18.7 5.4-36.5 13.5-52.8 24.1-6.5 4.3-12.7 9-18.6 14.1-1.3 1.1-2.5 2.3-3.7 3.4l-3.4 3.2-3.1 3.1-2.7 2.9c-1.7 1.8-3.1 3.5-4.4 5l-1.7 2.1-1.4 1.8-2.5 3.2 2.5-3.3 1.3-1.8 1.7-2.1c1.2-1.5 2.6-3.3 4.3-5.1l2.6-3 3-3.2 3.3-3.4c1.2-1.1 2.3-2.4 3.7-3.5 5.7-5.3 11.9-10.2 18.3-14.7 16.2-11.2 34-19.9 52.8-25.9 5.1-1.7 10.4-3.2 15.8-4.6s10.9-2.7 16.4-3.7c11.2-2.2 22.6-3.8 34-4.9 11.5-1.1 23-1.6 34.3-1.8s22.5.1 33.3.7 21.2 1.4 31 2.4 19.1 2.1 27.7 3.3c17.1 2.3 31.2 4.7 41.1 6.4l15.5 2.6c2.7.5 4.6 3.1 4.1 5.8-.5 2.7-3.1 4.6-5.8 4.1l-.1-.1zM1171.2 1244.5l1.8-.3 5-.8 7.8-1.1 10.1-1.1c7.4-.7 16.2-1.1 25.6-1 4.7.1 9.5.2 14.5.5l7.4.6 7.4.8 7.5 1 7.4 1.2c4.9.8 9.6 1.9 14.2 2.9l6.8 1.7 6.4 1.8c4.2 1.2 8.1 2.4 11.7 3.6l9.7 3.5 7.4 2.9 4.7 2 1.7.7c2.5 1.1 3.7 4.1 2.6 6.6s-4.1 3.7-6.6 2.6h-.3l-1.6-.8-4.4-2.2-7-3.3-9.2-3.9c-3.4-1.4-7.1-2.8-11.1-4.2l-6.1-2.1-6.5-2c-4.4-1.3-9-2.6-13.7-3.7l-7.1-1.6-7.2-1.4-7.3-1.2-7.2-1c-4.8-.6-9.6-1.1-14.2-1.4-9.2-.7-17.9-.8-25.3-.6l-10.1.4-7.8.6-5 .5-2-.2zM1333.2 1327l-7.6-1.9-3.8-.6-2.1-.3-1.1-.2h-1.2l-5.3-.4h-9l-3.3.3c-2.2.1-4.5.6-6.8.9s-4.7 1-7.1 1.5l-1.8.4-1.8.5-3.7 1.1-3.7 1.3-3.8 1.4-7.5 3.2c-5.1 2.4-10 5-14.8 7.9l-3.6 2.2-3.5 2.3c-2.4 1.5-4.6 3.2-6.9 4.8l-6.6 5c-2.1 1.7-4.3 3.4-6.3 5.1l-3 2.6-2.9 2.6-5.5 5.1-5.1 5-4.7 4.8c-3 3.1-5.6 6-7.9 8.6l-5.8 6.9c-3.2 3.9-4.9 6.2-4.9 6.2s1.6-2.4 4.5-6.4c1.5-2 3.3-4.5 5.5-7.2s4.6-5.8 7.4-9.1l4.4-5.1 4.9-5.3 5.3-5.4 2.8-2.8 2.9-2.8c1.9-1.9 4-3.7 6.1-5.5l6.4-5.4c2.2-1.7 4.4-3.6 6.8-5.3l3.5-2.6 3.6-2.5c4.8-3.3 9.7-6.3 14.8-9l7.7-3.8 3.9-1.7 3.9-1.6 3.9-1.4 1.9-.7 1.9-.6c2.6-.7 5-1.6 7.5-2s4.9-1.2 7.3-1.4l3.5-.5 1.7-.2h1.7l6.4-.4h8.5l2.5.3 4.5.5 7.7 1.4c2.7.7 4.2 3.5 3.5 6.1-.6 2.3-2.9 3.9-5.3 3.7h-.3l-.2.4z"></path></g></svg>