<?xml version="1.0" encoding="utf-8"?>
<svg viewBox="0 0 3000 3000" xmlns="http://www.w3.org/2000/svg">
  <g id="tailFur">
    <g id="tailShadow">
      <g style="isolation:isolate">
        <path fill="none" d="M3000 3010L0 3000V0l3000 10v3000"/>
        <path fill="none" d="M3000 3010L0 3000V0l3000 10v3000"/>
      </g>
    </g>
  </g>
  <g id="eye">
    <path fill="#FFF" d="M1696.9 976c-49.5 12-115.3 58.4-133.8 215.1 0 0 115.5 94 211.5-25.7 51-63.6 42.4-113.3 23.1-146-20.8-35.2-61.1-53.1-100.8-43.4z"/>
    <clipPath id="eyeClipPath">
      <path d="M1696.9 976c-49.5 12-115.3 58.4-133.8 215.1 0 0 115.5 94 211.5-25.7 51-63.6 42.4-113.3 23.1-146-20.8-35.2-61.1-53.1-100.8-43.4z"/>
    </clipPath>
    <g clip-path="url(#eyeClipPath)">
      <circle fill="#ef4b62" cx="1660" cy="1138.2" r="88.3"/>
      <circle fill="#31323D" cx="1657.3" cy="1139.5" r="67.1"/>
      <circle fill="#FFF" cx="1698.3" cy="1082" r="39"/>
    </g>
    <path fill="none" stroke="#31323D" stroke-width="10" stroke-linecap="round" stroke-miterlimit="10" d="M1696.9 976c-49.5 12-115.3 58.4-133.8 215.1 0 0 115.5 94 211.5-25.7 51-63.6 42.4-113.3 23.1-146-20.8-35.2-61.1-53.1-100.8-43.4z"/>
    <path fill="#31323D" d="M1809.8 1104.4s45.1-73.9 44.6-112.1c0 0-22.4 15.6-38.6 11.9l9.9-22.5-53.6 4.2s62 39.1 37.7 118.5z"/>
    <path fill="#FFF" d="M1170.1 993c49.5 12 115.3 58.4 133.8 215.1 0 0-115.5 94-211.5-25.7-51-63.6-42.4-113.3-23.1-146 20.7-35.2 61.1-53.1 100.8-43.4z"/>
    <clipPath id="eyeClipPath2">
      <path d="M1170.1 993c49.5 12 115.3 58.4 133.8 215.1 0 0-115.5 94-211.5-25.7-51-63.6-42.4-113.3-23.1-146 20.7-35.2 61.1-53.1 100.8-43.4z"/>
    </clipPath>
    <g clip-path="url(#eyeClipPath2)">
      <circle fill="#ef4b62" cx="1208.5" cy="1155.5" r="88.3"/>
      <circle fill="#31323D" cx="1205.8" cy="1156.9" r="67.1"/>
      <circle fill="#FFF" cx="1246.8" cy="1099.3" r="39"/>
    </g>
    <path fill="none" stroke="#31323D" stroke-width="10" stroke-linecap="round" stroke-miterlimit="10" d="M1170.1 993c49.5 12 115.3 58.4 133.8 215.1 0 0-115.5 94-211.5-25.7-51-63.6-42.4-113.3-23.1-146 20.7-35.2 61.1-53.1 100.8-43.4z"/>
    <path fill="#31323D" d="M1057.2 1121.4s-45.1-73.9-44.6-112.1c0 0 22.4 15.6 38.6 11.9l-9.9-22.5 53.6 4.2s-62.1 39.1-37.7 118.5z"/>
  </g>
</svg>