<?xml version="1.0" encoding="utf-8"?>
<svg viewBox="0 0 3000 3000" xmlns="http://www.w3.org/2000/svg">
  <g id="highlight">
    <defs>
      <clipPath id="highlightClipPath">
        <path fill="none" d="M2200.5 2195.7c-43-29.4-132.4-61.7-179.8-75.5l-.8-.3a248.1 248.1 0 0 0 6.4-155.8l-174.8-568.6c14.6-15.2 23.3-25.6 23.3-25.6 42.4 27.2 109.7-3.5 137.1-18.2a3.1 3.1 0 0 0-1.5-5.9c-53.6 0-129.9-41.6-129.9-41.6 60.7 16.1 84-1.1 91.8-10.5a3.1 3.1 0 0 0-2.3-5.2c-19.6-.9-86-12.3-134.4-122.4-6.6-15.1-13.6-30-21.2-44.7-14.6-28.2-38.8-72.8-66.6-117.1l1.3-7.1 50-205.4c6.6-27.3-24.5-47.9-47-31.2L1620.9 858l-2.1 2.6-4.9-3.1A240.6 240.6 0 0 0 1559 836l-3.3-.8c10-28.5 40.9-44.3 40.9-44.3-35.9-33.7-100 19.4-100 19.4-37-35.7 17.4-102.7 17.4-102.7-64.8-29.4-112.8 85.4-112.8 85.4-4.7-56.4-86.1-64.9-86.1-64.9 27.1 29.7 13.6 82.9 13.6 82.9-38.1-37.3-110.7-2.4-110.7-2.4 29.7 2.9 48.9 15.7 60.8 28l-3 .8a240.6 240.6 0 0 0-79 39l-131-81.2c-23.3-14.4-52.1 7.3-44.7 33.7l57.5 202.6 4.2 14.9c-13.6 32.5-24.1 61.9-29.8 78.5q-5.3 15.7-12.1 30.8c-40.9 107.2-130.3 143.6-160.1 153.1a3.1 3.1 0 0 0 .1 6c20.6 5.7 72.8 17.4 111-21 0 0-37.3 51.7-83.2 70.2a3.1 3.1 0 0 0 .9 6.1c16.5 1.6 47.9.7 87.8-18.6 0 0-21.7 30.1-40.8 44.4a3.2 3.2 0 0 0 2.3 5.7c15.5-1.7 34.4-5.1 45.5-11.9l.5 12.2c.5 11.7 8.6 24.2 21.3 36.7l-107 561a248.9 248.9 0 0 0 12.6 117.5l-.6.3c-38.1 9.1-130.4 43.4-184.5 78.3-26.5 17.1-10.1 55.9 23.2 55.3l266.9-5.2q6.8 4.1 13.8 7.9l.2 3.4c.4 23.3-6.7 42.4-29.9 43.6-15.6.8-28.2 9.9-30.6 21.1-4.7 21.5 5.8 38.9 27.2 40.4l84.3 5c26.4 1.6 51.9-11.3 65.3-34.1a71.4 71.4 0 0 0 8.8-23.9l5-26.6h533.6l3.5 20.7a71.6 71.6 0 0 0 43.1 54.3 53.5 53.5 0 0 0 22.3 4l91.8-3c22-2.2 30.1-15.7 27.9-36.9-.7-6.9-6.2-24.5-24.5-25.5-15.8-.9-25.2-8.6-28.1-21.9a246.8 246.8 0 0 0 65.4-28.1l261.5 5.1c33.2.3 49.2-37.8 23.1-55.6z" data-name="&lt;Clipping Path&gt;"/>
      </clipPath>
      <linearGradient id="highlightClipPath" x1="1847.36" x2="1847.36" y1="2256.39" y2="835.25" gradientUnits="userSpaceOnUse">
        <stop offset="0" stop-color="#fff" stop-opacity="0"/>
        <stop offset="0.72" stop-color="#fff"/>
      </linearGradient>
    </defs>
    <g style="isolation:isolate">
      <g clip-path="url(#highlightClipPath)">
        <path opacity=".2" style="mix-blend-mode:overlay" fill="url(#highlightClipPath)" d="M1552.5 855.4s54.3 14.8 76.3 46.1 43.9 85.7 88.3 172c31.9 62 96.1 159.9 110 258.3 6.3 56.9-35 111.1-41.4 123.5 1.1 3.4 35.2-31.9 36.4-28.5 65.5 192.8 120.8 423.9 147.8 543.6 46.1 204.7-81.2 286-81.2 286l61.1-35.5s63-74.8 72.5-107.6c20.8-71.9 139-33 117.2-147.7-31.7-166.5-227.9-1014.4-227.9-1014.4s-117.4 96.2-162.6 46.1c-21.6-24-56.5-63.8-66.3-81.3-20.7-36.8-76.1-65.4-127.1-80.7z"/>
      </g>
    </g>
  </g>
  <g id="eye">
    <circle cx="1704" cy="1111.4" r="157.5" fill="#ef4b62"/>
    <circle cx="1704" cy="1111.4" r="138.7" fill="#31323d"/>
    <path fill="#fff" d="M1603.4 1165.1c-4.8 19.7 35.8 51.7 76.2 61 8.9 2 44.3 9.1 80.8-9.9 38.1-19.8 66.5-62.4 57.1-77-7-10.9-34.4-4.7-38.1-3.8-39 9.2-43.7 43-69.3 43.4s-30.4-30.9-62.5-33.5c-18.5-1.5-41.1 7.1-44.2 19.8z" opacity=".44"/>
    <circle cx="1644.6" cy="1188.2" r="27.8" fill="#fff"/>
    <ellipse cx="1797.7" cy="1159.2" fill="#fff" rx="40.6" ry="18.6"/>
    <ellipse cx="1758.9" cy="1056.7" fill="#fff" rx="24" ry="30.3"/>
    <ellipse cx="1797.7" cy="1081.3" fill="#fff" rx="10.3" ry="13"/>
    <ellipse cx="1808" cy="1026.5" fill="#fff" rx="10.3" ry="13"/>
    <path fill="#fff" d="M1618.9 1026.5c-4.7 4.5-37.3 35.6-29.5 66.3.7 2.8 3.7 14.4 13.3 19.1 12.3 6.2 29.5-2 39-11.8 13.7-14.1 5.8-25.7 17.7-37.6 16-15.9 38.7-3.4 48.6-16.9 8.8-12 2.2-37.6-12.5-47.1-27.6-17.9-74.7 26.1-76.6 28z"/>
    <circle cx="1162" cy="1129.7" r="157.5" fill="#ef4b62"/>
    <path fill="none" stroke="#fff" stroke-width="65.04" stroke-miterlimit="10" d="M1102.1 1189.8a116.3 116.3 0 0 1-23.6-35.9m83.5 69.3a117.2 117.2 0 0 1-59.9-33.4" stroke-linecap="round"/>
    <circle cx="1162" cy="1129.7" r="138.7" fill="#31323d"/>
    <path fill="#fff" d="M1073.2 1191.2c3.8 34.1 57.5 48.9 65.1 50.8 10.9 2.8 44.8 9.9 80.1-7.6s66.7-57.4 57.1-77c-4.8-9.7-18.4-12-20.5-12.4-33.1-5.6-45.5 39.9-84.2 45.3-41 5.7-70.7-39.1-89.8-25.4-9.6 7-8.2 23.2-7.8 26.3z" opacity=".44"/>
    <circle cx="1104.2" cy="1211.1" r="28.4" fill="#fff"/>
    <ellipse cx="1262.5" cy="1159.9" fill="#fff" rx="35.8" ry="15.3"/>
    <ellipse cx="1221.5" cy="1056.3" fill="#fff" rx="24" ry="30.3"/>
    <ellipse cx="1264.5" cy="1099.1" fill="#fff" rx="7" ry="8.9"/>
    <path fill="#fff" d="M1086.5 1043.1a105.9 105.9 0 0 0-21.3 22.6c-19.1 27.4-19 55-18.8 64 .2 12.6.4 19.8 5.8 25.6 11.1 11.9 37 10 50.6-3.1 4.8-4.6 6.7-9.8 10.7-20.1 7.4-19.2 3.9-24.3 8.2-32.6 11.4-22.4 48.6-10.4 60.1-30.6 7.6-13.4.6-35.1-11.7-45-23.2-18.4-65.4 4.9-83.6 19.2z"/>
  </g>
</svg>