<?xml version="1.0" encoding="utf-8"?>
<svg viewBox="0 0 3000 3000" xmlns="http://www.w3.org/2000/svg">
  <g id="eye">
    <defs>
      <clipPath id="eyeClipPath">
        <path fill="#fff" stroke="#31323d" stroke-width="10" stroke-miterlimit="10" d="M1291.6 1125.7c0 95.5-32.9 116.3-86.2 106.3a239.9 239.9 0 0 0-79.7-1.9c-56.6 8.5-94.1-14.6-93.5-100.6.4-70.6 56.3-129.2 126.8-130.7s132.6 55.2 132.6 126.9z" stroke-linecap="round"/>
      </clipPath>
      <clipPath id="eyeClipPath2">
        <path fill="#fff" stroke="#31323d" stroke-width="10" stroke-miterlimit="10" d="M1573.5 1107.9c0 95.5 32.9 116.3 86.2 106.3a239.9 239.9 0 0 1 79.7-1.9c56.6 8.5 94.1-14.6 93.5-100.6-.4-70.6-56.3-129.2-126.8-130.7s-132.6 55.2-132.6 126.9z" stroke-linecap="round"/>
      </clipPath>
    </defs>
    <path fill="#fff" d="M1291.6 1125.7c0 95.5-32.9 116.3-86.2 106.3a239.9 239.9 0 0 0-79.7-1.9c-56.6 8.5-94.1-14.6-93.5-100.6.4-70.6 56.3-129.2 126.8-130.7s132.6 55.2 132.6 126.9z"/>
    <g clip-path="url(#eyeClipPath)">
      <circle cx="1180.3" cy="1149.9" r="77" fill="#fcdf35" transform="translate(-25 26.2) rotate(-1.3)"/>
      <circle cx="1182.1" cy="1147" r="58.1" fill="#31323d" transform="matrix(1, -0.02, 0.02, 1, -24.98, 26.14)"/>
      <circle cx="1210.8" cy="1105.3" r="30.9" fill="#fff" transform="translate(-24 26.8) rotate(-1.3)"/>
    </g>
    <path fill="none" stroke="#31323d" stroke-width="10" stroke-miterlimit="10" d="M1291.6 1125.7c0 95.5-32.9 116.3-86.2 106.3a239.9 239.9 0 0 0-79.7-1.9c-56.6 8.5-94.1-14.6-93.5-100.6.4-70.6 56.3-129.2 126.8-130.7s132.6 55.2 132.6 126.9z" stroke-linecap="round"/>
    <path fill="#fff" d="M1573.5 1107.9c0 95.5 32.9 116.3 86.2 106.3a239.9 239.9 0 0 1 79.7-1.9c56.6 8.5 94.1-14.6 93.5-100.6-.4-70.6-56.3-129.2-126.8-130.7s-132.6 55.2-132.6 126.9z"/>
    <g clip-path="url(#eyeClipPath2)">
      <circle cx="1684.8" cy="1132" r="77" fill="#fcdf35" transform="translate(516.1 2791.6) rotate(-88.7)"/>
      <circle cx="1687.1" cy="1133.1" r="58.1" fill="#31323d" transform="translate(517.2 2794.9) rotate(-88.7)"/>
      <circle cx="1733.9" cy="1087.5" r="30.9" fill="#fff" transform="translate(608.6 2797.1) rotate(-88.7)"/>
    </g>
    <path fill="none" stroke="#31323d" stroke-width="10" stroke-miterlimit="10" d="M1573.5 1107.9c0 95.5 32.9 116.3 86.2 106.3a239.9 239.9 0 0 1 79.7-1.9c56.6 8.5 94.1-14.6 93.5-100.6-.4-70.6-56.3-129.2-126.8-130.7s-132.6 55.2-132.6 126.9z" stroke-linecap="round"/>
  </g>
</svg>