<?xml version="1.0" encoding="utf-8"?>
<svg viewBox="0 0 3000 3000" xmlns="http://www.w3.org/2000/svg">
  <g id="highlight">
    <defs>
      <clipPath id="highlightClipPath">
        <path fill="none" d="M2200.5 2195.7c-43-29.4-132.4-61.7-179.8-75.5l-.8-.3a248.1 248.1 0 0 0 6.4-155.9l-134.5-437.7a121.2 121.2 0 0 0 41.2-22.3c-16.2 7.6-39.1-8.1-54.9-21.9l-2.2-7.2c54.7 26.7 104.5-45.6 104.5-45.6-45.4 5.5-101.9-31.2-136.4-58.1l-3.7-12.1c36.3 6.8 73.8-24.6 73.8-24.6-43.1 1.4-93.7-74.1-115-109.3l-68-221.2a240.5 240.5 0 0 0-47.2-89.2l73.3-118.6c-32.4-31.9-120.8 34.6-150.3 57.8a240.4 240.4 0 0 0-57.8-20.2 371.4 371.4 0 0 1 21.9-38.3c5.1-7.8-2.2-17.9-11.2-15.5-26.7 7.1-55.7 28.1-64.7 34.9a1.2 1.2 0 0 1-1.9-1.3c4.1-16.7 21-88.9 7.5-95.5s-36.2 52.6-44.6 74.7a1.2 1.2 0 0 1-2.4-.5c1.7-24.4 4.8-91.4-13-88-19.7 3.7-56.1 87.7-63.1 104.1a1.2 1.2 0 0 1-2.3 0c-4.7-11.7-22.9-55.7-29.2-40.3s.6 43.3 3.4 54.3a1.2 1.2 0 0 1-2 1.2c-19-17-51.5-17.4-73.9-15.2a10.2 10.2 0 0 0-6.3 17.4 106.3 106.3 0 0 1 9.7 11.3 240.3 240.3 0 0 0-65.7 29.2l-5.2-3.5c-44.5-36.6-115.4-83.9-135.6-33.6l64.5 115.2a240.3 240.3 0 0 0-33 93.8l-38.8 204c-17.3 35.5-58.5 110.3-101.2 114.7 0 0 41.5 26.2 76.6 14.4l-2.4 12.7c-30.6 31.2-81.6 75-127.2 75.7 0 0 56.6 62.3 106.5 33.2l-1.8 9.7c-13.6 14.7-32 29.7-47.6 24.8a121.7 121.7 0 0 0 39.9 15.9l-86.8 456.2a248.9 248.9 0 0 0 12.6 117.6l-.6.2c-38.1 9.1-130.4 43.4-184.5 78.3-26.5 17.1-10.1 55.9 23.2 55.3l266.9-5.2q6.8 4.2 13.9 7.9v3.3c.4 23.3-6.7 42.4-29.9 43.6-15.6.8-28.2 9.9-30.6 21.1-4.7 21.5 5.8 38.9 27.2 40.4l84.3 5c26.4 1.6 51.9-11.3 65.3-34.1a71.4 71.4 0 0 0 8.8-23.9l5-26.6h533.6l3.5 20.7a71.6 71.6 0 0 0 43.1 54.3 53.5 53.5 0 0 0 22.3 4l91.8-3c22-2.2 30.1-15.7 27.9-36.9-.7-6.9-6.2-24.5-24.5-25.5-15.8-.9-25.2-8.6-28.1-21.9a246.8 246.8 0 0 0 65.3-28l261.6 5c33.3.5 49.3-37.6 23.2-55.4z" data-name="&lt;Clipping Path&gt;"/>
      </clipPath>
    </defs>
    <g style="isolation:isolate">
      <g clip-path="url(#highlightClipPath)" opacity=".2" style="mix-blend-mode:overlay">
        <path fill="#fff" d="M1547.8 836.6s59 33.5 81 64.8 44.1 86.3 65.6 181c58.9 258.7 229.4 683.2 275.5 888s-81.2 286-81.2 286l61.1-35.5s63-74.8 72.5-107.6c20.8-71.9 139-33 117.2-147.7-31.7-166.5-305.7-970.5-305.7-970.5s-123.4-29.9-151.2-79.3c-20.7-36.8-73.2-64.7-124.1-79.9z"/>
      </g>
    </g>
  </g>
  <g id="eye">
    <clipPath id="clipPath">
      <path fill="#fff" stroke="#31323d" stroke-width="10" stroke-miterlimit="10" d="M1726.5 987.4c-39.8-16.4-84.3-7-115.1 23a129.7 129.7 0 1 0 219.2 109.9q.2-1.6.4-3.3c4.7-43.6-24-89.2-62.8-109.6-14.4-7.5-28.3-14.5-41.7-20z" stroke-linecap="round"/>
    </clipPath>
    <clipPath id="clipPath2">
      <path fill="#fff" stroke="#31323d" stroke-width="10" stroke-miterlimit="10" d="M1144.1 1008.8c39.8-16.4 84.3-7 115.1 23a129.7 129.7 0 1 1-219.2 109.9q-.2-1.6-.4-3.3c-4.7-43.6 24-89.2 62.8-109.6 14.4-7.6 28.3-14.5 41.7-20z" stroke-linecap="round"/>
    </clipPath>
    <path fill="none" d="M3000 3010L0 3000V0l3000 10v3000"/>
    <path fill="#fff" d="M1726.5 987.4c-39.8-16.4-84.3-7-115.1 23a129.7 129.7 0 1 0 219.2 109.9q.2-1.6.4-3.3c4.7-43.6-24-89.2-62.8-109.6-14.4-7.5-28.3-14.5-41.7-20z"/>
    <g clip-path="url(#clipPath)">
      <circle cx="1659.9" cy="1107.7" r="87.6" fill="#43edac" transform="rotate(-7.5 1667.75 1112.17)"/>
      <circle cx="1659.9" cy="1107.7" r="64.7" fill="#31323d" transform="rotate(-7.5 1667.75 1112.17)"/>
      <circle cx="1685.6" cy="1053.6" r="35.2" fill="#fff" transform="rotate(-7.5 1693.52 1057.94)"/>
    </g>
    <path fill="none" stroke="#31323d" stroke-width="10" stroke-miterlimit="10" d="M1726.5 987.4c-39.8-16.4-84.3-7-115.1 23a129.7 129.7 0 1 0 219.2 109.9q.2-1.6.4-3.3c4.7-43.6-24-89.2-62.8-109.6-14.4-7.5-28.3-14.5-41.7-20z" stroke-linecap="round"/>
    <path fill="#fff" d="M1144.1 1008.8c39.8-16.4 84.3-7 115.1 23a129.7 129.7 0 1 1-219.2 109.9q-.2-1.6-.4-3.3c-4.7-43.6 24-89.2 62.8-109.6 14.4-7.6 28.3-14.5 41.7-20z"/>
    <g clip-path="url(#clipPath2)">
      <circle cx="1217.2" cy="1128.4" r="87.6" fill="#43edac" transform="rotate(-7.5 1222.81 1132.81)"/>
      <circle cx="1217.2" cy="1128.4" r="64.7" fill="#31323d" transform="rotate(-7.5 1222.81 1132.81)"/>
      <circle cx="1242.8" cy="1074.3" r="35.2" fill="#fff" transform="rotate(-7.5 1248.58 1078.57)"/>
    </g>
    <path fill="none" stroke="#31323d" stroke-width="10" stroke-miterlimit="10" d="M1144.1 1008.8c39.8-16.4 84.3-7 115.1 23a129.7 129.7 0 1 1-219.2 109.9q-.2-1.6-.4-3.3c-4.7-43.6 24-89.2 62.8-109.6 14.4-7.6 28.3-14.5 41.7-20z" stroke-linecap="round"/>
    <path fill="#31323d" d="M1830.7 1114s22-73.4 15.8-111.2c0 0-19.9 18.7-36.4 17.5l6.5-23.7-52.4 12.1s63.1 35.7 66.5 105.3zm-793.2 28.6s-26.7-71.9-22.9-109.9c0 0 21 17.4 37.5 15.1l-8-23.2 53 8.8s-60.7 39.5-59.6 109.2z"/>
  </g>
</svg>