<?xml version="1.0" encoding="utf-8"?>
<svg viewBox="0 0 3000 3000" xmlns="http://www.w3.org/2000/svg">
  <g id="tailFur">
    <g id="tailShadow">
      <defs>
        <clipPath id="tailShadowClipPath">
          <path fill="none" d="M1942.6 1959.2c69 30 162.4 39.9 162.4 39.9s347.1 45 398.6-246c19.5-161.9-177.1-195.4-177.1-195.4s91.8-36.7 124.7-7c0 0-18.5-30.3-46.3-32.7 0 0 118.2-79.9 213.3 102.6 0 0-12.3-93-50.5-111.6 0 0 142.5 32.6 167.6 241.5 0 0 26.3-41.6 23.4-76.4 0 0 67.9 99.8-7.3 214.7 0 0 58.9-56.3 63.7-86.5 0 0 73.9 212.1-151.5 244.1 0 0 61.2 22.9 101.8 3.3 0 0-39.1 85.3-165.9 74.3 0 0 61.7 42.1 99.3 33.5 0 0-93.2 47.7-251.3 13.2 0 0 53.6 49.5 93.2 50.5l-10.5 2.6a635.5 635.5 0 0 1-345.6-16.1l-151-50.4-90.9-37.1v-161z"/>
        </clipPath>
        <linearGradient id="tailShadowGradient" x1="2504.56" x2="2504.56" y1="1680.75" y2="1448.67" gradientUnits="userSpaceOnUse">
          <stop offset="0" stop-color="#fff" stop-opacity="0"/>
          <stop offset="0.72" stop-color="#fff"/>
        </linearGradient>
        <linearGradient id="tailShadowGradient3" x1="2662.04" x2="2662.04" y1="1826.32" y2="1468.7" gradientUnits="userSpaceOnUse">
          <stop offset="0" stop-color="#fff" stop-opacity="0"/>
          <stop offset="0.72" stop-color="#fff"/>
        </linearGradient>
        <linearGradient id="tailShadowGradient4" x1="2751.27" x2="2751.27" y1="1935.67" y2="1592.06" gradientUnits="userSpaceOnUse">
          <stop offset="0" stop-color="#fff" stop-opacity="0"/>
          <stop offset="0.72" stop-color="#fff"/>
        </linearGradient>
      </defs>
      <g style="isolation:isolate">
        <path fill="none" d="M3000 3010L0 3000V0l3000 10v3000"/>
        <path fill="none" d="M3000 3010L0 3000V0l3000 10v3000"/>
        <g clip-path="url(#tailShadowClipPath)" data-name="TAIL 02">
          <path fill="url(#tailShadowGradient)" d="M2413.6 1500.9c82.9 31.3 151.8 98 185.8 179.8 7.6-39.8 7.4-81.7-5-120.3s-37.8-73.7-73-93.9-80.2-24.3-116.8-6.8" opacity=".5" style="mix-blend-mode:overlay"/>
          <path fill="url(#tailShadowGradient3)" d="M2581.6 1513.1c86.1 76.2 125.5 201.4 98.7 313.2 49.5-46 69.9-118.6 59.7-185.4s-48.5-127.4-99.1-172.2" opacity=".5" style="mix-blend-mode:overlay"/>
          <path fill="url(#tailShadowGradient4)" d="M2756.9 1685.6c7.8 87.6-16 177.7-66 250.1 63.9-20.6 108-84 118-150.4s-9.7-134.4-41.9-193.3" opacity=".5" style="mix-blend-mode:overlay"/>
        </g>
      </g>
    </g>
  </g>
  <g id="tail"/>
  <g id="mouth">
    <path fill="#595959" d="M1312.1 1453.9c-10.4-1.1-43.9 35.2-29.5 66.8 2.3 5 7.2 5.9 10.9 2 11-11.4 21.7-12.8 21.7-12.8-8.1.4-32.4 53.6 22.4 96.8a6.7 6.7 0 0 0 10.6-3.5 80.1 80.1 0 0 1 6.7-15.9 1.6 1.6 0 0 1 2.9 1c-2.7 16.4-2.5 50.4 38.9 69.2 26.7 12.1 24 45 18.8 66.6a6.7 6.7 0 0 0 10.7 6.8c40.3-32.3 136.4-117 107.4-170.5 0 0 26.6 16.3 36 42.1a7.8 7.8 0 0 0 14.2 1.1c16.2-30.4 41.1-92.5 7.3-140.6" opacity=".2"/>
    <path fill="#d1dadf" d="M1310.1 1442.9s-18.7 17.7-10.7 47.6c13.5-24.7 42-27.5 42-27.5s-43.9 66.7.9 112c-4.2-25.7 28-44.8 28-44.8s-13.4 65.6 42.5 91c41.1 18.7 15.9 74.2 15.9 74.2s148.4-101.7 112-168.9c0 0 45.7 11.7 44.3 48.5 0 0 59.7-79.8 13.1-146"/>
    <path fill="#31323d" d="M1446.1 1257.7l.5 2.8c.3 1.8.8 4.5 1.4 7.9s1.4 7.3 2.4 12 2.2 9.8 3.7 15.4c.8 2.8 1.5 5.7 2.4 8.7l1.3 4.6 1.5 4.7c1 3.2 2.2 6.4 3.3 9.6s2.5 6.6 4 9.9a177.2 177.2 0 0 0 9.9 19.8 125.6 125.6 0 0 0 13.1 18.5 89.5 89.5 0 0 0 16.6 15.1 80 80 0 0 0 9.4 5.6 72 72 0 0 0 30.1 7.4 78.7 78.7 0 0 0 9.6-.3 85.7 85.7 0 0 0 8.9-1.2 103.1 103.1 0 0 0 15.3-4.1 112.2 112.2 0 0 0 11.3-4.7c3.1-1.5 5.4-2.8 7-3.7l1.8-1.1.6-.4h.1a1.5 1.5 0 0 1 1.7 2.5l-.6.4-1.8 1.2c-1.6 1-3.9 2.5-7 4.1a116 116 0 0 1-11.5 5.4 107.6 107.6 0 0 1-15.7 5 90.8 90.8 0 0 1-9.3 1.7 84.3 84.3 0 0 1-10.2.8 81.8 81.8 0 0 1-10.8-.5 76.7 76.7 0 0 1-22.3-6 87.6 87.6 0 0 1-10.7-5.7 98 98 0 0 1-18.9-15.7 135.2 135.2 0 0 1-15-19.2 187.8 187.8 0 0 1-11.5-20.5c-1.7-3.4-3.2-6.8-4.6-10.2s-2.8-6.7-4-9.9l-1.8-4.8-1.6-4.7c-1.1-3.1-2-6.1-2.9-8.9-1.8-5.8-3.3-11.1-4.6-15.8s-2.2-8.9-3.1-12.3-1.4-6-1.8-7.8l-.6-2.8a7.5 7.5 0 1 1 14.6-3.3v.4z"/>
    <path fill="#31323d" d="M1305.1 1386.2l2.3 1.2c1.6.8 3.9 1.9 6.9 3a100.5 100.5 0 0 0 11.1 3.7 89.6 89.6 0 0 0 14.9 2.7 82.2 82.2 0 0 0 8.6.3 72 72 0 0 0 9.1-.8 61 61 0 0 0 18.4-5.9 64.9 64.9 0 0 0 8.7-5.4 73.1 73.1 0 0 0 7.9-6.9 90.1 90.1 0 0 0 13-17.1 133.4 133.4 0 0 0 9.4-19.6 184.3 184.3 0 0 0 6.5-20.2c1.7-6.7 3.2-13.2 4.3-19.5s2-12.2 2.7-17.8c.3-2.8.6-5.4.9-8s.5-4.9.7-7.2.4-4.4.5-6.3l.4-5.4.5-10.2a7.5 7.5 0 1 1 15 .8v.4l-1.1 10.5-.7 5.5c-.2 2-.5 4.2-.8 6.5s-.6 4.8-1.1 7.4-.8 5.3-1.3 8.2c-1 5.7-2.2 11.8-3.7 18.3s-3.3 13.2-5.5 20.2a194.9 194.9 0 0 1-7.9 21 142.9 142.9 0 0 1-11.1 20.5 98.5 98.5 0 0 1-15.2 18 80.7 80.7 0 0 1-9.1 7.2 71.9 71.9 0 0 1-9.9 5.5 67.3 67.3 0 0 1-20.6 5.5 77.5 77.5 0 0 1-9.8.4 87.4 87.4 0 0 1-9.1-.8 94.1 94.1 0 0 1-15.4-3.6 104.4 104.4 0 0 1-11.3-4.4c-3.1-1.4-5.4-2.6-7-3.5l-2.4-1.4a1.5 1.5 0 0 1 1.2-2.8z"/>
    <path fill="#31323d" d="M1373.2 1225.4a15 15 0 0 1 3.6-15.9c9-8.8 28.2-21.6 63.8-21.8s52.5 12.2 60.5 21a14.9 14.9 0 0 1 2.5 16.1 20.8 20.8 0 0 1-18.3 12.3c-10 .3-23.9 3.3-32.7 15.8a13.2 13.2 0 0 1-1.9 2.2l-.3.3a17.7 17.7 0 0 1-25.3-1.5s-7.3-12.5-34.1-14.6a20.7 20.7 0 0 1-17.7-13.5v-.3zm139.1 81.3l4-.8 11.4-2.1c9.9-1.7 24-3.8 41-5.4a545.1 545.1 0 0 1 58.3-2.4c10.7.1 21.7.6 32.9 1.5s22.5 2.3 33.7 4.2 22.4 4.2 33.2 7.1a301.2 301.2 0 0 1 31.3 10.2 260 260 0 0 1 27.9 12.9 220.6 220.6 0 0 1 23.4 14.5 202.8 202.8 0 0 1 18.1 14.5l3.7 3.4 3.3 3.2 3 3 2.7 2.9c1.7 1.8 3.1 3.5 4.4 4.9l3.1 3.7 2.6 3.2-2.7-3.1-3.2-3.6c-1.3-1.4-2.8-3.1-4.5-4.8l-2.7-2.8-3.1-3-3.4-3.1-3.8-3.3a201.5 201.5 0 0 0-18.4-13.9 218.6 218.6 0 0 0-23.5-13.8 257.3 257.3 0 0 0-27.9-12 297.5 297.5 0 0 0-31.2-9.2c-10.8-2.6-21.8-4.6-33-6.1s-22.3-2.6-33.4-3.2-21.9-.8-32.5-.6a537.5 537.5 0 0 0-57.4 4c-16.7 2-30.5 4.5-40.1 6.4l-11.1 2.4-3.9.9a5 5 0 1 1-2.3-9.7h.1zm172.9-49.3l-6.6.3-7.6.4-9.9.7-11.7 1-13 1.5c-4.5.6-9.1 1.2-13.8 2l-7.1 1.1-7.1 1.3-7.1 1.4-7 1.4-6.9 1.5-6.7 1.6-6.4 1.6-6.1 1.6-11.2 3.1-9.4 2.8-7.2 2.3-6.2 2.1h-.1a5 5 0 1 1-3.2-9.5h.3l6.5-1.7 7.5-1.9 9.7-2.3 11.6-2.5 6.3-1.2 6.6-1.2 6.9-1.2 7-1.1 7.2-1 7.2-.9 7.2-.8 7.2-.7c4.8-.5 9.5-.7 14-1.1l13.1-.6 11.7-.3h17.6zm-159 72.4l7.7-1.2 4.3-.4 5.1-.4c3.6 0 7.7-.2 12.1.3l3.4.2 3.5.5 3.6.5 3.7.7 3.8.7 3.8.9 3.9 1 3.9 1.2 3.9 1.3 3.9 1.5 3.9 1.6 3.9 1.7 2 .9 1.9 1 3.9 1.9 7.6 4.2c4.9 3 9.8 6 14.4 9.3s9 6.7 13.1 10.1 8 6.9 11.6 10.2 6.8 6.7 9.8 9.7 5.6 6 7.8 8.6 4.2 4.9 5.8 6.9c3.1 3.9 4.8 6.2 4.8 6.2s-1.8-2.2-5.1-5.9c-1.7-1.8-3.7-4.1-6.1-6.5s-5.2-5.2-8.3-8.1-6.5-6-10.2-9.1-7.7-6.3-12-9.5-8.7-6.3-13.4-9.2-9.6-5.7-14.5-8.3l-7.6-3.6-3.8-1.7-1.9-.8-1.9-.7-3.8-1.4-3.8-1.3-3.8-1.2-3.8-1-3.7-1-3.7-.8-3.6-.7-3.6-.5-3.5-.4-3.4-.3-3.3-.3h-3.1c-4.1-.2-7.8.2-11.2.4l-4.5.6-3.8.5-7.6 1.6a5 5 0 0 1-2-9.8h.3zm-152.6-6.2l-15.5-3c-9.8-1.9-23.8-4.7-40.7-7.4-8.4-1.4-17.6-2.7-27.3-4s-20-2.3-30.6-3.2-21.6-1.4-32.8-1.6-22.6.1-33.9.8a334.9 334.9 0 0 0-33.7 3.9c-5.5.9-11 2-16.3 3.2s-10.6 2.6-15.7 4.2a200.5 200.5 0 0 0-52.8 24.1 165 165 0 0 0-18.6 14.1c-1.3 1.1-2.5 2.3-3.7 3.4l-3.4 3.2-3.1 3.1-2.7 2.9c-1.7 1.8-3.1 3.5-4.4 5l-1.7 2.1-1.4 1.8-2.5 3.2 2.5-3.3 1.3-1.8 1.7-2.1c1.2-1.5 2.6-3.3 4.3-5.1l2.6-3 3-3.2 3.3-3.4c1.2-1.1 2.3-2.4 3.7-3.5a166.3 166.3 0 0 1 18.3-14.7 202.9 202.9 0 0 1 52.8-25.9c5.1-1.7 10.4-3.2 15.8-4.6s10.9-2.7 16.4-3.7a339.4 339.4 0 0 1 34-4.9c11.5-1.1 23-1.6 34.3-1.8s22.5.1 33.3.7 21.2 1.4 31 2.4 19.1 2.1 27.7 3.3c17.1 2.3 31.2 4.7 41.1 6.4l15.5 2.6a5 5 0 1 1-1.7 9.9h-.1zm-179.3-50.7l6.9-.6 7.9-.6 10.3-.6 12.2-.4h28.2l7.5.3 7.6.5 7.6.6 7.5.6 7.4.7 7.2.8 3.5.4 3.4.5 6.6.9 12.1 2 10.2 1.9 7.8 1.6 6.8 1.5a5 5 0 1 1-2.1 9.8h-.4l-6.6-1.9-7.6-2-9.9-2.5-11.8-2.7-6.5-1.3-3.3-.7-3.4-.6-7-1.3-7.2-1.2-7.4-1.1-7.4-1-7.4-.9-7.4-.8-3.7-.4-3.6-.3-7.1-.6-13.5-.8-12.2-.4h-25.1zm166.6 74.5l-7.6-1.9-3.8-.6-2.1-.3-1.1-.2h-1.3l-5.3-.4h-9l-3.3.3c-2.2.1-4.5.6-6.8.9s-4.7 1-7.1 1.5l-1.8.4-1.8.5-3.7 1.1-3.7 1.3-3.8 1.4-7.5 3.2a163 163 0 0 0-14.8 7.9l-3.6 2.2-3.5 2.3c-2.4 1.5-4.6 3.2-6.9 4.8l-6.6 5c-2.1 1.7-4.3 3.4-6.3 5.1l-3 2.6-2.9 2.6-5.5 5.1-5.1 5-4.7 4.8c-3 3.1-5.6 6-7.9 8.6l-5.8 6.9c-3.2 3.9-4.9 6.2-4.9 6.2s1.6-2.4 4.5-6.4c1.5-2 3.3-4.5 5.5-7.2s4.6-5.8 7.4-9.1l4.4-5.1 4.9-5.3 5.3-5.4 2.8-2.8 2.9-2.8c1.9-1.9 4-3.7 6.1-5.5l6.4-5.4c2.2-1.7 4.4-3.6 6.8-5.3l3.5-2.6 3.6-2.5a168.5 168.5 0 0 1 14.8-9l7.7-3.8 3.9-1.7 3.9-1.6 3.9-1.4 1.9-.7 1.9-.6c2.6-.7 5-1.6 7.5-2s4.9-1.2 7.3-1.4l3.5-.5 1.7-.2h1.7l6.4-.4h8.5l2.5.3 4.5.5 7.7 1.4a5 5 0 0 1-1.8 9.8h-.3zm-49.4 96.9l-1.8 2.3-1.7 2.5-1.5 2.6c-.4.9-.9 1.8-1.3 2.7s-.8 1.8-1.1 2.8-.7 1.9-.9 2.8l-.7 2.9-.5 2.9a26.6 26.6 0 0 0-.3 2.9 23.6 23.6 0 0 0-.2 2.9v2.9c0 1 .2 2 .3 2.9a20.9 20.9 0 0 0 .4 2.9l.5 2.9v.7l.2.7.4 1.4.8 2.8-9.2-1.1 1.9-3.1.9-1.5 1.1-1.4 2.2-2.8 2.4-2.6 1.2-1.3 1.3-1.2 2.7-2.4 2.8-2.1c.9-.7 2-1.3 2.9-2l1.5-1 1.5-.9 3.1-1.6 3.2-1.5 3.3-1.3 3.3-1.1 3.4-.9 3.4-.8 1.8-.3h1.9a5 5 0 0 1 4.7 7.7l-1.8 3-1.8 3.2q-1.7 3.2-3.3 6.5l-1.5 3.3-1.4 3.4-1.3 3.4-1.2 3.4-1.1 3.5-1 3.5c-.6 2.3-1.2 4.7-1.7 7s-.5 2.4-.7 3.5-.4 2.4-.6 3.6-.5 4.8-.7 7.1v7.2s.1 2.4.2 3.5.1 2.4.3 3.5.3 2.3.5 3.5l.7 3.4c.2 1.2.6 2.3.9 3.4l.5 1.7.6 1.6c.4 1.1.7 2.2 1.2 3.3l1.4 3.2c.5 1.1 1.1 2 1.7 3.1l.8 1.5 1 1.5 1.9 2.9 2.2 2.8 1.1 1.4 1.2 1.3 2.4 2.6-8.5 4.3a37.5 37.5 0 0 1-.4-4.1 35.9 35.9 0 0 1 .1-4.1 37.9 37.9 0 0 1 .6-4 38.7 38.7 0 0 1 1-3.9c.4-1.3.9-2.5 1.4-3.7l.8-1.8.9-1.7.9-1.7 1-1.6 2.2-3.2 2.3-3 2.5-2.8 2.6-2.7 2.7-2.5q2.7-2.5 5.7-4.7l3-2.2 1.5-1 1.7-1.1a5 5 0 0 1 7.5 5.2l-.2 1.3-.2 1.4c-.1.9-.2 1.9-.3 2.8s-.3 3.8-.4 5.7a104.1 104.1 0 0 0 .1 11.5 100.5 100.5 0 0 0 1.4 11.4 89.9 89.9 0 0 0 2.8 11 77.9 77.9 0 0 0 4.4 10.4c.9 1.6 1.8 3.3 2.8 4.9s1 1.6 1.5 2.3l1.6 2.3c.5.8 1.2 1.5 1.8 2.2s1.2 1.5 1.8 2.1 2.5 2.7 4 3.9l2.1 1.9 2.2 1.7c1.4 1.2 3 2.2 4.6 3.3l2.4 1.5 2.4 1.4 5.3 2.6a54.2 54.2 0 0 1 5.6 3.1l1.5.9 1.4 1c.9.7 1.8 1.3 2.7 2.1a39.8 39.8 0 0 1 8.7 10.6 45.5 45.5 0 0 1 4.8 12.6 59.8 59.8 0 0 1 1.4 13.1 81.2 81.2 0 0 1-1 12.8 105.4 105.4 0 0 1-2.8 12.4c-.6 2-1.2 4-1.9 6l-1.1 3-1.3 3.1-7.4-6.2c3.6-2.5 7.2-5.2 10.8-7.8l10.6-8.2q10.5-8.3 20.6-17.2a395.3 395.3 0 0 0 38-37.6 235.1 235.1 0 0 0 16.3-20.9q3.7-5.4 7-11.1a114 114 0 0 0 5.8-11.6c3.4-7.9 5.8-16.2 6.3-24.4a46 46 0 0 0-.9-12.2 42.3 42.3 0 0 0-4.2-11.3 5 5 0 0 1 5.7-7.2l2.4.7 2.2.7 4.4 1.7 4.3 1.9 4.2 2.1 4.1 2.4 4 2.6 1.9 1.4 1.9 1.5 3.6 3.2c1.2 1.1 2.3 2.3 3.4 3.5l.8.9.8 1 1.5 1.9 1.4 2 1.3 2.1c.4.7.8 1.5 1.2 2.2a23.6 23.6 0 0 1 1.1 2.3l1 2.3.8 2.4c.3.8.4 1.6.6 2.4a22.4 22.4 0 0 1 .5 2.5l.4 2.5.2 2.5v5l-9-3.2 2.7-3.7 2.6-3.9c1.7-2.7 3.4-5.4 4.9-8.1s3.1-5.6 4.5-8.4 2.8-5.7 4.1-8.6l1.9-4.4 1.8-4.4 1.6-4.5 1.5-4.5c.5-1.5.9-3 1.3-4.6s.8-3.1 1.2-4.6.8-3.1 1-4.6.7-3.1.9-4.7l.7-4.7.5-4.7c.2-1.6.2-3.2.3-4.7v-4.8s0-3.2-.1-4.7l-.3-4.7c-.1-1.6-.4-3.1-.6-4.7l-.3-2.4-.5-2.3-.5-2.3a23.6 23.6 0 0 0-.5-2.3l-1.2-4.6c-.4-1.5-1-3-1.5-4.5l-.8-2.2c-.3-.7-.6-1.5-.9-2.2l-1.9-4.4-2.2-4.2-1.1-2.1-1.3-2-2.5-4.1h-.1a2 2 0 0 1 3.3-2.2l2.8 4.1 1.4 2.1 1.3 2.2 2.5 4.3 2.2 4.5 1.1 2.3.9 2.3c.6 1.6 1.3 3.1 1.8 4.7l1.5 4.8c.3.8.5 1.6.6 2.4l.6 2.4.6 2.4.4 2.5c.3 1.7.6 3.3.8 5l.5 5c.2 1.7.2 3.3.3 5s.1 1.7.1 2.5v2.5c0 1.7 0 3.4-.1 5l-.3 5-.6 5c-.2 1.7-.5 3.3-.7 5s-.6 3.3-.9 4.9-.6 3.3-1.1 4.9-.8 3.3-1.2 4.9l-1.4 4.8-1.5 4.8-1.7 4.7c-.6 1.6-1.2 3.1-1.8 4.7q-1.9 4.6-3.9 9.2t-4.4 9c-1.6 2.9-3.2 5.9-4.9 8.8l-2.6 4.3c-.9 1.4-1.8 2.8-2.9 4.3a5 5 0 0 1-9-2.7v-4.4l-.2-1.9-.3-1.9a15.2 15.2 0 0 0-.4-1.9c-.2-.6-.3-1.3-.5-1.9l-.6-1.8-.7-1.8a16.1 16.1 0 0 0-.8-1.7c-.3-.6-.6-1.2-.9-1.7l-1-1.7-1.1-1.6-1.2-1.6-.6-.8-.7-.7c-.9-1-1.8-1.9-2.8-2.9l-3.1-2.7-1.6-1.3-1.7-1.2-3.4-2.3-3.6-2.1-3.7-1.9-3.8-1.7-3.9-1.5-2-.7-1.9-.5 5.6-7.2a52.3 52.3 0 0 1 5.2 14 56 56 0 0 1 1.1 14.8c-.6 9.8-3.4 19.2-7.1 27.8a123.8 123.8 0 0 1-6.3 12.6q-3.5 6.1-7.4 11.8a245 245 0 0 1-17 21.8 405.1 405.1 0 0 1-38.9 38.6q-10.3 9-21 17.5l-10.8 8.3c-3.7 2.7-7.3 5.4-11.1 8.1a5 5 0 0 1-7.4-6.1l1-2.5 1-2.7c.6-1.8 1.2-3.6 1.7-5.5a95.4 95.4 0 0 0 2.5-11.2 59.4 59.4 0 0 0-.2-22.1 35.5 35.5 0 0 0-3.7-9.8 29.8 29.8 0 0 0-6.6-8c-.6-.6-1.4-1.1-2.1-1.6l-1-.8-1.1-.7-1.1-.7-.6-.3-.7-.3-2.7-1.4-2.7-1.3-2.9-1.4-2.8-1.6-2.7-1.7c-1.8-1.2-3.6-2.3-5.3-3.7l-2.5-2-2.4-2.2c-1.6-1.4-3.1-3-4.6-4.6s-1.4-1.6-2.1-2.5-1.4-1.6-2-2.5l-1.9-2.6-1.8-2.7s-2.2-3.7-3.2-5.6a87.9 87.9 0 0 1-5-11.8 99.9 99.9 0 0 1-3.2-12.3 110.4 110.4 0 0 1-1.5-12.6 114.1 114.1 0 0 1-.1-12.6c.1-2.1.3-4.2.5-6.3s.2-2.1.4-3.2l.2-1.6.3-1.7 7.5 5.3-1.3.8-1.3.9-2.6 1.9c-1.7 1.3-3.4 2.7-5.1 4.2l-2.4 2.2-2.3 2.3-2.1 2.4-1.9 2.5-1.8 2.6-.8 1.3-.7 1.4-.7 1.4-.6 1.4c-.4.9-.7 1.9-1 2.8a28.7 28.7 0 0 0-.7 2.9 27.8 27.8 0 0 0-.4 2.9 26 26 0 0 0 0 2.9 27.7 27.7 0 0 0 .3 2.9v.5a4.9 4.9 0 0 1-8.5 3.8l-2.7-3-1.4-1.5-1.3-1.6-2.5-3.2-2.2-3.4-1.1-1.7-1-1.8c-.6-1.2-1.4-2.4-1.9-3.6l-1.7-3.7c-.6-1.2-1-2.5-1.4-3.8l-.7-1.9-.6-2c-.3-1.3-.8-2.6-1-3.9l-.8-4c-.2-1.3-.4-2.7-.6-4s-.3-2.7-.4-4-.2-2.7-.2-4-.1-2.7 0-4v-4c.2-2.6.4-5.3.8-7.9l.6-3.9s.5-2.6.8-3.9 1.2-5.1 1.9-7.7l1.1-3.8 1.2-3.7 1.3-3.7 1.4-3.6 1.5-3.6 1.6-3.6q1.7-3.5 3.5-7l1.9-3.4 2.1-3.5 4.7 7.7h-1.3l-1.4.3-2.9.7-2.9.8-2.8 1-2.8 1.1-2.7 1.2-2.6 1.4-1.3.7-1.2.8c-.8.6-1.7 1-2.5 1.6l-2.4 1.8-2.2 1.9-1.1 1-1 1.1-2 2.2-1.8 2.3-.9 1.2-.8 1.2-1.5 2.5-.6.9a4.8 4.8 0 0 1-8.6-2l-.6-3.4-.3-1.7v-1.7l-.2-3.4a27 27 0 0 1 0-3.4c0-1.1 0-2.3.1-3.4l.4-3.4a29.6 29.6 0 0 1 .6-3.4 32.6 32.6 0 0 1 .8-3.3l1-3.3 1.2-3.2c.4-1 .9-2.1 1.4-3.1s1.1-2 1.6-3 1.2-1.9 1.8-2.9l2-2.7 2.2-2.6 2.4-2.4a2 2 0 0 1 2.9 2.8h-.1z"/>
  </g>
</svg>