<?xml version="1.0" encoding="utf-8"?>
<svg viewBox="0 0 3000 3000" xmlns="http://www.w3.org/2000/svg">
  <g id="highlight">
    <defs>
      <clipPath id="highlightClipPath">
        <path fill="none" d="M2200.5 2195.7c-43-29.4-132.4-61.7-179.8-75.5l-.8-.3a248.1 248.1 0 0 0 6.4-155.9l-134.5-437.7a121.2 121.2 0 0 0 41.2-22.3c-16.2 7.6-39.1-8.1-54.9-21.9l-2.2-7.2c54.7 26.7 104.5-45.6 104.5-45.6-45.4 5.5-101.9-31.2-136.4-58.1l-3.7-12.1c36.3 6.8 73.8-24.6 73.8-24.6-43.1 1.4-93.7-74.1-115-109.3l-68-221.2a240.5 240.5 0 0 0-47.2-89.2l73.3-118.6c-32.4-31.9-120.8 34.6-150.3 57.8a240.4 240.4 0 0 0-57.8-20.2 371.4 371.4 0 0 1 21.9-38.3c5.1-7.8-2.2-17.9-11.2-15.5-26.7 7.1-55.7 28.1-64.7 34.9a1.2 1.2 0 0 1-1.9-1.3c4.1-16.7 21-88.9 7.5-95.5s-36.2 52.6-44.6 74.7a1.2 1.2 0 0 1-2.4-.5c1.7-24.4 4.8-91.4-13-88-19.7 3.7-56.1 87.7-63.1 104.1a1.2 1.2 0 0 1-2.3 0c-4.7-11.7-22.9-55.7-29.2-40.3s.6 43.3 3.4 54.3a1.2 1.2 0 0 1-2 1.2c-19-17-51.5-17.4-73.9-15.2a10.2 10.2 0 0 0-6.3 17.4 106.3 106.3 0 0 1 9.7 11.3 240.3 240.3 0 0 0-65.7 29.2l-5.2-3.5c-44.5-36.6-115.4-83.9-135.6-33.6l64.5 115.2a240.3 240.3 0 0 0-33 93.8l-38.8 204c-17.3 35.5-58.5 110.3-101.2 114.7 0 0 41.5 26.2 76.6 14.4l-2.4 12.7c-30.6 31.2-81.6 75-127.2 75.7 0 0 56.6 62.3 106.5 33.2l-1.8 9.7c-13.6 14.7-32 29.7-47.6 24.8a121.7 121.7 0 0 0 39.9 15.9l-86.8 456.2a248.9 248.9 0 0 0 12.6 117.6l-.6.2c-38.1 9.1-130.4 43.4-184.5 78.3-26.5 17.1-10.1 55.9 23.2 55.3l266.9-5.2q6.8 4.2 13.9 7.9v3.3c.4 23.3-6.7 42.4-29.9 43.6-15.6.8-28.2 9.9-30.6 21.1-4.7 21.5 5.8 38.9 27.2 40.4l84.3 5c26.4 1.6 51.9-11.3 65.3-34.1a71.4 71.4 0 0 0 8.8-23.9l5-26.6h533.6l3.5 20.7a71.6 71.6 0 0 0 43.1 54.3 53.5 53.5 0 0 0 22.3 4l91.8-3c22-2.2 30.1-15.7 27.9-36.9-.7-6.9-6.2-24.5-24.5-25.5-15.8-.9-25.2-8.6-28.1-21.9a246.8 246.8 0 0 0 65.3-28l261.6 5c33.3.5 49.3-37.6 23.2-55.4z" data-name="&lt;Clipping Path&gt;"/>
      </clipPath>
    </defs>
    <g style="isolation:isolate">
      <g clip-path="url(#highlightClipPath)" opacity=".2" style="mix-blend-mode:overlay">
        <path fill="#fff" d="M1547.8 836.6s59 33.5 81 64.8 44.1 86.3 65.6 181c58.9 258.7 229.4 683.2 275.5 888s-81.2 286-81.2 286l61.1-35.5s63-74.8 72.5-107.6c20.8-71.9 139-33 117.2-147.7-31.7-166.5-305.7-970.5-305.7-970.5s-123.4-29.9-151.2-79.3c-20.7-36.8-73.2-64.7-124.1-79.9z"/>
      </g>
    </g>
  </g>
  <g id="mouth" style="isolation:isolate">
    <path fill="#31323d" d="M1448.8 1255.7v1.5c.1 1 .3 2.5.7 4.5a145.5 145.5 0 0 0 3.6 16.1 119.1 119.1 0 0 0 8.4 21.7 83.9 83.9 0 0 0 6.7 11 62.4 62.4 0 0 0 8.8 9.8 49.7 49.7 0 0 0 10.8 7.4 48 48 0 0 0 12 4.1 54 54 0 0 0 12.1 1 72.5 72.5 0 0 0 11-1.2l2.5-.5 2.4-.6 4.4-1.2 7-2.4 4.4-1.7 1.6-.6h.1a1.8 1.8 0 0 1 1.5 3.2l-1.6.8-4.4 2.1-7.1 3-4.5 1.6-2.5.8-2.6.7a78.2 78.2 0 0 1-11.8 2.2 60.6 60.6 0 0 1-13.6-.1 55.7 55.7 0 0 1-14.3-3.7 58.5 58.5 0 0 1-13.3-7.7 72.2 72.2 0 0 1-11-10.5 94.7 94.7 0 0 1-8.5-11.9 131.2 131.2 0 0 1-11-23.1 159.3 159.3 0 0 1-5.3-17.3c-.5-2.1-.9-3.8-1.1-5l-.3-1.4v-.5a7.5 7.5 0 0 1 14.8-2.5v.6z"/>
    <path fill="#31323d" d="M1338.3 1337.6h6.8c2.2 0 4.8-.1 7.9-.3l4.8-.4 2.6-.3 2.7-.4a111.1 111.1 0 0 0 11.7-2.3 100.7 100.7 0 0 0 12.5-4.2 77.6 77.6 0 0 0 12.3-6.4c2-1.2 3.8-2.7 5.8-4.1l2.7-2.3 1.3-1.2 1.2-1.2 2.5-2.5c.8-.9 1.5-1.8 2.3-2.7a58.8 58.8 0 0 0 4.1-5.6 26.1 26.1 0 0 0 1.8-2.9l1.7-2.9c1-2 1.9-4.1 2.9-6l2.2-6.1c.6-2 1.1-4.1 1.7-6a25 25 0 0 0 .7-2.9l.6-2.9.6-2.8.4-2.7.7-5.1c.2-1.6.2-3.2.3-4.7l.2-4.1c.1-1.3 0-2.4 0-3.5a17.9 17.9 0 0 1 .1-2.8 5.7 5.7 0 0 1 .9-2.1 6.5 6.5 0 0 1 1.1-1.3l.6-.5.3-.2a8.5 8.5 0 0 1 9.7.2l.5.5a6.2 6.2 0 0 1 1.1 1.4 6.3 6.3 0 0 1 .8 2.3 21.5 21.5 0 0 1-.1 3.1c-.1 1.2-.1 2.4-.2 3.8l-.5 4.5c-.2 1.6-.3 3.3-.6 5.1l-1 5.7-.6 3-.8 3.1-.8 3.2a31.2 31.2 0 0 1-1 3.3c-.8 2.2-1.5 4.5-2.4 6.7l-3.1 6.9c-1.2 2.2-2.4 4.6-3.8 6.8l-2.2 3.3a33.6 33.6 0 0 1-2.3 3.3 66.5 66.5 0 0 1-5.3 6.2c-1 1-1.9 2-2.9 2.9l-3.1 2.7-1.6 1.3-1.6 1.2-3.3 2.4c-2.3 1.4-4.5 2.9-6.9 4.1a80.6 80.6 0 0 1-14.2 5.9l-3.5 1-3.5.9c-2.3.6-4.6.9-6.8 1.3a117 117 0 0 1-12.6 1.2h-5.6l-5-.2c-3.1-.1-5.9-.4-8.1-.7l-5.2-.8-1.4-.3h-.4a1.2 1.2 0 0 1 .3-2.3z"/>
    <path fill="#31323d" d="M1372.7 1237.7a15 15 0 0 1 2.3-16.1c8.2-9.4 26.4-23.8 61.9-26.8s53.3 8 62 16.1a14.9 14.9 0 0 1 3.8 15.9 20.8 20.8 0 0 1-17.2 13.7c-10 1.1-23.6 5.2-31.4 18.4a13.2 13.2 0 0 1-1.7 2.3l-.3.3a17.7 17.7 0 0 1-25.3.6s-8.2-11.9-35.2-11.9a20.7 20.7 0 0 1-18.7-12.1zm147.4 200.7l-.4 1.8c-.1.6-.2 1.3-.5 2.2l-.9 3.1c-.4 1.1-.8 2.3-1.4 3.6s-1.2 2.7-2 4.2a56.1 56.1 0 0 1-6.1 9.3 63 63 0 0 1-9.3 9.4l-2.9 2.2-3 2.1c-2.1 1.3-4.3 2.6-6.6 3.8s-4.7 2.2-7.2 3.1l-3.8 1.3-3.9 1.1a77.5 77.5 0 0 1-16.2 2.3 81.8 81.8 0 0 1-16.2-1 83.6 83.6 0 0 1-15.1-4l-.9-.3-.4-.2h-.5l-1.6-.7-3.4-1.5c-2.3-1.1-4.3-2.2-6.3-3.4a76.6 76.6 0 0 1-10.6-7.5 75.2 75.2 0 0 1-7.8-7.6 71.2 71.2 0 0 1-5.1-6.6c-.7-.9-1.2-1.8-1.7-2.6l-1.2-2-.9-1.7a2.5 2.5 0 0 1 4-3h.1l1.3 1.2 3.6 3.3c1.5 1.4 3.6 3 5.9 4.8s5 3.6 8 5.4a91.1 91.1 0 0 0 10.1 5.2l2.8 1.2 2.9 1.1 3 1 1.7.5 1.5.4a85.9 85.9 0 0 0 13 2.6 81.6 81.6 0 0 0 13.6.5 80.5 80.5 0 0 0 13.4-1.8l3.2-.8 3.2-.9c2.1-.6 4.1-1.4 6.1-2.2s3.9-1.7 5.7-2.6l2.7-1.4 2.5-1.5a65.7 65.7 0 0 0 8.8-6.6 60.7 60.7 0 0 0 6.6-6.8 72.3 72.3 0 0 0 4.5-5.9l1.5-2.3c.4-.6.8-1.4 1.1-1.9l.9-1.6a2.5 2.5 0 0 1 4.2 1.7z"/>
    <path fill="#595959" d="M1387.6 1449.1s7.9 72.2 68.5 66.4c58.7-5.7 61.4-73.9 61.4-73.9s-19.4 31.4-57.4 34.1-72.5-26.6-72.5-26.6z" opacity=".2" style="mix-blend-mode:multiply"/>
    <path fill="#31323d" d="M832.2 1221l-.5.8-.4.9a10.8 10.8 0 0 0-.5 1.2 10.4 10.4 0 0 0-.3 3.8 10.2 10.2 0 0 0 1.8 4.8 9.5 9.5 0 0 0 2.2 2.2l.3.2h.3l.8.5.9.5.8.4a21.2 21.2 0 0 0 8.2 2 20.9 20.9 0 0 0 9.6-1.8l1.2-.6 1.2-.7a22.1 22.1 0 0 0 2.3-1.6 21.5 21.5 0 0 0 3.9-4.2l.4-.6h.1v.2l.2-.3.8-1.4a25.1 25.1 0 0 0 1.6-2.8l1.3-2.9 1.1-3.2a45.1 45.1 0 0 0 2.1-13.9 43.9 43.9 0 0 0-11.5-28.9c-.5-.5-.9-1.1-1.5-1.6l-1.6-1.4-1.6-1.4-1.8-1.3-1.8-1.3-2-1.2-2-1.2-2-1.1a86 86 0 0 0-37-10.7 84.5 84.5 0 0 0-20.7 1.3 86.4 86.4 0 0 0-48.1 26.1c-1.4 1.4-2.6 2.9-3.9 4.4l-1.8 2.3-1.8 2.4-1.7 2.4-.2.3-.2.3-.4.6-.8 1.3-3.2 5.2-2.9 5.3-1.5 2.7-1.4 2.8-2.2 5.2-2.5 5.7c-.9 1.9-1.5 3.9-2.3 5.8s-1.5 3.9-2.1 5.9l-1.9 6c-.6 2-1.1 4.1-1.6 6.1s-.6 2.1-.8 3.1l-.6 3.1-.7 3.1-.3 1.6-.3 1.6a173.9 173.9 0 0 0-1 52.3c.5 4.4 1.4 8.8 2.2 13.2l1.5 6.6c.2 1.1.5 2.2.9 3.3l.9 3.3a174.2 174.2 0 0 0 9.6 25.4 181.5 181.5 0 0 0 13.7 23.8l4 5.6 4.3 5.5 2.2 2.7 2.3 2.6 2.3 2.6 2.4 2.5c3.2 3.4 6.6 6.5 10 9.7l5.3 4.5c1.8 1.5 3.7 2.9 5.5 4.3l2.8 2.1 2.9 2 2.9 2 .7.5.3.2.4.2 1.5 1 12.2 7.7a409 409 0 0 0 50.8 26 314.3 314.3 0 0 0 54 17.5 245.4 245.4 0 0 0 55.6 6.1 225.6 225.6 0 0 0 54.2-6.9l3.3-.9 3.2-1 6.5-1.9 6.3-2.2 3.2-1.1 3.1-1.2 6.2-2.5c2-.8 4.1-1.7 6.1-2.7l6-2.8 3-1.4 2.9-1.6a270.9 270.9 0 0 0 43.1-28.5 334.8 334.8 0 0 0 36.2-34c5.4-6 10.8-12 15.7-18.2l7.6-9.3 1.9-2.3 1.9-2.3 4.1-4.7 2-2.3 2.1-2.2 4.1-4.4c2.7-2.9 5.6-5.6 8.3-8.4s5.6-5.4 8.5-7.9l4.3-3.8 4.3-3.7a325.6 325.6 0 0 1 34.9-25.6 313.3 313.3 0 0 1 34.3-18.8l8.3-3.8 8.1-3.4.5-.2h.6l1-.4 1.9-.7 3.8-1.4 7.9-2.8a225.6 225.6 0 0 1 28.9-7.7c18-3.5 33.2-3.5 43.7-2l3.7.5 3.2.6 2.8.5 2.3.6 4.1 1.1a15 15 0 1 1-7.8 29h-.5l-1-.3-2.7-.8-1.5-.5-1.9-.4-2.2-.5-2.6-.5a84.1 84.1 0 0 0-14.3-1.2 124.4 124.4 0 0 0-20.3 1.6 198.1 198.1 0 0 0-25.5 5.9l-7 2.2-3.8 1.3-1.9.7-1 .3-.8.3-7.5 2.8-7.7 3.2a287.2 287.2 0 0 0-65.2 38.8l-4.1 3.3-4.1 3.4-8.1 7.1-8 7.6-3.9 4-2 2-1.9 2-3.8 4.1-1.9 2.2-2 2.2-7.9 9.1c-5.4 6.3-11.2 12.4-17 18.6a354.3 354.3 0 0 1-39.4 34.8 289.7 289.7 0 0 1-46.8 29.1l-3.1 1.6-3.2 1.4-6.5 2.9c-2.1 1-4.4 1.8-6.6 2.7l-6.7 2.6-3.4 1.2-3.4 1.1-6.8 2.2-7 1.9-3.5.9-3.5.9a240.8 240.8 0 0 1-58 6 259.2 259.2 0 0 1-58.5-7.8 326.7 326.7 0 0 1-55.7-19.6l-6.7-3.1c-2.2-1-4.5-2.1-6.6-3.2l-6.5-3.4c-2.2-1.1-4.4-2.2-6.5-3.4l-12.8-7.3-12.6-7.7-12.1-8-1.5-1-.4-.2-.4-.3-.8-.5-3-2.2-3-2.2-2.9-2.3c-1.9-1.6-3.9-3-5.7-4.7l-5.5-4.9c-3.5-3.4-7.1-6.8-10.3-10.4l-2.5-2.7-2.4-2.8-2.3-2.8-2.3-2.8-4.4-5.8-4.1-6A189.7 189.7 0 0 1 712 1367a186 186 0 0 1-9.6-26.8l-.9-3.4c-.3-1.1-.6-2.3-.8-3.4l-1.5-6.9c-.8-4.6-1.6-9.2-2.1-13.8a179.9 179.9 0 0 1 18.9-103.6l1.4-2.8 1.6-2.8 3.1-5.5 3.3-5.2.8-1.3.4-.6.2-.3.3-.4 1.8-2.5 1.9-2.5 1.9-2.4c1.4-1.5 2.7-3.1 4.1-4.6a93.1 93.1 0 0 1 9-8.2 92 92 0 0 1 42-18.7 88.5 88.5 0 0 1 21.7-1.1 90.6 90.6 0 0 1 20.4 3.8 94.1 94.1 0 0 1 18.1 7.8l2.1 1.2 2 1.2 1.9 1.2 1.9 1.4 1.9 1.4 1.8 1.6 1.7 1.6c.6.5 1 1.1 1.6 1.7a47.2 47.2 0 0 1 12.2 31.2 48.3 48.3 0 0 1-2.3 14.9c-.4 1.1-.8 2.3-1.2 3.4l-1.5 3.2a27 27 0 0 1-1.6 2.9l-.8 1.4-.2.3v.2l-.2.2-.5.7a24.5 24.5 0 0 1-4.5 4.8 25.2 25.2 0 0 1-2.6 1.8l-1.3.8-1.4.6a24.3 24.3 0 0 1-11 2.1 24.1 24.1 0 0 1-9.4-2.4l-1-.5-.9-.5-.8-.5h-.5l-.4-.3a12.5 12.5 0 0 1-2.8-2.9 13.2 13.2 0 0 1-2.3-6.3 13.4 13.4 0 0 1 .5-4.9 13.7 13.7 0 0 1 .6-1.7l.6-1.1.5-.8a1.5 1.5 0 1 1 2.6 1.5zm1219.3-19.2l.5.8.6 1.1a13.7 13.7 0 0 1 .7 1.6 13.4 13.4 0 0 1 .6 4.9 13.2 13.2 0 0 1-2.2 6.3 12.5 12.5 0 0 1-2.8 3l-.4.3h-.5l-.8.5-.9.5-1 .5a24.1 24.1 0 0 1-9.3 2.6 24.3 24.3 0 0 1-11-1.8l-1.4-.6-1.4-.7a25.2 25.2 0 0 1-2.6-1.7 24.5 24.5 0 0 1-4.6-4.6l-.5-.7-.2-.2v-.2l-.2-.3-.9-1.4a27 27 0 0 1-1.7-2.9l-1.6-3.2-1.3-3.4a48.3 48.3 0 0 1-2.7-14.9 47.2 47.2 0 0 1 11.5-31.5c.5-.6 1-1.2 1.5-1.7l1.7-1.6 1.7-1.6 1.9-1.5 1.9-1.5 1.9-1.3 1.9-1.3 2.1-1.2a94.1 94.1 0 0 1 17.9-8.2 90.6 90.6 0 0 1 20.3-4.3 88.5 88.5 0 0 1 21.7.6 92 92 0 0 1 42.4 17.7 93.1 93.1 0 0 1 9.2 8c1.5 1.4 2.8 3 4.2 4.5l2 2.4 1.9 2.4 1.9 2.5.3.4.2.3.4.6.9 1.3 3.4 5.1 3.3 5.4 1.6 2.7 1.5 2.8a179.9 179.9 0 0 1 21.3 102.7c-.3 4.6-1.1 9.2-1.7 13.8l-1.3 6.9c-.2 1.2-.5 2.3-.8 3.4l-.8 3.4a186.1 186.1 0 0 1-8.9 27 189.7 189.7 0 0 1-13.3 25.6l-3.9 6.1-4.2 5.9-2.2 2.9-2.3 2.9-2.3 2.8-2.4 2.7c-3.2 3.7-6.6 7.2-10.1 10.7l-5.4 5c-1.8 1.7-3.7 3.2-5.6 4.8l-2.9 2.3-2.9 2.2-3 2.2-.7.6-.4.3-.4.3-1.5 1-11.9 8.2-12.4 8-12.6 7.6c-2.1 1.3-4.3 2.4-6.4 3.6l-6.5 3.5c-2.1 1.2-4.3 2.3-6.5 3.4l-6.6 3.3a326.6 326.6 0 0 1-55.2 20.9 259.2 259.2 0 0 1-58.3 9.2 240.7 240.7 0 0 1-58.2-4.6l-3.5-.8-3.5-.8-7-1.7-6.9-2.1-3.4-1-3.4-1.1-6.7-2.4c-2.2-.8-4.5-1.6-6.6-2.5l-6.5-2.7-3.3-1.4-3.2-1.5a289.7 289.7 0 0 1-47.5-27.9 354.3 354.3 0 0 1-40.2-33.9c-6-6-12-12-17.5-18.2l-8.1-8.9-2-2.2-2-2.1-3.9-4-1.9-2-2-2-4-3.9-8.2-7.4-8.3-7-4.2-3.3-4.2-3.2a287.2 287.2 0 0 0-66.1-37.2l-7.8-3-7.6-2.6-.8-.3-1-.3-1.9-.6-3.8-1.2-7-2a198.1 198.1 0 0 0-25.7-5.3 124.4 124.4 0 0 0-20.3-1.1 84.1 84.1 0 0 0-14.3 1.5l-2.6.5-2.2.6-1.9.5-1.5.5-2.7.9-.9.3a15 15 0 0 1-9.5-28.5l.5-.2 4.1-1.2 2.3-.6 2.7-.6 3.2-.7 3.7-.6c10.4-1.7 25.6-2.1 43.7 1a225.5 225.5 0 0 1 29 7l7.9 2.6 3.8 1.4 1.9.7 1 .3h.6l.5.2 8.2 3.2 8.4 3.6a313.3 313.3 0 0 1 34.8 18 325.6 325.6 0 0 1 35.5 24.7l4.4 3.6 4.4 3.7c2.9 2.5 5.8 5.1 8.7 7.7s5.7 5.4 8.5 8.2l4.2 4.3 2.1 2.2 2.1 2.3 4.2 4.6 2 2.3 1.9 2.3 7.8 9.1c5.1 6.1 10.5 11.9 16.1 17.8a334.8 334.8 0 0 0 37 33.2 271 271 0 0 0 43.7 27.5l2.9 1.5 3 1.4 6 2.7c2 .9 4.1 1.7 6.1 2.5l6.2 2.4 3.1 1.1 3.2 1 6.4 2.1 6.5 1.7 3.3.9 3.3.8a225.6 225.6 0 0 0 54.3 5.7 245.4 245.4 0 0 0 55.4-7.4 314.3 314.3 0 0 0 53.6-18.8 409 409 0 0 0 50.2-27.2l12.1-8 1.5-1 .4-.2.3-.2.7-.5 2.8-2.1 2.8-2.1 2.7-2.2c1.8-1.5 3.7-2.9 5.4-4.4l5.2-4.7c3.3-3.2 6.7-6.5 9.8-9.9l2.4-2.6 2.2-2.7 2.2-2.7 2.2-2.7 4.2-5.6 3.9-5.7a181.6 181.6 0 0 0 13.2-24.1 174.2 174.2 0 0 0 9-25.7l.8-3.3c.3-1.1.6-2.2.8-3.3l1.4-6.6c.7-4.4 1.5-8.8 1.9-13.3a173.9 173.9 0 0 0-2.3-52.2l-.3-1.6-.4-1.6-.7-3.1-.7-3.1c-.3-1-.6-2-.9-3.1s-1.1-4.1-1.8-6.1l-2-6c-.6-2-1.5-3.9-2.2-5.9s-1.5-3.9-2.4-5.8l-2.6-5.6-2.8-5.5-1.4-2.7-1.5-2.6-3.1-5.2-3.4-5.1-.8-1.3-.4-.6-.2-.3-.2-.2-1.7-2.4-1.8-2.3-1.9-2.3c-1.3-1.4-2.6-2.9-4-4.3a86.4 86.4 0 0 0-48.7-25 84.5 84.5 0 0 0-20.8-.8 86 86 0 0 0-36.7 11.6l-2 1.2-1.9 1.3-1.9 1.3-1.7 1.3-1.7 1.3-1.6 1.5-1.6 1.5c-.5.5-.9 1.1-1.4 1.6a43.9 43.9 0 0 0-10.8 29.2 45.1 45.1 0 0 0 2.4 13.9l1.2 3.1 1.4 2.9a25.2 25.2 0 0 0 1.6 2.8l.9 1.4.2.3v.2h.1l.5.6a21.5 21.5 0 0 0 4 4.1 22.2 22.2 0 0 0 2.3 1.5l1.2.7 1.2.5a20.9 20.9 0 0 0 9.7 1.6 21.2 21.2 0 0 0 8.1-2.2l.8-.4.9-.5.8-.5h.3l.3-.3a9.5 9.5 0 0 0 2.1-2.3 10.2 10.2 0 0 0 1.7-4.9 10.4 10.4 0 0 0-.4-3.7 10.9 10.9 0 0 0-.5-1.2l-.4-.8-.5-.8a1.5 1.5 0 1 1 2.5-1.6z"/>
  </g>
</svg>