<?xml version="1.0" encoding="utf-8"?>
<svg viewBox="0 0 3000 3000" xmlns="http://www.w3.org/2000/svg">
  <g id="mouth" style="isolation:isolate">
    <defs>
      <clipPath id="mouthClipPath">
        <path fill="#31323d" d="M1399.7 1303.8s9.5 19.2 52.8 17.2c35.6-1.6 43.1-18.9 43.1-18.9l-57.8-76.9-17.9 47.9z" data-name="&lt;Clipping Path&gt;"/>
      </clipPath>
    </defs>
    <path fill="#31323d" d="M1399.7 1303.8s9.5 19.2 52.8 17.2c35.6-1.6 43.1-18.9 43.1-18.9l-57.8-76.9-17.9 47.9z" data-name="&lt;Clipping Path&gt;"/>
    <g fill="#fff" stroke="#30313c" clip-path="url(#mouthClipPath)" stroke-linejoin="round">
      <path d="M1432.2 1256.6l-22.8 10 12.6 24.8c3.5 8.2 15.7 6.1 16.3-2.8l-.5-39.6zm17 .4l23.9 7.6-10.2 25.7c-2.7 8.5-15.1 7.6-16.5-1.3l-4.6-39z"/>
    </g>
    <path fill="#31323d" d="M1447.7 1236.4l.7 1.2.8 1.4 1.2 1.9 3.4 5.1c1.4 2 2.8 4.2 4.5 6.6l2.7 3.7 2.9 3.9c2 2.7 4.2 5.5 6.5 8.4s4.7 5.8 7.2 8.8l3.9 4.4c1.3 1.5 2.6 3 3.9 4.4s5.3 5.8 8.1 8.5l4.1 4.1c1.3 1.4 2.8 2.6 4.1 3.8l4 3.7c1.3 1.2 2.7 2.3 4 3.4l3.8 3.1 1.8 1.5 1.8 1.3 6.5 4.8 5.2 3.4 4.6 3h.1a1.7 1.7 0 0 1-1.8 3l-4.9-2.6-5.6-3-7.1-4.3-2-1.2-2-1.3-4.2-2.9c-1.4-1-3-2-4.4-3.1l-4.5-3.4c-1.5-1.2-3.1-2.3-4.6-3.5l-4.6-3.8c-3.1-2.5-6.1-5.3-9.1-7.9l-4.5-4.1-4.4-4.2c-2.8-2.8-5.6-5.6-8.2-8.4s-5.2-5.4-7.5-8.1l-3.4-3.8-3.1-3.6-5.3-6.4-4-5.1-1.5-1.9-1.1-1.5-.9-1.2a7.5 7.5 0 0 1 12.1-8.9l.4.5h.1z"/>
    <path fill="#31323d" d="M1445.5 1230.4l.3.6a6.1 6.1 0 0 1 .5 1.6 5.7 5.7 0 0 1-.1 2.3 18.6 18.6 0 0 1-1.1 2.7l-3.2 7.1-4.5 9.3c-1.6 3.4-3.6 7-5.6 10.8s-4.4 7.7-6.8 11.8l-1.8 3.1-2 3-4 6.2c-1.4 2-2.9 4.1-4.3 6.1l-2.2 3-2.3 3-4.7 5.9-5 5.6c-1.6 1.9-3.4 3.6-5.1 5.3l-2.6 2.6-2.7 2.4c-1.8 1.6-3.5 3.2-5.3 4.6l-5.3 4.1-5.2 3.6-2.5 1.7-2.5 1.5-2.4 1.4-1.2.7-1.2.6-4.4 2.2c-2.8 1.3-5.3 2.2-7.3 3.1l-6.5 2.1a1.2 1.2 0 0 1-.9-2.2h.1l6-2.9 3.1-1.7 1.7-1 .9-.5.9-.6 3.9-2.5 1-.7 1-.8 2.1-1.6 2.2-1.6 2.2-1.8 4.6-3.9 4.6-4.4c1.6-1.5 3-3.2 4.6-4.8l2.3-2.5 2.2-2.6c1.5-1.8 3-3.5 4.4-5.4l4.3-5.7 4-5.9 2-3 1.9-3.1c1.2-2 2.5-4 3.7-6.1l3.4-6.1 1.7-3 1.5-3c2-4 4-7.9 5.7-11.7s3.5-7.3 4.8-10.6l3.8-9 2.8-7.2a18.6 18.6 0 0 1 1.1-2.6 5.7 5.7 0 0 1 1.6-1.6 6.1 6.1 0 0 1 1.5-.8l.7-.2a9 9 0 0 1 9.6 3.1z"/>
    <path fill="#31323d" d="M1372.4 1211.7a15 15 0 0 1 3.6-15.9c8.9-8.8 28.1-21.7 63.7-21.9s52.5 12.1 60.6 20.8a14.9 14.9 0 0 1 2.5 16.1 20.8 20.8 0 0 1-18.2 12.3c-10 .3-23.9 3.4-32.7 15.9a13.2 13.2 0 0 1-1.9 2.2l-.3.3a17.7 17.7 0 0 1-25.3-1.4s-7.3-12.5-34.2-14.5a20.7 20.7 0 0 1-17.7-13.5v-.3zm160.3 45.4l4-.8 11.4-2.1c9.9-1.7 24-3.8 41-5.4a545 545 0 0 1 58.3-2.4c10.7.1 21.7.6 32.9 1.5s22.5 2.3 33.7 4.2 22.4 4.2 33.2 7.1a301.1 301.1 0 0 1 31.3 10.2 259.9 259.9 0 0 1 27.9 12.9 220.6 220.6 0 0 1 23.4 14.5 202.9 202.9 0 0 1 18.1 14.5l3.7 3.4 3.3 3.2 3 3 2.7 2.9c1.7 1.8 3.1 3.5 4.4 4.9l3.1 3.7 2.6 3.2-2.7-3.1-3.2-3.6c-1.3-1.4-2.8-3.1-4.5-4.8l-2.7-2.8-3.1-3-3.4-3.1-3.8-3.3a201.6 201.6 0 0 0-18.4-13.9 218.7 218.7 0 0 0-23.5-13.8 257.3 257.3 0 0 0-27.9-12 297.5 297.5 0 0 0-31.2-9.2c-10.8-2.6-21.8-4.6-33-6.1s-22.3-2.6-33.4-3.2-21.9-.8-32.5-.6a537.3 537.3 0 0 0-57.4 4c-16.7 2-30.5 4.5-40.1 6.4l-11.1 2.4-3.9.9a5 5 0 0 1-2.3-9.7h.1zm172.9-49.3l-6.6.3-7.6.4-9.9.7-11.7 1-13 1.5c-4.5.6-9.1 1.2-13.8 2l-7.1 1.1-7.1 1.3-7.1 1.4-7 1.4-6.9 1.5-6.7 1.6-6.4 1.6-6.1 1.6-11.2 3.1-9.4 2.8-7.2 2.3-6.2 2.1h-.1a5 5 0 0 1-3.2-9.5h.3l6.5-1.7 7.5-1.9 9.7-2.3 11.6-2.5 6.3-1.2 6.6-1.2 6.9-1.2 7-1.1 7.2-1 7.2-.9 7.2-.8 7.2-.7c4.8-.5 9.5-.7 14-1.1l13.1-.6 11.7-.3h17.7zm-159 72.4l7.7-1.2 4.3-.4 5.1-.4c3.6 0 7.7-.2 12.1.3l3.4.2 3.5.5 3.6.5 3.7.7 3.8.7 3.8.9 3.9 1 3.9 1.2 3.9 1.3 3.9 1.5 3.9 1.6 3.9 1.7 2 .9 1.9 1 3.9 1.9 7.6 4.2c4.9 3 9.8 6 14.4 9.3s9 6.7 13.1 10.1 8 6.9 11.6 10.2 6.8 6.7 9.8 9.7 5.6 6 7.8 8.6 4.2 4.9 5.8 6.9c3.1 3.9 4.8 6.2 4.8 6.2s-1.8-2.2-5.1-5.9c-1.7-1.8-3.7-4.1-6.1-6.5s-5.2-5.2-8.3-8.1-6.5-6-10.2-9.1-7.7-6.3-12-9.5-8.7-6.3-13.4-9.2-9.6-5.7-14.5-8.3l-7.6-3.6-3.8-1.7-1.9-.8-1.9-.7-3.8-1.4-3.8-1.3-3.8-1.2-3.8-1-3.7-1-3.7-.8-3.6-.7-3.6-.5-3.5-.4-3.4-.3-3.3-.3h-3.1c-4.1-.2-7.8.2-11.2.4l-4.5.6-3.8.5-7.6 1.6a5 5 0 1 1-2-9.8h.3zm-190.7 2l-15.5-3c-9.8-1.9-23.8-4.7-40.7-7.4-8.4-1.4-17.6-2.7-27.3-4s-20-2.3-30.6-3.2-21.6-1.4-32.8-1.6-22.6.1-33.9.8a334.9 334.9 0 0 0-33.7 3.9c-5.5.9-11 2-16.3 3.2s-10.6 2.6-15.7 4.2a200.6 200.6 0 0 0-52.8 24.1 165.1 165.1 0 0 0-18.6 14.1c-1.3 1.1-2.5 2.3-3.7 3.4l-3.4 3.2-3.1 3.1-2.7 2.9c-1.7 1.8-3.1 3.5-4.4 5l-1.7 2.1-1.4 1.8-2.5 3.2 2.5-3.3 1.3-1.8 1.7-2.1c1.2-1.5 2.6-3.3 4.3-5.1l2.6-3 3-3.2 3.3-3.4c1.2-1.1 2.3-2.4 3.7-3.5a166.3 166.3 0 0 1 18.3-14.7 202.9 202.9 0 0 1 52.8-25.9c5.1-1.7 10.4-3.2 15.8-4.6s10.9-2.7 16.4-3.7a339.4 339.4 0 0 1 34-4.9c11.5-1.1 23-1.6 34.3-1.8s22.5.1 33.3.7 21.2 1.4 31 2.4 19.1 2.1 27.7 3.3c17.1 2.3 31.2 4.7 41.1 6.4l15.5 2.6a5 5 0 1 1-1.7 9.9h-.1zm-174.7-58.7l1.8-.3 5-.8 7.8-1.1 10.1-1.1c7.4-.7 16.2-1.1 25.6-1 4.7.1 9.5.2 14.5.5l7.4.6 7.4.8 7.5 1 7.4 1.2c4.9.8 9.6 1.9 14.2 2.9l6.8 1.7 6.4 1.8c4.2 1.2 8.1 2.4 11.7 3.6l9.7 3.5 7.4 2.9 4.7 2 1.7.7a5 5 0 1 1-4 9.2h-.3l-1.6-.8-4.4-2.2-7-3.3-9.2-3.9c-3.4-1.4-7.1-2.8-11.1-4.2l-6.1-2.1-6.5-2c-4.4-1.3-9-2.6-13.7-3.7l-7.1-1.6-7.2-1.4-7.3-1.2-7.2-1c-4.8-.6-9.6-1.1-14.2-1.4-9.2-.7-17.9-.8-25.3-.6l-10.1.4-7.8.6-5 .5zm162 82.5l-7.6-1.9-3.8-.6-2.1-.3-1.1-.2h-1.2l-5.3-.4h-9l-3.3.3c-2.2.1-4.5.6-6.8.9s-4.7 1-7.1 1.5l-1.8.4-1.8.5-3.7 1.1-3.7 1.3-3.8 1.4-7.5 3.2a163.1 163.1 0 0 0-14.8 7.9l-3.6 2.2-3.5 2.3c-2.4 1.5-4.6 3.2-6.9 4.8l-6.6 5c-2.1 1.7-4.3 3.4-6.3 5.1l-3 2.6-2.9 2.6-5.5 5.1-5.1 5-4.7 4.8c-3 3.1-5.6 6-7.9 8.6l-5.8 6.9c-3.2 3.9-4.9 6.2-4.9 6.2s1.6-2.4 4.5-6.4c1.5-2 3.3-4.5 5.5-7.2s4.6-5.8 7.4-9.1l4.4-5.1 4.9-5.3 5.3-5.4 2.8-2.8 2.9-2.8c1.9-1.9 4-3.7 6.1-5.5l6.4-5.4c2.2-1.7 4.4-3.6 6.8-5.3l3.5-2.6 3.6-2.5a168.4 168.4 0 0 1 14.8-9l7.7-3.8 3.9-1.7 3.9-1.6 3.9-1.4 1.9-.7 1.9-.6c2.6-.7 5-1.6 7.5-2s4.9-1.2 7.3-1.4l3.5-.5 1.7-.2h1.7l6.4-.4h8.5l2.5.3 4.5.5 7.7 1.4a5 5 0 1 1-1.8 9.8h-.3z"/>
    <path fill="#595959" d="M1387.6 1439.1s7.9 72.2 68.5 66.4c58.7-5.7 61.4-73.9 61.4-73.9s-19.4 31.4-57.4 34.1-72.5-26.6-72.5-26.6z" opacity=".2" style="mix-blend-mode:multiply"/>
    <path fill="#31323d" d="M1520.1 1428.4l-.4 1.8c-.1.6-.2 1.3-.5 2.2l-.9 3.1c-.4 1.1-.8 2.3-1.4 3.6s-1.2 2.7-2 4.2a56.1 56.1 0 0 1-6.1 9.3 63 63 0 0 1-9.3 9.4l-2.9 2.2-3 2.1c-2.1 1.3-4.3 2.6-6.6 3.8s-4.7 2.2-7.2 3.1l-3.8 1.3-3.9 1.1a77.5 77.5 0 0 1-16.2 2.3 81.8 81.8 0 0 1-16.2-1 83.6 83.6 0 0 1-15.1-4l-.9-.3-.4-.2h-.5l-1.6-.7-3.4-1.5c-2.3-1.1-4.3-2.2-6.3-3.4a76.6 76.6 0 0 1-10.6-7.5 75.2 75.2 0 0 1-7.8-7.6 71.2 71.2 0 0 1-5.1-6.6c-.7-.9-1.2-1.8-1.7-2.6l-1.2-2-.9-1.7a2.5 2.5 0 0 1 4-3h.1l1.3 1.2 3.6 3.3c1.5 1.4 3.6 3 5.9 4.8s5 3.6 8 5.4a91.1 91.1 0 0 0 10.1 5.2l2.8 1.2 2.9 1.1 3 1 1.7.5 1.5.4a85.9 85.9 0 0 0 13 2.6 81.6 81.6 0 0 0 13.6.5 80.5 80.5 0 0 0 13.4-1.8l3.2-.8 3.2-.9c2.1-.6 4.1-1.4 6.1-2.2s3.9-1.7 5.7-2.6l2.7-1.4 2.5-1.5a65.7 65.7 0 0 0 8.8-6.6 60.7 60.7 0 0 0 6.6-6.8 72.3 72.3 0 0 0 4.5-5.9l1.5-2.3c.4-.6.8-1.4 1.1-1.9l.9-1.6a2.5 2.5 0 0 1 4.2 1.7z"/>
  </g>
</svg>