<?xml version="1.0" encoding="utf-8"?>
<svg viewBox="0 0 3000 3000" xmlns="http://www.w3.org/2000/svg">
  <g id="tail"/>
  <g id="mouth">
    <path opacity=".2" fill="#595959" d="M1387.6 1449.1s7.9 72.2 68.5 66.4c58.7-5.7 61.4-73.9 61.4-73.9s-19.4 31.4-57.4 34.1-72.5-26.6-72.5-26.6z"/>
    <path fill="#31323D" d="M1371.7 1227.7c-2.5-5.4-1.6-11.7 2.3-16.1 8.2-9.4 26.4-23.8 61.9-26.8s53.3 8 62 16.1c4.3 4.1 5.8 10.3 3.8 15.9-2.7 7.5-9.3 12.8-17.2 13.7-10 1.1-23.6 5.2-31.4 18.4-.5.8-1.1 1.6-1.7 2.3l-.3.3c-6.7 7.1-17.9 7.5-25 .9l-.3-.3s-8.2-11.9-35.2-11.9c-8.1-.1-15.4-4.8-18.7-12.1l-.2-.4z"/>
    <path fill="#31323D" d="M1447.5 1255.1v.5l.5 1.7c.4 1.5 1.1 3.8 2.1 6.6 2.7 8 6 15.8 9.7 23.3 2.3 4.7 5 9.7 8.2 14.8 3.3 5.4 6.8 10.5 10.7 15.5 4.1 5.3 8.6 10.2 13.4 14.9 5 4.8 10.3 9.2 16 13.1 2.8 2 5.8 3.8 8.8 5.5s6.1 3.2 9.2 4.6c6.2 2.7 12.6 4.9 19.1 6.5 6.1 1.5 12.4 2.4 18.7 2.9 5.7.4 11.4.5 17.1.2l7.6-.6 3.5-.4 3.3-.5 6-1 5.1-1 7.1-1.6 2.5-.6h.1c1 0 1.8.7 1.9 1.7 0 .7-.4 1.4-1 1.7l-2.5.8-7.1 2-5.1 1.3-6.1 1.3-3.4.6-3.6.6c-2.5.4-5.1.7-7.8 1-5.9.6-11.9.8-17.8.7-6.7-.2-13.3-.9-19.9-2.1-7.1-1.3-14-3.3-20.7-5.9-3.4-1.3-6.8-2.8-10.2-4.5s-6.6-3.5-9.8-5.4c-6.3-3.9-12.3-8.3-17.9-13.2-5.4-4.7-10.5-9.9-15.2-15.3-4.4-5.1-8.5-10.4-12.3-16-3.6-5.3-6.8-10.5-9.5-15.3-4.4-7.9-8.3-16-11.7-24.4-1.2-3.1-2.1-5.5-2.7-7.2l-.7-2-.2-.7c-1.5-3.9.4-8.2 4.3-9.7s8.2.4 9.7 4.3c.1.3.2.7.3 1v.3h.3z"/>
    <path fill="#31323D" d="M1318.9 1385.5h2.4l6.7-.3c2.9-.2 6.4-.6 10.3-1.2s8.4-1.5 13.1-2.8c5.1-1.3 10.1-3 15-5l2-.8 1.9-.9 3.9-1.8c2.6-1.4 5.2-2.7 7.8-4.3l1.9-1.2 1.9-1.3 3.8-2.7 1.8-1.4 1.8-1.5c1.3-.9 2.5-1.9 3.6-3l3.4-3.2 3.2-3.5c2.2-2.3 4-4.9 6-7.3.5-.6 1-1.2 1.4-1.9l1.3-2 1.3-2c.4-.6.8-1.3 1.2-2l2.3-4.1 1.1-2 1-2.1c1.4-2.8 2.6-5.6 3.7-8.5 1.1-2.8 2.1-5.7 2.9-8.6 1.6-5.5 3-11.1 4-16.8l1.2-8 .3-1.9c.1-.6.1-1.3.2-1.9l.3-3.7c.2-2.4.4-4.7.5-6.9l.2-6.3v-5.6c-.1-1.6 0-3.1.1-4.7.2-2.2.6-4.5 1.3-6.6.3-.8.6-1.6 1-2.4v-.3c1.5-2.7 4.9-3.7 7.6-2.3.9.5 1.7 1.3 2.2 2.2.4.8.7 1.6 1 2.4.7 2.2 1.2 4.6 1.4 6.9.1 1.7.2 3.3.1 5l-.4 5.9-.4 6.7c-.2 2.4-.6 4.8-.9 7.4l-.5 3.9c-.1.7-.2 1.3-.3 2l-.4 2.1-1.6 8.5c-.7 2.9-1.5 5.9-2.3 8.9l-.6 2.3c-.2.8-.5 1.5-.8 2.3l-1.6 4.6c-1 3.1-2.4 6.2-3.7 9.3-1.3 3.1-2.8 6.2-4.5 9.2l-1.2 2.3-1.4 2.2-2.8 4.4c-.5.8-1 1.5-1.5 2.2l-1.6 2.1-1.6 2.1c-.5.7-1 1.4-1.6 2.1-2.4 2.6-4.5 5.4-7.1 7.7l-3.8 3.6-4 3.3c-1.3 1.1-2.7 2.1-4.1 3.1s-2.7 2-4.2 2.9l-4.3 2.6-2.2 1.2-2.2 1.1c-2.8 1.6-5.8 2.8-8.7 4.1l-4.3 1.6-2.1.8-2.1.7c-5.3 1.7-10.6 3-16.1 4-4.6.8-9.2 1.4-13.8 1.7-4.1.2-7.7.3-10.7.2l-6.9-.4-1.8-.2h-.6c-.6-.2-.9-.9-.7-1.5.1-.4.5-.7.9-.8l.4.1zM1520.1 1438.4l-.4 1.8c-.1.6-.2 1.3-.5 2.2l-.9 3.1c-.4 1.1-.8 2.3-1.4 3.6s-1.2 2.7-2 4.2c-1.7 3.3-3.8 6.4-6.1 9.3-2.8 3.5-5.9 6.6-9.3 9.4l-2.9 2.2-3 2.1c-2.1 1.3-4.3 2.6-6.6 3.8s-4.7 2.2-7.2 3.1l-3.8 1.3-3.9 1.1c-5.3 1.3-10.7 2.1-16.2 2.3-5.4.2-10.8-.1-16.2-1-5.1-.9-10.2-2.2-15.1-4l-.9-.3-.4-.2h-.5l-1.6-.7-3.4-1.5c-2.3-1.1-4.3-2.2-6.3-3.4-3.7-2.2-7.3-4.7-10.6-7.5-2.8-2.3-5.4-4.9-7.8-7.6-1.8-2.1-3.5-4.3-5.1-6.6-.7-.9-1.2-1.8-1.7-2.6l-1.2-2-.9-1.7c-.8-1.1-.6-2.7.5-3.5s2.7-.6 3.5.5h.1l1.3 1.2 3.6 3.3c1.5 1.4 3.6 3 5.9 4.8s5 3.6 8 5.4c3.3 1.9 6.6 3.7 10.1 5.2l2.8 1.2 2.9 1.1 3 1 1.7.5 1.5.4c4.3 1.2 8.6 2.1 13 2.6 4.5.5 9.1.7 13.6.5 4.5-.2 9-.8 13.4-1.8l3.2-.8 3.2-.9c2.1-.6 4.1-1.4 6.1-2.2s3.9-1.7 5.7-2.6l2.7-1.4 2.5-1.5c3.1-2 6.1-4.2 8.8-6.6 2.4-2.1 4.6-4.4 6.6-6.8 1.6-1.9 3.1-3.9 4.5-5.9l1.5-2.3c.4-.6.8-1.4 1.1-1.9l.9-1.6c1-.9 2.6-.9 3.5.1.4.5.7 1 .7 1.6zM1542.7 1278.1l4-.8 11.4-2.1c9.9-1.7 24-3.8 41-5.4 19.4-1.8 38.8-2.6 58.3-2.4 10.7.1 21.7.6 32.9 1.5s22.5 2.3 33.7 4.2 22.4 4.2 33.2 7.1c10.6 2.8 21.1 6.2 31.3 10.2 9.5 3.7 18.9 8.1 27.9 12.9 8.1 4.3 15.9 9.2 23.4 14.5 6.3 4.5 12.3 9.3 18.1 14.5l3.7 3.4 3.3 3.2 3 3 2.7 2.9c1.7 1.8 3.1 3.5 4.4 4.9l3.1 3.7 2.6 3.2-2.7-3.1-3.2-3.6c-1.3-1.4-2.8-3.1-4.5-4.8l-2.7-2.8-3.1-3-3.4-3.1-3.8-3.3c-5.9-5-12-9.6-18.4-13.9-7.5-5.1-15.4-9.7-23.5-13.8-9.1-4.5-18.4-8.6-27.9-12-10.2-3.6-20.6-6.7-31.2-9.2-10.8-2.6-21.8-4.6-33-6.1s-22.3-2.6-33.4-3.2-21.9-.8-32.5-.6c-19.2.3-38.4 1.6-57.4 4-16.7 2-30.5 4.5-40.1 6.4l-11.1 2.4-3.9.9c-2.7.4-5.3-1.4-5.7-4.2-.4-2.4 1.1-4.7 3.5-5.5zM1715.6 1228.8l-6.6.3-7.6.4-9.9.7-11.7 1-13 1.5c-4.5.6-9.1 1.2-13.8 2l-7.1 1.1-7.1 1.3-7.1 1.4-7 1.4-6.9 1.5-6.7 1.6-6.4 1.6-6.1 1.6-11.2 3.1-9.4 2.8-7.2 2.3-6.2 2.1h-.1c-2.6.9-5.5-.5-6.3-3.2s.5-5.5 3.2-6.3h.3l6.5-1.7 7.5-1.9 9.7-2.3 11.6-2.5 6.3-1.2 6.6-1.2 6.9-1.2 7-1.1 7.2-1 7.2-.9 7.2-.8 7.2-.7c4.8-.5 9.5-.7 14-1.1l13.1-.6 11.7-.3h17.7l6.5.3zM1556.6 1301.2l7.7-1.2 4.3-.4 5.1-.4c3.6 0 7.7-.2 12.1.3l3.4.2 3.5.5 3.6.5 3.7.7 3.8.7 3.8.9 3.9 1 3.9 1.2 3.9 1.3 3.9 1.5 3.9 1.6 3.9 1.7 2 .9 1.9 1 3.9 1.9 7.6 4.2c4.9 3 9.8 6 14.4 9.3s9 6.7 13.1 10.1 8 6.9 11.6 10.2 6.8 6.7 9.8 9.7 5.6 6 7.8 8.6 4.2 4.9 5.8 6.9c3.1 3.9 4.8 6.2 4.8 6.2s-1.8-2.2-5.1-5.9c-1.7-1.8-3.7-4.1-6.1-6.5s-5.2-5.2-8.3-8.1-6.5-6-10.2-9.1-7.7-6.3-12-9.5-8.7-6.3-13.4-9.2-9.6-5.7-14.5-8.3l-7.6-3.6-3.8-1.7-1.9-.8-1.9-.7-3.8-1.4-3.8-1.3-3.8-1.2-3.8-1-3.7-1-3.7-.8-3.6-.7-3.6-.5-3.5-.4-3.4-.3-3.3-.3h-3.1c-4.1-.2-7.8.2-11.2.4l-4.5.6-3.8.5-7.6 1.6c-2.7.6-5.3-1.2-5.9-3.9s1.2-5.3 3.9-5.9h.3l-.4-.1zM1345.9 1303.2l-15.5-3c-9.8-1.9-23.8-4.7-40.7-7.4-8.4-1.4-17.6-2.7-27.3-4s-20-2.3-30.6-3.2-21.6-1.4-32.8-1.6-22.6.1-33.9.8c-11.3.7-22.5 2-33.7 3.9-5.5.9-11 2-16.3 3.2s-10.6 2.6-15.7 4.2c-18.7 5.4-36.5 13.5-52.8 24.1-6.5 4.3-12.7 9-18.6 14.1-1.3 1.1-2.5 2.3-3.7 3.4l-3.4 3.2-3.1 3.1-2.7 2.9c-1.7 1.8-3.1 3.5-4.4 5l-1.7 2.1-1.4 1.8-2.5 3.2 2.5-3.3 1.3-1.8 1.7-2.1c1.2-1.5 2.6-3.3 4.3-5.1l2.6-3 3-3.2 3.3-3.4c1.2-1.1 2.3-2.4 3.7-3.5 5.7-5.3 11.9-10.2 18.3-14.7 16.2-11.2 34-19.9 52.8-25.9 5.1-1.7 10.4-3.2 15.8-4.6s10.9-2.7 16.4-3.7c11.2-2.2 22.6-3.8 34-4.9 11.5-1.1 23-1.6 34.3-1.8s22.5.1 33.3.7 21.2 1.4 31 2.4 19.1 2.1 27.7 3.3c17.1 2.3 31.2 4.7 41.1 6.4l15.5 2.6c2.7.5 4.6 3.1 4.1 5.8-.5 2.7-3.1 4.6-5.8 4.1l-.1-.1zM1171.2 1244.5l1.8-.3 5-.8 7.8-1.1 10.1-1.1c7.4-.7 16.2-1.1 25.6-1 4.7.1 9.5.2 14.5.5l7.4.6 7.4.8 7.5 1 7.4 1.2c4.9.8 9.6 1.9 14.2 2.9l6.8 1.7 6.4 1.8c4.2 1.2 8.1 2.4 11.7 3.6l9.7 3.5 7.4 2.9 4.7 2 1.7.7c2.5 1.1 3.7 4.1 2.6 6.6s-4.1 3.7-6.6 2.6h-.3l-1.6-.8-4.4-2.2-7-3.3-9.2-3.9c-3.4-1.4-7.1-2.8-11.1-4.2l-6.1-2.1-6.5-2c-4.4-1.3-9-2.6-13.7-3.7l-7.1-1.6-7.2-1.4-7.3-1.2-7.2-1c-4.8-.6-9.6-1.1-14.2-1.4-9.2-.7-17.9-.8-25.3-.6l-10.1.4-7.8.6-5 .5-2-.2zM1333.2 1327l-7.6-1.9-3.8-.6-2.1-.3-1.1-.2h-1.2l-5.3-.4h-9l-3.3.3c-2.2.1-4.5.6-6.8.9s-4.7 1-7.1 1.5l-1.8.4-1.8.5-3.7 1.1-3.7 1.3-3.8 1.4-7.5 3.2c-5.1 2.4-10 5-14.8 7.9l-3.6 2.2-3.5 2.3c-2.4 1.5-4.6 3.2-6.9 4.8l-6.6 5c-2.1 1.7-4.3 3.4-6.3 5.1l-3 2.6-2.9 2.6-5.5 5.1-5.1 5-4.7 4.8c-3 3.1-5.6 6-7.9 8.6l-5.8 6.9c-3.2 3.9-4.9 6.2-4.9 6.2s1.6-2.4 4.5-6.4c1.5-2 3.3-4.5 5.5-7.2s4.6-5.8 7.4-9.1l4.4-5.1 4.9-5.3 5.3-5.4 2.8-2.8 2.9-2.8c1.9-1.9 4-3.7 6.1-5.5l6.4-5.4c2.2-1.7 4.4-3.6 6.8-5.3l3.5-2.6 3.6-2.5c4.8-3.3 9.7-6.3 14.8-9l7.7-3.8 3.9-1.7 3.9-1.6 3.9-1.4 1.9-.7 1.9-.6c2.6-.7 5-1.6 7.5-2s4.9-1.2 7.3-1.4l3.5-.5 1.7-.2h1.7l6.4-.4h8.5l2.5.3 4.5.5 7.7 1.4c2.7.7 4.2 3.5 3.5 6.1-.6 2.3-2.9 3.9-5.3 3.7h-.3l-.2.4z"/>
  </g>
</svg>