<?xml version="1.0" encoding="utf-8"?>
<svg viewBox="0 0 3000 3000" xmlns="http://www.w3.org/2000/svg">
  <g id="highlight">
    <defs>
      <clipPath id="highlightClipPath">
        <path fill="none" d="M1211.5 866.4a240.2 240.2 0 0 1 129.5-37.8h158.2A240.5 240.5 0 0 1 1607 854c24.5-19.2 89.4-68.2 129.3-66.3a15 15 0 0 1 12.1 22.9L1684 914.8a240.5 240.5 0 0 1 47.2 89.2l295.1 960.1a248.1 248.1 0 0 1-6.4 155.9l.8.3c47.5 13.8 136.8 46.1 179.8 75.5 26.1 17.8 10.1 55.9-23.2 55.3l-261.6-5a246.8 246.8 0 0 1-65.3 28c2.8 13.3 12.3 21 28.1 21.9 18.2 1 23.7 18.6 24.5 25.5 2.3 21.2-5.8 34.7-27.9 36.9l-91.8 3a53.5 53.5 0 0 1-22.3-4 71.6 71.6 0 0 1-43.1-54.3l-3.5-20.7h-533.5l-5 26.6a71.4 71.4 0 0 1-8.8 23.9c-13.4 22.8-38.9 35.7-65.3 34.1l-84.3-5c-21.4-1.6-31.9-18.9-27.2-40.4 2.5-11.1 15.1-20.3 30.6-21.1 23.3-1.2 30.3-20.2 29.9-43.6v-3.3q-7.1-3.7-13.9-7.9L770 2251c-33.3.6-49.7-38.2-23.2-55.3 54-34.9 146.4-69.2 184.5-78.3l.6-.2a248.9 248.9 0 0 1-12.6-117.6l182.9-961.4a240.3 240.3 0 0 1 33-93.8l-60.5-108.1a15 15 0 0 1 .9-16c24.9-34.9 89.3 8.5 130.8 42.6z"/>
      </clipPath>
      <linearGradient id="highlightLinearGradient" x1="1844.99" x2="1844.99" y1="2256.39" y2="835.98" gradientUnits="userSpaceOnUse">
        <stop offset="0" stop-color="#fff" stop-opacity="0"/>
        <stop offset="0.72" stop-color="#fff"/>
      </linearGradient>
    </defs>
    <g clip-path="url(#highlightClipPath)" opacity=".2" style="mix-blend-mode:overlay">
      <path fill="url(#highlightLinearGradient)" d="M1547.8 836.6s29 33.5 51 64.8 44.1 86.3 65.6 181c58.9 258.7 229.4 683.2 275.5 888s-51.2 286-51.2 286l61.1-35.5s63-74.8 72.5-107.6c20.8-71.9 139-33 117.2-147.7-31.7-166.5-305.7-970.5-305.7-970.5s-123.4-29.9-151.2-79.3c-20.7-36.8-73.2-64.7-124.1-79.9z"/>
    </g>
  </g>
  <g id="mouth">
    <path opacity=".2" fill="#595959" d="M1379.1 1388.4s15.9 86.9 76.6 81.1c58.7-5.7 69.9-81.1 69.9-81.1s-27.9 38.6-65.9 41.3-80.6-41.3-80.6-41.3z"/>
    <path fill="#31323D" d="M1370.1 1165.3c-2.1-5.5-.8-11.8 3.4-16 8.8-8.9 27.9-22 63.5-22.7s52.7 11.4 60.8 20.1c4 4.4 5.1 10.7 2.7 16.1-3.1 7.3-10.2 12.2-18.1 12.6-10 .5-23.9 3.7-32.5 16.3-.5.8-1.1 1.5-1.8 2.2l-.3.3c-7.1 6.7-18.3 6.3-25-.8l-.3-.3s-7.4-12.4-34.3-14.1c-8-.6-15-5.8-17.9-13.3v-.3l-.2-.1z"/>
    <path fill="#31323D" d="M1444.1 1197.7l.2 1.7c.2 1.1.5 2.8.9 5 .8 4.3 2.1 10.5 3.9 17.8 2.1 8.4 4.7 16.6 7.6 24.7 3.3 9.2 7.4 18.2 12.2 26.8 4.7 8.6 10.5 16.5 17.3 23.5 3.1 3.2 6.5 6 10.2 8.6 3.3 2.3 6.8 4.2 10.5 5.8 3.1 1.3 6.4 2.4 9.7 3.1 2.6.6 5.2 1 7.8 1.2l5.1.2h1.9c.8 0 1.5.6 1.6 1.4 0 .8-.6 1.5-1.5 1.6l-1.9.2-5.4.2c-6.5-.1-12.9-1.2-19-3.3-4.1-1.4-8.1-3.3-11.8-5.5-4.2-2.5-8.1-5.3-11.8-8.5-7.8-7-14.7-15-20.4-23.8-5.7-8.7-10.7-17.8-14.9-27.3-3.7-8.2-7-16.6-9.9-25.2-2.5-7.5-4.3-13.9-5.5-18.4-.6-2.3-1-4-1.3-5.3l-.4-2c-.9-4.1 1.6-8.1 5.7-9s8.1 1.6 9 5.7v.7l.2.1z"/>
    <path fill="#31323D" d="M1357 1318.4h1.9l2.3-.2h1.5l1.6-.2 3.7-.5 4.3-.9 4.8-1.4 2.5-1c.9-.3 1.8-.7 2.6-1.1l2.6-1.3c.9-.4 1.7-1 2.6-1.5l1.3-.8 1.3-.9 2.6-1.9c3.5-2.9 6.6-6.3 9.3-10 .7-1 1.4-1.9 2.1-3l1.9-3.1c1.2-2.2 2.4-4.3 3.4-6.7 2.2-4.7 4-9.5 5.5-14.4 1.5-5 2.9-10 4-15.1s2.1-10 3-14.9 1.6-9.6 2.3-14.1 1.3-8.8 1.8-12.8l3.7-26.6c.6-4.1 4.4-7 8.5-6.4s7 4.4 6.4 8.5v.5l-5.5 26.2c-.8 3.9-1.7 8.2-2.7 12.7s-2.1 9.3-3.3 14.2-2.6 10-4.1 15.2-3.3 10.4-5.3 15.5c-2 5.2-4.3 10.2-7 15-1.3 2.4-2.8 4.7-4.2 7l-2.4 3.3c-.8 1.1-1.7 2.1-2.5 3.1-3.3 3.9-7 7.4-11.1 10.4l-3 2-1.5.9-1.5.8c-1 .5-2 1.1-3 1.5l-3 1.2c-.9.4-1.9.7-2.9 1l-2.8.9-5.3 1.2-4.7.7-4 .3h-7.4c-.9.1-1.7-.6-1.8-1.5-.1-.9.6-1.7 1.5-1.8zM1377.9 1253.5l-3.4-.9-4.1-1.1-5.4-1.3-3.2-.7-3.5-.7-3.8-.7-4.2-.6-4.4-.7-4.7-.5c-3.2-.4-6.7-.5-10.2-.8l-5.5-.2H1314l-6.1.4c-8.6.6-17.1 1.8-25.6 3.5-18.4 3.8-36.2 10.2-52.9 19l-6.3 3.5-6.2 3.7-6 3.9-5.8 4.1c-7.5 5.5-14.6 11.5-21.3 18-6.2 6.1-12.1 12.6-17.4 19.5-2.6 3.2-4.9 6.6-7.2 9.8l-3.2 4.8-1.5 2.4-1.4 2.3c-3.8 6.2-6.9 12.1-9.4 17.5s-4.5 10.1-6.1 14.1-2.6 7.1-3.3 9.3l-1.1 3.3 1-3.4c.6-2.2 1.6-5.4 3-9.4s3.2-8.9 5.6-14.3c2.7-6.1 5.6-12.1 8.9-17.9l1.4-2.4 1.5-2.4 3.1-5c2.2-3.3 4.4-6.7 7-10.1 5.2-7.2 10.9-13.9 17-20.3 6.6-6.8 13.6-13.2 21.1-19l5.8-4.4 6-4.2 6.2-4 6.4-3.8c16.8-9.6 35-16.8 53.8-21.3 8.7-2 17.5-3.6 26.4-4.5l6.3-.6 6.1-.3 5.9-.2h5.7c3.7.1 7.3.2 10.7.5l5 .4 4.7.5 4.4.5 4.1.6 3.7.6 3.4.7 5.8 1.2 4.1 1 3.4.8c2.7.6 4.4 3.2 3.9 5.9-.6 2.7-3.2 4.4-5.9 3.9-.1 0-.3-.1-.4-.1h-.2l-.2.1zM1178.6 1228.6l6.6-2.3 7.6-2.6 10-2.9 5.7-1.6 6.2-1.5 6.5-1.6 6.9-1.4 7.1-1.4 7.4-1.1 3.7-.6 3.8-.5 7.6-.9 3.8-.4 3.8-.3 7.6-.6 7.5-.4 3.7-.2h17.4l6.4.2 6 .3 10.5.8 8.1.8 5.2.7 1.9.3c2.7.4 4.6 3 4.2 5.7-.4 2.7-3 4.6-5.7 4.2h-.4l-1.7-.4-4.9-1-7.7-1.3-10.1-1.4-5.8-.6-6.2-.6-6.6-.5-6.9-.3-3.5-.2h-22.1l-3.8.2-7.5.4-3.7.3-3.7.3-7.3.7-7.1.9-6.9.9-6.6 1.2-6.2 1.1-5.8 1.2-10.1 2.3-7.7 2.1-7.2 2z"/>
    <path fill="#31323D" d="M1362.8 1278.8h-.6l-1.8-.4c-1.6-.3-3.9-.8-6.9-1.1-8.3-1.1-16.7-1.4-25.1-.7-5.6.5-11.1 1.4-16.6 2.7-6.1 1.5-12 3.6-17.7 6.3-6.1 2.8-11.8 6.3-17.1 10.4l-2.1 1.7-1.9 1.7c-1.3 1.1-2.5 2.4-3.8 3.5-2.5 2.5-4.8 5.1-7 7.8-4.4 5.5-8.2 11.4-11.3 17.7-3.1 6.1-5.6 12.5-7.4 19.1-1.7 6.2-3 12.5-3.6 18.9-.6 5.7-.8 11.5-.5 17.3.2 4.9.7 9.8 1.5 14.6.7 4.3 1.6 8 2.4 11.1s1.5 5.4 2.1 7l.8 2.5-.9-2.4c-.6-1.6-1.4-3.9-2.4-6.9s-2-6.7-2.8-11c-1-4.8-1.8-9.8-2.2-14.7-.5-5.9-.6-11.7-.2-17.6.4-6.6 1.3-13.1 2.8-19.5 1.6-6.9 3.9-13.6 6.8-20.1 3-6.7 6.7-13.1 11.1-19 2.2-3 4.6-5.9 7.1-8.6 1.3-1.3 2.5-2.7 3.9-4l2-1.9 2-1.8a90.1 90.1 0 0 1 17.8-12.1c6-3.2 12.2-5.7 18.7-7.6 5.8-1.7 11.7-2.9 17.7-3.7 9-1.1 18.1-1.3 27.1-.5 3.3.3 5.8.7 7.6.9l2 .3h.7c2.7.3 4.8 2.7 4.5 5.5-.3 2.7-2.7 4.8-5.5 4.5-.3 0-.6-.1-.8-.2h-.2l-.2.3zM1508.3 1234.1l3.5-.4 4.2-.5 5.9-.5 3.5-.3h17l5 .2c3.4.1 7 .5 10.7.8l5.7.7 5.9.9 6 1 6.2 1.3c8.7 2 17.3 4.5 25.7 7.6 18.2 6.8 35.3 16.1 50.9 27.6l5.9 4.5 5.7 4.7 5.5 4.9 5.2 5.1c6.7 6.7 12.9 13.8 18.6 21.4 5.3 7.1 10.2 14.5 14.5 22.2 2.1 3.6 3.9 7.3 5.7 10.8l2.4 5.3 1.2 2.6 1.1 2.6c2.5 6.2 4.8 12.4 6.7 18.8 1.7 5.7 3 10.7 3.9 14.9s1.5 7.5 1.9 9.7l.5 3.5-.7-3.4c-.5-2.2-1.1-5.5-2.2-9.6s-2.4-9.1-4.3-14.7-4.3-11.9-7.3-18.5l-1.2-2.5-1.2-2.5-2.6-5.2c-1.9-3.4-3.8-7-6-10.5-4.5-7.5-9.5-14.6-15-21.4-5.9-7.2-12.2-14-19-20.4l-5.3-4.8-5.5-4.6-5.7-4.4-5.9-4.2c-15.5-10.7-32.4-19.2-50.2-25.2-8.2-2.7-16.5-4.9-25-6.5l-6-1.1-5.8-.8-5.6-.6-5.5-.5c-3.6-.2-7-.5-10.2-.4h-13.4l-3.9.3-3.6.2-3.2.4-5.5.6-4.2.6-3.5.5c-2.7.4-5.3-1.5-5.7-4.2-.4-2.7 1.5-5.3 4.2-5.7h.2l-.2-.3zM1710.5 1243.1l-6.4-2.6-7.4-3-9.7-3.5-5.6-1.9-6-1.8-6.4-1.9-6.7-1.7-7-1.8-7.2-1.5-3.6-.8-3.7-.7-7.4-1.3-3.7-.6-3.7-.5-7.4-1-7.3-.8-3.6-.4-3.5-.3-6.9-.5-6.6-.3-6.3-.2h-5.8l-10.2.2-7.8.4-5 .4-1.8.2h-.1c-2.8.2-5.2-1.8-5.5-4.5-.2-2.8 1.8-5.2 4.6-5.5h15.6l10.5.5 6 .5 6.4.6 6.7.7 7 1 3.6.5 3.6.6 7.4 1.2 7.4 1.5 3.7.8 3.7.9 7.4 1.8 3.7 1 3.6 1 7.2 2 6.9 2.2 6.7 2.2 6.3 2.3 6 2.2 5.5 2.3 9.5 4.1 7.2 3.5 6.1 2.5z"/>
    <path fill="#31323D" d="M1520.8 1260.9h2.7c1.8-.1 4.4-.1 7.6 0 9 .3 18 1.5 26.8 3.7 5.8 1.5 11.6 3.4 17.1 5.8 6.2 2.7 12.1 5.9 17.7 9.8 5.9 4.1 11.4 8.9 16.2 14.2l1.8 2 1.8 2.2c1.2 1.4 2.3 2.9 3.4 4.4 2.2 3 4.2 6.1 6 9.3 3.6 6.4 6.5 13.2 8.7 20.2 2.1 6.7 3.5 13.7 4.3 20.7.7 6.5.9 13.1.5 19.7-.3 5.8-1.1 11.7-2.3 17.4-1 4.8-2.3 9.6-3.9 14.3-1.4 4.2-2.9 7.7-4.1 10.6s-2.4 5.1-3.2 6.6l-1.2 2.3 1.1-2.4c.7-1.5 1.7-3.8 2.9-6.7s2.5-6.5 3.7-10.7c1.4-4.7 2.5-9.5 3.3-14.3.9-5.7 1.5-11.4 1.6-17.2.1-6.4-.3-12.9-1.3-19.2-1-6.7-2.7-13.4-5-19.8-2.4-6.6-5.5-12.9-9.2-18.9-1.8-3-3.8-5.8-6-8.6-1.1-1.3-2.2-2.7-3.4-4l-1.7-1.9-1.9-1.9c-9.2-9.2-20.3-16.3-32.5-20.9-5.2-2-10.6-3.6-16.1-4.7-8.2-1.7-16.6-2.5-25-2.4-3 0-5.4.2-7 .3l-1.8.2h-.7c-2.7.5-5.3-1.2-5.9-3.9s1.2-5.3 3.9-5.9c.3-.1.7-.1 1-.1h.2l-.1-.2zM1531.2 1382.7l-.6 2c-.2.7-.4 1.4-.8 2.4l-1.4 3.4-1.9 4c-.8 1.4-1.6 3-2.6 4.6-2.3 3.6-4.9 7-7.8 10.1-3.5 3.7-7.3 7.1-11.5 10-4.7 3.3-9.7 6-14.9 8.2-2.8 1.2-5.6 2.2-8.5 3-3 .9-6 1.6-9 2.1-6.2 1.1-12.4 1.6-18.7 1.5-6.3-.2-12.5-.9-18.6-2.3-3-.7-5.9-1.5-8.8-2.5-2.8-.9-5.6-2-8.3-3.2l-1-.4-.5-.2-.4-.2h-.2l-1.8-.9-3.8-2c-2.5-1.4-4.8-2.8-7.1-4.3-4.1-2.8-8.1-5.9-11.7-9.3-3-2.9-5.9-6-8.5-9.3-2-2.5-3.8-5.2-5.5-7.9-.7-1.1-1.3-2.2-1.8-3.1l-1.2-2.3-.9-2c-.6-1.2-.2-2.7 1.1-3.4 1-.5 2.3-.3 3 .6h.1l1.4 1.5c.8 1 2.2 2.4 3.9 4.2s3.9 3.8 6.4 6.1c2.8 2.5 5.8 4.8 8.9 7 3.6 2.5 7.4 4.8 11.3 6.9 2.1 1.1 4.3 2.2 6.5 3.1l3.4 1.4 1.9.8 1.7.6 3.6 1.2 3.7 1.1c2.5.7 5.1 1.3 7.7 1.8 5.2 1 10.6 1.6 15.9 1.7 5.3.1 10.6-.2 15.9-1l3.9-.7 3.8-.8c2.5-.6 4.9-1.3 7.3-2.1 4.6-1.5 9-3.5 13.2-5.8 3.8-2.1 7.4-4.6 10.8-7.3 2.9-2.3 5.6-4.9 8.1-7.6 1.2-1.2 2.1-2.5 3.1-3.5l2.5-3.2 1.8-2.6c.6-.7 1-1.5 1.3-2.1l1.1-1.8c.7-1.2 2.3-1.7 3.5-1 1.2.7 1.7 2.3 1 3.5z"/>
  </g>
</svg>