<?xml version="1.0" encoding="utf-8"?>
<svg viewBox="0 0 3000 3000" xmlns="http://www.w3.org/2000/svg">
  <g id="mouth">
    <path fill="#FFF" stroke="#31323D" stroke-width="7" stroke-linecap="round" stroke-miterlimit="10" d="M1427.1 1274.9l-10.1 99.2c-1.7 16.7-24.5 20.1-31 4.6l-13.8-33.1 29.1-24 25.8-46.7zM1443.5 1266.7l21.6 94.4c6.5 23.2 39.3 23.5 46.2.4l13.8-46.1"/>
    <path opacity=".2" fill="#595959" d="M1308.5 1471.3s23.7 133.7 171.7 123.7c126.5-8.5 126.4-147.7 126.4-147.7s-33.9 95.7-163.1 97.7c-81.8-5.5-135-73.7-135-73.7z"/>
    <path fill="#31323D" d="M1371.7 1227c-2.4-5.4-1.4-11.7 2.6-16.1 8.4-9.3 26.7-23.4 62.2-25.9s53.2 8.7 61.8 17c4.2 4.1 5.6 10.4 3.5 15.9-2.7 7.5-9.5 12.7-17.4 13.5-10 1-23.7 4.9-31.6 17.9-.5.8-1.1 1.6-1.7 2.3l-.3.3c-6.8 7-18 7.3-25 .5l-.3-.3s-8.1-12-35-12.4c-8-.2-15.2-5-18.5-12.3v-.4h-.3z"/>
    <path fill="#31323D" d="M1446.8 1255.9l.4.6.5.6.7.9c1.1 1.4 2.9 3.5 5.3 6s5.4 5.6 9 8.9 7.9 6.8 12.7 10.5c2.5 1.8 5 3.7 7.7 5.4l4.2 2.7 4.4 2.7c6.3 3.7 12.8 7 19.5 9.9 3.4 1.6 7.1 2.8 10.7 4.2l5.6 1.8c1.9.6 3.8 1.2 5.7 1.7l5.8 1.5c1.9.5 3.9.8 5.9 1.2l3 .6 1.5.3 1.5.2 6 .8 3 .4 3 .2 6.1.5h12.1l6-.3h3l3-.2 5.9-.6 2.9-.3 2.9-.4 11.2-1.9 10.6-2.5c1.7-.4 3.4-.9 5.1-1.4l4.9-1.4 4.7-1.4 4.5-1.6 8.4-3 3.8-1.5 3.6-1.5 6.5-2.8 2.9-1.3 2.6-1.3 10.3-5h.1c.7-.4 1.7-.1 2.1.6.4.7.1 1.7-.7 2.1l-10.1 5.5-2.6 1.4-2.8 1.5-6.5 3.1-3.6 1.7c-1.2.6-2.5 1.2-3.8 1.7l-8.4 3.4-4.5 1.8-4.8 1.6-4.9 1.7c-1.7.6-3.4 1.2-5.1 1.6l-10.8 3-11.4 2.5-2.9.5-3 .5-6 .9-3.1.4-3.1.3-6.2.6-6.3.2-6.4.2-6.4-.2h-3.2l-3.2-.2-6.4-.6h-1.9l-1.6-.2-3.2-.5c-2.1-.3-4.2-.6-6.3-1l-6.2-1.3c-2.1-.4-4.1-1-6.1-1.5l-6-1.6c-3.9-1.3-7.9-2.4-11.6-4-7.3-2.7-14.4-5.9-21.3-9.6l-4.8-2.6-4.6-2.7c-3-1.8-5.8-3.7-8.5-5.5-5.3-3.7-10.1-7.3-14.1-10.7s-7.5-6.5-10.2-9.2-4.8-4.9-6.2-6.5l-.9-1-.7-.8-.5-.6c-2.8-3-2.6-7.8.4-10.6s7.8-2.6 10.6.4c.2.2.3.4.6.5l.1.3h.1l-.2-.3z"/>
    <path fill="#31323D" d="M1177.3 1333.3l3.2 1.8c2.1 1.1 5.2 2.8 9.2 4.8 11.1 5.4 22.6 10.1 34.3 14 7.3 2.4 15.2 4.7 23.7 6.7 8.9 2.1 17.9 3.6 27 4.5 9.7 1 19.4 1.2 29.1.6 9.9-.7 19.7-2.4 29.3-5.1 4.8-1.4 9.4-3 14-4.9 2.2-1 4.5-1.9 6.7-3.1l3.3-1.6 3.2-1.8c8.3-4.7 16-10.4 22.9-16.9 6.5-6.1 12.5-12.7 17.8-19.9 1.2-1.7 2.5-3.4 3.7-5.1l3.4-5.1c2.1-3.4 4.2-6.7 5.9-10 3.7-6.5 6.6-12.8 9.1-18.3s4.4-10.5 5.9-14.7 2.6-7.4 3.3-9.6l1.1-3.4v-.2c1.6-3.8 6-5.6 9.8-4 3.4 1.4 5.3 5.1 4.4 8.7v.3l-1.3 3.5c-.9 2.3-2.1 5.7-3.9 10s-4 9.4-6.8 15.2-6.1 12.3-10.3 19.1c-2 3.4-4.3 6.9-6.7 10.5l-3.8 5.3c-1.3 1.8-2.8 3.5-4.2 5.4-6 7.5-12.7 14.5-20 20.8-7.8 6.8-16.4 12.6-25.5 17.4l-3.5 1.8-3.6 1.7c-2.4 1.2-4.9 2.1-7.3 3.1-5 1.9-10 3.4-15.2 4.7-10.3 2.5-20.7 4-31.3 4.3-10.1.3-20.3-.3-30.3-1.7-9.3-1.3-18.5-3.2-27.6-5.6-8.6-2.3-16.7-5-24-7.7-11.7-4.4-23.1-9.6-34.2-15.5-4-2.1-7.1-3.9-9.2-5.2l-3.2-2c-.8-.4-1-1.4-.6-2.2s1.4-1 2.2-.6zM1542.4 1260.3l7.4-1.2c4.9-.8 11.9-1.9 21-3.1 25-3.3 50.2-5.3 75.4-5.9 35.6-.9 71.3 1 106.6 5.7 19.4 2.6 39.3 6.1 59.3 10.6s40.1 10.1 59.9 16.6 39.2 14 58 22.3l13.9 6.3 13.6 6.7 6.7 3.4 6.6 3.5c4.4 2.3 8.8 4.6 13 7l12.6 7.2 12.1 7.4 3 1.8 2.9 1.9 5.8 3.8 5.7 3.7 5.6 3.8c14.8 10 28.3 20.2 40.4 29.9s22.9 19.1 32.3 27.6c4.6 4.3 9 8.3 12.9 12.1l5.7 5.5 5.1 5.1c3.2 3.2 6 6.1 8.5 8.7l3.4 3.5 2.8 3 5.1 5.5-5.1-5.4-2.8-2.9-3.4-3.5c-2.5-2.5-5.3-5.4-8.6-8.5l-5.1-5-5.7-5.4c-4-3.8-8.4-7.7-13.1-11.9-9.5-8.3-20.3-17.6-32.7-27.1s-25.9-19.5-40.8-29.2l-5.6-3.7-5.8-3.6-5.8-3.7-2.9-1.8-3-1.8-12.2-7.2-12.6-7c-4.2-2.4-8.6-4.5-13-6.8l-6.6-3.4-6.7-3.2-13.6-6.4-13.9-6.1c-18.7-7.9-38.2-15.1-57.9-21.3s-39.7-11.4-59.6-15.6-39.6-7.4-58.9-9.6c-35-4.1-70.3-5.4-105.5-4-24.9 1-49.7 3.3-74.3 6.9-8.9 1.3-15.9 2.5-20.6 3.4l-7.3 1.4c-2.7.3-5.2-1.7-5.5-4.5-.2-2.4 1.3-4.7 3.7-5.3h.1l-.5-.2z"/>
    <path fill="#31323D" d="M1342 1293.3l-4.6-.9c-3-.5-7.4-1.3-13.1-2.1-15.7-2.1-31.5-3.1-47.4-3.1-22.5-.1-44.9 2.1-66.9 6.4-12.4 2.5-24.7 5.7-36.7 9.7-12.4 4.1-24.5 9-36.3 14.7-11.8 5.7-23.1 12.3-34 19.6-5.4 3.5-10.5 7.5-15.7 11.2s-10 7.9-14.5 12.1l-3.5 3-3.3 3.1-6.5 6.3-6.1 6.4c-2 2.1-3.9 4.3-5.8 6.4-7.1 8-13.7 16.4-19.9 25.1-5.7 8.1-10.6 15.8-14.7 22.8l-2.9 5.1-2.6 4.8c-1.6 3.1-3.1 5.9-4.4 8.5-2.6 5.2-4.5 9.3-5.7 12.2l-1.9 4.4 1.8-4.4c1.2-2.9 3-7.1 5.5-12.3 1.2-2.7 2.7-5.5 4.2-8.7l2.5-4.8c.9-1.7 1.8-3.4 2.8-5.2 3.9-7.1 8.6-14.9 14.2-23.2 6-8.9 12.5-17.5 19.4-25.7 1.9-2.2 3.7-4.4 5.7-6.6l6-6.6 6.4-6.5 3.3-3.3 3.4-3.2c4.6-4.4 9.4-8.3 14.3-12.5s10.2-8 15.6-11.7c10.9-7.7 22.3-14.6 34.1-20.7 11.9-6.1 24.1-11.3 36.7-15.8 12.2-4.3 24.6-7.9 37.2-10.7 22.4-5 45.3-7.7 68.2-8.2 16.2-.4 32.5.3 48.6 2.1 5.9.7 10.4 1.3 13.6 1.8l4.8.8c2.7.4 4.6 3 4.2 5.8s-3 4.6-5.8 4.2h-.2v-.3z"/>
    <path fill="#31323D" d="M714.1 1421l5.5-4.7c3.6-3 8.9-7.4 15.7-12.9 13.7-10.9 33.6-26 58.8-42.4 28.7-18.7 58.6-35.3 89.6-49.8 17-8 34.9-15.5 53.4-22.4s37.5-13.2 56.9-18.6 38.8-10 58.3-13.7l14.5-2.6 3.7-.6 3.6-.5 7.2-1.1 7.1-1.1 7.2-.9 7.1-.9 3.5-.4 3.5-.4 13.9-1.4 13.7-1c4.5-.4 9-.5 13.4-.8l6.6-.3 6.5-.2 12.8-.3h12.4l12 .2h5.8l5.7.2 11.1.5 10.5.6 10 .8 9.4.8 8.8.9 8.2 1 14.5 1.9 11.6 1.7 8.6 1.4 7.1 1.2c2.7.5 4.6 3.1 4.1 5.8-.5 2.7-3.1 4.6-5.8 4.1h-.2l-7-1.3-8.4-1.5-11.4-1.9-14.2-2.1-8.1-1.1-8.7-1-9.3-1-9.9-.9-10.4-.8-10.9-.7-5.6-.3-5.8-.2-11.8-.4-12.2-.2h-19.1l-6.5.2c-4.4.2-8.8.2-13.3.5l-13.6.8-13.8 1.1-3.5.3-3.5.4-7 .8-7.1.8-7.1 1-7.2 1-3.6.5-3.6.6-14.4 2.3c-19.3 3.3-38.8 7.6-58 12.7s-38.3 11-56.8 17.6-36.4 13.8-53.4 21.5c-31.1 14-61.2 30.1-90 48.3-25.4 15.9-45.5 30.7-59.3 41.4-6.9 5.3-12.3 9.7-15.9 12.6l-5.9 4.9zM1567.1 1232.8l321.4-34.7h1.1l.8.7 65.5 54-2-.2 85.6-41.8.8-.4.5.6 40.4 45.9h-.9l51.1-61.9-50.2 62.6-.5.6-.5-.5-41.2-45.3 1.3.3-85 43.1-1 .5-.9-.7-66.3-52.9 1.9.5-320.8 39.7c-2.7.5-5.3-1.2-5.9-3.9-.5-2.7 1.2-5.3 3.9-5.9.2 0 .5-.1.7-.1h.1l.1-.2zM1326.7 1314.5l-.6-.2-1.7-.5c-1.6-.4-3.8-1-6.8-1.6-8.2-1.6-16.6-2.4-25-2.2-5.6.1-11.2.7-16.7 1.7-6.2 1.1-12.2 2.9-18 5.2-6.2 2.5-12.2 5.7-17.7 9.5l-2.2 1.5-2 1.6-4 3.3c-2.6 2.3-5.1 4.8-7.5 7.4-4.7 5.2-8.9 10.9-12.4 17-3.4 5.9-6.3 12.1-8.5 18.6-2.1 6.1-3.7 12.3-4.7 18.7-.9 5.7-1.4 11.4-1.5 17.2-.1 4.9.2 9.8.7 14.7.4 4.4 1.1 8.1 1.7 11.2s1.2 5.5 1.6 7.1l.7 2.5-.8-2.5c-.5-1.6-1.2-4-2-7.1s-1.6-6.8-2.2-11.2c-.7-4.9-1.2-9.8-1.3-14.8-.2-5.9.1-11.8.8-17.6.8-6.5 2.1-13 4-19.3 2-6.8 4.6-13.3 7.9-19.6 3.4-6.5 7.5-12.7 12.2-18.3 2.4-2.8 4.9-5.5 7.6-8.1 1.4-1.2 2.7-2.5 4.1-3.7l2.2-1.8 2.1-1.6c5.7-4.4 11.9-8.1 18.5-11 6.1-2.8 12.5-4.9 19.1-6.4 5.9-1.3 11.9-2.2 17.9-2.6 9-.6 18.1-.2 27 1.2 3.2.5 5.8 1 7.5 1.4l2 .5.6.2c2.7.6 4.4 3.2 3.9 5.9-.6 2.7-3.2 4.4-5.9 3.9-.1 0-.3-.1-.4-.1l-.2-.1zM1556 1281.8l2.7-.3 7.9-.7 5.7-.2h6.7c5.3.2 10.6.7 15.9 1.6 13.1 2.2 25.8 6.4 37.5 12.7 6.6 3.6 12.8 7.7 18.5 12.5 5.9 4.9 11.3 10.4 16 16.5 2.4 3 4.6 6.2 6.6 9.5 1 1.7 2 3.3 2.8 5l1.3 2.6 1.2 2.5c.8 1.6 1.5 3.5 2.3 5.2s1.3 3.5 1.9 5.2c1.2 3.4 2.1 7 2.9 10.5 1.4 6.7 2.2 13.5 2.3 20.4.1 6.1-.3 12.2-1.2 18.3-1.3 9-3.5 17.9-6.7 26.5-1.1 3.1-2.2 5.5-2.9 7.1l-1.2 2.4 1-2.5c.7-1.6 1.6-4 2.6-7.2 2.8-8.6 4.7-17.5 5.6-26.5.6-6 .7-12 .4-18-.6-10.2-2.7-20.2-6.3-29.8-.7-1.6-1.3-3.3-2.1-4.9s-1.4-3.2-2.4-4.9c-3.4-6.5-7.4-12.6-12.2-18.2-4.7-5.6-10-10.6-15.8-15-5.6-4.2-11.6-7.9-17.9-11-11.2-5.4-23.2-8.9-35.6-10.4-4.9-.6-9.9-.9-14.8-.9h-6.2l-5.2.4-7.3 1-2.7.4c-2.7.4-5.3-1.4-5.8-4.2s1.4-5.3 4.2-5.8h.2l.1.2zM1610.5 1443.7l-1.1 4-.6 2.2c-.2.8-.5 1.7-.8 2.6l-2.4 6.5c-1 2.4-2.1 5-3.5 7.8l-2.2 4.3-1.2 2.3-1.4 2.3c-.9 1.5-1.8 3.2-2.9 4.8l-3.3 4.9c-.5.9-1.2 1.7-1.8 2.5l-1.9 2.5-2 2.6-2.2 2.5-2.2 2.6-2.4 2.5c-1.6 1.7-3.2 3.5-5 5.1l-2.7 2.5-2.8 2.5-2.9 2.4-3 2.4c-2.1 1.5-4.1 3.2-6.3 4.7s-4.4 3-6.7 4.5l-3.5 2.1-3.6 2.1-3.7 2-3.7 1.9c-10.4 5.1-21.3 9.1-32.5 11.9-11.6 2.9-23.4 4.7-35.3 5.3-6 .3-12 .3-17.9 0s-11.8-.9-17.7-1.7c-11.4-1.6-22.6-4.3-33.5-7.9l-2-.6-1-.3-.6-.2-.5-.2-3.7-1.4c-2.4-.9-5-2-7.5-3.1s-4.9-2.2-7.3-3.3-4.6-2.3-6.9-3.5c-15.6-8.3-29.9-18.8-42.5-31.2-2.5-2.6-4.9-4.9-6.9-7.3l-2.9-3.4-2.6-3.1c-1.7-2-3-3.8-4.2-5.4s-2.2-3-2.9-4.1l-2.3-3.5c-.8-1.1-.5-2.7.7-3.5 1-.7 2.4-.5 3.2.4h.1l2.7 3 3.3 3.6c1.3 1.4 2.8 3 4.6 4.7l2.8 2.7 3.1 2.9c2.2 2 4.6 4.1 7.2 6.3 5.9 4.8 12.1 9.3 18.5 13.5 7.6 4.9 15.4 9.3 23.6 13.1 2.2 1 4.4 2.1 6.6 2.9s4.6 1.9 6.9 2.7l3.5 1.3 3.7 1.3 3.8 1.3.5.2c.1.1-.1 0 0 0h.3l.9.3 1.9.5c10.2 3 20.7 5.2 31.3 6.5 5.4.7 10.9 1.1 16.4 1.3s11 .2 16.5-.1c11-.6 21.8-2.1 32.5-4.7 10.3-2.5 20.4-5.9 30.1-10.2l3.5-1.6 3.4-1.7c2.3-1.1 4.4-2.4 6.6-3.6s4.2-2.5 6.3-3.8 4-2.7 6-4l2.8-2.1 2.8-2.1 2.7-2.1 2.6-2.2c1.8-1.4 3.3-2.9 4.9-4.4l2.3-2.2 2.2-2.2 2.2-2.2 2-2.2c1.3-1.5 2.6-2.9 3.8-4.4l3.5-4.3c1.1-1.4 2.1-2.9 3.1-4.2s3.6-5.5 5.3-7.9 2.8-4.9 4.1-7l2.9-5.8c.4-.8.8-1.7 1.1-2.4l.9-2.1 1.7-3.8c.6-1.4 2.2-2.1 3.6-1.5 1.5.7 2.1 2.3 1.5 3.7z"/>
  </g>
</svg>