<?xml version="1.0" encoding="utf-8"?>
<svg viewBox="0 0 3000 3000" xmlns="http://www.w3.org/2000/svg">
  <g id="highlight">
    <defs>
      <clipPath id="highlightClipPath">
        <path fill="none" d="M1211.5 866.4a240.2 240.2 0 0 1 129.5-37.8h158.2A240.5 240.5 0 0 1 1607 854c24.5-19.2 89.4-68.2 129.3-66.3a15 15 0 0 1 12.1 22.9L1684 914.8a240.5 240.5 0 0 1 47.2 89.2l295.1 960.1a248.1 248.1 0 0 1-6.4 155.9l.8.3c47.5 13.8 136.8 46.1 179.8 75.5 26.1 17.8 10.1 55.9-23.2 55.3l-261.6-5a246.8 246.8 0 0 1-65.3 28c2.8 13.3 12.3 21 28.1 21.9 18.2 1 23.7 18.6 24.5 25.5 2.3 21.2-5.8 34.7-27.9 36.9l-91.8 3a53.5 53.5 0 0 1-22.3-4 71.6 71.6 0 0 1-43.1-54.3l-3.5-20.7h-533.5l-5 26.6a71.4 71.4 0 0 1-8.8 23.9c-13.4 22.8-38.9 35.7-65.3 34.1l-84.3-5c-21.4-1.6-31.9-18.9-27.2-40.4 2.5-11.1 15.1-20.3 30.6-21.1 23.3-1.2 30.3-20.2 29.9-43.6v-3.3q-7.1-3.7-13.9-7.9L770 2251c-33.3.6-49.7-38.2-23.2-55.3 54-34.9 146.4-69.2 184.5-78.3l.6-.2a248.9 248.9 0 0 1-12.6-117.6l182.9-961.4a240.3 240.3 0 0 1 33-93.8l-60.5-108.1a15 15 0 0 1 .9-16c24.9-34.9 89.3 8.5 130.8 42.6z"/>
      </clipPath>
      <linearGradient id="highlightLinearGradient" x1="1844.99" x2="1844.99" y1="2256.39" y2="835.98" gradientUnits="userSpaceOnUse">
        <stop offset="0" stop-color="#fff" stop-opacity="0"/>
        <stop offset="0.72" stop-color="#fff"/>
      </linearGradient>
    </defs>
    <g clip-path="url(#highlightClipPath)" opacity=".2" style="mix-blend-mode:overlay">
      <path fill="url(#highlightLinearGradient)" d="M1547.8 836.6s29 33.5 51 64.8 44.1 86.3 65.6 181c58.9 258.7 229.4 683.2 275.5 888s-51.2 286-51.2 286l61.1-35.5s63-74.8 72.5-107.6c20.8-71.9 139-33 117.2-147.7-31.7-166.5-305.7-970.5-305.7-970.5s-123.4-29.9-151.2-79.3c-20.7-36.8-73.2-64.7-124.1-79.9z"/>
    </g>
  </g>
  <g id="mouth">
    <path fill="#F29CB1" d="M1396.7 1320.2s-1.1 40.1 49.6 40.8 51.7-69.9 51.7-69.9l-61.2-34.5-40.1 63.6z"/>
    <path fill="none" stroke="#DB829B" stroke-width="25" stroke-linecap="round" stroke-miterlimit="10" d="M1439.2 1261l7.4 61.7"/>
    <path fill="#31323D" d="M1447.3 1246.8l.4.6.5.6.8.9c1.2 1.4 2.9 3.4 5.4 5.9s5.5 5.5 9.1 8.7 8 6.7 12.8 10.3c2.5 1.7 5 3.6 7.8 5.3l4.2 2.7 4.4 2.6c6.3 3.6 12.9 6.8 19.6 9.5 3.5 1.5 7.1 2.7 10.8 4l5.6 1.7c1.9.6 3.8 1.2 5.7 1.6l5.8 1.4 5.9 1.1 3 .5 1.5.3 1.5.2 6.1.7 3 .3 3 .2 6.1.4h12.1l6-.4 3-.2 3-.3 5.8-.7 2.9-.4 2.9-.4 11.1-2.1 10.6-2.6c1.7-.4 3.4-.9 5-1.5l4.9-1.5 4.7-1.5 4.4-1.6 8.3-3.1 3.8-1.6 3.6-1.6 6.5-2.9 2.8-1.4 2.6-1.3 10.2-5.1h.1c1-.2 1.9.4 2.2 1.3.1.6-.1 1.3-.6 1.8l-10.1 5.6-2.5 1.4-2.8 1.5-6.4 3.2-3.6 1.8c-1.2.6-2.5 1.3-3.8 1.8l-8.3 3.6-4.5 1.9-4.7 1.7-4.9 1.8c-1.7.6-3.3 1.2-5.1 1.7l-10.7 3.2-11.4 2.7-2.9.6-3 .5-6 1-3.1.4-3.1.3-6.2.7-6.3.3-6.4.2h-9.6l-3.2-.2-6.4-.5h-1.6l-1.6-.2-3.2-.4c-2.1-.3-4.2-.5-6.3-.9l-6.3-1.2c-2.1-.4-4.1-.9-6.2-1.4l-6.1-1.6c-4-1.3-7.9-2.3-11.7-3.8-7.3-2.6-14.5-5.7-21.4-9.3l-4.8-2.6-4.6-2.7c-3-1.7-5.9-3.6-8.6-5.3-5.4-3.6-10.2-7.1-14.3-10.5s-7.6-6.4-10.3-9.1-4.9-4.8-6.3-6.4l-.9-1-.7-.8-.5-.6c-2.7-3.1-2.3-7.9.8-10.6 3.1-2.7 7.9-2.3 10.7.8l.1.2h.1l-.2-.2z"/>
    <path fill="#31323D" d="M1178.7 1328.5l3.2 1.7c2.1 1.1 5.3 2.6 9.4 4.5s9.1 4 14.9 6.3 12.4 4.6 19.7 6.9 15.3 4.4 23.9 6.2c8.9 1.9 18 3.2 27.1 4 9.7.8 19.3.8 29 0 9.9-.8 19.6-2.6 29.1-5.5 4.7-1.4 9.4-3.1 13.9-5.1 2.2-1.1 4.5-2 6.6-3.2l3.2-1.7 3.1-1.8c8.2-4.8 15.8-10.5 22.6-17.1 6.4-6.1 12.3-12.8 17.5-20 1.2-1.7 2.5-3.4 3.6-5.1l3.3-5.1c2-3.5 4.1-6.7 5.8-10.1 3.6-6.5 6.4-12.8 8.9-18.4s4.3-10.6 5.7-14.7c.8-2.1 1.4-3.9 2-5.5.6-1.4 1.3-2.7 2.1-3.9.6-.8 1.2-1.5 1.9-2.2l.8-.7h.2c2.7-2 6.5-1.3 8.5 1.4.4.5.7 1.2.9 1.8.1.4.2.7.2 1.1.1 1 .2 2 .1 3-.1 1.6-.3 3.1-.7 4.6-.6 2-1.3 3.9-2.1 5.8-1.6 4.3-3.8 9.5-6.5 15.4s-5.9 12.4-9.9 19.3c-1.9 3.5-4.2 7-6.5 10.6l-3.7 5.4c-1.3 1.8-2.7 3.6-4.1 5.4-5.9 7.7-12.5 14.8-19.7 21.2-7.7 6.9-16.2 12.9-25.3 17.9l-3.5 1.9-3.6 1.7c-2.4 1.2-4.9 2.2-7.3 3.2-5 2-10 3.6-15.2 5-10.2 2.7-20.7 4.2-31.3 4.7-10.2.4-20.3-.1-30.4-1.4-9.3-1.2-18.6-3-27.7-5.4-8.7-2.3-16.7-4.9-24-7.6-11.8-4.3-23.2-9.4-34.3-15.3-4-2.1-7.1-3.9-9.2-5.1l-3.2-2c-.5-.4-.6-1.2-.2-1.7.3-.3.8-.5 1.2-.4z"/>
    <path fill="#31323D" d="M1372.7 1227.7c-2.5-5.4-1.6-11.7 2.3-16.1 8.2-9.4 26.4-23.8 61.9-26.8s53.3 8 62 16.1c4.3 4.1 5.8 10.3 3.8 15.9-2.7 7.5-9.3 12.8-17.2 13.7-10 1.1-23.6 5.2-31.4 18.4-.5.8-1.1 1.6-1.7 2.3l-.3.3c-6.7 7.1-17.9 7.5-25 .9l-.3-.3s-8.2-11.9-35.2-11.9c-8.1-.1-15.4-4.8-18.7-12.1l-.2-.4zM1541.9 1245.8l7.3-1.5c4.8-1 11.9-2.4 20.9-4 24.9-4.3 49.9-7.3 75.1-9 35.6-2.3 71.3-1.9 106.8 1.3 19.5 1.8 39.5 4.5 59.7 8.2s40.5 8.4 60.5 14.2 39.8 12.4 58.8 19.9l14.2 5.8 13.8 6.1 6.8 3.1 6.7 3.2c4.5 2.2 8.9 4.2 13.2 6.5l12.9 6.7 12.4 6.9 3.1 1.7 3 1.8 6 3.5 5.9 3.5 5.7 3.6c15.2 9.4 29.1 19 41.6 28.2s23.7 18.2 33.4 26.3c4.8 4.1 9.3 7.9 13.4 11.6l5.9 5.2 5.3 4.9c3.4 3.1 6.3 5.9 8.8 8.3l3.5 3.4 2.9 2.9 5.3 5.3-5.4-5.2-2.9-2.8-3.6-3.3c-2.6-2.4-5.5-5.2-8.9-8.2l-5.3-4.8-5.9-5.1c-4.1-3.6-8.7-7.3-13.6-11.4-9.8-7.9-21-16.7-33.7-25.7s-26.6-18.4-41.9-27.5l-5.8-3.5-5.9-3.4-6-3.4-3-1.7-3.1-1.6-12.5-6.7-12.9-6.4c-4.3-2.2-8.8-4.2-13.2-6.3l-6.7-3.1-6.9-3-13.9-5.9-14.2-5.5c-19.1-7.1-38.7-13.5-58.7-18.9s-40.2-9.8-60.2-13.1-39.9-5.7-59.2-7.2c-35.2-2.6-70.5-2.5-105.6.3-24.8 2-49.5 5.3-74 10-8.9 1.7-15.8 3.2-20.5 4.2l-7.3 1.7c-2.7.6-5.4-1.1-6-3.8s1.1-5.4 3.8-6h.1v-.3zM1352.1 1284.6l-4.7-.7c-3-.4-7.5-1-13.2-1.6-15.8-1.5-31.6-2-47.4-1.4-22.4.8-44.7 3.7-66.6 8.8-12.3 2.9-24.4 6.6-36.3 11-12.3 4.5-24.2 9.9-35.8 16-11.6 6.1-22.7 13.1-33.3 20.8-5.3 3.7-10.3 7.8-15.3 11.8s-9.7 8.3-14 12.6l-3.3 3.2-3.2 3.3-6.3 6.5-5.9 6.6c-1.9 2.2-3.7 4.4-5.6 6.6-6.8 8.2-13.1 16.9-19 25.8-5.4 8.3-10.1 16.2-13.8 23.3-1 1.8-1.9 3.5-2.7 5.2l-2.5 4.9c-1.5 3.2-2.9 6-4.1 8.7-2.4 5.3-4.1 9.5-5.3 12.4l-1.8 4.4 1.7-4.5c1.1-2.9 2.7-7.2 5-12.5 1.1-2.7 2.5-5.6 3.9-8.8l2.4-4.9c.8-1.7 1.7-3.5 2.6-5.3 3.6-7.3 8.1-15.2 13.3-23.7 5.7-9.1 11.9-17.9 18.5-26.4 1.8-2.2 3.5-4.6 5.4-6.8l5.8-6.8c2-2.3 4.1-4.5 6.2-6.7l3.2-3.4 3.3-3.3c4.4-4.5 9.1-8.7 13.9-13s9.9-8.4 15.2-12.3c10.6-8.1 21.7-15.4 33.3-21.9 11.6-6.5 23.7-12.2 36.1-17.1 12-4.8 24.3-8.8 36.8-12.1 22.2-5.7 44.9-9.3 67.8-10.6 16.2-1 32.5-.9 48.7.3 5.9.4 10.5.9 13.6 1.3l4.8.6c2.7.5 4.5 3.1 4 5.8-.5 2.5-2.8 4.3-5.3 4.1h-.2l.1-.2z"/>
    <path fill="#31323D" d="M718.2 1438.8l5.3-4.8c3.5-3.1 8.6-7.7 15.2-13.4 13.3-11.4 32.6-27.2 57.2-44.5 28-19.7 57.3-37.4 87.7-53 16.7-8.6 34.3-16.8 52.5-24.4s37-14.5 56.1-20.6 38.5-11.4 57.7-15.8l14.4-3.1 3.6-.8 3.6-.7 7.1-1.3 7.1-1.3 7.1-1.1 7.1-1.1 3.5-.6 3.5-.5 13.9-1.9 13.7-1.5c4.5-.5 9-.8 13.4-1.2l6.6-.6 6.5-.4 12.7-.7 12.4-.5 12-.2h22.6l10.6.3 10 .4 9.5.5 8.9.6 8.2.7 14.5 1.4 11.7 1.3 8.6 1.1 7.2 1c2.7.5 4.5 3.1 4 5.8-.5 2.5-2.8 4.3-5.3 4.1h-.2l-7.1-1.1-8.5-1.2-11.5-1.5-14.3-1.6-8.1-.8-8.8-.7-9.3-.6-9.9-.6-10.4-.4-10.9-.3h-23.2l-12.2.3-12.6.5-6.4.3-6.5.5c-4.4.3-8.8.5-13.3 1l-13.5 1.3-13.8 1.6-3.5.4-3.5.5-7 1-7 1-7.1 1.2-7.1 1.2-3.6.6-3.5.7-14.3 2.9c-19.2 4-38.5 9-57.5 14.8s-37.9 12.4-56.1 19.6-35.9 15.1-52.6 23.4c-30.6 15.1-60 32.3-88.2 51.5-24.8 16.8-44.4 32.4-57.8 43.5-6.7 5.6-11.9 10.1-15.4 13.2l-5.7 4.6zM1565.4 1217.3l93.6-11.7 45.3-5.7 24.7-3.1 12.8-1.6 6.6-.8 6.6-.7 6.6-.7 6.7-.6 13.7-.9c2.3-.2 4.6-.2 6.9-.3l6.9-.2 7-.2h7c9.3-.1 18.7.5 28.2 1l14.1 1.2 3.5.3 3.5.4 7.1.9 7.1.9 7 1.1 7 1.1 3.5.6 3.5.7 13.8 2.8 13.6 3.3 3.4.8 3.4.9 6.7 1.9 6.7 1.9 6.5 2.1 6.5 2.1c2.2.7 4.3 1.3 6.4 2.1l12.6 4.6 6.2 2.4 6.1 2.5 6 2.5 5.9 2.6 11.5 5.2 11 5.5 10.7 5.5 10.3 5.4 19.5 10.2 83.5 43.7-84.3-42.3-19.7-9.9-10.4-5.2-10.7-5.3-11.1-5.3-11.5-5-5.9-2.5-6-2.3-6.1-2.4-6.2-2.3-12.6-4.3c-2.1-.8-4.3-1.4-6.4-2l-6.5-2-6.5-2-6.6-1.7-6.7-1.7-3.3-.9-3.4-.8-13.6-3-13.8-2.5-3.4-.6-3.5-.5-7-1-7-1-7-.8-7-.7-3.5-.4-3.5-.3-14-1c-9.3-.3-18.6-.7-27.8-.5h-6.9l-6.9.3-6.8.3c-2.3.1-4.5.2-6.8.4l-13.4 1.1-6.6.7-6.6.8-6.6.8-6.4.9-12.8 1.8-24.7 3.5-45.2 6.4-93.3 13.2c-2.7.3-5.2-1.6-5.6-4.3-.3-2.7 1.5-5.1 4.2-5.6h.1l.1.2zM1337.6 1306.3l-.6-.2-1.8-.4c-1.6-.4-3.9-.8-6.9-1.3-8.3-1.3-16.7-1.7-25.1-1.2-5.6.3-11.1 1.1-16.6 2.3-6.1 1.4-12.1 3.3-17.8 5.9-6.1 2.7-11.9 6.1-17.3 10.2l-2.1 1.6-2 1.6c-1.3 1.1-2.6 2.3-3.9 3.5-2.5 2.4-4.9 4.9-7.2 7.6-4.5 5.4-8.5 11.2-11.8 17.4-3.2 6-5.8 12.4-7.8 18.9-1.9 6.1-3.2 12.4-4 18.8-.7 5.7-1 11.5-.9 17.3.1 4.9.5 9.8 1.2 14.6.6 4.3 1.4 8.1 2.1 11.2s1.4 5.5 1.9 7.1l.7 2.5-.9-2.4c-.6-1.6-1.3-4-2.2-7s-1.8-6.8-2.6-11.1c-.9-4.9-1.5-9.8-1.8-14.7-.4-5.9-.3-11.7.2-17.6.5-6.6 1.6-13 3.3-19.4 1.8-6.8 4.2-13.5 7.2-19.9 3.2-6.6 7-12.9 11.5-18.7 2.3-2.9 4.7-5.7 7.3-8.4 1.3-1.3 2.6-2.6 4-3.9l2.1-1.9 2.1-1.7c5.6-4.6 11.6-8.5 18.1-11.7 6-3 12.4-5.4 18.9-7.1 5.8-1.6 11.8-2.7 17.8-3.3 9-.9 18.1-.8 27.1.2 3.3.4 5.8.8 7.6 1.1l2 .4h.6c2.7.6 4.5 3.2 3.9 5.9s-3.2 4.5-5.9 3.9h-.2l-.2-.1zM1566.4 1264.9l2.7-.4 7.9-1.1 5.6-.4 3.2-.2h3.4c5.3 0 10.6.3 15.9.9 13.2 1.6 26 5.4 38 11.2 6.7 3.3 13.1 7.2 19 11.7 6.1 4.6 11.7 9.9 16.7 15.8 2.5 2.9 4.8 6 7 9.2 1 1.6 2.1 3.2 3 4.9l1.5 2.5 1.3 2.5c.9 1.6 1.7 3.4 2.5 5.1s1.4 3.4 2.1 5.2c3.7 9.8 5.9 20.2 6.5 30.7.4 6.1.2 12.2-.4 18.3-.9 9.1-2.8 18-5.6 26.7-1 3.1-1.9 5.6-2.6 7.2l-1.1 2.5.9-2.5c.6-1.7 1.4-4.1 2.3-7.3 2.4-8.7 3.9-17.7 4.5-26.7.4-6 .3-12-.3-18-1-10.2-3.5-20.1-7.5-29.5-.7-1.6-1.5-3.3-2.3-4.9s-1.6-3.2-2.6-4.8c-3.6-6.4-7.9-12.3-12.9-17.7-4.9-5.3-10.4-10.1-16.4-14.3-5.8-4-11.9-7.5-18.4-10.3-11.4-4.9-23.6-8-36-9-4.9-.4-9.9-.5-14.8-.3l-3.2.2-3 .3-5.2.6-7.2 1.3-2.6.6c-2.7.6-5.3-1.2-5.9-3.9s1.2-5.3 3.9-5.9h.2l-.1-.2zM1520.1 1438.4l-.4 1.8c-.1.6-.2 1.3-.5 2.2l-.9 3.1c-.4 1.1-.8 2.3-1.4 3.6s-1.2 2.7-2 4.2c-1.7 3.3-3.8 6.4-6.1 9.3-2.8 3.5-5.9 6.6-9.3 9.4l-2.9 2.2-3 2.1c-2.1 1.3-4.3 2.6-6.6 3.8s-4.7 2.2-7.2 3.1l-3.8 1.3-3.9 1.1c-5.3 1.3-10.7 2.1-16.2 2.3-5.4.2-10.8-.1-16.2-1-5.1-.9-10.2-2.2-15.1-4l-.9-.3-.4-.2h-.5l-1.6-.7-3.4-1.5c-2.3-1.1-4.3-2.2-6.3-3.4-3.7-2.2-7.3-4.7-10.6-7.5-2.8-2.3-5.4-4.9-7.8-7.6-1.8-2.1-3.5-4.3-5.1-6.6-.7-.9-1.2-1.8-1.7-2.6l-1.2-2-.9-1.7c-.8-1.1-.6-2.7.5-3.5s2.7-.6 3.5.5h.1l1.3 1.2 3.6 3.3c1.5 1.4 3.6 3 5.9 4.8s5 3.6 8 5.4c3.3 1.9 6.6 3.7 10.1 5.2l2.8 1.2 2.9 1.1 3 1 1.7.5 1.5.4c4.3 1.2 8.6 2.1 13 2.6 4.5.5 9.1.7 13.6.5 4.5-.2 9-.8 13.4-1.8l3.2-.8 3.2-.9c2.1-.6 4.1-1.4 6.1-2.2s3.9-1.7 5.7-2.6l2.7-1.4 2.5-1.5c3.1-2 6.1-4.2 8.8-6.6 2.4-2.1 4.6-4.4 6.6-6.8 1.6-1.9 3.1-3.9 4.5-5.9l1.5-2.3c.4-.6.8-1.4 1.1-1.9l.9-1.6c1-.9 2.6-.9 3.5.1.4.5.7 1 .7 1.6z"/>
    <path opacity=".2" fill="#595959" d="M1387.6 1449.1s7.9 72.2 68.5 66.4c58.7-5.7 61.4-73.9 61.4-73.9s-19.4 31.4-57.4 34.1-72.5-26.6-72.5-26.6z"/>
  </g>
</svg>