<?xml version="1.0" encoding="utf-8"?>
<svg viewBox="0 0 3000 3000" xmlns="http://www.w3.org/2000/svg">
  <g id="mouth" style="isolation:isolate">
    <path fill="#31323d" d="M1287.7 1289.4l2.2 1.2c1.4.7 3.6 1.8 6.4 3a120.8 120.8 0 0 0 23.9 7.6c2.5.5 5.2 1 7.9 1.3a83.5 83.5 0 0 0 8.5.6 76.2 76.2 0 0 0 18.1-1.6 66.7 66.7 0 0 0 17.9-6.6 65.5 65.5 0 0 0 8.2-5.3c1.3-.9 2.6-2 3.9-3.1l1.8-1.7 1.8-1.7a96.2 96.2 0 0 0 12.5-15.4 127.5 127.5 0 0 0 9.4-17.1c2.7-5.8 4.8-11.6 6.8-17.1.9-2.8 1.8-5.5 2.6-8.2l1.2-3.9 1-3.8c.7-2.5 1.3-4.9 1.8-7.2l.8-3.3.7-3.2c.9-4.1 1.5-7.7 2.1-10.7s.4-2.8.8-4a10.2 10.2 0 0 1 1.3-2.8 8.9 8.9 0 0 1 1.4-1.6l.6-.5h.1a7.1 7.1 0 0 1 9.7 1.8l.4.7a8.9 8.9 0 0 1 .7 2.1 10.8 10.8 0 0 1 .2 3.2 31.4 31.4 0 0 1-.8 4.1c-.7 3.1-1.5 6.8-2.6 11.1l-.8 3.3-1 3.5c-.7 2.4-1.3 4.9-2.2 7.5l-1.2 4-1.4 4.1c-.9 2.8-2 5.6-3.1 8.6a192.1 192.1 0 0 1-8.1 18 139.3 139.3 0 0 1-11.1 18.1 100.7 100.7 0 0 1-14.9 16.4l-2.1 1.8-2.2 1.8c-1.5 1.1-3 2.3-4.6 3.2a74.9 74.9 0 0 1-9.7 5.5 73.1 73.1 0 0 1-20.6 6.2 76.4 76.4 0 0 1-10.2.8 78.2 78.2 0 0 1-9.7-.4 89.9 89.9 0 0 1-9-1.3c-2.9-.6-5.6-1.2-8.2-2a113.6 113.6 0 0 1-13.9-5c-4-1.7-7.4-3.4-10.2-4.9s-4.8-2.8-6.3-3.7l-2.2-1.4a1.2 1.2 0 0 1 1.4-2z"/>
    <path fill="#31323d" d="M1591.5 1276.6l-2 1.6c-1.3 1-3.3 2.5-5.9 4.3s-5.8 3.8-9.6 5.9a113.6 113.6 0 0 1-13.3 6.3c-2.5 1-5.2 1.9-8 2.8a89.8 89.8 0 0 1-8.9 2.2 78.2 78.2 0 0 1-9.6 1.3 76.4 76.4 0 0 1-10.2.2 73 73 0 0 1-21.1-4.1 74.9 74.9 0 0 1-10.2-4.5c-1.7-.8-3.3-1.8-4.9-2.8l-2.3-1.5-2.3-1.6a100.7 100.7 0 0 1-16.4-14.9 139.3 139.3 0 0 1-12.8-17 192.1 192.1 0 0 1-9.8-17.1c-1.3-2.8-2.7-5.5-3.9-8.2l-1.8-3.9-1.6-3.8c-1.1-2.5-2-4.9-2.9-7.2l-1.3-3.4-1.1-3.2c-1.5-4.1-2.7-7.8-3.6-10.8a31.5 31.5 0 0 1-1.2-4 10.8 10.8 0 0 1-.1-3.2 8.9 8.9 0 0 1 .5-2.1l.3-.8a7.1 7.1 0 0 1 9.5-2.7h.2l.7.5a8.9 8.9 0 0 1 1.6 1.5 10.2 10.2 0 0 1 1.6 2.7c.5 1.1.7 2.4 1.1 3.9s1.8 6.4 3.1 10.4l1 3.1 1.1 3.3c.8 2.2 1.5 4.6 2.5 7l1.4 3.7 1.5 3.8c1 2.6 2.2 5.2 3.4 7.9 2.5 5.3 5.2 10.9 8.4 16.4a127.5 127.5 0 0 0 11 16.1 96.2 96.2 0 0 0 14 14.1l2 1.5 2 1.5c1.4.9 2.7 1.9 4.1 2.7a65.5 65.5 0 0 0 8.7 4.5 66.7 66.7 0 0 0 18.5 4.8 76.2 76.2 0 0 0 18.2-.2 83.6 83.6 0 0 0 8.4-1.5c2.7-.6 5.3-1.3 7.8-2.1a120.8 120.8 0 0 0 23-9.9c2.7-1.5 4.7-2.7 6.1-3.6l2.1-1.4a1.2 1.2 0 0 1 1.5 1.8z"/>
    <path fill="#31323d" d="M1376.8 1171.3a12.7 12.7 0 0 1 2.4-13.7c7.2-7.8 23-19.6 53.2-21.3s45.1 8.1 52.3 15.2a12.6 12.6 0 0 1 2.8 13.6 17.7 17.7 0 0 1-15 11.2c-8.5.7-20.2 3.8-27.1 14.8a11.2 11.2 0 0 1-1.5 1.9l-.3.3a15 15 0 0 1-21.5-.1s-6.7-10.3-29.6-10.9a17.6 17.6 0 0 1-15.6-10.7v-.3zm135 163.1l-.4 1.8c-.2.6-.3 1.3-.5 2.2l-1 3-1.4 3.6c-.6 1.3-1.2 2.7-2.1 4.1a56.1 56.1 0 0 1-6.3 9.2 63 63 0 0 1-9.6 9.2l-2.9 2.1-3.1 2c-2.1 1.3-4.4 2.5-6.7 3.6s-4.8 2.1-7.3 3l-3.8 1.2-3.9 1a77.5 77.5 0 0 1-16.2 1.9 81.8 81.8 0 0 1-16.2-1.4 83.6 83.6 0 0 1-15.1-4.4l-.9-.3-.4-.2h-.5l-1.6-.7-3.3-1.6c-2.3-1.1-4.3-2.3-6.3-3.5a76.6 76.6 0 0 1-10.4-7.7 75.2 75.2 0 0 1-7.6-7.8 71.2 71.2 0 0 1-5-6.7c-.7-.9-1.2-1.8-1.6-2.6l-1.1-2-.9-1.7a2.5 2.5 0 0 1 4-2.9h.1l1.2 1.3 3.5 3.4c1.5 1.5 3.5 3.1 5.7 4.9s4.9 3.7 7.9 5.5a91.1 91.1 0 0 0 9.9 5.4l2.8 1.2 2.8 1.1 3 1.1 1.6.6 1.4.4a85.9 85.9 0 0 0 12.9 2.9 81.5 81.5 0 0 0 13.5.8 80.6 80.6 0 0 0 13.4-1.4l3.2-.7 3.2-.8c2.1-.6 4.1-1.3 6.1-2s3.9-1.6 5.7-2.5l2.7-1.4 2.6-1.5a65.7 65.7 0 0 0 8.9-6.4 60.7 60.7 0 0 0 6.7-6.6 72.4 72.4 0 0 0 4.6-5.8l1.5-2.2c.5-.6.8-1.3 1.1-1.8l1-1.6a2.5 2.5 0 0 1 5.1 1.7z"/>
    <path fill="#595959" d="M1379.1 1342.1s6.2 72.4 67 67.9c58.8-4.3 63-72.5 63-72.5s-20.1 31-58.2 32.8-71.8-28.2-71.8-28.2z" opacity=".2" style="mix-blend-mode:multiply"/>
    <path fill="#31323d" d="M1503.1 1227l7.4-1.1c4.9-.7 12-1.7 21.1-2.8a703.9 703.9 0 0 1 75.5-4.6 689 689 0 0 1 106.5 7.6c19.3 2.9 39.2 6.8 59.1 11.6s39.9 10.8 59.6 17.7 39 14.7 57.6 23.3l13.8 6.6 13.5 6.9 6.6 3.5 6.5 3.6c4.3 2.4 8.7 4.7 12.8 7.3l12.5 7.4 12 7.6 3 1.9 2.9 1.9 5.7 3.9 5.7 3.8 5.5 3.9c14.6 10.2 27.9 20.7 39.9 30.6s22.6 19.5 31.8 28.2c4.6 4.4 8.9 8.4 12.7 12.3l5.6 5.6 5 5.2c3.2 3.2 5.9 6.2 8.3 8.8l3.3 3.6 2.7 3 5 5.6-5.1-5.5-2.8-3-3.4-3.5c-2.4-2.5-5.2-5.5-8.4-8.7l-5-5.1-5.6-5.5c-3.9-3.8-8.2-7.8-12.9-12.1-9.4-8.5-20-17.9-32.2-27.6s-25.5-19.9-40.3-29.9l-5.5-3.8-5.7-3.7-5.8-3.8-2.9-1.9-3-1.8-12.1-7.4-12.5-7.2c-4.2-2.5-8.5-4.7-12.9-7l-6.5-3.5-6.7-3.4-13.5-6.7-13.8-6.3c-18.6-8.2-37.9-15.7-57.5-22.3s-39.5-12.1-59.3-16.6-39.5-8.1-58.7-10.6a681.3 681.3 0 0 0-105.4-5.9 694.9 694.9 0 0 0-74.5 5.6c-8.9 1.2-15.9 2.3-20.7 3l-7.3 1.2a5 5 0 1 1-1.6-9.9h.1zm-131 7.6l-4.7-.7c-3-.4-7.5-1-13.2-1.6a355.2 355.2 0 0 0-47.4-1.4 343.7 343.7 0 0 0-66.6 8.8 312.1 312.1 0 0 0-36.3 11 298.6 298.6 0 0 0-35.8 16 277.7 277.7 0 0 0-33.3 20.8c-5.3 3.7-10.3 7.8-15.3 11.8s-9.7 8.3-14 12.6l-3.3 3.2-3.2 3.3-6.3 6.5-5.9 6.6c-1.9 2.2-3.7 4.4-5.6 6.6a289.3 289.3 0 0 0-19 25.8c-5.4 8.3-10.1 16.2-13.8 23.3-1 1.8-1.9 3.5-2.7 5.2l-2.5 4.9c-1.5 3.2-2.9 6-4.1 8.7-2.4 5.3-4.1 9.5-5.3 12.4l-1.8 4.4 1.7-4.5c1.1-2.9 2.7-7.2 5-12.5 1.1-2.7 2.5-5.6 3.9-8.8l2.4-4.9c.8-1.7 1.7-3.5 2.6-5.3 3.6-7.3 8.1-15.2 13.3-23.7a291.4 291.4 0 0 1 18.5-26.4c1.8-2.2 3.5-4.6 5.4-6.8l5.8-6.8c2-2.3 4.1-4.5 6.2-6.7l3.2-3.4 3.3-3.3c4.4-4.5 9.1-8.7 13.9-13s9.9-8.4 15.2-12.3a282.2 282.2 0 0 1 33.3-21.9 304.1 304.1 0 0 1 36.1-17.1 318.5 318.5 0 0 1 36.8-12.1 351.3 351.3 0 0 1 67.8-10.6 364.3 364.3 0 0 1 48.7.3c5.9.4 10.5.9 13.6 1.3l4.8.6a5 5 0 0 1-1.3 9.9h-.2z"/>
    <path fill="#31323d" d="M738.2 1388.8l5.3-4.8c3.5-3.1 8.6-7.7 15.2-13.4 13.3-11.4 32.6-27.2 57.2-44.5a739.6 739.6 0 0 1 87.7-53c16.7-8.6 34.3-16.8 52.5-24.4s37-14.5 56.1-20.6 38.5-11.4 57.7-15.8l14.4-3.1 3.6-.8 3.6-.7 7.1-1.3 7.1-1.3 7.1-1.1 7.1-1.1 3.5-.6 3.5-.5 13.9-1.9 13.7-1.5c4.5-.5 9-.8 13.4-1.2l6.6-.6 6.5-.4 12.7-.7 12.4-.5 12-.2h22.6l10.6.3 10 .4 9.5.5 8.9.6 8.2.7 14.5 1.4 11.7 1.3 8.6 1.1 7.2 1a5 5 0 0 1-1.3 9.9h-.2l-7.1-1.1-8.5-1.2-11.5-1.5-14.3-1.6-8.1-.8-8.8-.7-9.3-.6-9.9-.6-10.4-.4-10.9-.3h-23.2l-12.2.3-12.6.5-6.4.3-6.5.5c-4.4.3-8.8.5-13.3 1l-13.5 1.3-13.8 1.6-3.5.4-3.5.5-7 1-7 1-7.1 1.2-7.1 1.2-3.6.6-3.5.7-14.3 2.9c-19.2 4-38.5 9-57.5 14.8s-37.9 12.4-56.1 19.6-35.9 15.1-52.6 23.4a737.3 737.3 0 0 0-88.2 51.5c-24.8 16.8-44.4 32.4-57.8 43.5-6.7 5.6-11.9 10.1-15.4 13.2zm790-188.9l94.1-6.2 45.6-3 24.9-1.6 12.9-.8 6.6-.4 6.6-.3 6.6-.3 6.7-.2h13.7c2.3-.1 4.6.1 6.9.1l6.9.2 7 .2 7 .5c9.3.5 18.7 1.6 28.1 2.6l14 2 3.5.5 3.5.6 7 1.3 7 1.3 6.9 1.5 6.9 1.5 3.5.8 3.4.9 13.7 3.6 13.4 4.1 3.3 1 3.3 1.1 6.6 2.3 6.5 2.2 6.4 2.5 6.4 2.5c2.1.8 4.2 1.6 6.3 2.5l12.3 5.3 6 2.8 5.9 2.8 5.9 2.8 5.7 3 11.2 5.9 10.7 6.1 10.3 6.1 10 6 18.9 11.3 80.8 48.5-81.6-47.1-19.1-11-10.1-5.8-10.4-5.9-10.8-5.9-11.2-5.7-5.7-2.9-5.9-2.7-5.9-2.7-6-2.7-12.3-5.1c-2.1-.9-4.2-1.6-6.3-2.4l-6.4-2.3-6.4-2.3-6.5-2.1-6.5-2.1-3.3-1.1-3.3-.9-13.4-3.8-13.6-3.3-3.4-.8-3.4-.7-6.9-1.4-6.9-1.4-6.9-1.2-6.9-1.1-3.5-.6-3.5-.5-13.9-1.8c-9.3-.8-18.5-1.8-27.8-2.1l-6.9-.4h-13.7c-2.3 0-4.5-.1-6.8 0l-13.4.3-6.7.3-6.6.4-6.6.4-6.5.5-12.9 1.1-24.8 2-45.5 3.7-94 7.7a5 5 0 1 1-.8-10h.1zm-170.6 56.4l-.6-.2-1.8-.4c-1.6-.4-3.9-.8-6.9-1.3a118.2 118.2 0 0 0-25.1-1.2 106.8 106.8 0 0 0-16.6 2.3 93.4 93.4 0 0 0-17.8 5.9 86.7 86.7 0 0 0-17.3 10.2l-2.1 1.6-2 1.6c-1.3 1.1-2.6 2.3-3.9 3.5a96.2 96.2 0 0 0-7.2 7.6 98.4 98.4 0 0 0-11.8 17.4 106.2 106.2 0 0 0-7.8 18.9 110.3 110.3 0 0 0-4 18.8 119.5 119.5 0 0 0-.9 17.3 117.8 117.8 0 0 0 1.2 14.6c.6 4.3 1.4 8.1 2.1 11.2s1.4 5.5 1.9 7.1l.7 2.5-.9-2.4c-.6-1.6-1.3-4-2.2-7s-1.8-6.8-2.6-11.1a119 119 0 0 1-1.8-14.7 121.6 121.6 0 0 1 .2-17.6 113.1 113.1 0 0 1 3.3-19.4 109.9 109.9 0 0 1 7.2-19.9 102.9 102.9 0 0 1 11.5-18.7 101.4 101.4 0 0 1 7.3-8.4c1.3-1.3 2.6-2.6 4-3.9l2.1-1.9 2.1-1.7a93.1 93.1 0 0 1 18.1-11.7 100.6 100.6 0 0 1 18.9-7.1 114.8 114.8 0 0 1 17.8-3.3 127.2 127.2 0 0 1 27.1.2c3.3.4 5.8.8 7.6 1.1l2 .4h.6a5 5 0 0 1-2 9.8h-.2zm168.9-8.9l2.7-.3 7.9-.6h12.3a128.9 128.9 0 0 1 15.8 1.9 121.4 121.4 0 0 1 37.3 13.4 115.4 115.4 0 0 1 18.3 12.8 106.3 106.3 0 0 1 15.7 16.8 102.7 102.7 0 0 1 6.4 9.6c.9 1.7 1.9 3.3 2.8 5l1.3 2.6 1.1 2.5c.8 1.6 1.5 3.5 2.2 5.2s1.2 3.5 1.8 5.3a103.1 103.1 0 0 1 4.6 31 114.4 114.4 0 0 1-1.5 18.3 128.7 128.7 0 0 1-7.2 26.3c-1.2 3.1-2.3 5.4-3 7l-1.2 2.4 1.1-2.5c.7-1.6 1.7-4 2.7-7.1a127.8 127.8 0 0 0 6-26.4 112.5 112.5 0 0 0 .7-18 100 100 0 0 0-5.7-29.9c-.7-1.7-1.3-3.3-2-5s-1.4-3.2-2.3-4.9a95.2 95.2 0 0 0-11.9-18.4 100.9 100.9 0 0 0-15.6-15.3 109.1 109.1 0 0 0-17.8-11.3 113.8 113.8 0 0 0-35.4-11.1 120.1 120.1 0 0 0-14.8-1.1h-6.2l-5.2.3-7.3.8-2.7.4a5 5 0 1 1-1.5-9.9h.2z"/>
  </g>
</svg>